%TF.GenerationSoftware,KiCad,Pcbnew,9.0.2*%
%TF.CreationDate,2026-02-10T02:01:54-05:00*%
%TF.ProjectId,TransmitterBreakout,5472616e-736d-4697-9474-657242726561,rev?*%
%TF.SameCoordinates,Original*%
%TF.FileFunction,Legend,Bot*%
%TF.FilePolarity,Positive*%
%FSLAX46Y46*%
G04 Gerber Fmt 4.6, Leading zero omitted, Abs format (unit mm)*
G04 Created by KiCad (PCBNEW 9.0.2) date 2026-02-10 02:01:54*
%MOMM*%
%LPD*%
G01*
G04 APERTURE LIST*
%ADD10C,0.150000*%
%ADD11C,0.000000*%
%ADD12C,0.120000*%
G04 APERTURE END LIST*
D10*
G36*
X147324644Y-65568572D02*
G01*
X147291486Y-65598969D01*
X147256670Y-65625514D01*
X147221195Y-65647640D01*
X147184253Y-65666027D01*
X147146481Y-65680447D01*
X147107391Y-65691163D01*
X147025668Y-65701328D01*
X146975217Y-65700217D01*
X146957212Y-65496122D01*
X146995832Y-65495698D01*
X147034581Y-65490744D01*
X147067630Y-65482293D01*
X147099683Y-65469531D01*
X147127000Y-65454177D01*
X147152765Y-65434761D01*
X147165323Y-65423067D01*
X147186247Y-65399399D01*
X147203206Y-65374282D01*
X147215915Y-65348505D01*
X147224820Y-65321592D01*
X147231161Y-65265174D01*
X147222016Y-65204751D01*
X147195983Y-65140135D01*
X147150896Y-65071677D01*
X147104314Y-65019584D01*
X147070865Y-64988842D01*
X147036962Y-64962841D01*
X147002975Y-64941558D01*
X146969011Y-64924794D01*
X146935546Y-64912528D01*
X146902568Y-64904534D01*
X146870625Y-64900737D01*
X146839611Y-64900951D01*
X146810067Y-64905021D01*
X146781869Y-64912842D01*
X146755458Y-64924214D01*
X146730794Y-64939105D01*
X146701780Y-64963497D01*
X146682019Y-64985947D01*
X146666212Y-65009522D01*
X146644177Y-65062048D01*
X146633033Y-65126447D01*
X146631662Y-65148811D01*
X146425581Y-65128820D01*
X146427208Y-65085311D01*
X146433201Y-65040246D01*
X146442982Y-64998037D01*
X146457236Y-64955699D01*
X146474509Y-64917343D01*
X146496122Y-64879791D01*
X146520251Y-64846118D01*
X146548570Y-64813855D01*
X146553296Y-64809055D01*
X146586545Y-64778557D01*
X146621912Y-64751388D01*
X146659104Y-64727723D01*
X146698009Y-64707611D01*
X146738113Y-64691283D01*
X146779516Y-64678686D01*
X146821516Y-64670018D01*
X146864411Y-64665220D01*
X146907400Y-64664387D01*
X146950899Y-64667532D01*
X146994118Y-64674635D01*
X147037490Y-64685815D01*
X147080326Y-64700965D01*
X147122979Y-64720296D01*
X147164915Y-64743681D01*
X147206348Y-64771367D01*
X147246908Y-64803273D01*
X147286654Y-64839628D01*
X147291441Y-64844374D01*
X147329470Y-64885125D01*
X147362733Y-64926394D01*
X147391169Y-64967770D01*
X147415128Y-65009402D01*
X147434679Y-65051054D01*
X147450001Y-65092710D01*
X147461234Y-65134365D01*
X147468440Y-65175771D01*
X147471177Y-65258087D01*
X147458584Y-65339071D01*
X147430750Y-65417885D01*
X147387672Y-65493300D01*
X147329506Y-65563651D01*
X147324644Y-65568572D01*
G37*
G36*
X146962955Y-65902628D02*
G01*
X146785758Y-66079824D01*
X146526009Y-65820075D01*
X146440865Y-65905219D01*
X146564997Y-66300585D01*
X146366990Y-66498593D01*
X146238929Y-66041872D01*
X146203253Y-66052696D01*
X146167184Y-66059339D01*
X146132926Y-66061582D01*
X146098554Y-66059736D01*
X146065562Y-66053950D01*
X146032670Y-66044071D01*
X146000610Y-66030254D01*
X145968838Y-66012198D01*
X145937438Y-65989741D01*
X145906517Y-65962740D01*
X145898871Y-65955260D01*
X145869736Y-65923406D01*
X145845789Y-65891473D01*
X145827294Y-65860436D01*
X145813279Y-65829401D01*
X145803615Y-65798699D01*
X145797952Y-65768070D01*
X145797983Y-65706039D01*
X145800005Y-65697505D01*
X146030574Y-65697505D01*
X146032864Y-65717323D01*
X146049445Y-65754747D01*
X146072138Y-65781993D01*
X146093722Y-65800824D01*
X146115980Y-65814866D01*
X146137197Y-65823620D01*
X146158900Y-65828255D01*
X146202306Y-65825501D01*
X146248328Y-65806491D01*
X146298789Y-65767954D01*
X146307234Y-65759757D01*
X146386463Y-65680529D01*
X146187549Y-65481615D01*
X146108320Y-65560843D01*
X146076376Y-65595687D01*
X146052465Y-65628840D01*
X146039825Y-65653453D01*
X146032481Y-65677400D01*
X146030574Y-65697505D01*
X145800005Y-65697505D01*
X145813242Y-65641642D01*
X145845161Y-65573293D01*
X145896362Y-65499726D01*
X145954871Y-65435114D01*
X146225155Y-65164829D01*
X146962955Y-65902628D01*
G37*
G36*
X146063460Y-66829756D02*
G01*
X146028151Y-66862354D01*
X145992207Y-66890370D01*
X145955769Y-66913950D01*
X145919099Y-66933152D01*
X145882286Y-66948126D01*
X145845648Y-66958915D01*
X145809232Y-66965651D01*
X145773406Y-66968389D01*
X145738199Y-66967225D01*
X145704011Y-66962249D01*
X145639223Y-66941175D01*
X145580919Y-66905937D01*
X145551517Y-66880056D01*
X145525196Y-66851000D01*
X145503639Y-66821347D01*
X145487186Y-66792146D01*
X145474870Y-66762387D01*
X145462075Y-66701542D01*
X145464137Y-66636535D01*
X145481963Y-66564570D01*
X145494524Y-66532054D01*
X145549919Y-66403259D01*
X145556405Y-66388346D01*
X145580666Y-66330679D01*
X145595865Y-66281945D01*
X145598527Y-66260754D01*
X145597075Y-66241588D01*
X145590893Y-66224377D01*
X145579365Y-66209051D01*
X145564800Y-66197209D01*
X145549102Y-66189513D01*
X145516028Y-66186089D01*
X145478785Y-66198191D01*
X145436384Y-66229112D01*
X145429716Y-66235562D01*
X145405627Y-66262393D01*
X145385577Y-66290585D01*
X145356234Y-66351638D01*
X145337485Y-66426314D01*
X145334857Y-66443629D01*
X145135684Y-66420702D01*
X145143241Y-66339516D01*
X145165979Y-66258397D01*
X145203628Y-66180321D01*
X145254796Y-66109319D01*
X145278253Y-66084099D01*
X145310954Y-66054114D01*
X145344882Y-66028147D01*
X145380113Y-66005987D01*
X145416052Y-65987889D01*
X145452592Y-65973779D01*
X145489295Y-65963733D01*
X145525785Y-65957744D01*
X145561887Y-65955764D01*
X145596956Y-65957732D01*
X145631109Y-65963592D01*
X145663542Y-65973132D01*
X145694578Y-65986402D01*
X145723424Y-66003032D01*
X145750443Y-66023221D01*
X145768478Y-66039800D01*
X145791990Y-66066006D01*
X145811339Y-66093166D01*
X145838921Y-66150917D01*
X145852367Y-66213278D01*
X145851741Y-66280425D01*
X145836386Y-66351671D01*
X145821456Y-66391731D01*
X145767140Y-66525492D01*
X145759851Y-66543350D01*
X145738434Y-66597804D01*
X145726067Y-66642984D01*
X145724689Y-66662661D01*
X145727266Y-66680696D01*
X145734363Y-66697317D01*
X145746545Y-66712748D01*
X145761850Y-66725275D01*
X145778512Y-66733542D01*
X145795026Y-66737257D01*
X145812587Y-66737094D01*
X145850927Y-66724504D01*
X145896096Y-66691819D01*
X145907118Y-66681272D01*
X145946085Y-66631748D01*
X145979526Y-66564474D01*
X146003106Y-66482634D01*
X146010871Y-66426661D01*
X146232755Y-66448637D01*
X146221611Y-66537639D01*
X146195221Y-66626460D01*
X146153939Y-66712060D01*
X146099217Y-66790426D01*
X146063460Y-66829756D01*
G37*
G36*
X145646246Y-67219337D02*
G01*
X145469050Y-67396533D01*
X145187194Y-67114677D01*
X144935734Y-67366137D01*
X144788243Y-67218646D01*
X145039703Y-66967187D01*
X144877791Y-66805275D01*
X144584753Y-67098313D01*
X144438212Y-66951773D01*
X144908447Y-66481538D01*
X145646246Y-67219337D01*
G37*
G36*
X154924869Y-65588347D02*
G01*
X154855722Y-65647053D01*
X154777902Y-65693849D01*
X154695510Y-65726315D01*
X154654513Y-65736458D01*
X154615147Y-65742273D01*
X154589301Y-65743782D01*
X154244710Y-65399191D01*
X154518924Y-65124977D01*
X154663435Y-65269489D01*
X154546600Y-65386324D01*
X154665508Y-65505232D01*
X154701909Y-65492712D01*
X154746698Y-65461309D01*
X154754624Y-65453766D01*
X154782225Y-65423421D01*
X154804823Y-65392666D01*
X154821713Y-65363125D01*
X154834218Y-65333290D01*
X154842202Y-65304170D01*
X154846191Y-65274842D01*
X154842455Y-65215961D01*
X154822824Y-65155062D01*
X154785368Y-65090755D01*
X154724789Y-65020058D01*
X154691292Y-64989281D01*
X154657300Y-64963279D01*
X154623613Y-64942325D01*
X154589837Y-64925876D01*
X154556811Y-64914069D01*
X154524065Y-64906494D01*
X154492342Y-64903126D01*
X154461235Y-64903749D01*
X154431251Y-64908243D01*
X154402204Y-64916549D01*
X154347654Y-64944370D01*
X154307921Y-64977357D01*
X154285444Y-65002512D01*
X154267696Y-65027952D01*
X154243809Y-65081035D01*
X154232004Y-65142012D01*
X154230073Y-65170744D01*
X154022827Y-65151574D01*
X154024912Y-65106921D01*
X154031692Y-65060223D01*
X154042090Y-65018208D01*
X154057210Y-64975561D01*
X154075392Y-64936802D01*
X154098258Y-64898203D01*
X154124125Y-64862661D01*
X154154713Y-64827798D01*
X154162416Y-64819936D01*
X154197277Y-64787825D01*
X154234089Y-64759212D01*
X154272394Y-64734366D01*
X154312251Y-64713189D01*
X154352999Y-64695966D01*
X154394905Y-64682540D01*
X154437165Y-64673125D01*
X154480205Y-64667603D01*
X154523185Y-64666068D01*
X154566590Y-64668501D01*
X154609653Y-64674882D01*
X154652813Y-64685311D01*
X154695454Y-64699700D01*
X154737884Y-64718230D01*
X154779671Y-64740824D01*
X154820951Y-64767679D01*
X154861469Y-64798796D01*
X154901187Y-64834326D01*
X154911916Y-64844848D01*
X154949632Y-64885292D01*
X154982601Y-64926302D01*
X155010620Y-64967278D01*
X155034196Y-65008586D01*
X155053303Y-65049819D01*
X155068219Y-65091162D01*
X155079033Y-65132481D01*
X155085850Y-65173695D01*
X155087826Y-65255966D01*
X155074413Y-65337723D01*
X155045461Y-65418504D01*
X155000589Y-65497474D01*
X154939434Y-65573330D01*
X154924869Y-65588347D01*
G37*
G36*
X154517326Y-65968256D02*
G01*
X154349025Y-66136558D01*
X154104085Y-65891618D01*
X154011288Y-65789673D01*
X153915438Y-65672093D01*
X153854136Y-65596162D01*
X153849214Y-65601084D01*
X153938589Y-65835014D01*
X154112418Y-66373165D01*
X153932242Y-66553340D01*
X153194443Y-65815541D01*
X153362745Y-65647240D01*
X153606735Y-65891230D01*
X153703501Y-65997320D01*
X153847615Y-66177268D01*
X153855691Y-66187679D01*
X153860656Y-66182714D01*
X153769251Y-65946841D01*
X153599352Y-65410633D01*
X153779527Y-65230457D01*
X154517326Y-65968256D01*
G37*
G36*
X153761566Y-66724017D02*
G01*
X153539812Y-66945771D01*
X153498596Y-66984211D01*
X153456283Y-67018144D01*
X153415276Y-67045979D01*
X153373434Y-67069489D01*
X153332970Y-67087694D01*
X153291880Y-67101751D01*
X153251974Y-67111220D01*
X153211605Y-67116667D01*
X153172021Y-67118009D01*
X153132103Y-67115367D01*
X153092465Y-67108767D01*
X153052600Y-67098109D01*
X152972286Y-67064208D01*
X152890515Y-67012103D01*
X152806919Y-66939521D01*
X152803610Y-66936229D01*
X152763428Y-66893309D01*
X152728665Y-66850430D01*
X152700151Y-66809132D01*
X152676466Y-66767931D01*
X152657971Y-66728004D01*
X152643842Y-66688223D01*
X152634108Y-66649253D01*
X152628414Y-66610477D01*
X152628777Y-66533620D01*
X152631852Y-66518632D01*
X152863689Y-66518632D01*
X152864765Y-66546878D01*
X152869952Y-66575924D01*
X152893169Y-66635884D01*
X152936452Y-66701328D01*
X152984778Y-66755061D01*
X153023179Y-66790738D01*
X153060407Y-66819957D01*
X153094545Y-66841887D01*
X153127708Y-66858539D01*
X153158605Y-66869765D01*
X153188669Y-66876573D01*
X153217478Y-66879162D01*
X153245538Y-66877871D01*
X153300719Y-66863992D01*
X153356526Y-66834161D01*
X153418054Y-66782478D01*
X153441844Y-66758688D01*
X152987153Y-66303996D01*
X152963363Y-66327787D01*
X152931179Y-66362878D01*
X152904431Y-66398926D01*
X152886979Y-66429455D01*
X152874091Y-66460831D01*
X152866817Y-66489335D01*
X152863689Y-66518632D01*
X152631852Y-66518632D01*
X152644602Y-66456478D01*
X152676619Y-66377968D01*
X152726455Y-66297270D01*
X152796396Y-66213946D01*
X152811900Y-66198085D01*
X153023767Y-65986218D01*
X153761566Y-66724017D01*
G37*
G36*
X178949649Y-93527000D02*
G01*
X178636041Y-93527000D01*
X178579716Y-93525037D01*
X178525802Y-93519111D01*
X178477123Y-93509797D01*
X178430912Y-93496835D01*
X178389427Y-93481095D01*
X178350433Y-93461980D01*
X178315519Y-93440458D01*
X178283122Y-93415764D01*
X178254183Y-93388723D01*
X178227825Y-93358628D01*
X178204464Y-93325933D01*
X178183811Y-93290208D01*
X178150992Y-93209446D01*
X178130016Y-93114781D01*
X178122227Y-93004347D01*
X178122215Y-92999679D01*
X178378426Y-92999679D01*
X178380351Y-93052060D01*
X178386015Y-93099046D01*
X178394647Y-93138691D01*
X178406322Y-93173916D01*
X178420232Y-93203702D01*
X178436676Y-93229774D01*
X178455217Y-93251975D01*
X178475970Y-93270904D01*
X178524803Y-93300109D01*
X178585358Y-93318477D01*
X178665411Y-93325438D01*
X178699056Y-93325438D01*
X178699056Y-92682408D01*
X178665411Y-92682408D01*
X178617840Y-92684464D01*
X178573437Y-92691040D01*
X178539509Y-92700287D01*
X178508210Y-92713359D01*
X178482910Y-92728371D01*
X178459983Y-92746875D01*
X178440771Y-92767609D01*
X178423900Y-92791816D01*
X178397919Y-92850631D01*
X178382249Y-92927512D01*
X178378426Y-92999679D01*
X178122215Y-92999679D01*
X178124151Y-92940917D01*
X178129890Y-92886016D01*
X178138930Y-92836651D01*
X178151315Y-92790770D01*
X178166470Y-92749459D01*
X178184609Y-92711339D01*
X178205281Y-92676901D01*
X178228674Y-92645456D01*
X178283277Y-92591366D01*
X178349015Y-92548009D01*
X178427168Y-92515133D01*
X178519470Y-92493309D01*
X178627845Y-92483847D01*
X178650024Y-92483594D01*
X178949649Y-92483594D01*
X178949649Y-93527000D01*
G37*
G36*
X177929691Y-93527000D02*
G01*
X177253504Y-93527000D01*
X177253504Y-93317012D01*
X177679098Y-93317012D01*
X177679098Y-93096155D01*
X177330502Y-93096155D01*
X177330502Y-92886106D01*
X177679098Y-92886106D01*
X177679098Y-92690834D01*
X177268892Y-92690834D01*
X177268892Y-92483594D01*
X177929691Y-92483594D01*
X177929691Y-93527000D01*
G37*
G36*
X176725024Y-93546539D02*
G01*
X176677007Y-93544622D01*
X176631780Y-93539016D01*
X176589341Y-93529924D01*
X176549833Y-93517572D01*
X176513214Y-93502130D01*
X176479679Y-93483852D01*
X176449165Y-93462865D01*
X176421897Y-93439469D01*
X176397825Y-93413751D01*
X176377168Y-93386057D01*
X176346258Y-93325344D01*
X176329948Y-93259199D01*
X176327458Y-93220108D01*
X176329392Y-93180951D01*
X176335116Y-93144740D01*
X176344131Y-93112457D01*
X176356465Y-93082706D01*
X176390442Y-93030634D01*
X176437867Y-92986126D01*
X176501358Y-92947844D01*
X176533232Y-92933734D01*
X176663475Y-92881832D01*
X176678606Y-92875873D01*
X176736538Y-92852252D01*
X176781746Y-92828539D01*
X176798612Y-92815436D01*
X176811138Y-92800857D01*
X176818936Y-92784316D01*
X176821622Y-92765328D01*
X176819697Y-92746655D01*
X176814039Y-92730113D01*
X176793073Y-92704305D01*
X176758180Y-92686528D01*
X176706334Y-92678409D01*
X176697058Y-92678256D01*
X176661053Y-92680195D01*
X176626940Y-92685952D01*
X176563020Y-92708374D01*
X176496959Y-92747921D01*
X176482857Y-92758306D01*
X176358232Y-92601258D01*
X176420983Y-92549194D01*
X176494421Y-92507913D01*
X176576250Y-92479326D01*
X176662639Y-92465301D01*
X176697058Y-92464055D01*
X176741383Y-92465975D01*
X176783736Y-92471605D01*
X176824317Y-92480848D01*
X176862527Y-92493463D01*
X176898343Y-92509324D01*
X176931398Y-92528172D01*
X176961436Y-92549741D01*
X176988364Y-92573868D01*
X177011770Y-92600057D01*
X177031777Y-92628350D01*
X177047964Y-92658029D01*
X177060526Y-92689359D01*
X177069165Y-92721515D01*
X177073994Y-92754897D01*
X177075024Y-92779372D01*
X177073118Y-92814528D01*
X177067595Y-92847415D01*
X177046263Y-92907755D01*
X177011674Y-92961358D01*
X176963751Y-93008396D01*
X176902516Y-93047916D01*
X176863632Y-93065686D01*
X176730642Y-93121862D01*
X176712860Y-93129335D01*
X176659211Y-93152696D01*
X176618519Y-93175899D01*
X176603631Y-93188838D01*
X176592700Y-93203413D01*
X176585966Y-93220184D01*
X176583668Y-93239709D01*
X176585633Y-93259390D01*
X176591569Y-93277017D01*
X176600619Y-93291321D01*
X176613152Y-93303623D01*
X176649165Y-93321831D01*
X176704216Y-93330659D01*
X176719467Y-93330995D01*
X176782040Y-93323529D01*
X176853256Y-93299606D01*
X176927800Y-93258410D01*
X176972869Y-93224322D01*
X177114225Y-93396757D01*
X177043411Y-93451811D01*
X176961945Y-93495956D01*
X176872226Y-93527294D01*
X176778118Y-93544013D01*
X176725024Y-93546539D01*
G37*
G36*
X176154534Y-93527000D02*
G01*
X175903941Y-93527000D01*
X175903941Y-92483594D01*
X176154534Y-92483594D01*
X176154534Y-93527000D01*
G37*
G36*
X175196064Y-93546539D02*
G01*
X175105658Y-93539157D01*
X175017541Y-93517219D01*
X174936325Y-93481916D01*
X174900163Y-93460099D01*
X174868215Y-93436374D01*
X174848872Y-93419166D01*
X174848872Y-92931841D01*
X175236669Y-92931841D01*
X175236669Y-93136211D01*
X175071439Y-93136211D01*
X175071439Y-93304372D01*
X175106032Y-93321259D01*
X175159907Y-93330724D01*
X175170846Y-93330995D01*
X175211820Y-93329054D01*
X175249545Y-93323286D01*
X175282378Y-93314341D01*
X175312317Y-93302087D01*
X175338553Y-93287142D01*
X175362111Y-93269224D01*
X175401105Y-93224947D01*
X175430286Y-93168004D01*
X175449272Y-93096046D01*
X175456427Y-93003221D01*
X175454503Y-92957772D01*
X175448854Y-92915349D01*
X175439850Y-92876713D01*
X175427598Y-92841198D01*
X175412594Y-92809496D01*
X175394796Y-92780985D01*
X175374745Y-92756172D01*
X175352309Y-92734617D01*
X175327929Y-92716593D01*
X175301516Y-92701927D01*
X175243272Y-92683026D01*
X175191851Y-92678256D01*
X175158170Y-92680149D01*
X175127632Y-92685589D01*
X175073205Y-92706233D01*
X175021741Y-92741004D01*
X175000059Y-92759955D01*
X174867069Y-92599854D01*
X174900118Y-92569753D01*
X174937932Y-92541527D01*
X174974994Y-92519171D01*
X175015841Y-92499706D01*
X175056105Y-92485156D01*
X175099567Y-92474032D01*
X175142989Y-92467190D01*
X175189270Y-92464167D01*
X175200277Y-92464055D01*
X175247633Y-92465999D01*
X175293896Y-92471797D01*
X175338550Y-92481314D01*
X175381708Y-92494523D01*
X175422700Y-92511157D01*
X175461825Y-92531295D01*
X175498364Y-92554521D01*
X175532703Y-92581050D01*
X175564180Y-92610356D01*
X175593152Y-92642769D01*
X175619089Y-92677731D01*
X175642235Y-92715624D01*
X175662211Y-92755950D01*
X175679111Y-92799055D01*
X175692682Y-92844579D01*
X175702882Y-92892758D01*
X175709530Y-92943411D01*
X175712491Y-92996620D01*
X175712637Y-93011647D01*
X175710709Y-93066914D01*
X175705023Y-93119225D01*
X175695861Y-93168013D01*
X175683322Y-93213892D01*
X175667677Y-93256559D01*
X175648990Y-93296340D01*
X175627420Y-93333204D01*
X175603098Y-93367167D01*
X175546321Y-93426738D01*
X175479025Y-93475064D01*
X175401433Y-93511714D01*
X175313863Y-93535824D01*
X175216981Y-93546220D01*
X175196064Y-93546539D01*
G37*
G36*
X174639251Y-93527000D02*
G01*
X174401236Y-93527000D01*
X174401236Y-93180602D01*
X174407705Y-93042899D01*
X174423071Y-92891981D01*
X174433415Y-92794943D01*
X174426454Y-92794943D01*
X174324239Y-93023554D01*
X174066624Y-93527000D01*
X173811817Y-93527000D01*
X173811817Y-92483594D01*
X174049832Y-92483594D01*
X174049832Y-92828648D01*
X174043238Y-92972090D01*
X174017900Y-93201235D01*
X174016249Y-93214308D01*
X174023271Y-93214308D01*
X174125425Y-92982887D01*
X174384445Y-92483594D01*
X174639251Y-92483594D01*
X174639251Y-93527000D01*
G37*
G36*
X173570444Y-93527000D02*
G01*
X172894258Y-93527000D01*
X172894258Y-93317012D01*
X173319851Y-93317012D01*
X173319851Y-93096155D01*
X172971256Y-93096155D01*
X172971256Y-92886106D01*
X173319851Y-92886106D01*
X173319851Y-92690834D01*
X172909645Y-92690834D01*
X172909645Y-92483594D01*
X173570444Y-92483594D01*
X173570444Y-93527000D01*
G37*
G36*
X172689216Y-93527000D02*
G01*
X172375608Y-93527000D01*
X172319283Y-93525037D01*
X172265370Y-93519111D01*
X172216690Y-93509797D01*
X172170480Y-93496835D01*
X172128994Y-93481095D01*
X172090000Y-93461980D01*
X172055086Y-93440458D01*
X172022689Y-93415764D01*
X171993750Y-93388723D01*
X171967393Y-93358628D01*
X171944031Y-93325933D01*
X171923378Y-93290208D01*
X171890559Y-93209446D01*
X171869583Y-93114781D01*
X171861794Y-93004347D01*
X171861782Y-92999679D01*
X172117993Y-92999679D01*
X172119919Y-93052060D01*
X172125582Y-93099046D01*
X172134215Y-93138691D01*
X172145889Y-93173916D01*
X172159799Y-93203702D01*
X172176244Y-93229774D01*
X172194784Y-93251975D01*
X172215538Y-93270904D01*
X172264370Y-93300109D01*
X172324926Y-93318477D01*
X172404979Y-93325438D01*
X172438623Y-93325438D01*
X172438623Y-92682408D01*
X172404979Y-92682408D01*
X172357408Y-92684464D01*
X172313004Y-92691040D01*
X172279076Y-92700287D01*
X172247777Y-92713359D01*
X172222478Y-92728371D01*
X172199550Y-92746875D01*
X172180339Y-92767609D01*
X172163467Y-92791816D01*
X172137486Y-92850631D01*
X172121816Y-92927512D01*
X172117993Y-92999679D01*
X171861782Y-92999679D01*
X171863719Y-92940917D01*
X171869457Y-92886016D01*
X171878497Y-92836651D01*
X171890882Y-92790770D01*
X171906038Y-92749459D01*
X171924176Y-92711339D01*
X171944849Y-92676901D01*
X171968241Y-92645456D01*
X172022844Y-92591366D01*
X172088582Y-92548009D01*
X172166736Y-92515133D01*
X172259038Y-92493309D01*
X172367412Y-92483847D01*
X172389591Y-92483594D01*
X172689216Y-92483594D01*
X172689216Y-93527000D01*
G37*
G36*
X171348811Y-93527000D02*
G01*
X170955397Y-93527000D01*
X170900146Y-93525033D01*
X170847246Y-93519081D01*
X170800177Y-93509810D01*
X170755954Y-93496903D01*
X170717838Y-93481638D01*
X170682790Y-93463145D01*
X170653299Y-93443072D01*
X170626943Y-93420141D01*
X170605262Y-93395972D01*
X170586752Y-93369213D01*
X170572148Y-93341052D01*
X170560825Y-93310445D01*
X170553049Y-93277865D01*
X170548796Y-93242853D01*
X170548000Y-93218765D01*
X170548892Y-93201912D01*
X170791571Y-93201912D01*
X170793522Y-93228151D01*
X170799363Y-93251469D01*
X170808152Y-93270352D01*
X170820202Y-93286794D01*
X170853382Y-93312083D01*
X170901976Y-93328718D01*
X170973593Y-93335208D01*
X171098218Y-93335208D01*
X171098218Y-93082661D01*
X170973593Y-93082661D01*
X170926321Y-93084664D01*
X170886182Y-93090871D01*
X170858929Y-93099166D01*
X170836313Y-93110558D01*
X170820494Y-93123018D01*
X170808120Y-93138008D01*
X170794062Y-93173885D01*
X170791571Y-93201912D01*
X170548892Y-93201912D01*
X170549914Y-93182591D01*
X170555494Y-93149336D01*
X170564398Y-93119229D01*
X170576429Y-93091898D01*
X170609326Y-93044958D01*
X170653764Y-93007741D01*
X170709900Y-92980544D01*
X170732831Y-92973484D01*
X170732831Y-92967867D01*
X170689593Y-92943380D01*
X170651228Y-92904410D01*
X170620419Y-92851617D01*
X170601339Y-92788832D01*
X170600499Y-92779616D01*
X170840603Y-92779616D01*
X170842575Y-92803747D01*
X170848564Y-92825589D01*
X170857563Y-92843256D01*
X170870039Y-92858721D01*
X170904324Y-92881823D01*
X170954264Y-92895288D01*
X170994598Y-92897830D01*
X171098218Y-92897830D01*
X171098218Y-92674042D01*
X170994598Y-92674042D01*
X170952414Y-92676035D01*
X170917176Y-92682168D01*
X170893623Y-92690337D01*
X170874479Y-92701501D01*
X170861284Y-92713833D01*
X170851368Y-92728639D01*
X170841258Y-92765273D01*
X170840603Y-92779616D01*
X170600499Y-92779616D01*
X170597032Y-92741576D01*
X170598956Y-92706181D01*
X170604608Y-92673914D01*
X170613478Y-92645504D01*
X170625519Y-92619811D01*
X170658512Y-92576095D01*
X170704328Y-92540720D01*
X170765414Y-92513011D01*
X170845459Y-92493601D01*
X170949059Y-92484149D01*
X170984829Y-92483594D01*
X171348811Y-92483594D01*
X171348811Y-93527000D01*
G37*
G36*
X170226393Y-93527000D02*
G01*
X169977205Y-93527000D01*
X169977205Y-93158193D01*
X169662192Y-92483594D01*
X169924021Y-92483594D01*
X170010788Y-92715014D01*
X170034498Y-92778030D01*
X170097616Y-92947839D01*
X170103173Y-92947839D01*
X170124808Y-92888124D01*
X170187192Y-92715014D01*
X170274021Y-92483594D01*
X170540001Y-92483594D01*
X170226393Y-93158193D01*
X170226393Y-93527000D01*
G37*
G36*
X168912184Y-93546539D02*
G01*
X168864166Y-93544622D01*
X168818940Y-93539016D01*
X168776501Y-93529924D01*
X168736993Y-93517572D01*
X168700374Y-93502130D01*
X168666839Y-93483852D01*
X168636325Y-93462865D01*
X168609056Y-93439469D01*
X168584984Y-93413751D01*
X168564328Y-93386057D01*
X168533418Y-93325344D01*
X168517107Y-93259199D01*
X168514617Y-93220108D01*
X168516552Y-93180951D01*
X168522276Y-93144740D01*
X168531291Y-93112457D01*
X168543625Y-93082706D01*
X168577601Y-93030634D01*
X168625026Y-92986126D01*
X168688518Y-92947844D01*
X168720392Y-92933734D01*
X168850635Y-92881832D01*
X168865765Y-92875873D01*
X168923698Y-92852252D01*
X168968905Y-92828539D01*
X168985772Y-92815436D01*
X168998297Y-92800857D01*
X169006096Y-92784316D01*
X169008782Y-92765328D01*
X169006857Y-92746655D01*
X169001198Y-92730113D01*
X168980233Y-92704305D01*
X168945340Y-92686528D01*
X168893494Y-92678409D01*
X168884218Y-92678256D01*
X168848212Y-92680195D01*
X168814099Y-92685952D01*
X168750180Y-92708374D01*
X168684118Y-92747921D01*
X168670017Y-92758306D01*
X168545392Y-92601258D01*
X168608143Y-92549194D01*
X168681581Y-92507913D01*
X168763410Y-92479326D01*
X168849798Y-92465301D01*
X168884218Y-92464055D01*
X168928543Y-92465975D01*
X168970896Y-92471605D01*
X169011477Y-92480848D01*
X169049687Y-92493463D01*
X169085502Y-92509324D01*
X169118558Y-92528172D01*
X169148596Y-92549741D01*
X169175524Y-92573868D01*
X169198930Y-92600057D01*
X169218936Y-92628350D01*
X169235124Y-92658029D01*
X169247686Y-92689359D01*
X169256324Y-92721515D01*
X169261154Y-92754897D01*
X169262184Y-92779372D01*
X169260278Y-92814528D01*
X169254755Y-92847415D01*
X169233422Y-92907755D01*
X169198834Y-92961358D01*
X169150911Y-93008396D01*
X169089675Y-93047916D01*
X169050792Y-93065686D01*
X168917801Y-93121862D01*
X168900020Y-93129335D01*
X168846371Y-93152696D01*
X168805679Y-93175899D01*
X168790791Y-93188838D01*
X168779860Y-93203413D01*
X168773126Y-93220184D01*
X168770828Y-93239709D01*
X168772793Y-93259390D01*
X168778729Y-93277017D01*
X168787779Y-93291321D01*
X168800312Y-93303623D01*
X168836325Y-93321831D01*
X168891375Y-93330659D01*
X168906627Y-93330995D01*
X168969200Y-93323529D01*
X169040416Y-93299606D01*
X169114960Y-93258410D01*
X169160029Y-93224322D01*
X169301385Y-93396757D01*
X169230571Y-93451811D01*
X169149104Y-93495956D01*
X169059386Y-93527294D01*
X168965278Y-93544013D01*
X168912184Y-93546539D01*
G37*
G36*
X168341693Y-93527000D02*
G01*
X168091100Y-93527000D01*
X168091100Y-93097132D01*
X167748061Y-93097132D01*
X167748061Y-93527000D01*
X167500277Y-93527000D01*
X167500277Y-92483594D01*
X167748061Y-92483594D01*
X167748061Y-92880183D01*
X168091100Y-92880183D01*
X168091100Y-92483594D01*
X168341693Y-92483594D01*
X168341693Y-93527000D01*
G37*
G36*
X167389818Y-93527000D02*
G01*
X167135012Y-93527000D01*
X167074806Y-93286481D01*
X166766816Y-93286481D01*
X166706610Y-93527000D01*
X166443438Y-93527000D01*
X166577876Y-93093224D01*
X166814443Y-93093224D01*
X167027240Y-93093224D01*
X167004830Y-93004930D01*
X166929188Y-92687891D01*
X166925024Y-92669829D01*
X166919406Y-92669829D01*
X166880589Y-92828041D01*
X166836791Y-93004930D01*
X166814443Y-93093224D01*
X166577876Y-93093224D01*
X166766816Y-92483594D01*
X167066441Y-92483594D01*
X167389818Y-93527000D01*
G37*
G36*
X166245357Y-93527000D02*
G01*
X165935963Y-93527000D01*
X165844982Y-93072952D01*
X165811760Y-92876702D01*
X165804377Y-92830175D01*
X165797355Y-92830175D01*
X165763490Y-93040168D01*
X165756810Y-93072952D01*
X165662960Y-93527000D01*
X165348009Y-93527000D01*
X165167391Y-92483594D01*
X165405406Y-92483594D01*
X165472573Y-92959318D01*
X165487751Y-93086401D01*
X165511774Y-93290450D01*
X165518796Y-93290450D01*
X165544430Y-93148055D01*
X165579002Y-92959318D01*
X165688178Y-92483594D01*
X165898166Y-92483594D01*
X166004595Y-92959318D01*
X166066205Y-93290450D01*
X166071762Y-93290450D01*
X166113771Y-92959318D01*
X166179595Y-92483594D01*
X166435806Y-92483594D01*
X166245357Y-93527000D01*
G37*
G36*
X165026830Y-93527000D02*
G01*
X164788815Y-93527000D01*
X164788815Y-93180602D01*
X164795284Y-93042899D01*
X164810649Y-92891981D01*
X164820994Y-92794943D01*
X164814033Y-92794943D01*
X164711817Y-93023554D01*
X164454202Y-93527000D01*
X164199396Y-93527000D01*
X164199396Y-92483594D01*
X164437411Y-92483594D01*
X164437411Y-92828648D01*
X164430817Y-92972090D01*
X164405479Y-93201235D01*
X164403827Y-93214308D01*
X164410849Y-93214308D01*
X164513004Y-92982887D01*
X164772023Y-92483594D01*
X165026830Y-92483594D01*
X165026830Y-93527000D01*
G37*
G36*
X163637576Y-93527000D02*
G01*
X163413545Y-93527000D01*
X163413545Y-93169428D01*
X163420073Y-93040003D01*
X163444711Y-92815726D01*
X163445785Y-92807033D01*
X163440167Y-92807033D01*
X163356147Y-93056832D01*
X163214792Y-93438584D01*
X163077588Y-93438584D01*
X162937576Y-93056832D01*
X162850748Y-92807033D01*
X162845191Y-92807033D01*
X162846509Y-92817758D01*
X162866658Y-92994211D01*
X162874318Y-93086301D01*
X162877370Y-93169123D01*
X162877370Y-93527000D01*
X162649187Y-93527000D01*
X162649187Y-92483594D01*
X162920785Y-92483594D01*
X163080336Y-92933367D01*
X163108015Y-93025391D01*
X163137794Y-93124243D01*
X163144755Y-93124243D01*
X163164842Y-93055384D01*
X163202152Y-92933367D01*
X163367383Y-92483594D01*
X163637576Y-92483594D01*
X163637576Y-93527000D01*
G37*
G36*
X162542086Y-93527000D02*
G01*
X162287280Y-93527000D01*
X162227074Y-93286481D01*
X161919084Y-93286481D01*
X161858878Y-93527000D01*
X161595706Y-93527000D01*
X161730144Y-93093224D01*
X161966711Y-93093224D01*
X162179508Y-93093224D01*
X162157098Y-93004930D01*
X162081456Y-92687891D01*
X162077292Y-92669829D01*
X162071674Y-92669829D01*
X162032857Y-92828041D01*
X161989059Y-93004930D01*
X161966711Y-93093224D01*
X161730144Y-93093224D01*
X161919084Y-92483594D01*
X162218709Y-92483594D01*
X162542086Y-93527000D01*
G37*
G36*
X161487262Y-93527000D02*
G01*
X160832081Y-93527000D01*
X160832081Y-93317012D01*
X161236669Y-93317012D01*
X161236669Y-92483594D01*
X161487262Y-92483594D01*
X161487262Y-93527000D01*
G37*
G36*
X160651952Y-93527000D02*
G01*
X159996770Y-93527000D01*
X159996770Y-93317012D01*
X160401359Y-93317012D01*
X160401359Y-92483594D01*
X160651952Y-92483594D01*
X160651952Y-93527000D01*
G37*
G36*
X159459986Y-93546539D02*
G01*
X159408322Y-93544576D01*
X159360051Y-93538648D01*
X159318281Y-93529546D01*
X159279443Y-93516934D01*
X159245429Y-93501743D01*
X159214041Y-93483336D01*
X159186148Y-93462407D01*
X159160724Y-93438390D01*
X159117459Y-93381227D01*
X159083387Y-93309704D01*
X159058800Y-93220609D01*
X159045021Y-93109818D01*
X159042819Y-93036377D01*
X159042819Y-92483594D01*
X159283581Y-92483594D01*
X159283581Y-93062999D01*
X159285522Y-93119440D01*
X159291291Y-93168326D01*
X159299617Y-93205905D01*
X159310878Y-93238002D01*
X159323638Y-93262679D01*
X159338742Y-93283221D01*
X159355226Y-93299084D01*
X159373750Y-93311557D01*
X159417495Y-93327146D01*
X159459986Y-93330995D01*
X159491605Y-93328989D01*
X159520091Y-93322767D01*
X159542118Y-93313784D01*
X159561795Y-93301241D01*
X159578157Y-93286012D01*
X159592421Y-93267292D01*
X159615006Y-93217532D01*
X159629453Y-93145128D01*
X159633581Y-93062999D01*
X159633581Y-92483594D01*
X159882770Y-92483594D01*
X159882770Y-93036377D01*
X159880819Y-93104742D01*
X159874978Y-93167917D01*
X159866041Y-93222212D01*
X159853750Y-93272102D01*
X159839160Y-93315011D01*
X159821634Y-93354123D01*
X159802228Y-93387875D01*
X159780182Y-93418261D01*
X159756245Y-93444594D01*
X159729835Y-93467821D01*
X159669877Y-93504979D01*
X159598525Y-93530651D01*
X159513119Y-93544484D01*
X159459986Y-93546539D01*
G37*
G36*
X158719747Y-93527000D02*
G01*
X158410352Y-93527000D01*
X158319371Y-93072952D01*
X158286149Y-92876702D01*
X158278766Y-92830175D01*
X158271744Y-92830175D01*
X158237879Y-93040168D01*
X158231200Y-93072952D01*
X158137349Y-93527000D01*
X157822398Y-93527000D01*
X157641781Y-92483594D01*
X157879795Y-92483594D01*
X157946962Y-92959318D01*
X157962140Y-93086401D01*
X157986163Y-93290450D01*
X157993185Y-93290450D01*
X158018820Y-93148055D01*
X158053391Y-92959318D01*
X158162568Y-92483594D01*
X158372555Y-92483594D01*
X158478984Y-92959318D01*
X158540594Y-93290450D01*
X158546151Y-93290450D01*
X158588161Y-92959318D01*
X158653984Y-92483594D01*
X158910195Y-92483594D01*
X158719747Y-93527000D01*
G37*
G36*
X157632805Y-93527000D02*
G01*
X157377998Y-93527000D01*
X157317793Y-93286481D01*
X157009802Y-93286481D01*
X156949596Y-93527000D01*
X156686425Y-93527000D01*
X156820863Y-93093224D01*
X157057430Y-93093224D01*
X157270226Y-93093224D01*
X157247817Y-93004930D01*
X157172175Y-92687891D01*
X157168011Y-92669829D01*
X157162393Y-92669829D01*
X157123576Y-92828041D01*
X157079778Y-93004930D01*
X157057430Y-93093224D01*
X156820863Y-93093224D01*
X157009802Y-92483594D01*
X157309427Y-92483594D01*
X157632805Y-93527000D01*
G37*
G36*
X156628356Y-93209606D02*
G01*
X156232194Y-93209606D01*
X156232194Y-93034606D01*
X156628356Y-93034606D01*
X156628356Y-93209606D01*
G37*
G36*
X155969572Y-93527000D02*
G01*
X155660177Y-93527000D01*
X155569197Y-93072952D01*
X155535975Y-92876702D01*
X155528592Y-92830175D01*
X155521570Y-92830175D01*
X155487705Y-93040168D01*
X155481025Y-93072952D01*
X155387175Y-93527000D01*
X155072224Y-93527000D01*
X154891606Y-92483594D01*
X155129621Y-92483594D01*
X155196788Y-92959318D01*
X155211966Y-93086401D01*
X155235989Y-93290450D01*
X155243011Y-93290450D01*
X155268645Y-93148055D01*
X155303217Y-92959318D01*
X155412393Y-92483594D01*
X155622381Y-92483594D01*
X155728810Y-92959318D01*
X155790420Y-93290450D01*
X155795976Y-93290450D01*
X155837986Y-92959318D01*
X155903810Y-92483594D01*
X156160020Y-92483594D01*
X155969572Y-93527000D01*
G37*
G36*
X154882630Y-93527000D02*
G01*
X154627824Y-93527000D01*
X154567618Y-93286481D01*
X154259628Y-93286481D01*
X154199422Y-93527000D01*
X153936250Y-93527000D01*
X154070688Y-93093224D01*
X154307255Y-93093224D01*
X154520052Y-93093224D01*
X154497643Y-93004930D01*
X154422000Y-92687891D01*
X154417836Y-92669829D01*
X154412219Y-92669829D01*
X154373402Y-92828041D01*
X154329603Y-93004930D01*
X154307255Y-93093224D01*
X154070688Y-93093224D01*
X154259628Y-92483594D01*
X154559253Y-92483594D01*
X154882630Y-93527000D01*
G37*
G36*
X153827807Y-93527000D02*
G01*
X153514199Y-93527000D01*
X153457874Y-93525037D01*
X153403960Y-93519111D01*
X153355281Y-93509797D01*
X153309070Y-93496835D01*
X153267585Y-93481095D01*
X153228590Y-93461980D01*
X153193676Y-93440458D01*
X153161280Y-93415764D01*
X153132341Y-93388723D01*
X153105983Y-93358628D01*
X153082622Y-93325933D01*
X153061968Y-93290208D01*
X153029150Y-93209446D01*
X153008173Y-93114781D01*
X153000384Y-93004347D01*
X153000373Y-92999679D01*
X153256584Y-92999679D01*
X153258509Y-93052060D01*
X153264173Y-93099046D01*
X153272805Y-93138691D01*
X153284480Y-93173916D01*
X153298389Y-93203702D01*
X153314834Y-93229774D01*
X153333374Y-93251975D01*
X153354128Y-93270904D01*
X153402961Y-93300109D01*
X153463516Y-93318477D01*
X153543569Y-93325438D01*
X153577213Y-93325438D01*
X153577213Y-92682408D01*
X153543569Y-92682408D01*
X153495998Y-92684464D01*
X153451595Y-92691040D01*
X153417667Y-92700287D01*
X153386368Y-92713359D01*
X153361068Y-92728371D01*
X153338141Y-92746875D01*
X153318929Y-92767609D01*
X153302058Y-92791816D01*
X153276076Y-92850631D01*
X153260406Y-92927512D01*
X153256584Y-92999679D01*
X153000373Y-92999679D01*
X153002309Y-92940917D01*
X153008047Y-92886016D01*
X153017088Y-92836651D01*
X153029473Y-92790770D01*
X153044628Y-92749459D01*
X153062766Y-92711339D01*
X153083439Y-92676901D01*
X153106832Y-92645456D01*
X153161435Y-92591366D01*
X153227173Y-92548009D01*
X153305326Y-92515133D01*
X153397628Y-92493309D01*
X153506002Y-92483847D01*
X153528182Y-92483594D01*
X153827807Y-92483594D01*
X153827807Y-93527000D01*
G37*
G36*
X152390621Y-93546539D02*
G01*
X152338957Y-93544576D01*
X152290686Y-93538648D01*
X152248916Y-93529546D01*
X152210078Y-93516934D01*
X152176064Y-93501743D01*
X152144676Y-93483336D01*
X152116783Y-93462407D01*
X152091359Y-93438390D01*
X152048094Y-93381227D01*
X152014022Y-93309704D01*
X151989435Y-93220609D01*
X151975656Y-93109818D01*
X151973454Y-93036377D01*
X151973454Y-92483594D01*
X152214216Y-92483594D01*
X152214216Y-93062999D01*
X152216157Y-93119440D01*
X152221926Y-93168326D01*
X152230252Y-93205905D01*
X152241513Y-93238002D01*
X152254273Y-93262679D01*
X152269377Y-93283221D01*
X152285861Y-93299084D01*
X152304385Y-93311557D01*
X152348130Y-93327146D01*
X152390621Y-93330995D01*
X152422240Y-93328989D01*
X152450726Y-93322767D01*
X152472753Y-93313784D01*
X152492430Y-93301241D01*
X152508792Y-93286012D01*
X152523056Y-93267292D01*
X152545641Y-93217532D01*
X152560088Y-93145128D01*
X152564216Y-93062999D01*
X152564216Y-92483594D01*
X152813405Y-92483594D01*
X152813405Y-93036377D01*
X152811454Y-93104742D01*
X152805613Y-93167917D01*
X152796676Y-93222212D01*
X152784385Y-93272102D01*
X152769795Y-93315011D01*
X152752269Y-93354123D01*
X152732863Y-93387875D01*
X152710817Y-93418261D01*
X152686880Y-93444594D01*
X152660470Y-93467821D01*
X152600512Y-93504979D01*
X152529161Y-93530651D01*
X152443754Y-93544484D01*
X152390621Y-93546539D01*
G37*
G36*
X178626210Y-95226539D02*
G01*
X178578193Y-95224622D01*
X178532967Y-95219016D01*
X178490527Y-95209924D01*
X178451020Y-95197572D01*
X178414401Y-95182130D01*
X178380865Y-95163852D01*
X178350351Y-95142865D01*
X178323083Y-95119469D01*
X178299011Y-95093751D01*
X178278355Y-95066057D01*
X178247445Y-95005344D01*
X178231134Y-94939199D01*
X178228644Y-94900108D01*
X178230578Y-94860951D01*
X178236303Y-94824740D01*
X178245318Y-94792457D01*
X178257651Y-94762706D01*
X178291628Y-94710634D01*
X178339053Y-94666126D01*
X178402545Y-94627844D01*
X178434419Y-94613734D01*
X178564661Y-94561832D01*
X178579792Y-94555873D01*
X178637724Y-94532252D01*
X178682932Y-94508539D01*
X178699798Y-94495436D01*
X178712324Y-94480857D01*
X178720123Y-94464316D01*
X178722808Y-94445328D01*
X178720883Y-94426655D01*
X178715225Y-94410113D01*
X178694259Y-94384305D01*
X178659367Y-94366528D01*
X178607520Y-94358409D01*
X178598244Y-94358256D01*
X178562239Y-94360195D01*
X178528126Y-94365952D01*
X178464206Y-94388374D01*
X178398145Y-94427921D01*
X178384043Y-94438306D01*
X178259419Y-94281258D01*
X178322169Y-94229194D01*
X178395608Y-94187913D01*
X178477437Y-94159326D01*
X178563825Y-94145301D01*
X178598244Y-94144055D01*
X178642570Y-94145975D01*
X178684922Y-94151605D01*
X178725504Y-94160848D01*
X178763714Y-94173463D01*
X178799529Y-94189324D01*
X178832585Y-94208172D01*
X178862622Y-94229741D01*
X178889550Y-94253868D01*
X178912956Y-94280057D01*
X178932963Y-94308350D01*
X178949150Y-94338029D01*
X178961712Y-94369359D01*
X178970351Y-94401515D01*
X178975181Y-94434897D01*
X178976210Y-94459372D01*
X178974305Y-94494528D01*
X178968782Y-94527415D01*
X178947449Y-94587755D01*
X178912861Y-94641358D01*
X178864938Y-94688396D01*
X178803702Y-94727916D01*
X178764818Y-94745686D01*
X178631828Y-94801862D01*
X178614046Y-94809335D01*
X178560397Y-94832696D01*
X178519706Y-94855899D01*
X178504817Y-94868838D01*
X178493887Y-94883413D01*
X178487153Y-94900184D01*
X178484855Y-94919709D01*
X178486819Y-94939390D01*
X178492755Y-94957017D01*
X178501806Y-94971321D01*
X178514339Y-94983623D01*
X178550352Y-95001831D01*
X178605402Y-95010659D01*
X178620654Y-95010995D01*
X178683226Y-95003529D01*
X178754442Y-94979606D01*
X178828986Y-94938410D01*
X178874056Y-94904322D01*
X179015411Y-95076757D01*
X178944598Y-95131811D01*
X178863131Y-95175956D01*
X178773412Y-95207294D01*
X178679305Y-95224013D01*
X178626210Y-95226539D01*
G37*
G36*
X178055720Y-95207000D02*
G01*
X177805127Y-95207000D01*
X177805127Y-94777132D01*
X177462088Y-94777132D01*
X177462088Y-95207000D01*
X177214303Y-95207000D01*
X177214303Y-94163594D01*
X177462088Y-94163594D01*
X177462088Y-94560183D01*
X177805127Y-94560183D01*
X177805127Y-94163594D01*
X178055720Y-94163594D01*
X178055720Y-95207000D01*
G37*
G36*
X177103845Y-95207000D02*
G01*
X176849038Y-95207000D01*
X176788832Y-94966481D01*
X176480842Y-94966481D01*
X176420636Y-95207000D01*
X176157465Y-95207000D01*
X176291903Y-94773224D01*
X176528469Y-94773224D01*
X176741266Y-94773224D01*
X176718857Y-94684930D01*
X176643215Y-94367891D01*
X176639050Y-94349829D01*
X176633433Y-94349829D01*
X176594616Y-94508041D01*
X176550818Y-94684930D01*
X176528469Y-94773224D01*
X176291903Y-94773224D01*
X176480842Y-94163594D01*
X176780467Y-94163594D01*
X177103845Y-95207000D01*
G37*
G36*
X175959384Y-95207000D02*
G01*
X175649989Y-95207000D01*
X175559009Y-94752952D01*
X175525786Y-94556702D01*
X175518403Y-94510175D01*
X175511381Y-94510175D01*
X175477517Y-94720168D01*
X175470837Y-94752952D01*
X175376987Y-95207000D01*
X175062035Y-95207000D01*
X174881418Y-94163594D01*
X175119433Y-94163594D01*
X175186599Y-94639318D01*
X175201777Y-94766401D01*
X175225800Y-94970450D01*
X175232822Y-94970450D01*
X175258457Y-94828055D01*
X175293028Y-94639318D01*
X175402205Y-94163594D01*
X175612192Y-94163594D01*
X175718621Y-94639318D01*
X175780232Y-94970450D01*
X175785788Y-94970450D01*
X175827798Y-94639318D01*
X175893621Y-94163594D01*
X176149832Y-94163594D01*
X175959384Y-95207000D01*
G37*
G36*
X174740856Y-95207000D02*
G01*
X174502841Y-95207000D01*
X174502841Y-94860602D01*
X174509310Y-94722899D01*
X174524676Y-94571981D01*
X174535020Y-94474943D01*
X174528060Y-94474943D01*
X174425844Y-94703554D01*
X174168229Y-95207000D01*
X173913422Y-95207000D01*
X173913422Y-94163594D01*
X174151437Y-94163594D01*
X174151437Y-94508648D01*
X174144843Y-94652090D01*
X174119505Y-94881235D01*
X174117854Y-94894308D01*
X174124876Y-94894308D01*
X174227030Y-94662887D01*
X174486050Y-94163594D01*
X174740856Y-94163594D01*
X174740856Y-95207000D01*
G37*
G36*
X173672049Y-95207000D02*
G01*
X173448018Y-95207000D01*
X173448018Y-94849428D01*
X173454546Y-94720003D01*
X173479185Y-94495726D01*
X173480258Y-94487033D01*
X173474640Y-94487033D01*
X173390621Y-94736832D01*
X173249265Y-95118584D01*
X173112062Y-95118584D01*
X172972049Y-94736832D01*
X172885221Y-94487033D01*
X172879665Y-94487033D01*
X172880982Y-94497758D01*
X172901131Y-94674211D01*
X172908791Y-94766301D01*
X172911844Y-94849123D01*
X172911844Y-95207000D01*
X172683660Y-95207000D01*
X172683660Y-94163594D01*
X172955258Y-94163594D01*
X173114809Y-94613367D01*
X173142488Y-94705391D01*
X173172267Y-94804243D01*
X173179228Y-94804243D01*
X173199316Y-94735384D01*
X173236625Y-94613367D01*
X173401856Y-94163594D01*
X173672049Y-94163594D01*
X173672049Y-95207000D01*
G37*
G36*
X172576559Y-95207000D02*
G01*
X172321753Y-95207000D01*
X172261547Y-94966481D01*
X171953557Y-94966481D01*
X171893351Y-95207000D01*
X171630179Y-95207000D01*
X171764617Y-94773224D01*
X172001184Y-94773224D01*
X172213981Y-94773224D01*
X172191571Y-94684930D01*
X172115929Y-94367891D01*
X172111765Y-94349829D01*
X172106147Y-94349829D01*
X172067330Y-94508041D01*
X172023532Y-94684930D01*
X172001184Y-94773224D01*
X171764617Y-94773224D01*
X171953557Y-94163594D01*
X172253182Y-94163594D01*
X172576559Y-95207000D01*
G37*
G36*
X171521735Y-95207000D02*
G01*
X170866554Y-95207000D01*
X170866554Y-94997012D01*
X171271142Y-94997012D01*
X171271142Y-94163594D01*
X171521735Y-94163594D01*
X171521735Y-95207000D01*
G37*
G36*
X170686425Y-95207000D02*
G01*
X170031243Y-95207000D01*
X170031243Y-94997012D01*
X170435832Y-94997012D01*
X170435832Y-94163594D01*
X170686425Y-94163594D01*
X170686425Y-95207000D01*
G37*
G36*
X169494459Y-95226539D02*
G01*
X169442795Y-95224576D01*
X169394524Y-95218648D01*
X169352754Y-95209546D01*
X169313916Y-95196934D01*
X169279902Y-95181743D01*
X169248514Y-95163336D01*
X169220621Y-95142407D01*
X169195197Y-95118390D01*
X169151932Y-95061227D01*
X169117860Y-94989704D01*
X169093273Y-94900609D01*
X169079494Y-94789818D01*
X169077292Y-94716377D01*
X169077292Y-94163594D01*
X169318054Y-94163594D01*
X169318054Y-94742999D01*
X169319995Y-94799440D01*
X169325764Y-94848326D01*
X169334090Y-94885905D01*
X169345351Y-94918002D01*
X169358111Y-94942679D01*
X169373215Y-94963221D01*
X169389699Y-94979084D01*
X169408223Y-94991557D01*
X169451968Y-95007146D01*
X169494459Y-95010995D01*
X169526078Y-95008989D01*
X169554564Y-95002767D01*
X169576591Y-94993784D01*
X169596269Y-94981241D01*
X169612630Y-94966012D01*
X169626894Y-94947292D01*
X169649479Y-94897532D01*
X169663926Y-94825128D01*
X169668054Y-94742999D01*
X169668054Y-94163594D01*
X169917243Y-94163594D01*
X169917243Y-94716377D01*
X169915292Y-94784742D01*
X169909451Y-94847917D01*
X169900514Y-94902212D01*
X169888223Y-94952102D01*
X169873633Y-94995011D01*
X169856107Y-95034123D01*
X169836702Y-95067875D01*
X169814655Y-95098261D01*
X169790718Y-95124594D01*
X169764308Y-95147821D01*
X169704350Y-95184979D01*
X169632999Y-95210651D01*
X169547592Y-95224484D01*
X169494459Y-95226539D01*
G37*
G36*
X168754220Y-95207000D02*
G01*
X168444825Y-95207000D01*
X168353845Y-94752952D01*
X168320622Y-94556702D01*
X168313239Y-94510175D01*
X168306217Y-94510175D01*
X168272353Y-94720168D01*
X168265673Y-94752952D01*
X168171823Y-95207000D01*
X167856871Y-95207000D01*
X167676254Y-94163594D01*
X167914269Y-94163594D01*
X167981435Y-94639318D01*
X167996613Y-94766401D01*
X168020636Y-94970450D01*
X168027658Y-94970450D01*
X168053293Y-94828055D01*
X168087864Y-94639318D01*
X168197041Y-94163594D01*
X168407028Y-94163594D01*
X168513457Y-94639318D01*
X168575068Y-94970450D01*
X168580624Y-94970450D01*
X168622634Y-94639318D01*
X168688457Y-94163594D01*
X168944668Y-94163594D01*
X168754220Y-95207000D01*
G37*
G36*
X167667278Y-95207000D02*
G01*
X167412472Y-95207000D01*
X167352266Y-94966481D01*
X167044275Y-94966481D01*
X166984070Y-95207000D01*
X166720898Y-95207000D01*
X166855336Y-94773224D01*
X167091903Y-94773224D01*
X167304699Y-94773224D01*
X167282290Y-94684930D01*
X167206648Y-94367891D01*
X167202484Y-94349829D01*
X167196866Y-94349829D01*
X167158049Y-94508041D01*
X167114251Y-94684930D01*
X167091903Y-94773224D01*
X166855336Y-94773224D01*
X167044275Y-94163594D01*
X167343900Y-94163594D01*
X167667278Y-95207000D01*
G37*
G36*
X166522817Y-95207000D02*
G01*
X166213422Y-95207000D01*
X166122442Y-94752952D01*
X166089220Y-94556702D01*
X166081837Y-94510175D01*
X166074815Y-94510175D01*
X166040950Y-94720168D01*
X166034270Y-94752952D01*
X165940420Y-95207000D01*
X165625469Y-95207000D01*
X165444851Y-94163594D01*
X165682866Y-94163594D01*
X165750033Y-94639318D01*
X165765211Y-94766401D01*
X165789234Y-94970450D01*
X165796256Y-94970450D01*
X165821890Y-94828055D01*
X165856461Y-94639318D01*
X165965638Y-94163594D01*
X166175626Y-94163594D01*
X166282055Y-94639318D01*
X166343665Y-94970450D01*
X166349221Y-94970450D01*
X166391231Y-94639318D01*
X166457055Y-94163594D01*
X166713265Y-94163594D01*
X166522817Y-95207000D01*
G37*
G36*
X165435875Y-95207000D02*
G01*
X165181069Y-95207000D01*
X165120863Y-94966481D01*
X164812873Y-94966481D01*
X164752667Y-95207000D01*
X164489495Y-95207000D01*
X164623933Y-94773224D01*
X164860500Y-94773224D01*
X165073297Y-94773224D01*
X165050887Y-94684930D01*
X164975245Y-94367891D01*
X164971081Y-94349829D01*
X164965464Y-94349829D01*
X164926647Y-94508041D01*
X164882848Y-94684930D01*
X164860500Y-94773224D01*
X164623933Y-94773224D01*
X164812873Y-94163594D01*
X165112498Y-94163594D01*
X165435875Y-95207000D01*
G37*
G36*
X164381051Y-95207000D02*
G01*
X164067444Y-95207000D01*
X164011119Y-95205037D01*
X163957205Y-95199111D01*
X163908525Y-95189797D01*
X163862315Y-95176835D01*
X163820830Y-95161095D01*
X163781835Y-95141980D01*
X163746921Y-95120458D01*
X163714525Y-95095764D01*
X163685586Y-95068723D01*
X163659228Y-95038628D01*
X163635867Y-95005933D01*
X163615213Y-94970208D01*
X163582395Y-94889446D01*
X163561418Y-94794781D01*
X163553629Y-94684347D01*
X163553618Y-94679679D01*
X163809829Y-94679679D01*
X163811754Y-94732060D01*
X163817417Y-94779046D01*
X163826050Y-94818691D01*
X163837725Y-94853916D01*
X163851634Y-94883702D01*
X163868079Y-94909774D01*
X163886619Y-94931975D01*
X163907373Y-94950904D01*
X163956206Y-94980109D01*
X164016761Y-94998477D01*
X164096814Y-95005438D01*
X164130458Y-95005438D01*
X164130458Y-94362408D01*
X164096814Y-94362408D01*
X164049243Y-94364464D01*
X164004840Y-94371040D01*
X163970912Y-94380287D01*
X163939612Y-94393359D01*
X163914313Y-94408371D01*
X163891386Y-94426875D01*
X163872174Y-94447609D01*
X163855303Y-94471816D01*
X163829321Y-94530631D01*
X163813651Y-94607512D01*
X163809829Y-94679679D01*
X163553618Y-94679679D01*
X163555554Y-94620917D01*
X163561292Y-94566016D01*
X163570332Y-94516651D01*
X163582718Y-94470770D01*
X163597873Y-94429459D01*
X163616011Y-94391339D01*
X163636684Y-94356901D01*
X163660077Y-94325456D01*
X163714680Y-94271366D01*
X163780418Y-94228009D01*
X163858571Y-94195133D01*
X163950873Y-94173309D01*
X164059247Y-94163847D01*
X164081427Y-94163594D01*
X164381051Y-94163594D01*
X164381051Y-95207000D01*
G37*
G36*
X162943866Y-95226539D02*
G01*
X162892202Y-95224576D01*
X162843931Y-95218648D01*
X162802161Y-95209546D01*
X162763323Y-95196934D01*
X162729309Y-95181743D01*
X162697921Y-95163336D01*
X162670028Y-95142407D01*
X162644604Y-95118390D01*
X162601339Y-95061227D01*
X162567267Y-94989704D01*
X162542680Y-94900609D01*
X162528901Y-94789818D01*
X162526699Y-94716377D01*
X162526699Y-94163594D01*
X162767461Y-94163594D01*
X162767461Y-94742999D01*
X162769402Y-94799440D01*
X162775171Y-94848326D01*
X162783497Y-94885905D01*
X162794758Y-94918002D01*
X162807518Y-94942679D01*
X162822622Y-94963221D01*
X162839106Y-94979084D01*
X162857630Y-94991557D01*
X162901375Y-95007146D01*
X162943866Y-95010995D01*
X162975485Y-95008989D01*
X163003971Y-95002767D01*
X163025998Y-94993784D01*
X163045675Y-94981241D01*
X163062036Y-94966012D01*
X163076301Y-94947292D01*
X163098886Y-94897532D01*
X163113333Y-94825128D01*
X163117461Y-94742999D01*
X163117461Y-94163594D01*
X163366650Y-94163594D01*
X163366650Y-94716377D01*
X163364699Y-94784742D01*
X163358858Y-94847917D01*
X163349921Y-94902212D01*
X163337630Y-94952102D01*
X163323040Y-94995011D01*
X163305514Y-95034123D01*
X163286108Y-95067875D01*
X163264062Y-95098261D01*
X163240125Y-95124594D01*
X163213715Y-95147821D01*
X163153757Y-95184979D01*
X163082405Y-95210651D01*
X162996999Y-95224484D01*
X162943866Y-95226539D01*
G37*
G36*
X161715571Y-94138745D02*
G01*
X161769092Y-94148306D01*
X161821252Y-94161553D01*
X161872058Y-94178460D01*
X161921152Y-94198897D01*
X161968364Y-94222769D01*
X162013524Y-94249985D01*
X162056305Y-94280333D01*
X162096714Y-94313817D01*
X162134322Y-94350077D01*
X162169260Y-94389250D01*
X162201070Y-94430831D01*
X162229940Y-94475096D01*
X162255446Y-94521433D01*
X162277764Y-94570227D01*
X162296549Y-94620817D01*
X162311915Y-94673646D01*
X162323611Y-94728068D01*
X162331666Y-94784526D01*
X162336617Y-94878004D01*
X162334690Y-94935217D01*
X162329022Y-94989490D01*
X162319837Y-95040569D01*
X162307278Y-95088774D01*
X162291495Y-95134159D01*
X162272658Y-95176701D01*
X162226036Y-95253944D01*
X162167919Y-95320884D01*
X162098565Y-95377513D01*
X162018188Y-95423363D01*
X161927244Y-95457525D01*
X161826748Y-95478772D01*
X161722041Y-95485803D01*
X161664987Y-95483807D01*
X161609676Y-95477655D01*
X161559986Y-95468072D01*
X161511440Y-95454540D01*
X161465792Y-95437664D01*
X161420904Y-95416800D01*
X161408433Y-95410210D01*
X161461678Y-95275815D01*
X161540252Y-95308175D01*
X161587739Y-95321449D01*
X161636603Y-95330851D01*
X161702440Y-95335960D01*
X161751023Y-95334000D01*
X161798601Y-95328101D01*
X161843537Y-95318566D01*
X161886888Y-95305252D01*
X161926791Y-95288856D01*
X161964659Y-95268912D01*
X161998784Y-95246444D01*
X162030537Y-95220670D01*
X162058610Y-95192742D01*
X162084044Y-95161714D01*
X162105991Y-95128629D01*
X162125049Y-95092587D01*
X162140751Y-95054326D01*
X162153290Y-95013181D01*
X162162423Y-94969469D01*
X162168068Y-94922882D01*
X162170043Y-94872387D01*
X162168121Y-94820268D01*
X162162481Y-94770088D01*
X162140365Y-94674431D01*
X162104490Y-94586093D01*
X162055681Y-94506068D01*
X161994982Y-94435691D01*
X161923864Y-94376585D01*
X161844385Y-94330472D01*
X161802332Y-94312788D01*
X161759174Y-94298881D01*
X161715478Y-94288907D01*
X161671213Y-94282857D01*
X161626847Y-94280831D01*
X161575133Y-94282751D01*
X161527102Y-94288381D01*
X161483349Y-94297348D01*
X161443000Y-94309524D01*
X161406190Y-94324618D01*
X161372581Y-94342508D01*
X161314229Y-94386326D01*
X161266880Y-94440699D01*
X161230206Y-94505882D01*
X161204693Y-94582258D01*
X161191543Y-94669747D01*
X161190080Y-94712469D01*
X161191982Y-94754289D01*
X161197478Y-94793430D01*
X161206457Y-94830376D01*
X161218514Y-94864140D01*
X161233454Y-94894764D01*
X161250847Y-94921741D01*
X161270149Y-94944654D01*
X161291191Y-94963591D01*
X161312922Y-94977955D01*
X161335676Y-94988220D01*
X161379063Y-94995790D01*
X161402577Y-94993826D01*
X161421917Y-94987888D01*
X161435048Y-94979680D01*
X161445147Y-94968521D01*
X161456028Y-94938495D01*
X161454823Y-94892287D01*
X161449038Y-94863960D01*
X161414377Y-94696959D01*
X161594668Y-94696959D01*
X161633869Y-94908657D01*
X161659293Y-94939313D01*
X161682801Y-94960592D01*
X161700660Y-94971382D01*
X161718310Y-94977272D01*
X161733276Y-94978755D01*
X161752399Y-94976814D01*
X161769261Y-94971046D01*
X161782897Y-94962214D01*
X161794264Y-94950144D01*
X161809773Y-94916104D01*
X161814426Y-94875012D01*
X161806840Y-94812351D01*
X161796888Y-94778105D01*
X161783097Y-94745178D01*
X161766959Y-94716961D01*
X161747834Y-94692378D01*
X161729242Y-94675148D01*
X161708696Y-94662202D01*
X161689635Y-94655089D01*
X161669286Y-94652135D01*
X161666048Y-94652080D01*
X161648575Y-94653991D01*
X161632585Y-94659550D01*
X161605460Y-94681029D01*
X161594668Y-94696959D01*
X161414377Y-94696959D01*
X161374849Y-94506511D01*
X161526036Y-94506511D01*
X161551254Y-94573739D01*
X161554063Y-94573739D01*
X161567327Y-94550236D01*
X161582643Y-94531091D01*
X161599081Y-94516701D01*
X161617177Y-94505960D01*
X161658429Y-94494733D01*
X161674474Y-94493933D01*
X161736112Y-94501453D01*
X161795772Y-94523947D01*
X161852546Y-94561634D01*
X161904422Y-94614477D01*
X161948275Y-94681182D01*
X161980460Y-94758441D01*
X161991132Y-94799297D01*
X161997927Y-94841142D01*
X162000661Y-94889178D01*
X161998736Y-94926496D01*
X161993076Y-94961324D01*
X161984059Y-94992908D01*
X161971775Y-95021742D01*
X161956766Y-95047108D01*
X161938944Y-95069514D01*
X161918901Y-95088443D01*
X161896451Y-95104219D01*
X161872031Y-95116568D01*
X161845539Y-95125537D01*
X161787864Y-95132750D01*
X161736182Y-95125235D01*
X161678150Y-95101141D01*
X161650418Y-95083321D01*
X161625075Y-95062145D01*
X161594668Y-95026382D01*
X161590455Y-95026382D01*
X161583728Y-95048727D01*
X161573712Y-95068944D01*
X161543987Y-95103545D01*
X161501350Y-95129666D01*
X161446083Y-95145268D01*
X161404281Y-95148381D01*
X161335092Y-95140561D01*
X161300052Y-95130665D01*
X161265486Y-95116775D01*
X161232193Y-95099116D01*
X161200167Y-95077548D01*
X161170599Y-95052807D01*
X161142975Y-95024357D01*
X161118467Y-94993331D01*
X161096449Y-94958836D01*
X161077822Y-94922142D01*
X161062140Y-94882192D01*
X161049982Y-94840150D01*
X161041181Y-94795015D01*
X161034680Y-94705447D01*
X161036619Y-94651671D01*
X161042374Y-94599770D01*
X161051749Y-94550326D01*
X161064692Y-94502979D01*
X161080928Y-94458305D01*
X161100486Y-94415934D01*
X161123034Y-94376379D01*
X161148670Y-94339323D01*
X161177050Y-94305170D01*
X161208299Y-94273710D01*
X161242125Y-94245223D01*
X161278624Y-94219626D01*
X161317608Y-94197093D01*
X161359092Y-94177663D01*
X161403030Y-94161440D01*
X161449311Y-94148554D01*
X161498044Y-94139091D01*
X161548978Y-94133220D01*
X161605842Y-94131049D01*
X161715571Y-94138745D01*
G37*
G36*
X160367592Y-95226539D02*
G01*
X160277186Y-95219157D01*
X160189069Y-95197219D01*
X160107853Y-95161916D01*
X160071691Y-95140099D01*
X160039743Y-95116374D01*
X160020401Y-95099166D01*
X160020401Y-94611841D01*
X160408197Y-94611841D01*
X160408197Y-94816211D01*
X160242967Y-94816211D01*
X160242967Y-94984372D01*
X160277560Y-95001259D01*
X160331435Y-95010724D01*
X160342374Y-95010995D01*
X160383348Y-95009054D01*
X160421074Y-95003286D01*
X160453906Y-94994341D01*
X160483845Y-94982087D01*
X160510081Y-94967142D01*
X160533640Y-94949224D01*
X160572633Y-94904947D01*
X160601814Y-94848004D01*
X160620801Y-94776046D01*
X160627955Y-94683221D01*
X160626031Y-94637772D01*
X160620382Y-94595349D01*
X160611378Y-94556713D01*
X160599126Y-94521198D01*
X160584123Y-94489496D01*
X160566324Y-94460985D01*
X160546273Y-94436172D01*
X160523837Y-94414617D01*
X160499457Y-94396593D01*
X160473045Y-94381927D01*
X160414800Y-94363026D01*
X160363379Y-94358256D01*
X160329698Y-94360149D01*
X160299160Y-94365589D01*
X160244733Y-94386233D01*
X160193269Y-94421004D01*
X160171587Y-94439955D01*
X160038597Y-94279854D01*
X160071646Y-94249753D01*
X160109460Y-94221527D01*
X160146522Y-94199171D01*
X160187370Y-94179706D01*
X160227633Y-94165156D01*
X160271095Y-94154032D01*
X160314518Y-94147190D01*
X160360799Y-94144167D01*
X160371805Y-94144055D01*
X160419161Y-94145999D01*
X160465424Y-94151797D01*
X160510078Y-94161314D01*
X160553236Y-94174523D01*
X160594228Y-94191157D01*
X160633353Y-94211295D01*
X160669893Y-94234521D01*
X160704231Y-94261050D01*
X160735708Y-94290356D01*
X160764680Y-94322769D01*
X160790618Y-94357731D01*
X160813763Y-94395624D01*
X160833739Y-94435950D01*
X160850639Y-94479055D01*
X160864211Y-94524579D01*
X160874411Y-94572758D01*
X160881058Y-94623411D01*
X160884020Y-94676620D01*
X160884166Y-94691647D01*
X160882237Y-94746914D01*
X160876551Y-94799225D01*
X160867389Y-94848013D01*
X160854850Y-94893892D01*
X160839205Y-94936559D01*
X160820519Y-94976340D01*
X160798948Y-95013204D01*
X160774626Y-95047167D01*
X160717849Y-95106738D01*
X160650553Y-95155064D01*
X160572961Y-95191714D01*
X160485391Y-95215824D01*
X160388510Y-95226220D01*
X160367592Y-95226539D01*
G37*
G36*
X159810779Y-95207000D02*
G01*
X159586748Y-95207000D01*
X159586748Y-94849428D01*
X159593276Y-94720003D01*
X159617915Y-94495726D01*
X159618988Y-94487033D01*
X159613370Y-94487033D01*
X159529351Y-94736832D01*
X159387995Y-95118584D01*
X159250792Y-95118584D01*
X159110779Y-94736832D01*
X159023951Y-94487033D01*
X159018394Y-94487033D01*
X159019712Y-94497758D01*
X159039861Y-94674211D01*
X159047521Y-94766301D01*
X159050573Y-94849123D01*
X159050573Y-95207000D01*
X158822390Y-95207000D01*
X158822390Y-94163594D01*
X159093988Y-94163594D01*
X159253539Y-94613367D01*
X159281218Y-94705391D01*
X159310997Y-94804243D01*
X159317958Y-94804243D01*
X159338045Y-94735384D01*
X159375355Y-94613367D01*
X159540586Y-94163594D01*
X159810779Y-94163594D01*
X159810779Y-95207000D01*
G37*
G36*
X158715289Y-95207000D02*
G01*
X158460483Y-95207000D01*
X158400277Y-94966481D01*
X158092287Y-94966481D01*
X158032081Y-95207000D01*
X157768909Y-95207000D01*
X157903347Y-94773224D01*
X158139914Y-94773224D01*
X158352711Y-94773224D01*
X158330301Y-94684930D01*
X158254659Y-94367891D01*
X158250495Y-94349829D01*
X158244877Y-94349829D01*
X158206060Y-94508041D01*
X158162262Y-94684930D01*
X158139914Y-94773224D01*
X157903347Y-94773224D01*
X158092287Y-94163594D01*
X158391912Y-94163594D01*
X158715289Y-95207000D01*
G37*
G36*
X157660465Y-95207000D02*
G01*
X157409872Y-95207000D01*
X157409872Y-94163594D01*
X157660465Y-94163594D01*
X157660465Y-95207000D01*
G37*
G36*
X157171003Y-95207000D02*
G01*
X156515821Y-95207000D01*
X156515821Y-94997012D01*
X156920409Y-94997012D01*
X156920409Y-94163594D01*
X157171003Y-94163594D01*
X157171003Y-95207000D01*
G37*
G36*
X156209663Y-95226539D02*
G01*
X156162595Y-95219096D01*
X156121533Y-95197591D01*
X156088971Y-95163424D01*
X156076828Y-95142232D01*
X156067990Y-95118891D01*
X156061285Y-95071200D01*
X156068759Y-95021611D01*
X156090395Y-94977982D01*
X156105925Y-94959607D01*
X156124202Y-94944074D01*
X156144600Y-94931907D01*
X156167124Y-94923170D01*
X156209663Y-94917144D01*
X156234287Y-94919050D01*
X156257273Y-94924577D01*
X156298322Y-94945935D01*
X156330660Y-94979780D01*
X156342716Y-95000815D01*
X156351466Y-95023946D01*
X156358101Y-95071200D01*
X156356187Y-95097332D01*
X156350602Y-95121981D01*
X156341454Y-95145085D01*
X156329035Y-95165992D01*
X156313649Y-95184303D01*
X156295503Y-95199758D01*
X156275257Y-95211816D01*
X156252820Y-95220484D01*
X156209663Y-95226539D01*
G37*
G36*
X155403234Y-95226539D02*
G01*
X155358294Y-95224587D01*
X155314905Y-95218738D01*
X155274175Y-95209299D01*
X155235052Y-95196179D01*
X155198146Y-95179667D01*
X155162928Y-95159603D01*
X155097954Y-95109004D01*
X155063065Y-95072544D01*
X155194651Y-94915496D01*
X155222259Y-94942504D01*
X155253161Y-94966402D01*
X155282506Y-94983794D01*
X155314196Y-94997435D01*
X155344368Y-95005895D01*
X155376316Y-95010384D01*
X155393464Y-95010995D01*
X155424996Y-95009054D01*
X155454748Y-95003286D01*
X155481963Y-94994045D01*
X155507289Y-94981312D01*
X155551666Y-94945902D01*
X155587926Y-94896710D01*
X155615208Y-94832612D01*
X155631734Y-94752323D01*
X155635631Y-94682549D01*
X155633716Y-94637159D01*
X155628129Y-94594800D01*
X155619145Y-94555719D01*
X155606983Y-94519849D01*
X155591993Y-94487512D01*
X155574327Y-94458540D01*
X155554425Y-94433269D01*
X155532343Y-94411490D01*
X155508575Y-94393477D01*
X155483105Y-94379068D01*
X155456389Y-94368434D01*
X155428419Y-94361523D01*
X155390655Y-94358256D01*
X155360808Y-94360157D01*
X155332961Y-94365649D01*
X155280238Y-94387210D01*
X155226821Y-94424867D01*
X155210038Y-94439711D01*
X155078452Y-94279854D01*
X155110368Y-94250239D01*
X155146472Y-94222610D01*
X155183234Y-94199681D01*
X155223250Y-94179823D01*
X155262587Y-94164915D01*
X155304423Y-94153644D01*
X155345294Y-94146895D01*
X155388133Y-94144106D01*
X155394869Y-94144055D01*
X155439945Y-94145999D01*
X155484164Y-94151796D01*
X155527196Y-94161362D01*
X155568928Y-94174650D01*
X155608832Y-94191462D01*
X155647015Y-94211831D01*
X155682843Y-94235400D01*
X155716567Y-94262339D01*
X155747554Y-94292147D01*
X155776088Y-94325130D01*
X155801626Y-94360714D01*
X155824389Y-94399287D01*
X155843966Y-94440290D01*
X155860457Y-94484119D01*
X155873575Y-94530307D01*
X155883296Y-94579182D01*
X155889415Y-94630424D01*
X155891813Y-94684235D01*
X155891842Y-94690975D01*
X155889917Y-94746682D01*
X155884256Y-94799383D01*
X155875106Y-94848748D01*
X155862609Y-94895128D01*
X155846981Y-94938405D01*
X155828360Y-94978695D01*
X155806849Y-95016092D01*
X155782666Y-95050466D01*
X155726395Y-95110608D01*
X155660226Y-95158967D01*
X155584814Y-95195015D01*
X155501027Y-95217882D01*
X155410152Y-95226497D01*
X155403234Y-95226539D01*
G37*
G36*
X154589609Y-94146000D02*
G01*
X154636202Y-94151801D01*
X154679694Y-94161138D01*
X154721092Y-94174055D01*
X154759501Y-94190130D01*
X154795687Y-94209548D01*
X154829069Y-94231907D01*
X154860091Y-94257423D01*
X154888473Y-94285857D01*
X154914329Y-94317322D01*
X154958151Y-94389348D01*
X154990901Y-94473940D01*
X155011483Y-94571693D01*
X155018429Y-94679740D01*
X155016495Y-94737978D01*
X155010774Y-94793345D01*
X155001571Y-94844909D01*
X154988937Y-94893548D01*
X154973286Y-94938433D01*
X154954539Y-94980352D01*
X154933164Y-95018652D01*
X154908996Y-95053942D01*
X154882469Y-95085795D01*
X154853415Y-95114578D01*
X154822125Y-95140085D01*
X154788535Y-95162430D01*
X154714755Y-95197411D01*
X154632242Y-95219066D01*
X154541057Y-95226539D01*
X154493817Y-95224597D01*
X154448428Y-95218819D01*
X154405716Y-95209468D01*
X154365003Y-95196546D01*
X154326900Y-95180366D01*
X154290945Y-95160843D01*
X154257495Y-95138232D01*
X154226357Y-95112457D01*
X154171457Y-95051732D01*
X154126731Y-94978661D01*
X154093018Y-94893026D01*
X154071512Y-94794563D01*
X154063690Y-94683110D01*
X154063684Y-94679740D01*
X154318429Y-94679740D01*
X154320361Y-94731284D01*
X154326066Y-94779154D01*
X154334994Y-94821558D01*
X154347171Y-94860181D01*
X154361653Y-94893227D01*
X154378861Y-94922531D01*
X154397573Y-94946682D01*
X154418550Y-94967202D01*
X154440623Y-94983289D01*
X154464607Y-94995820D01*
X154489796Y-95004514D01*
X154516664Y-95009596D01*
X154541057Y-95010995D01*
X154569622Y-95009060D01*
X154596492Y-95003330D01*
X154621237Y-94994087D01*
X154644206Y-94981381D01*
X154685009Y-94945503D01*
X154718813Y-94894700D01*
X154744362Y-94827357D01*
X154759397Y-94742142D01*
X154762219Y-94679740D01*
X154760286Y-94628273D01*
X154754571Y-94580813D01*
X154745704Y-94539385D01*
X154733615Y-94501873D01*
X154719296Y-94470077D01*
X154702279Y-94442021D01*
X154683727Y-94418962D01*
X154662911Y-94399461D01*
X154640801Y-94384134D01*
X154616735Y-94372278D01*
X154563696Y-94359381D01*
X154541057Y-94358256D01*
X154511507Y-94360195D01*
X154483734Y-94365954D01*
X154458406Y-94375180D01*
X154434925Y-94387882D01*
X154393759Y-94423450D01*
X154360151Y-94473473D01*
X154335140Y-94539573D01*
X154320800Y-94623392D01*
X154318429Y-94679740D01*
X154063684Y-94679740D01*
X154065618Y-94621818D01*
X154071340Y-94566916D01*
X154080514Y-94516063D01*
X154093101Y-94468222D01*
X154108667Y-94424244D01*
X154127306Y-94383269D01*
X154148560Y-94345902D01*
X154172587Y-94311545D01*
X154199020Y-94280528D01*
X154227974Y-94252558D01*
X154292919Y-94206017D01*
X154367238Y-94171994D01*
X154450952Y-94151017D01*
X154541057Y-94144055D01*
X154589609Y-94146000D01*
G37*
G36*
X153870793Y-95207000D02*
G01*
X153646762Y-95207000D01*
X153646762Y-94849428D01*
X153653290Y-94720003D01*
X153677929Y-94495726D01*
X153679002Y-94487033D01*
X153673384Y-94487033D01*
X153589364Y-94736832D01*
X153448009Y-95118584D01*
X153310806Y-95118584D01*
X153170793Y-94736832D01*
X153083965Y-94487033D01*
X153078408Y-94487033D01*
X153079726Y-94497758D01*
X153099875Y-94674211D01*
X153107535Y-94766301D01*
X153110587Y-94849123D01*
X153110587Y-95207000D01*
X152882404Y-95207000D01*
X152882404Y-94163594D01*
X153154002Y-94163594D01*
X153313553Y-94613367D01*
X153341232Y-94705391D01*
X153371011Y-94804243D01*
X153377972Y-94804243D01*
X153398059Y-94735384D01*
X153435369Y-94613367D01*
X153600600Y-94163594D01*
X153870793Y-94163594D01*
X153870793Y-95207000D01*
G37*
X135627904Y-62954819D02*
X135056476Y-62954819D01*
X135342190Y-63954819D02*
X135342190Y-62954819D01*
X134723142Y-63954819D02*
X134723142Y-62954819D01*
X134723142Y-62954819D02*
X134342190Y-62954819D01*
X134342190Y-62954819D02*
X134246952Y-63002438D01*
X134246952Y-63002438D02*
X134199333Y-63050057D01*
X134199333Y-63050057D02*
X134151714Y-63145295D01*
X134151714Y-63145295D02*
X134151714Y-63288152D01*
X134151714Y-63288152D02*
X134199333Y-63383390D01*
X134199333Y-63383390D02*
X134246952Y-63431009D01*
X134246952Y-63431009D02*
X134342190Y-63478628D01*
X134342190Y-63478628D02*
X134723142Y-63478628D01*
X133199333Y-63954819D02*
X133770761Y-63954819D01*
X133485047Y-63954819D02*
X133485047Y-62954819D01*
X133485047Y-62954819D02*
X133580285Y-63097676D01*
X133580285Y-63097676D02*
X133675523Y-63192914D01*
X133675523Y-63192914D02*
X133770761Y-63240533D01*
X156774819Y-63166666D02*
X157489104Y-63166666D01*
X157489104Y-63166666D02*
X157631961Y-63119047D01*
X157631961Y-63119047D02*
X157727200Y-63023809D01*
X157727200Y-63023809D02*
X157774819Y-62880952D01*
X157774819Y-62880952D02*
X157774819Y-62785714D01*
X156870057Y-63595238D02*
X156822438Y-63642857D01*
X156822438Y-63642857D02*
X156774819Y-63738095D01*
X156774819Y-63738095D02*
X156774819Y-63976190D01*
X156774819Y-63976190D02*
X156822438Y-64071428D01*
X156822438Y-64071428D02*
X156870057Y-64119047D01*
X156870057Y-64119047D02*
X156965295Y-64166666D01*
X156965295Y-64166666D02*
X157060533Y-64166666D01*
X157060533Y-64166666D02*
X157203390Y-64119047D01*
X157203390Y-64119047D02*
X157774819Y-63547619D01*
X157774819Y-63547619D02*
X157774819Y-64166666D01*
D11*
%TO.C,G\u002A\u002A\u002A*%
G36*
X108043000Y-87386000D02*
G01*
X108043000Y-88241000D01*
X107188000Y-88241000D01*
X106333000Y-88241000D01*
X106333000Y-87991000D01*
X106583000Y-87991000D01*
X107193000Y-87991000D01*
X107803000Y-87991000D01*
X107803000Y-87381000D01*
X107803000Y-86771000D01*
X107193000Y-86771000D01*
X106583000Y-86771000D01*
X106583000Y-87381000D01*
X106583000Y-87991000D01*
X106333000Y-87991000D01*
X106333000Y-87386000D01*
X106333000Y-87381000D01*
X106333000Y-86531000D01*
X107188000Y-86531000D01*
X108043000Y-86531000D01*
X108043000Y-87386000D01*
G37*
G36*
X113653000Y-90191000D02*
G01*
X113773000Y-90191000D01*
X113893000Y-90191000D01*
X113893000Y-90066000D01*
X113893000Y-89941000D01*
X114138000Y-89941000D01*
X114383000Y-89941000D01*
X114383000Y-90066000D01*
X114383000Y-90191000D01*
X114263000Y-90191000D01*
X114143000Y-90191000D01*
X114143000Y-90311000D01*
X114143000Y-90431000D01*
X113898000Y-90431000D01*
X113653000Y-90431000D01*
X113653000Y-90676000D01*
X113653000Y-90921000D01*
X113773000Y-90921000D01*
X113893000Y-90921000D01*
X113893000Y-90796000D01*
X113893000Y-90671000D01*
X114138000Y-90671000D01*
X114383000Y-90671000D01*
X114383000Y-90796000D01*
X114383000Y-90921000D01*
X114263000Y-90921000D01*
X114143000Y-90921000D01*
X114143000Y-91041000D01*
X114143000Y-91161000D01*
X114018000Y-91161000D01*
X113893000Y-91161000D01*
X113893000Y-91286000D01*
X113893000Y-91411000D01*
X114018000Y-91411000D01*
X114143000Y-91411000D01*
X114143000Y-91531000D01*
X114143000Y-91651000D01*
X113898000Y-91651000D01*
X113653000Y-91651000D01*
X113653000Y-91531000D01*
X113653000Y-91411000D01*
X113533000Y-91411000D01*
X113413000Y-91411000D01*
X113413000Y-91286000D01*
X113413000Y-91161000D01*
X113288000Y-91161000D01*
X113163000Y-91161000D01*
X113163000Y-91286000D01*
X113163000Y-91411000D01*
X112918000Y-91411000D01*
X112673000Y-91411000D01*
X112673000Y-91286000D01*
X112673000Y-91161000D01*
X112798000Y-91161000D01*
X112923000Y-91161000D01*
X112923000Y-91041000D01*
X112923000Y-90921000D01*
X113168000Y-90921000D01*
X113413000Y-90921000D01*
X113413000Y-90796000D01*
X113413000Y-90671000D01*
X113288000Y-90671000D01*
X113163000Y-90671000D01*
X113163000Y-90551000D01*
X113163000Y-90431000D01*
X113043000Y-90431000D01*
X112923000Y-90431000D01*
X112923000Y-90676000D01*
X112923000Y-90921000D01*
X112798000Y-90921000D01*
X112673000Y-90921000D01*
X112673000Y-90796000D01*
X112673000Y-90676000D01*
X112673000Y-90671000D01*
X112553000Y-90671000D01*
X112433000Y-90671000D01*
X112433000Y-90551000D01*
X112433000Y-90431000D01*
X112313000Y-90431000D01*
X112193000Y-90431000D01*
X112193000Y-90311000D01*
X113163000Y-90311000D01*
X113163000Y-90431000D01*
X113288000Y-90431000D01*
X113413000Y-90431000D01*
X113413000Y-90311000D01*
X113413000Y-90191000D01*
X113288000Y-90191000D01*
X113163000Y-90191000D01*
X113163000Y-90311000D01*
X112193000Y-90311000D01*
X112193000Y-90191000D01*
X111948000Y-90191000D01*
X111703000Y-90191000D01*
X111703000Y-90311000D01*
X111703000Y-90431000D01*
X111583000Y-90431000D01*
X111463000Y-90431000D01*
X111463000Y-90551000D01*
X111463000Y-90671000D01*
X111583000Y-90671000D01*
X111703000Y-90671000D01*
X111703000Y-90796000D01*
X111703000Y-90921000D01*
X111823000Y-90921000D01*
X111943000Y-90921000D01*
X111943000Y-90796000D01*
X111943000Y-90671000D01*
X112068000Y-90671000D01*
X112193000Y-90671000D01*
X112193000Y-90796000D01*
X112193000Y-90921000D01*
X112313000Y-90921000D01*
X112433000Y-90921000D01*
X112433000Y-91041000D01*
X112433000Y-91161000D01*
X112188000Y-91161000D01*
X111943000Y-91161000D01*
X111943000Y-91286000D01*
X111943000Y-91411000D01*
X111823000Y-91411000D01*
X111703000Y-91411000D01*
X111703000Y-91651000D01*
X111703000Y-91891000D01*
X111583000Y-91891000D01*
X111463000Y-91891000D01*
X111463000Y-91771000D01*
X111463000Y-91651000D01*
X111338000Y-91651000D01*
X111213000Y-91651000D01*
X111213000Y-91896000D01*
X111213000Y-92141000D01*
X111458000Y-92141000D01*
X111703000Y-92141000D01*
X111703000Y-92016000D01*
X111703000Y-91891000D01*
X111823000Y-91891000D01*
X111943000Y-91891000D01*
X111943000Y-92261000D01*
X111943000Y-92631000D01*
X112068000Y-92631000D01*
X112193000Y-92631000D01*
X112193000Y-92751000D01*
X112193000Y-92871000D01*
X112068000Y-92871000D01*
X111943000Y-92871000D01*
X111943000Y-93116000D01*
X111943000Y-93361000D01*
X111823000Y-93361000D01*
X111703000Y-93361000D01*
X111703000Y-93116000D01*
X111703000Y-92871000D01*
X111583000Y-92871000D01*
X111463000Y-92871000D01*
X111463000Y-92991000D01*
X111463000Y-93111000D01*
X111338000Y-93111000D01*
X111213000Y-93111000D01*
X111213000Y-92991000D01*
X111213000Y-92871000D01*
X111093000Y-92871000D01*
X110973000Y-92871000D01*
X110973000Y-92751000D01*
X110973000Y-92631000D01*
X111093000Y-92631000D01*
X111213000Y-92631000D01*
X111213000Y-92506000D01*
X111213000Y-92381000D01*
X111093000Y-92381000D01*
X110973000Y-92381000D01*
X110973000Y-92506000D01*
X110973000Y-92631000D01*
X110608000Y-92631000D01*
X110243000Y-92631000D01*
X110243000Y-92751000D01*
X110243000Y-92871000D01*
X110118000Y-92871000D01*
X109993000Y-92871000D01*
X109993000Y-92751000D01*
X109993000Y-92631000D01*
X109873000Y-92631000D01*
X109753000Y-92631000D01*
X109753000Y-92751000D01*
X109753000Y-92871000D01*
X109628000Y-92871000D01*
X109503000Y-92871000D01*
X109503000Y-92991000D01*
X109503000Y-93111000D01*
X109628000Y-93111000D01*
X109753000Y-93111000D01*
X109753000Y-92991000D01*
X109753000Y-92871000D01*
X109873000Y-92871000D01*
X109993000Y-92871000D01*
X109993000Y-92991000D01*
X109993000Y-93111000D01*
X110118000Y-93111000D01*
X110243000Y-93111000D01*
X110243000Y-92991000D01*
X110243000Y-92871000D01*
X110363000Y-92871000D01*
X110483000Y-92871000D01*
X110483000Y-92991000D01*
X110483000Y-93111000D01*
X110603000Y-93111000D01*
X110723000Y-93111000D01*
X110723000Y-93236000D01*
X110723000Y-93361000D01*
X110483000Y-93361000D01*
X110243000Y-93361000D01*
X110243000Y-93481000D01*
X110243000Y-93601000D01*
X110363000Y-93601000D01*
X110483000Y-93601000D01*
X110483000Y-93726000D01*
X110483000Y-93851000D01*
X110603000Y-93851000D01*
X110723000Y-93851000D01*
X110723000Y-93726000D01*
X110723000Y-93601000D01*
X110848000Y-93601000D01*
X110973000Y-93601000D01*
X110973000Y-93726000D01*
X110973000Y-93851000D01*
X111583000Y-93851000D01*
X112193000Y-93851000D01*
X112193000Y-93971000D01*
X112193000Y-94091000D01*
X112313000Y-94091000D01*
X112433000Y-94091000D01*
X112433000Y-94336000D01*
X112433000Y-94581000D01*
X112313000Y-94581000D01*
X112193000Y-94581000D01*
X112193000Y-94456000D01*
X112193000Y-94331000D01*
X111948000Y-94331000D01*
X111703000Y-94331000D01*
X111703000Y-94456000D01*
X111703000Y-94581000D01*
X111458000Y-94581000D01*
X111213000Y-94581000D01*
X111213000Y-94456000D01*
X111213000Y-94331000D01*
X111458000Y-94331000D01*
X111703000Y-94331000D01*
X111703000Y-94211000D01*
X111703000Y-94091000D01*
X111213000Y-94091000D01*
X110723000Y-94091000D01*
X110723000Y-94211000D01*
X110723000Y-94331000D01*
X110238000Y-94331000D01*
X109753000Y-94331000D01*
X109753000Y-94456000D01*
X109753000Y-94581000D01*
X109508000Y-94581000D01*
X109263000Y-94581000D01*
X109263000Y-94456000D01*
X109263000Y-94331000D01*
X109143000Y-94331000D01*
X109023000Y-94331000D01*
X109023000Y-94456000D01*
X109023000Y-94581000D01*
X108898000Y-94581000D01*
X108773000Y-94581000D01*
X108773000Y-94456000D01*
X108773000Y-94331000D01*
X108653000Y-94331000D01*
X108533000Y-94331000D01*
X108533000Y-94211000D01*
X108533000Y-94091000D01*
X108408000Y-94091000D01*
X108283000Y-94091000D01*
X108283000Y-93361000D01*
X108283000Y-92631000D01*
X108408000Y-92631000D01*
X108533000Y-92631000D01*
X108533000Y-93241000D01*
X108533000Y-93851000D01*
X108653000Y-93851000D01*
X108773000Y-93851000D01*
X108773000Y-93971000D01*
X108773000Y-94091000D01*
X109018000Y-94091000D01*
X109263000Y-94091000D01*
X109753000Y-94091000D01*
X109998000Y-94091000D01*
X110243000Y-94091000D01*
X110243000Y-93971000D01*
X110243000Y-93851000D01*
X109998000Y-93851000D01*
X109753000Y-93851000D01*
X109753000Y-93971000D01*
X109753000Y-94091000D01*
X109263000Y-94091000D01*
X109263000Y-93971000D01*
X109263000Y-93846000D01*
X109263000Y-93601000D01*
X109383000Y-93601000D01*
X109503000Y-93601000D01*
X109503000Y-93726000D01*
X109503000Y-93851000D01*
X109628000Y-93851000D01*
X109753000Y-93851000D01*
X109753000Y-93726000D01*
X109753000Y-93601000D01*
X109873000Y-93601000D01*
X109993000Y-93601000D01*
X109993000Y-93356000D01*
X109993000Y-93111000D01*
X109873000Y-93111000D01*
X109753000Y-93111000D01*
X109753000Y-93236000D01*
X109753000Y-93361000D01*
X109388000Y-93361000D01*
X109023000Y-93361000D01*
X109023000Y-93236000D01*
X109023000Y-93111000D01*
X109143000Y-93111000D01*
X109263000Y-93111000D01*
X109263000Y-92991000D01*
X109263000Y-92871000D01*
X109143000Y-92871000D01*
X109023000Y-92871000D01*
X109023000Y-92991000D01*
X109023000Y-93111000D01*
X108898000Y-93111000D01*
X108773000Y-93111000D01*
X108773000Y-92991000D01*
X108773000Y-92871000D01*
X108898000Y-92871000D01*
X109023000Y-92871000D01*
X109023000Y-92626000D01*
X109023000Y-92381000D01*
X109143000Y-92381000D01*
X109263000Y-92381000D01*
X109263000Y-92506000D01*
X109263000Y-92631000D01*
X109383000Y-92631000D01*
X109503000Y-92631000D01*
X109503000Y-92506000D01*
X109503000Y-92381000D01*
X109628000Y-92381000D01*
X109753000Y-92381000D01*
X110483000Y-92381000D01*
X110603000Y-92381000D01*
X110723000Y-92381000D01*
X110723000Y-92261000D01*
X110723000Y-92141000D01*
X110603000Y-92141000D01*
X110483000Y-92141000D01*
X110483000Y-92261000D01*
X110483000Y-92381000D01*
X109753000Y-92381000D01*
X109753000Y-92261000D01*
X109753000Y-92141000D01*
X109873000Y-92141000D01*
X109993000Y-92141000D01*
X109993000Y-92016000D01*
X110723000Y-92016000D01*
X110723000Y-92141000D01*
X110848000Y-92141000D01*
X110973000Y-92141000D01*
X110973000Y-92016000D01*
X110973000Y-91891000D01*
X110848000Y-91891000D01*
X110723000Y-91891000D01*
X110723000Y-92016000D01*
X109993000Y-92016000D01*
X109993000Y-91891000D01*
X110118000Y-91891000D01*
X110243000Y-91891000D01*
X110243000Y-91771000D01*
X110243000Y-91651000D01*
X110363000Y-91651000D01*
X110483000Y-91651000D01*
X110483000Y-91771000D01*
X110483000Y-91891000D01*
X110603000Y-91891000D01*
X110723000Y-91891000D01*
X110723000Y-91771000D01*
X110723000Y-91651000D01*
X110603000Y-91651000D01*
X110483000Y-91651000D01*
X110483000Y-91531000D01*
X110483000Y-91411000D01*
X110728000Y-91411000D01*
X110973000Y-91411000D01*
X110973000Y-91531000D01*
X110973000Y-91651000D01*
X111093000Y-91651000D01*
X111213000Y-91651000D01*
X111213000Y-91531000D01*
X111213000Y-91411000D01*
X111093000Y-91411000D01*
X110973000Y-91411000D01*
X110973000Y-91166000D01*
X110973000Y-91161000D01*
X111213000Y-91161000D01*
X111458000Y-91161000D01*
X111703000Y-91161000D01*
X111703000Y-91041000D01*
X111703000Y-90921000D01*
X111458000Y-90921000D01*
X111213000Y-90921000D01*
X111213000Y-91041000D01*
X111213000Y-91161000D01*
X110973000Y-91161000D01*
X110973000Y-91041000D01*
X110973000Y-90921000D01*
X110848000Y-90921000D01*
X110723000Y-90921000D01*
X110723000Y-90676000D01*
X110723000Y-90431000D01*
X110848000Y-90431000D01*
X110973000Y-90431000D01*
X110973000Y-90551000D01*
X110973000Y-90671000D01*
X111093000Y-90671000D01*
X111213000Y-90671000D01*
X111213000Y-90431000D01*
X111213000Y-90191000D01*
X111338000Y-90191000D01*
X111463000Y-90191000D01*
X111463000Y-90066000D01*
X111463000Y-89941000D01*
X111583000Y-89941000D01*
X111703000Y-89941000D01*
X111703000Y-89696000D01*
X111703000Y-89451000D01*
X111583000Y-89451000D01*
X111463000Y-89451000D01*
X111463000Y-89331000D01*
X111463000Y-89211000D01*
X111703000Y-89211000D01*
X111943000Y-89211000D01*
X111943000Y-89456000D01*
X111943000Y-89701000D01*
X112068000Y-89701000D01*
X112193000Y-89701000D01*
X112193000Y-89821000D01*
X112193000Y-89941000D01*
X112313000Y-89941000D01*
X112433000Y-89941000D01*
X112433000Y-89701000D01*
X112673000Y-89701000D01*
X112673000Y-89946000D01*
X112673000Y-90191000D01*
X112918000Y-90191000D01*
X113163000Y-90191000D01*
X113163000Y-90066000D01*
X113163000Y-89941000D01*
X113288000Y-89941000D01*
X113413000Y-89941000D01*
X113413000Y-89821000D01*
X113413000Y-89701000D01*
X113533000Y-89701000D01*
X113653000Y-89701000D01*
X113653000Y-89576000D01*
X113653000Y-89451000D01*
X113408000Y-89451000D01*
X113163000Y-89451000D01*
X113163000Y-89576000D01*
X113163000Y-89701000D01*
X112918000Y-89701000D01*
X112673000Y-89701000D01*
X112433000Y-89701000D01*
X112433000Y-89696000D01*
X112433000Y-89451000D01*
X112313000Y-89451000D01*
X112193000Y-89451000D01*
X112193000Y-89331000D01*
X112923000Y-89331000D01*
X112923000Y-89451000D01*
X113043000Y-89451000D01*
X113163000Y-89451000D01*
X113163000Y-89331000D01*
X113163000Y-89211000D01*
X113043000Y-89211000D01*
X112923000Y-89211000D01*
X112923000Y-89331000D01*
X112193000Y-89331000D01*
X112193000Y-89211000D01*
X112193000Y-88971000D01*
X112313000Y-88971000D01*
X112433000Y-88971000D01*
X112433000Y-89091000D01*
X112433000Y-89211000D01*
X112678000Y-89211000D01*
X112923000Y-89211000D01*
X112923000Y-89091000D01*
X112923000Y-88971000D01*
X112798000Y-88971000D01*
X112673000Y-88971000D01*
X112673000Y-88846000D01*
X112673000Y-88721000D01*
X112433000Y-88721000D01*
X112193000Y-88721000D01*
X112193000Y-88601000D01*
X112193000Y-88481000D01*
X112433000Y-88481000D01*
X112798000Y-88481000D01*
X113163000Y-88481000D01*
X113163000Y-88241000D01*
X113653000Y-88241000D01*
X113773000Y-88241000D01*
X113893000Y-88241000D01*
X113893000Y-88116000D01*
X113893000Y-87991000D01*
X113773000Y-87991000D01*
X113653000Y-87991000D01*
X113653000Y-88116000D01*
X113653000Y-88241000D01*
X113163000Y-88241000D01*
X113163000Y-88116000D01*
X113163000Y-87751000D01*
X113413000Y-87751000D01*
X113533000Y-87751000D01*
X113653000Y-87751000D01*
X113653000Y-87626000D01*
X113653000Y-87501000D01*
X113533000Y-87501000D01*
X113413000Y-87501000D01*
X113413000Y-87626000D01*
X113413000Y-87751000D01*
X113163000Y-87751000D01*
X112798000Y-87751000D01*
X112433000Y-87751000D01*
X112433000Y-88116000D01*
X112433000Y-88481000D01*
X112193000Y-88481000D01*
X112068000Y-88481000D01*
X111943000Y-88481000D01*
X111943000Y-88361000D01*
X111943000Y-88241000D01*
X111823000Y-88241000D01*
X111703000Y-88241000D01*
X111703000Y-88361000D01*
X111703000Y-88481000D01*
X111583000Y-88481000D01*
X111463000Y-88481000D01*
X111463000Y-88726000D01*
X111463000Y-88971000D01*
X111338000Y-88971000D01*
X111213000Y-88971000D01*
X111213000Y-89091000D01*
X111213000Y-89211000D01*
X111093000Y-89211000D01*
X110973000Y-89211000D01*
X110973000Y-88966000D01*
X110973000Y-88721000D01*
X111093000Y-88721000D01*
X111213000Y-88721000D01*
X111213000Y-88601000D01*
X111213000Y-88481000D01*
X111093000Y-88481000D01*
X110973000Y-88481000D01*
X110973000Y-88361000D01*
X110973000Y-88241000D01*
X111213000Y-88241000D01*
X111338000Y-88241000D01*
X111463000Y-88241000D01*
X111463000Y-88116000D01*
X111463000Y-87991000D01*
X111703000Y-87991000D01*
X111823000Y-87991000D01*
X111943000Y-87991000D01*
X111943000Y-87871000D01*
X111943000Y-87751000D01*
X112068000Y-87751000D01*
X112193000Y-87751000D01*
X112193000Y-87626000D01*
X112193000Y-87501000D01*
X112313000Y-87501000D01*
X112433000Y-87501000D01*
X112433000Y-87381000D01*
X112433000Y-87261000D01*
X112188000Y-87261000D01*
X111943000Y-87261000D01*
X111943000Y-87381000D01*
X111943000Y-87501000D01*
X111823000Y-87501000D01*
X111703000Y-87501000D01*
X111703000Y-87746000D01*
X111703000Y-87991000D01*
X111463000Y-87991000D01*
X111338000Y-87991000D01*
X111213000Y-87991000D01*
X111213000Y-88116000D01*
X111213000Y-88241000D01*
X110973000Y-88241000D01*
X110848000Y-88241000D01*
X110723000Y-88241000D01*
X110723000Y-88116000D01*
X110723000Y-87751000D01*
X110973000Y-87751000D01*
X111218000Y-87751000D01*
X111463000Y-87751000D01*
X111463000Y-87746000D01*
X111463000Y-87626000D01*
X111463000Y-87501000D01*
X111218000Y-87501000D01*
X110973000Y-87501000D01*
X110973000Y-87626000D01*
X110973000Y-87751000D01*
X110723000Y-87751000D01*
X110723000Y-87626000D01*
X110723000Y-87261000D01*
X110973000Y-87261000D01*
X111093000Y-87261000D01*
X111213000Y-87261000D01*
X111463000Y-87261000D01*
X111583000Y-87261000D01*
X111703000Y-87261000D01*
X111703000Y-87141000D01*
X111703000Y-87021000D01*
X111583000Y-87021000D01*
X111463000Y-87021000D01*
X111463000Y-87141000D01*
X111463000Y-87261000D01*
X111213000Y-87261000D01*
X111213000Y-87141000D01*
X111213000Y-87021000D01*
X111093000Y-87021000D01*
X110973000Y-87021000D01*
X110973000Y-87141000D01*
X110973000Y-87261000D01*
X110723000Y-87261000D01*
X110603000Y-87261000D01*
X110483000Y-87261000D01*
X110483000Y-87381000D01*
X110483000Y-87501000D01*
X110363000Y-87501000D01*
X110243000Y-87501000D01*
X110243000Y-87626000D01*
X110243000Y-87751000D01*
X109873000Y-87751000D01*
X109503000Y-87751000D01*
X109503000Y-87626000D01*
X109503000Y-87501000D01*
X109748000Y-87501000D01*
X109993000Y-87501000D01*
X109993000Y-87381000D01*
X109993000Y-87261000D01*
X109748000Y-87261000D01*
X109503000Y-87261000D01*
X109503000Y-87381000D01*
X109503000Y-87501000D01*
X109383000Y-87501000D01*
X109263000Y-87501000D01*
X109263000Y-87626000D01*
X109263000Y-87751000D01*
X109383000Y-87751000D01*
X109503000Y-87751000D01*
X109503000Y-87871000D01*
X109503000Y-87991000D01*
X109263000Y-87991000D01*
X109023000Y-87991000D01*
X109023000Y-88236000D01*
X109023000Y-88481000D01*
X109143000Y-88481000D01*
X109263000Y-88481000D01*
X109263000Y-88361000D01*
X109263000Y-88241000D01*
X109628000Y-88241000D01*
X109993000Y-88241000D01*
X109993000Y-88361000D01*
X109993000Y-88481000D01*
X110118000Y-88481000D01*
X110243000Y-88481000D01*
X110243000Y-88726000D01*
X110243000Y-88971000D01*
X110483000Y-88971000D01*
X110723000Y-88971000D01*
X110723000Y-89091000D01*
X110723000Y-89211000D01*
X110483000Y-89211000D01*
X110243000Y-89211000D01*
X110243000Y-89331000D01*
X110243000Y-89451000D01*
X110608000Y-89451000D01*
X110973000Y-89451000D01*
X110973000Y-89576000D01*
X110973000Y-89701000D01*
X110728000Y-89701000D01*
X110483000Y-89701000D01*
X110483000Y-89821000D01*
X110483000Y-89941000D01*
X110363000Y-89941000D01*
X110243000Y-89941000D01*
X110243000Y-89821000D01*
X110243000Y-89701000D01*
X110118000Y-89701000D01*
X109993000Y-89701000D01*
X109993000Y-89456000D01*
X109993000Y-89211000D01*
X109873000Y-89211000D01*
X109753000Y-89211000D01*
X109753000Y-89091000D01*
X109753000Y-88971000D01*
X109873000Y-88971000D01*
X109993000Y-88971000D01*
X109993000Y-88846000D01*
X109993000Y-88721000D01*
X109873000Y-88721000D01*
X109753000Y-88721000D01*
X109753000Y-88846000D01*
X109753000Y-88971000D01*
X109628000Y-88971000D01*
X109503000Y-88971000D01*
X109503000Y-89336000D01*
X109503000Y-89701000D01*
X109383000Y-89701000D01*
X109263000Y-89701000D01*
X109263000Y-89576000D01*
X109263000Y-89451000D01*
X108898000Y-89451000D01*
X108533000Y-89451000D01*
X108533000Y-89576000D01*
X108533000Y-89701000D01*
X108408000Y-89701000D01*
X108283000Y-89701000D01*
X108283000Y-89946000D01*
X108283000Y-90191000D01*
X108043000Y-90191000D01*
X107803000Y-90191000D01*
X107803000Y-90311000D01*
X107803000Y-90431000D01*
X107678000Y-90431000D01*
X107553000Y-90431000D01*
X107553000Y-90551000D01*
X107553000Y-90671000D01*
X107433000Y-90671000D01*
X107313000Y-90671000D01*
X107313000Y-90551000D01*
X107313000Y-90431000D01*
X107068000Y-90431000D01*
X106823000Y-90431000D01*
X106823000Y-90311000D01*
X106823000Y-90191000D01*
X106703000Y-90191000D01*
X106583000Y-90191000D01*
X106583000Y-90311000D01*
X106583000Y-90431000D01*
X106458000Y-90431000D01*
X106333000Y-90431000D01*
X106333000Y-90311000D01*
X106333000Y-90191000D01*
X106458000Y-90191000D01*
X106583000Y-90191000D01*
X106583000Y-90066000D01*
X106583000Y-89941000D01*
X106458000Y-89941000D01*
X106333000Y-89941000D01*
X106333000Y-89821000D01*
X106333000Y-89701000D01*
X106458000Y-89701000D01*
X106583000Y-89701000D01*
X106583000Y-89696000D01*
X106583000Y-89576000D01*
X106583000Y-89451000D01*
X106458000Y-89451000D01*
X106333000Y-89451000D01*
X106333000Y-88966000D01*
X106333000Y-88481000D01*
X106458000Y-88481000D01*
X106583000Y-88481000D01*
X106583000Y-88846000D01*
X106583000Y-89211000D01*
X106703000Y-89211000D01*
X106823000Y-89211000D01*
X106823000Y-89091000D01*
X106823000Y-88971000D01*
X106943000Y-88971000D01*
X107063000Y-88971000D01*
X107063000Y-88846000D01*
X107313000Y-88846000D01*
X107313000Y-88971000D01*
X107433000Y-88971000D01*
X107553000Y-88971000D01*
X107553000Y-88846000D01*
X107553000Y-88721000D01*
X107433000Y-88721000D01*
X107313000Y-88721000D01*
X107313000Y-88846000D01*
X107063000Y-88846000D01*
X107063000Y-88721000D01*
X106943000Y-88721000D01*
X106823000Y-88721000D01*
X106823000Y-88601000D01*
X106823000Y-88481000D01*
X107553000Y-88481000D01*
X108283000Y-88481000D01*
X108283000Y-88361000D01*
X108283000Y-88241000D01*
X108408000Y-88241000D01*
X108533000Y-88241000D01*
X108533000Y-88481000D01*
X108533000Y-88721000D01*
X108168000Y-88721000D01*
X107803000Y-88721000D01*
X107803000Y-88846000D01*
X107803000Y-88971000D01*
X107678000Y-88971000D01*
X107553000Y-88971000D01*
X107553000Y-89091000D01*
X107553000Y-89211000D01*
X107308000Y-89211000D01*
X107063000Y-89211000D01*
X107063000Y-89331000D01*
X107063000Y-89451000D01*
X106943000Y-89451000D01*
X106823000Y-89451000D01*
X106823000Y-89696000D01*
X106823000Y-89941000D01*
X106943000Y-89941000D01*
X107063000Y-89941000D01*
X107063000Y-89821000D01*
X107063000Y-89701000D01*
X107308000Y-89701000D01*
X107553000Y-89701000D01*
X107553000Y-89821000D01*
X107553000Y-89941000D01*
X107798000Y-89941000D01*
X108043000Y-89941000D01*
X108043000Y-89821000D01*
X108043000Y-89701000D01*
X107923000Y-89701000D01*
X107803000Y-89701000D01*
X107803000Y-89576000D01*
X107803000Y-89451000D01*
X107923000Y-89451000D01*
X108043000Y-89451000D01*
X108043000Y-89331000D01*
X108043000Y-89211000D01*
X107923000Y-89211000D01*
X107803000Y-89211000D01*
X107803000Y-89091000D01*
X107803000Y-88971000D01*
X108043000Y-88971000D01*
X108283000Y-88971000D01*
X108283000Y-89211000D01*
X108283000Y-89451000D01*
X108408000Y-89451000D01*
X108533000Y-89451000D01*
X108533000Y-89211000D01*
X108533000Y-88971000D01*
X108653000Y-88971000D01*
X108773000Y-88971000D01*
X108773000Y-89091000D01*
X108773000Y-89211000D01*
X108898000Y-89211000D01*
X109023000Y-89211000D01*
X109023000Y-88846000D01*
X109263000Y-88846000D01*
X109263000Y-88971000D01*
X109383000Y-88971000D01*
X109503000Y-88971000D01*
X109503000Y-88846000D01*
X109503000Y-88721000D01*
X109383000Y-88721000D01*
X109263000Y-88721000D01*
X109263000Y-88846000D01*
X109023000Y-88846000D01*
X109023000Y-88481000D01*
X108898000Y-88481000D01*
X108773000Y-88481000D01*
X108773000Y-88116000D01*
X108773000Y-87751000D01*
X108898000Y-87751000D01*
X109023000Y-87751000D01*
X109023000Y-87386000D01*
X109023000Y-87381000D01*
X109023000Y-87021000D01*
X108898000Y-87021000D01*
X108773000Y-87021000D01*
X108773000Y-87386000D01*
X108773000Y-87751000D01*
X108653000Y-87751000D01*
X108533000Y-87751000D01*
X108533000Y-87871000D01*
X108533000Y-87991000D01*
X108408000Y-87991000D01*
X108283000Y-87991000D01*
X108283000Y-87506000D01*
X108283000Y-87386000D01*
X108283000Y-87021000D01*
X108408000Y-87021000D01*
X108533000Y-87021000D01*
X108533000Y-86896000D01*
X108533000Y-86771000D01*
X108408000Y-86771000D01*
X108283000Y-86771000D01*
X108283000Y-86651000D01*
X108283000Y-86531000D01*
X108408000Y-86531000D01*
X108533000Y-86531000D01*
X108533000Y-86651000D01*
X108533000Y-86771000D01*
X108653000Y-86771000D01*
X108773000Y-86771000D01*
X108773000Y-86651000D01*
X108773000Y-86531000D01*
X109018000Y-86531000D01*
X109263000Y-86531000D01*
X109263000Y-86651000D01*
X109263000Y-86771000D01*
X109143000Y-86771000D01*
X109023000Y-86771000D01*
X109023000Y-86896000D01*
X109023000Y-87021000D01*
X109263000Y-87021000D01*
X109503000Y-87021000D01*
X109503000Y-86776000D01*
X109503000Y-86531000D01*
X109628000Y-86531000D01*
X109753000Y-86531000D01*
X109753000Y-86776000D01*
X109753000Y-87021000D01*
X109873000Y-87021000D01*
X109993000Y-87021000D01*
X109993000Y-87141000D01*
X109993000Y-87261000D01*
X110238000Y-87261000D01*
X110483000Y-87261000D01*
X110483000Y-87141000D01*
X110483000Y-87021000D01*
X110363000Y-87021000D01*
X110243000Y-87021000D01*
X110243000Y-86776000D01*
X110243000Y-86531000D01*
X110363000Y-86531000D01*
X110483000Y-86531000D01*
X110483000Y-86651000D01*
X110483000Y-86771000D01*
X110848000Y-86771000D01*
X111213000Y-86771000D01*
X111213000Y-86651000D01*
X111213000Y-86531000D01*
X111338000Y-86531000D01*
X111463000Y-86531000D01*
X111463000Y-86651000D01*
X111463000Y-86771000D01*
X111583000Y-86771000D01*
X111703000Y-86771000D01*
X111703000Y-86896000D01*
X111703000Y-87021000D01*
X111823000Y-87021000D01*
X111943000Y-87021000D01*
X111943000Y-86896000D01*
X111943000Y-86776000D01*
X111943000Y-86531000D01*
X112188000Y-86531000D01*
X112433000Y-86531000D01*
X112433000Y-86651000D01*
X112433000Y-86771000D01*
X112313000Y-86771000D01*
X112193000Y-86771000D01*
X112193000Y-86896000D01*
X112193000Y-87021000D01*
X112313000Y-87021000D01*
X112433000Y-87021000D01*
X112433000Y-86896000D01*
X112433000Y-86771000D01*
X112553000Y-86771000D01*
X112673000Y-86771000D01*
X112673000Y-86896000D01*
X112673000Y-87021000D01*
X112918000Y-87021000D01*
X113163000Y-87021000D01*
X113163000Y-87261000D01*
X113163000Y-87501000D01*
X113288000Y-87501000D01*
X113413000Y-87501000D01*
X113413000Y-87381000D01*
X113413000Y-87261000D01*
X113778000Y-87261000D01*
X114143000Y-87261000D01*
X114143000Y-87871000D01*
X114143000Y-88481000D01*
X113898000Y-88481000D01*
X113653000Y-88481000D01*
X113653000Y-88601000D01*
X113653000Y-88721000D01*
X113288000Y-88721000D01*
X112923000Y-88721000D01*
X112923000Y-88846000D01*
X112923000Y-88971000D01*
X113288000Y-88971000D01*
X113653000Y-88971000D01*
X113653000Y-88846000D01*
X113653000Y-88721000D01*
X113773000Y-88721000D01*
X113893000Y-88721000D01*
X113893000Y-88846000D01*
X113893000Y-88971000D01*
X114018000Y-88971000D01*
X114143000Y-88971000D01*
X114143000Y-89091000D01*
X114143000Y-89211000D01*
X114018000Y-89211000D01*
X113893000Y-89211000D01*
X113893000Y-89331000D01*
X113893000Y-89451000D01*
X114018000Y-89451000D01*
X114143000Y-89451000D01*
X114143000Y-89576000D01*
X114143000Y-89701000D01*
X114018000Y-89701000D01*
X113893000Y-89701000D01*
X113893000Y-89821000D01*
X113893000Y-89941000D01*
X113773000Y-89941000D01*
X113653000Y-89941000D01*
X113653000Y-90066000D01*
X113653000Y-90191000D01*
G37*
G36*
X110848000Y-94331000D02*
G01*
X110973000Y-94331000D01*
X110973000Y-94456000D01*
X110973000Y-94581000D01*
X110848000Y-94581000D01*
X110723000Y-94581000D01*
X110723000Y-94456000D01*
X110723000Y-94331000D01*
X110848000Y-94331000D01*
G37*
G36*
X112313000Y-92871000D02*
G01*
X112433000Y-92871000D01*
X112433000Y-93116000D01*
X112433000Y-93361000D01*
X112313000Y-93361000D01*
X112193000Y-93361000D01*
X112193000Y-93116000D01*
X112193000Y-92871000D01*
X112313000Y-92871000D01*
G37*
G36*
X108283000Y-90551000D02*
G01*
X108283000Y-90671000D01*
X108408000Y-90671000D01*
X108533000Y-90671000D01*
X108533000Y-90796000D01*
X108533000Y-90921000D01*
X108653000Y-90921000D01*
X108773000Y-90921000D01*
X108773000Y-91041000D01*
X108773000Y-91161000D01*
X108653000Y-91161000D01*
X108533000Y-91161000D01*
X108533000Y-91286000D01*
X108533000Y-91411000D01*
X109018000Y-91411000D01*
X109503000Y-91411000D01*
X109503000Y-91651000D01*
X109503000Y-91891000D01*
X109383000Y-91891000D01*
X109263000Y-91891000D01*
X109263000Y-92016000D01*
X109263000Y-92141000D01*
X109143000Y-92141000D01*
X109023000Y-92141000D01*
X109023000Y-91896000D01*
X109023000Y-91651000D01*
X108898000Y-91651000D01*
X108773000Y-91651000D01*
X108773000Y-91896000D01*
X108773000Y-92141000D01*
X108898000Y-92141000D01*
X109023000Y-92141000D01*
X109023000Y-92261000D01*
X109023000Y-92381000D01*
X108778000Y-92381000D01*
X108533000Y-92381000D01*
X108533000Y-92136000D01*
X108533000Y-91891000D01*
X108408000Y-91891000D01*
X108283000Y-91891000D01*
X108283000Y-92136000D01*
X108283000Y-92381000D01*
X108163000Y-92381000D01*
X108043000Y-92381000D01*
X108043000Y-92261000D01*
X108043000Y-92141000D01*
X107923000Y-92141000D01*
X107803000Y-92141000D01*
X107803000Y-92016000D01*
X107803000Y-91891000D01*
X108043000Y-91891000D01*
X108283000Y-91891000D01*
X108283000Y-91651000D01*
X108283000Y-91411000D01*
X108163000Y-91411000D01*
X108043000Y-91411000D01*
X108043000Y-91286000D01*
X108043000Y-91161000D01*
X108163000Y-91161000D01*
X108283000Y-91161000D01*
X108283000Y-91041000D01*
X108283000Y-90921000D01*
X108163000Y-90921000D01*
X108043000Y-90921000D01*
X108043000Y-90796000D01*
X108043000Y-90671000D01*
X107923000Y-90671000D01*
X107803000Y-90671000D01*
X107803000Y-90551000D01*
X107803000Y-90431000D01*
X108043000Y-90431000D01*
X108283000Y-90431000D01*
X108283000Y-90551000D01*
G37*
G36*
X114263000Y-91161000D02*
G01*
X114383000Y-91161000D01*
X114383000Y-91286000D01*
X114383000Y-91411000D01*
X114263000Y-91411000D01*
X114143000Y-91411000D01*
X114143000Y-91286000D01*
X114143000Y-91161000D01*
X114263000Y-91161000D01*
G37*
G36*
X114263000Y-88481000D02*
G01*
X114383000Y-88481000D01*
X114383000Y-88726000D01*
X114383000Y-88971000D01*
X114263000Y-88971000D01*
X114143000Y-88971000D01*
X114143000Y-88726000D01*
X114143000Y-88481000D01*
X114263000Y-88481000D01*
G37*
G36*
X113653000Y-86776000D02*
G01*
X113653000Y-87021000D01*
X113408000Y-87021000D01*
X113163000Y-87021000D01*
X113163000Y-86896000D01*
X113163000Y-86771000D01*
X113288000Y-86771000D01*
X113413000Y-86771000D01*
X113413000Y-86651000D01*
X113413000Y-86531000D01*
X113533000Y-86531000D01*
X113653000Y-86531000D01*
X113653000Y-86776000D01*
G37*
G36*
X107313000Y-90796000D02*
G01*
X107313000Y-90921000D01*
X107068000Y-90921000D01*
X106823000Y-90921000D01*
X106823000Y-90796000D01*
X106823000Y-90671000D01*
X107068000Y-90671000D01*
X107313000Y-90671000D01*
X107313000Y-90796000D01*
G37*
G36*
X107068000Y-91161000D02*
G01*
X107313000Y-91161000D01*
X107313000Y-91286000D01*
X107313000Y-91411000D01*
X107188000Y-91411000D01*
X107063000Y-91411000D01*
X107063000Y-91531000D01*
X107063000Y-91651000D01*
X106823000Y-91651000D01*
X106583000Y-91651000D01*
X106583000Y-91531000D01*
X106583000Y-91411000D01*
X106703000Y-91411000D01*
X106823000Y-91411000D01*
X106823000Y-91286000D01*
X106823000Y-91161000D01*
X107068000Y-91161000D01*
G37*
G36*
X106823000Y-91041000D02*
G01*
X106823000Y-91161000D01*
X106578000Y-91161000D01*
X106333000Y-91161000D01*
X106333000Y-91041000D01*
X106333000Y-90921000D01*
X106578000Y-90921000D01*
X106823000Y-90921000D01*
X106823000Y-91041000D01*
G37*
G36*
X106583000Y-91771000D02*
G01*
X106583000Y-91891000D01*
X106703000Y-91891000D01*
X106823000Y-91891000D01*
X106823000Y-92136000D01*
X106823000Y-92381000D01*
X106943000Y-92381000D01*
X107063000Y-92381000D01*
X107063000Y-92261000D01*
X107063000Y-92141000D01*
X107188000Y-92141000D01*
X107313000Y-92141000D01*
X107313000Y-92261000D01*
X107313000Y-92381000D01*
X107678000Y-92381000D01*
X108043000Y-92381000D01*
X108043000Y-92506000D01*
X108043000Y-92631000D01*
X107433000Y-92631000D01*
X106823000Y-92631000D01*
X106823000Y-92506000D01*
X106823000Y-92381000D01*
X106703000Y-92381000D01*
X106583000Y-92381000D01*
X106583000Y-92506000D01*
X106583000Y-92631000D01*
X106458000Y-92631000D01*
X106333000Y-92631000D01*
X106333000Y-92141000D01*
X106333000Y-91651000D01*
X106458000Y-91651000D01*
X106583000Y-91651000D01*
X106583000Y-91771000D01*
G37*
G36*
X112193000Y-91771000D02*
G01*
X112193000Y-91891000D01*
X112068000Y-91891000D01*
X111943000Y-91891000D01*
X111943000Y-91771000D01*
X111943000Y-91651000D01*
X112068000Y-91651000D01*
X112193000Y-91651000D01*
X112193000Y-91771000D01*
G37*
G36*
X112433000Y-92506000D02*
G01*
X112433000Y-92631000D01*
X112313000Y-92631000D01*
X112193000Y-92631000D01*
X112193000Y-92506000D01*
X112193000Y-92381000D01*
X112313000Y-92381000D01*
X112433000Y-92381000D01*
X112433000Y-92506000D01*
G37*
G36*
X111213000Y-93236000D02*
G01*
X111213000Y-93361000D01*
X111458000Y-93361000D01*
X111703000Y-93361000D01*
X111703000Y-93481000D01*
X111703000Y-93601000D01*
X111338000Y-93601000D01*
X110973000Y-93601000D01*
X110973000Y-93356000D01*
X110973000Y-93111000D01*
X111093000Y-93111000D01*
X111213000Y-93111000D01*
X111213000Y-93236000D01*
G37*
G36*
X109023000Y-93726000D02*
G01*
X109023000Y-93851000D01*
X108898000Y-93851000D01*
X108773000Y-93851000D01*
X108773000Y-93726000D01*
X108773000Y-93601000D01*
X108898000Y-93601000D01*
X109023000Y-93601000D01*
X109023000Y-93726000D01*
G37*
G36*
X114143000Y-86651000D02*
G01*
X114143000Y-86771000D01*
X114263000Y-86771000D01*
X114383000Y-86771000D01*
X114383000Y-86896000D01*
X114383000Y-87021000D01*
X114138000Y-87021000D01*
X113893000Y-87021000D01*
X113893000Y-86776000D01*
X113893000Y-86531000D01*
X114018000Y-86531000D01*
X114143000Y-86531000D01*
X114143000Y-86651000D01*
G37*
G36*
X113288000Y-91891000D02*
G01*
X113413000Y-91891000D01*
X113413000Y-92016000D01*
X113413000Y-92141000D01*
X113653000Y-92141000D01*
X113893000Y-92141000D01*
X113893000Y-92386000D01*
X113893000Y-92631000D01*
X113283000Y-92631000D01*
X112673000Y-92631000D01*
X112673000Y-92386000D01*
X112673000Y-92141000D01*
X112553000Y-92141000D01*
X112433000Y-92141000D01*
X112433000Y-92016000D01*
X112433000Y-91896000D01*
X112433000Y-91651000D01*
X112798000Y-91651000D01*
X113163000Y-91651000D01*
X113163000Y-91771000D01*
X113163000Y-91891000D01*
X112918000Y-91891000D01*
X112673000Y-91891000D01*
X112673000Y-92016000D01*
X112673000Y-92141000D01*
X112918000Y-92141000D01*
X113163000Y-92141000D01*
X113163000Y-92016000D01*
X113163000Y-91891000D01*
X113288000Y-91891000D01*
G37*
G36*
X114143000Y-92016000D02*
G01*
X114143000Y-92141000D01*
X114018000Y-92141000D01*
X113893000Y-92141000D01*
X113893000Y-92016000D01*
X113893000Y-91891000D01*
X114018000Y-91891000D01*
X114143000Y-91891000D01*
X114143000Y-92016000D01*
G37*
G36*
X108043000Y-93726000D02*
G01*
X108043000Y-94581000D01*
X107188000Y-94581000D01*
X106333000Y-94581000D01*
X106333000Y-94331000D01*
X106583000Y-94331000D01*
X107193000Y-94331000D01*
X107803000Y-94331000D01*
X107803000Y-93721000D01*
X107803000Y-93111000D01*
X107193000Y-93111000D01*
X106583000Y-93111000D01*
X106583000Y-93721000D01*
X106583000Y-94331000D01*
X106333000Y-94331000D01*
X106333000Y-93726000D01*
X106333000Y-93721000D01*
X106333000Y-92871000D01*
X107188000Y-92871000D01*
X108043000Y-92871000D01*
X108043000Y-93726000D01*
G37*
G36*
X114383000Y-93726000D02*
G01*
X114383000Y-94581000D01*
X113528000Y-94581000D01*
X112673000Y-94581000D01*
X112673000Y-94331000D01*
X112923000Y-94331000D01*
X113533000Y-94331000D01*
X114143000Y-94331000D01*
X114143000Y-93721000D01*
X114143000Y-93111000D01*
X113533000Y-93111000D01*
X112923000Y-93111000D01*
X112923000Y-93721000D01*
X112923000Y-94331000D01*
X112673000Y-94331000D01*
X112673000Y-93726000D01*
X112673000Y-93721000D01*
X112673000Y-92871000D01*
X113528000Y-92871000D01*
X114383000Y-92871000D01*
X114383000Y-93726000D01*
G37*
G36*
X107553000Y-87386000D02*
G01*
X107553000Y-87751000D01*
X107188000Y-87751000D01*
X106823000Y-87751000D01*
X106823000Y-87386000D01*
X106823000Y-87021000D01*
X107188000Y-87021000D01*
X107553000Y-87021000D01*
X107553000Y-87386000D01*
G37*
G36*
X110483000Y-87871000D02*
G01*
X110483000Y-87991000D01*
X110363000Y-87991000D01*
X110243000Y-87991000D01*
X110243000Y-87871000D01*
X110243000Y-87751000D01*
X110363000Y-87751000D01*
X110483000Y-87751000D01*
X110483000Y-87871000D01*
G37*
G36*
X110603000Y-88481000D02*
G01*
X110723000Y-88481000D01*
X110723000Y-88601000D01*
X110723000Y-88721000D01*
X110603000Y-88721000D01*
X110483000Y-88721000D01*
X110483000Y-88601000D01*
X110483000Y-88481000D01*
X110603000Y-88481000D01*
G37*
G36*
X110363000Y-88241000D02*
G01*
X110483000Y-88241000D01*
X110483000Y-88361000D01*
X110483000Y-88481000D01*
X110363000Y-88481000D01*
X110243000Y-88481000D01*
X110243000Y-88361000D01*
X110243000Y-88241000D01*
X110363000Y-88241000D01*
G37*
G36*
X110243000Y-88116000D02*
G01*
X110243000Y-88241000D01*
X110118000Y-88241000D01*
X109993000Y-88241000D01*
X109993000Y-88116000D01*
X109993000Y-87991000D01*
X110118000Y-87991000D01*
X110243000Y-87991000D01*
X110243000Y-88116000D01*
G37*
G36*
X112068000Y-88721000D02*
G01*
X112193000Y-88721000D01*
X112193000Y-88846000D01*
X112193000Y-88971000D01*
X112068000Y-88971000D01*
X111943000Y-88971000D01*
X111943000Y-88846000D01*
X111943000Y-88721000D01*
X112068000Y-88721000D01*
G37*
G36*
X111943000Y-88601000D02*
G01*
X111943000Y-88721000D01*
X111823000Y-88721000D01*
X111703000Y-88721000D01*
X111703000Y-88601000D01*
X111703000Y-88481000D01*
X111823000Y-88481000D01*
X111943000Y-88481000D01*
X111943000Y-88601000D01*
G37*
G36*
X111463000Y-89696000D02*
G01*
X111463000Y-89941000D01*
X111338000Y-89941000D01*
X111213000Y-89941000D01*
X111213000Y-90066000D01*
X111213000Y-90191000D01*
X111093000Y-90191000D01*
X110973000Y-90191000D01*
X110973000Y-89946000D01*
X110973000Y-89701000D01*
X111093000Y-89701000D01*
X111213000Y-89701000D01*
X111213000Y-89576000D01*
X111213000Y-89451000D01*
X111338000Y-89451000D01*
X111463000Y-89451000D01*
X111463000Y-89696000D01*
G37*
G36*
X109383000Y-89941000D02*
G01*
X109503000Y-89941000D01*
X109503000Y-90066000D01*
X109503000Y-90191000D01*
X109628000Y-90191000D01*
X109753000Y-90191000D01*
X109753000Y-90066000D01*
X109753000Y-89941000D01*
X109873000Y-89941000D01*
X109993000Y-89941000D01*
X109993000Y-90551000D01*
X109993000Y-91161000D01*
X110238000Y-91161000D01*
X110483000Y-91161000D01*
X110483000Y-91286000D01*
X110483000Y-91411000D01*
X110363000Y-91411000D01*
X110243000Y-91411000D01*
X110243000Y-91531000D01*
X110243000Y-91651000D01*
X110118000Y-91651000D01*
X109993000Y-91651000D01*
X109993000Y-91531000D01*
X109993000Y-91411000D01*
X109873000Y-91411000D01*
X109753000Y-91411000D01*
X109753000Y-91286000D01*
X109753000Y-91161000D01*
X109628000Y-91161000D01*
X109503000Y-91161000D01*
X109503000Y-91041000D01*
X109503000Y-90921000D01*
X109628000Y-90921000D01*
X109753000Y-90921000D01*
X109753000Y-90676000D01*
X109753000Y-90431000D01*
X109263000Y-90431000D01*
X108773000Y-90431000D01*
X108773000Y-90551000D01*
X108773000Y-90671000D01*
X108653000Y-90671000D01*
X108533000Y-90671000D01*
X108533000Y-90431000D01*
X108533000Y-90191000D01*
X108898000Y-90191000D01*
X109263000Y-90191000D01*
X109263000Y-90066000D01*
X109263000Y-89941000D01*
X109383000Y-89941000D01*
G37*
G36*
X109263000Y-89821000D02*
G01*
X109263000Y-89941000D01*
X108898000Y-89941000D01*
X108533000Y-89941000D01*
X108533000Y-89821000D01*
X108533000Y-89701000D01*
X108898000Y-89701000D01*
X109263000Y-89701000D01*
X109263000Y-89821000D01*
G37*
G36*
X110723000Y-90066000D02*
G01*
X110723000Y-90191000D01*
X110603000Y-90191000D01*
X110483000Y-90191000D01*
X110483000Y-90066000D01*
X110483000Y-89941000D01*
X110603000Y-89941000D01*
X110723000Y-89941000D01*
X110723000Y-90066000D01*
G37*
G36*
X110603000Y-90921000D02*
G01*
X110723000Y-90921000D01*
X110723000Y-91041000D01*
X110723000Y-91161000D01*
X110603000Y-91161000D01*
X110483000Y-91161000D01*
X110483000Y-91041000D01*
X110483000Y-90921000D01*
X110603000Y-90921000D01*
G37*
G36*
X110483000Y-90556000D02*
G01*
X110483000Y-90921000D01*
X110363000Y-90921000D01*
X110243000Y-90921000D01*
X110243000Y-90556000D01*
X110243000Y-90191000D01*
X110363000Y-90191000D01*
X110483000Y-90191000D01*
X110483000Y-90556000D01*
G37*
G36*
X109993000Y-91771000D02*
G01*
X109993000Y-91891000D01*
X109873000Y-91891000D01*
X109753000Y-91891000D01*
X109753000Y-91771000D01*
X109753000Y-91651000D01*
X109873000Y-91651000D01*
X109993000Y-91651000D01*
X109993000Y-91771000D01*
G37*
G36*
X107923000Y-91411000D02*
G01*
X108043000Y-91411000D01*
X108043000Y-91531000D01*
X108043000Y-91651000D01*
X107923000Y-91651000D01*
X107803000Y-91651000D01*
X107803000Y-91531000D01*
X107803000Y-91411000D01*
X107923000Y-91411000D01*
G37*
G36*
X107803000Y-90796000D02*
G01*
X107803000Y-90921000D01*
X107923000Y-90921000D01*
X108043000Y-90921000D01*
X108043000Y-91041000D01*
X108043000Y-91161000D01*
X107923000Y-91161000D01*
X107803000Y-91161000D01*
X107803000Y-91286000D01*
X107803000Y-91411000D01*
X107678000Y-91411000D01*
X107553000Y-91411000D01*
X107553000Y-91041000D01*
X107553000Y-90671000D01*
X107678000Y-90671000D01*
X107803000Y-90671000D01*
X107803000Y-90796000D01*
G37*
G36*
X109263000Y-90796000D02*
G01*
X109263000Y-90921000D01*
X109143000Y-90921000D01*
X109023000Y-90921000D01*
X109023000Y-90796000D01*
X109023000Y-90671000D01*
X109143000Y-90671000D01*
X109263000Y-90671000D01*
X109263000Y-90796000D01*
G37*
G36*
X107553000Y-91771000D02*
G01*
X107553000Y-91891000D01*
X107308000Y-91891000D01*
X107063000Y-91891000D01*
X107063000Y-91771000D01*
X107063000Y-91651000D01*
X107308000Y-91651000D01*
X107553000Y-91651000D01*
X107553000Y-91771000D01*
G37*
G36*
X109503000Y-92261000D02*
G01*
X109503000Y-92381000D01*
X109383000Y-92381000D01*
X109263000Y-92381000D01*
X109263000Y-92261000D01*
X109263000Y-92141000D01*
X109383000Y-92141000D01*
X109503000Y-92141000D01*
X109503000Y-92261000D01*
G37*
G36*
X112923000Y-88116000D02*
G01*
X112923000Y-88241000D01*
X112798000Y-88241000D01*
X112673000Y-88241000D01*
X112673000Y-88116000D01*
X112673000Y-87991000D01*
X112798000Y-87991000D01*
X112923000Y-87991000D01*
X112923000Y-88116000D01*
G37*
G36*
X110973000Y-92991000D02*
G01*
X110973000Y-93111000D01*
X110848000Y-93111000D01*
X110723000Y-93111000D01*
X110723000Y-92991000D01*
X110723000Y-92871000D01*
X110848000Y-92871000D01*
X110973000Y-92871000D01*
X110973000Y-92991000D01*
G37*
G36*
X107553000Y-93726000D02*
G01*
X107553000Y-94091000D01*
X107188000Y-94091000D01*
X106823000Y-94091000D01*
X106823000Y-93726000D01*
X106823000Y-93361000D01*
X107188000Y-93361000D01*
X107553000Y-93361000D01*
X107553000Y-93726000D01*
G37*
G36*
X113893000Y-93726000D02*
G01*
X113893000Y-94091000D01*
X113528000Y-94091000D01*
X113163000Y-94091000D01*
X113163000Y-93726000D01*
X113163000Y-93361000D01*
X113528000Y-93361000D01*
X113893000Y-93361000D01*
X113893000Y-93726000D01*
G37*
D12*
%TO.C,TP1*%
X138360000Y-63500000D02*
G75*
G02*
X135960000Y-63500000I-1200000J0D01*
G01*
X135960000Y-63500000D02*
G75*
G02*
X138360000Y-63500000I1200000J0D01*
G01*
%TO.C,J2*%
X140860000Y-64880000D02*
X140860000Y-62120000D01*
X153670000Y-62120000D02*
X140860000Y-62120000D01*
X153670000Y-64880000D02*
X140860000Y-64880000D01*
X153670000Y-64880000D02*
X153670000Y-62120000D01*
X154940000Y-64880000D02*
X156320000Y-64880000D01*
X156320000Y-64880000D02*
X156320000Y-63500000D01*
%TD*%
M02*
