%TF.GenerationSoftware,KiCad,Pcbnew,9.0.2*%
%TF.CreationDate,2026-02-10T02:01:54-05:00*%
%TF.ProjectId,TransmitterBreakout,5472616e-736d-4697-9474-657242726561,rev?*%
%TF.SameCoordinates,Original*%
%TF.FileFunction,Copper,L2,Bot*%
%TF.FilePolarity,Positive*%
%FSLAX46Y46*%
G04 Gerber Fmt 4.6, Leading zero omitted, Abs format (unit mm)*
G04 Created by KiCad (PCBNEW 9.0.2) date 2026-02-10 02:01:54*
%MOMM*%
%LPD*%
G01*
G04 APERTURE LIST*
G04 Aperture macros list*
%AMRoundRect*
0 Rectangle with rounded corners*
0 $1 Rounding radius*
0 $2 $3 $4 $5 $6 $7 $8 $9 X,Y pos of 4 corners*
0 Add a 4 corners polygon primitive as box body*
4,1,4,$2,$3,$4,$5,$6,$7,$8,$9,$2,$3,0*
0 Add four circle primitives for the rounded corners*
1,1,$1+$1,$2,$3*
1,1,$1+$1,$4,$5*
1,1,$1+$1,$6,$7*
1,1,$1+$1,$8,$9*
0 Add four rect primitives between the rounded corners*
20,1,$1+$1,$2,$3,$4,$5,0*
20,1,$1+$1,$4,$5,$6,$7,0*
20,1,$1+$1,$6,$7,$8,$9,0*
20,1,$1+$1,$8,$9,$2,$3,0*%
G04 Aperture macros list end*
%TA.AperFunction,SMDPad,CuDef*%
%ADD10C,2.000000*%
%TD*%
%TA.AperFunction,ComponentPad*%
%ADD11C,2.010000*%
%TD*%
%TA.AperFunction,ComponentPad*%
%ADD12RoundRect,0.250002X2.749998X-2.749998X2.749998X2.749998X-2.749998X2.749998X-2.749998X-2.749998X0*%
%TD*%
%TA.AperFunction,ComponentPad*%
%ADD13C,6.000000*%
%TD*%
%TA.AperFunction,ComponentPad*%
%ADD14R,1.700000X1.700000*%
%TD*%
%TA.AperFunction,ComponentPad*%
%ADD15C,1.700000*%
%TD*%
%TA.AperFunction,ViaPad*%
%ADD16C,0.600000*%
%TD*%
%TA.AperFunction,Conductor*%
%ADD17C,1.000000*%
%TD*%
G04 APERTURE END LIST*
D10*
%TO.P,TP1,1,1*%
%TO.N,Net-(J2-Pin_5)*%
X137160000Y-63500000D03*
%TD*%
D11*
%TO.P,F1,1*%
%TO.N,+12V*%
X119487000Y-83220000D03*
%TO.P,F1,2*%
X129687000Y-84420000D03*
%TD*%
D12*
%TO.P,J3,1,Pin_1*%
%TO.N,+12V*%
X139700000Y-84740000D03*
D13*
%TO.P,J3,2,Pin_2*%
%TO.N,GND*%
X139700000Y-72740000D03*
%TD*%
D14*
%TO.P,J1,1,Pin_1*%
%TO.N,Serial*%
X106680000Y-57785000D03*
D15*
%TO.P,J1,2,Pin_2*%
%TO.N,GND*%
X109220000Y-57785000D03*
%TO.P,J1,3,Pin_3*%
%TO.N,+12V*%
X111760000Y-57785000D03*
%TO.P,J1,4,Pin_4*%
%TO.N,unconnected-(J1-Pin_4-Pad4)*%
X114300000Y-57785000D03*
%TO.P,J1,5,Pin_5*%
%TO.N,unconnected-(J1-Pin_5-Pad5)*%
X116840000Y-57785000D03*
%TO.P,J1,6,Pin_6*%
%TO.N,unconnected-(J1-Pin_6-Pad6)*%
X119380000Y-57785000D03*
%TO.P,J1,7,Pin_7*%
%TO.N,unconnected-(J1-Pin_7-Pad7)*%
X121920000Y-57785000D03*
%TO.P,J1,8,Pin_8*%
%TO.N,unconnected-(J1-Pin_8-Pad8)*%
X124460000Y-57785000D03*
%TD*%
D14*
%TO.P,J2,1,Pin_1*%
%TO.N,GND*%
X154940000Y-63500000D03*
D15*
%TO.P,J2,2,Pin_2*%
%TO.N,unconnected-(J2-Pin_2-Pad2)*%
X152400000Y-63500000D03*
%TO.P,J2,3,Pin_3*%
%TO.N,unconnected-(J2-Pin_3-Pad3)*%
X149860000Y-63500000D03*
%TO.P,J2,4,Pin_4*%
%TO.N,Serial*%
X147320000Y-63500000D03*
%TO.P,J2,5,Pin_5*%
%TO.N,Net-(J2-Pin_5)*%
X144780000Y-63500000D03*
%TO.P,J2,6,Pin_6*%
%TO.N,unconnected-(J2-Pin_6-Pad6)*%
X142240000Y-63500000D03*
%TD*%
D16*
%TO.N,GND*%
X110363000Y-56769000D03*
%TD*%
D17*
%TO.N,Serial*%
X147320000Y-63500000D02*
X144526000Y-66294000D01*
X115189000Y-66294000D02*
X106680000Y-57785000D01*
X144526000Y-66294000D02*
X115189000Y-66294000D01*
%TO.N,Net-(J2-Pin_5)*%
X138711000Y-65051000D02*
X143229000Y-65051000D01*
X143229000Y-65051000D02*
X144780000Y-63500000D01*
X137160000Y-63500000D02*
X138711000Y-65051000D01*
%TD*%
%TA.AperFunction,Conductor*%
%TO.N,GND*%
G36*
X105439211Y-56400185D02*
G01*
X105484966Y-56452989D01*
X105494910Y-56522147D01*
X105471438Y-56578811D01*
X105386206Y-56692664D01*
X105386202Y-56692671D01*
X105335908Y-56827517D01*
X105329501Y-56887116D01*
X105329501Y-56887123D01*
X105329500Y-56887135D01*
X105329500Y-58682870D01*
X105329501Y-58682876D01*
X105335908Y-58742483D01*
X105386202Y-58877328D01*
X105386206Y-58877335D01*
X105472452Y-58992544D01*
X105472455Y-58992547D01*
X105587664Y-59078793D01*
X105587671Y-59078797D01*
X105722517Y-59129091D01*
X105722516Y-59129091D01*
X105729444Y-59129835D01*
X105782127Y-59135500D01*
X106564217Y-59135499D01*
X106631256Y-59155183D01*
X106651898Y-59171818D01*
X114408735Y-66928655D01*
X114408764Y-66928686D01*
X114551217Y-67071139D01*
X114715080Y-67180628D01*
X114715086Y-67180632D01*
X114811832Y-67220705D01*
X114897164Y-67256051D01*
X114993812Y-67275275D01*
X115065311Y-67289497D01*
X115090458Y-67294500D01*
X115090459Y-67294500D01*
X144624542Y-67294500D01*
X144636474Y-67292126D01*
X144721188Y-67275275D01*
X144817836Y-67256051D01*
X144903168Y-67220705D01*
X144999914Y-67180632D01*
X145163782Y-67071139D01*
X145303139Y-66931782D01*
X145303139Y-66931780D01*
X145313347Y-66921573D01*
X145313348Y-66921570D01*
X146366885Y-65868034D01*
X179379500Y-65868034D01*
X179379500Y-66211965D01*
X179413210Y-66554249D01*
X179480308Y-66891572D01*
X179580150Y-67220705D01*
X179711770Y-67538464D01*
X179711772Y-67538469D01*
X179873893Y-67841775D01*
X179873904Y-67841793D01*
X180064975Y-68127751D01*
X180064985Y-68127765D01*
X180283176Y-68393632D01*
X180526367Y-68636823D01*
X180526372Y-68636827D01*
X180526373Y-68636828D01*
X180792240Y-68855019D01*
X181078213Y-69046100D01*
X181078222Y-69046105D01*
X181078224Y-69046106D01*
X181381530Y-69208227D01*
X181381532Y-69208227D01*
X181381538Y-69208231D01*
X181699295Y-69339850D01*
X182028422Y-69439690D01*
X182365750Y-69506789D01*
X182708031Y-69540500D01*
X182708034Y-69540500D01*
X183051966Y-69540500D01*
X183051969Y-69540500D01*
X183394250Y-69506789D01*
X183731578Y-69439690D01*
X184060705Y-69339850D01*
X184378462Y-69208231D01*
X184681787Y-69046100D01*
X184967760Y-68855019D01*
X185233627Y-68636828D01*
X185476828Y-68393627D01*
X185695019Y-68127760D01*
X185886100Y-67841787D01*
X186048231Y-67538462D01*
X186179850Y-67220705D01*
X186279690Y-66891578D01*
X186346789Y-66554250D01*
X186380500Y-66211969D01*
X186380500Y-65868031D01*
X186346789Y-65525750D01*
X186279690Y-65188422D01*
X186179850Y-64859295D01*
X186048231Y-64541538D01*
X186042119Y-64530104D01*
X185886106Y-64238224D01*
X185886105Y-64238222D01*
X185886100Y-64238213D01*
X185695019Y-63952240D01*
X185476828Y-63686373D01*
X185476827Y-63686372D01*
X185476823Y-63686367D01*
X185233632Y-63443176D01*
X184967765Y-63224985D01*
X184967764Y-63224984D01*
X184967760Y-63224981D01*
X184681787Y-63033900D01*
X184681782Y-63033897D01*
X184681775Y-63033893D01*
X184378469Y-62871772D01*
X184378464Y-62871770D01*
X184370656Y-62868536D01*
X184207480Y-62800946D01*
X184060706Y-62740150D01*
X183731572Y-62640308D01*
X183394248Y-62573210D01*
X183394249Y-62573210D01*
X183136456Y-62547821D01*
X183051969Y-62539500D01*
X182708031Y-62539500D01*
X182636551Y-62546540D01*
X182365750Y-62573210D01*
X182028427Y-62640308D01*
X181699293Y-62740150D01*
X181381535Y-62871770D01*
X181381530Y-62871772D01*
X181078224Y-63033893D01*
X181078206Y-63033904D01*
X180792248Y-63224975D01*
X180792234Y-63224985D01*
X180526367Y-63443176D01*
X180283176Y-63686367D01*
X180064985Y-63952234D01*
X180064975Y-63952248D01*
X179873904Y-64238206D01*
X179873893Y-64238224D01*
X179711772Y-64541530D01*
X179711770Y-64541535D01*
X179580150Y-64859293D01*
X179480308Y-65188427D01*
X179413210Y-65525750D01*
X179379500Y-65868034D01*
X146366885Y-65868034D01*
X147348499Y-64886421D01*
X147409820Y-64852938D01*
X147425291Y-64850657D01*
X147426282Y-64850500D01*
X147426287Y-64850500D01*
X147636243Y-64817246D01*
X147838412Y-64751557D01*
X148027816Y-64655051D01*
X148049789Y-64639086D01*
X148199786Y-64530109D01*
X148199788Y-64530106D01*
X148199792Y-64530104D01*
X148350104Y-64379792D01*
X148350106Y-64379788D01*
X148350109Y-64379786D01*
X148475048Y-64207820D01*
X148475047Y-64207820D01*
X148475051Y-64207816D01*
X148479514Y-64199054D01*
X148527488Y-64148259D01*
X148595308Y-64131463D01*
X148661444Y-64153999D01*
X148700486Y-64199056D01*
X148704951Y-64207820D01*
X148829890Y-64379786D01*
X148980213Y-64530109D01*
X149152179Y-64655048D01*
X149152181Y-64655049D01*
X149152184Y-64655051D01*
X149341588Y-64751557D01*
X149543757Y-64817246D01*
X149753713Y-64850500D01*
X149753714Y-64850500D01*
X149966286Y-64850500D01*
X149966287Y-64850500D01*
X150176243Y-64817246D01*
X150378412Y-64751557D01*
X150567816Y-64655051D01*
X150589789Y-64639086D01*
X150739786Y-64530109D01*
X150739788Y-64530106D01*
X150739792Y-64530104D01*
X150890104Y-64379792D01*
X150890106Y-64379788D01*
X150890109Y-64379786D01*
X151015048Y-64207820D01*
X151015047Y-64207820D01*
X151015051Y-64207816D01*
X151019514Y-64199054D01*
X151067488Y-64148259D01*
X151135308Y-64131463D01*
X151201444Y-64153999D01*
X151240486Y-64199056D01*
X151244951Y-64207820D01*
X151369890Y-64379786D01*
X151520213Y-64530109D01*
X151692179Y-64655048D01*
X151692181Y-64655049D01*
X151692184Y-64655051D01*
X151881588Y-64751557D01*
X152083757Y-64817246D01*
X152293713Y-64850500D01*
X152293714Y-64850500D01*
X152506286Y-64850500D01*
X152506287Y-64850500D01*
X152716243Y-64817246D01*
X152918412Y-64751557D01*
X153107816Y-64655051D01*
X153165141Y-64613402D01*
X153279784Y-64530110D01*
X153279784Y-64530109D01*
X153279792Y-64530104D01*
X153393717Y-64416178D01*
X153455036Y-64382696D01*
X153524728Y-64387680D01*
X153580662Y-64429551D01*
X153597577Y-64460528D01*
X153646646Y-64592088D01*
X153646649Y-64592093D01*
X153732809Y-64707187D01*
X153732812Y-64707190D01*
X153847906Y-64793350D01*
X153847913Y-64793354D01*
X153982620Y-64843596D01*
X153982627Y-64843598D01*
X154042155Y-64849999D01*
X154042172Y-64850000D01*
X154440000Y-64850000D01*
X155440000Y-64850000D01*
X155837828Y-64850000D01*
X155837844Y-64849999D01*
X155897372Y-64843598D01*
X155897379Y-64843596D01*
X156032086Y-64793354D01*
X156032093Y-64793350D01*
X156147187Y-64707190D01*
X156147190Y-64707187D01*
X156233350Y-64592093D01*
X156233354Y-64592086D01*
X156283596Y-64457379D01*
X156283598Y-64457372D01*
X156289999Y-64397844D01*
X156290000Y-64397827D01*
X156290000Y-64000000D01*
X155440000Y-64000000D01*
X155440000Y-64850000D01*
X154440000Y-64850000D01*
X154440000Y-63565826D01*
X154474075Y-63692993D01*
X154539901Y-63807007D01*
X154632993Y-63900099D01*
X154747007Y-63965925D01*
X154874174Y-64000000D01*
X155005826Y-64000000D01*
X155132993Y-63965925D01*
X155247007Y-63900099D01*
X155340099Y-63807007D01*
X155405925Y-63692993D01*
X155440000Y-63565826D01*
X155440000Y-63434174D01*
X155405925Y-63307007D01*
X155340099Y-63192993D01*
X155247007Y-63099901D01*
X155132993Y-63034075D01*
X155005826Y-63000000D01*
X155440000Y-63000000D01*
X156290000Y-63000000D01*
X156290000Y-62602172D01*
X156289999Y-62602155D01*
X156283598Y-62542627D01*
X156283596Y-62542620D01*
X156233354Y-62407913D01*
X156233350Y-62407906D01*
X156147190Y-62292812D01*
X156147187Y-62292809D01*
X156032093Y-62206649D01*
X156032086Y-62206645D01*
X155897379Y-62156403D01*
X155897372Y-62156401D01*
X155837844Y-62150000D01*
X155440000Y-62150000D01*
X155440000Y-63000000D01*
X155005826Y-63000000D01*
X154874174Y-63000000D01*
X154747007Y-63034075D01*
X154632993Y-63099901D01*
X154539901Y-63192993D01*
X154474075Y-63307007D01*
X154440000Y-63434174D01*
X154440000Y-62150000D01*
X154042155Y-62150000D01*
X153982627Y-62156401D01*
X153982620Y-62156403D01*
X153847913Y-62206645D01*
X153847906Y-62206649D01*
X153732812Y-62292809D01*
X153732809Y-62292812D01*
X153646649Y-62407906D01*
X153646646Y-62407912D01*
X153597577Y-62539471D01*
X153555705Y-62595404D01*
X153490241Y-62619821D01*
X153421968Y-62604969D01*
X153393714Y-62583818D01*
X153279786Y-62469890D01*
X153107820Y-62344951D01*
X152918414Y-62248444D01*
X152918413Y-62248443D01*
X152918412Y-62248443D01*
X152716243Y-62182754D01*
X152716241Y-62182753D01*
X152716240Y-62182753D01*
X152554957Y-62157208D01*
X152506287Y-62149500D01*
X152293713Y-62149500D01*
X152245042Y-62157208D01*
X152083760Y-62182753D01*
X151881585Y-62248444D01*
X151692179Y-62344951D01*
X151520213Y-62469890D01*
X151369890Y-62620213D01*
X151244949Y-62792182D01*
X151240484Y-62800946D01*
X151192509Y-62851742D01*
X151124688Y-62868536D01*
X151058553Y-62845998D01*
X151019516Y-62800946D01*
X151015050Y-62792182D01*
X150890109Y-62620213D01*
X150739786Y-62469890D01*
X150567820Y-62344951D01*
X150378414Y-62248444D01*
X150378413Y-62248443D01*
X150378412Y-62248443D01*
X150176243Y-62182754D01*
X150176241Y-62182753D01*
X150176240Y-62182753D01*
X150014957Y-62157208D01*
X149966287Y-62149500D01*
X149753713Y-62149500D01*
X149705042Y-62157208D01*
X149543760Y-62182753D01*
X149341585Y-62248444D01*
X149152179Y-62344951D01*
X148980213Y-62469890D01*
X148829890Y-62620213D01*
X148704949Y-62792182D01*
X148700484Y-62800946D01*
X148652509Y-62851742D01*
X148584688Y-62868536D01*
X148518553Y-62845998D01*
X148479516Y-62800946D01*
X148475050Y-62792182D01*
X148350109Y-62620213D01*
X148199786Y-62469890D01*
X148027820Y-62344951D01*
X147838414Y-62248444D01*
X147838413Y-62248443D01*
X147838412Y-62248443D01*
X147636243Y-62182754D01*
X147636241Y-62182753D01*
X147636240Y-62182753D01*
X147474957Y-62157208D01*
X147426287Y-62149500D01*
X147213713Y-62149500D01*
X147165042Y-62157208D01*
X147003760Y-62182753D01*
X146801585Y-62248444D01*
X146612179Y-62344951D01*
X146440213Y-62469890D01*
X146289890Y-62620213D01*
X146164949Y-62792182D01*
X146160484Y-62800946D01*
X146112509Y-62851742D01*
X146044688Y-62868536D01*
X145978553Y-62845998D01*
X145939516Y-62800946D01*
X145935050Y-62792182D01*
X145810109Y-62620213D01*
X145659786Y-62469890D01*
X145487820Y-62344951D01*
X145298414Y-62248444D01*
X145298413Y-62248443D01*
X145298412Y-62248443D01*
X145096243Y-62182754D01*
X145096241Y-62182753D01*
X145096240Y-62182753D01*
X144934957Y-62157208D01*
X144886287Y-62149500D01*
X144673713Y-62149500D01*
X144625042Y-62157208D01*
X144463760Y-62182753D01*
X144261585Y-62248444D01*
X144072179Y-62344951D01*
X143900213Y-62469890D01*
X143749890Y-62620213D01*
X143624949Y-62792182D01*
X143620484Y-62800946D01*
X143572509Y-62851742D01*
X143504688Y-62868536D01*
X143438553Y-62845998D01*
X143399516Y-62800946D01*
X143395050Y-62792182D01*
X143270109Y-62620213D01*
X143119786Y-62469890D01*
X142947820Y-62344951D01*
X142758414Y-62248444D01*
X142758413Y-62248443D01*
X142758412Y-62248443D01*
X142556243Y-62182754D01*
X142556241Y-62182753D01*
X142556240Y-62182753D01*
X142394957Y-62157208D01*
X142346287Y-62149500D01*
X142133713Y-62149500D01*
X142085042Y-62157208D01*
X141923760Y-62182753D01*
X141721585Y-62248444D01*
X141532179Y-62344951D01*
X141360213Y-62469890D01*
X141209890Y-62620213D01*
X141084951Y-62792179D01*
X140988444Y-62981585D01*
X140922753Y-63183760D01*
X140916224Y-63224985D01*
X140889500Y-63393713D01*
X140889500Y-63606287D01*
X140896636Y-63651340D01*
X140918285Y-63788031D01*
X140922754Y-63816243D01*
X140934495Y-63852379D01*
X140946129Y-63888182D01*
X140948124Y-63958023D01*
X140912044Y-64017856D01*
X140849343Y-64048684D01*
X140828198Y-64050500D01*
X139176782Y-64050500D01*
X139109743Y-64030815D01*
X139089101Y-64014181D01*
X138696819Y-63621899D01*
X138663334Y-63560576D01*
X138660500Y-63534218D01*
X138660500Y-63381902D01*
X138623553Y-63148631D01*
X138550566Y-62924003D01*
X138476833Y-62779295D01*
X138443343Y-62713567D01*
X138304517Y-62522490D01*
X138137510Y-62355483D01*
X137946433Y-62216657D01*
X137926791Y-62206649D01*
X137735996Y-62109433D01*
X137511368Y-62036446D01*
X137278097Y-61999500D01*
X137278092Y-61999500D01*
X137041908Y-61999500D01*
X137041903Y-61999500D01*
X136808631Y-62036446D01*
X136584003Y-62109433D01*
X136373566Y-62216657D01*
X136268753Y-62292809D01*
X136182490Y-62355483D01*
X136182488Y-62355485D01*
X136182487Y-62355485D01*
X136015485Y-62522487D01*
X136015485Y-62522488D01*
X136015483Y-62522490D01*
X135962508Y-62595404D01*
X135876657Y-62713566D01*
X135769433Y-62924003D01*
X135696446Y-63148631D01*
X135659500Y-63381902D01*
X135659500Y-63618097D01*
X135696446Y-63851368D01*
X135769433Y-64075996D01*
X135852093Y-64238224D01*
X135876657Y-64286433D01*
X136015483Y-64477510D01*
X136182490Y-64644517D01*
X136373567Y-64783343D01*
X136466991Y-64830945D01*
X136584003Y-64890566D01*
X136584005Y-64890566D01*
X136584008Y-64890568D01*
X136704412Y-64929689D01*
X136808631Y-64963553D01*
X137041903Y-65000500D01*
X137041908Y-65000500D01*
X137194218Y-65000500D01*
X137223658Y-65009144D01*
X137253645Y-65015668D01*
X137258660Y-65019422D01*
X137261257Y-65020185D01*
X137281899Y-65036819D01*
X137326899Y-65081819D01*
X137360384Y-65143142D01*
X137355400Y-65212834D01*
X137313528Y-65268767D01*
X137248064Y-65293184D01*
X137239218Y-65293500D01*
X115654782Y-65293500D01*
X115587743Y-65273815D01*
X115567101Y-65257181D01*
X109585280Y-59275360D01*
X109551795Y-59214037D01*
X109556779Y-59144345D01*
X109598651Y-59088412D01*
X109634643Y-59069748D01*
X109738218Y-59036094D01*
X109738220Y-59036093D01*
X109755289Y-59027395D01*
X109755290Y-59027395D01*
X108912993Y-58185099D01*
X109027007Y-58250925D01*
X109154174Y-58285000D01*
X109285826Y-58285000D01*
X109412993Y-58250925D01*
X109527007Y-58185099D01*
X109620099Y-58092007D01*
X109685925Y-57977993D01*
X109720000Y-57850826D01*
X109720000Y-57719174D01*
X109685925Y-57592007D01*
X109620099Y-57477993D01*
X109527007Y-57384901D01*
X109412993Y-57319075D01*
X109285826Y-57285000D01*
X109154174Y-57285000D01*
X109027007Y-57319075D01*
X108912993Y-57384901D01*
X108819901Y-57477993D01*
X108754075Y-57592007D01*
X108720000Y-57719174D01*
X108720000Y-57850826D01*
X108754075Y-57977993D01*
X108819901Y-58092007D01*
X108066818Y-57338924D01*
X108033333Y-57277601D01*
X108030499Y-57251243D01*
X108030499Y-56887129D01*
X108030498Y-56887123D01*
X108030497Y-56887116D01*
X108024091Y-56827517D01*
X107973796Y-56692669D01*
X107973795Y-56692668D01*
X107973793Y-56692664D01*
X107888562Y-56578811D01*
X107864144Y-56513347D01*
X107878995Y-56445074D01*
X107928400Y-56395668D01*
X107987828Y-56380500D01*
X108565199Y-56380500D01*
X108632238Y-56400185D01*
X108677993Y-56452989D01*
X108687937Y-56522147D01*
X108687672Y-56523901D01*
X108684709Y-56542603D01*
X109220000Y-57077894D01*
X109220001Y-57077894D01*
X109755289Y-56542604D01*
X109752327Y-56523900D01*
X109761281Y-56454607D01*
X109806276Y-56401154D01*
X109873027Y-56380513D01*
X109874800Y-56380500D01*
X111025258Y-56380500D01*
X111092297Y-56400185D01*
X111138052Y-56452989D01*
X111147996Y-56522147D01*
X111118971Y-56585703D01*
X111081553Y-56614985D01*
X111052179Y-56629951D01*
X110880213Y-56754890D01*
X110729890Y-56905213D01*
X110604949Y-57077182D01*
X110553861Y-57177447D01*
X110505887Y-57228242D01*
X110476614Y-57235490D01*
X109927106Y-57784999D01*
X109927106Y-57785000D01*
X110475082Y-58332977D01*
X110493269Y-58335327D01*
X110546722Y-58380321D01*
X110553862Y-58392552D01*
X110604951Y-58492820D01*
X110729890Y-58664786D01*
X110880213Y-58815109D01*
X111052179Y-58940048D01*
X111052181Y-58940049D01*
X111052184Y-58940051D01*
X111241588Y-59036557D01*
X111443757Y-59102246D01*
X111653713Y-59135500D01*
X111653714Y-59135500D01*
X111866286Y-59135500D01*
X111866287Y-59135500D01*
X112076243Y-59102246D01*
X112278412Y-59036557D01*
X112467816Y-58940051D01*
X112554138Y-58877335D01*
X112639786Y-58815109D01*
X112639788Y-58815106D01*
X112639792Y-58815104D01*
X112790104Y-58664792D01*
X112790106Y-58664788D01*
X112790109Y-58664786D01*
X112915048Y-58492820D01*
X112915047Y-58492820D01*
X112915051Y-58492816D01*
X112919514Y-58484054D01*
X112967488Y-58433259D01*
X113035308Y-58416463D01*
X113101444Y-58438999D01*
X113140486Y-58484056D01*
X113144951Y-58492820D01*
X113269890Y-58664786D01*
X113420213Y-58815109D01*
X113592179Y-58940048D01*
X113592181Y-58940049D01*
X113592184Y-58940051D01*
X113781588Y-59036557D01*
X113983757Y-59102246D01*
X114193713Y-59135500D01*
X114193714Y-59135500D01*
X114406286Y-59135500D01*
X114406287Y-59135500D01*
X114616243Y-59102246D01*
X114818412Y-59036557D01*
X115007816Y-58940051D01*
X115094138Y-58877335D01*
X115179786Y-58815109D01*
X115179788Y-58815106D01*
X115179792Y-58815104D01*
X115330104Y-58664792D01*
X115330106Y-58664788D01*
X115330109Y-58664786D01*
X115455048Y-58492820D01*
X115455047Y-58492820D01*
X115455051Y-58492816D01*
X115459514Y-58484054D01*
X115507488Y-58433259D01*
X115575308Y-58416463D01*
X115641444Y-58438999D01*
X115680486Y-58484056D01*
X115684951Y-58492820D01*
X115809890Y-58664786D01*
X115960213Y-58815109D01*
X116132179Y-58940048D01*
X116132181Y-58940049D01*
X116132184Y-58940051D01*
X116321588Y-59036557D01*
X116523757Y-59102246D01*
X116733713Y-59135500D01*
X116733714Y-59135500D01*
X116946286Y-59135500D01*
X116946287Y-59135500D01*
X117156243Y-59102246D01*
X117358412Y-59036557D01*
X117547816Y-58940051D01*
X117634138Y-58877335D01*
X117719786Y-58815109D01*
X117719788Y-58815106D01*
X117719792Y-58815104D01*
X117870104Y-58664792D01*
X117870106Y-58664788D01*
X117870109Y-58664786D01*
X117995048Y-58492820D01*
X117995047Y-58492820D01*
X117995051Y-58492816D01*
X117999514Y-58484054D01*
X118047488Y-58433259D01*
X118115308Y-58416463D01*
X118181444Y-58438999D01*
X118220486Y-58484056D01*
X118224951Y-58492820D01*
X118349890Y-58664786D01*
X118500213Y-58815109D01*
X118672179Y-58940048D01*
X118672181Y-58940049D01*
X118672184Y-58940051D01*
X118861588Y-59036557D01*
X119063757Y-59102246D01*
X119273713Y-59135500D01*
X119273714Y-59135500D01*
X119486286Y-59135500D01*
X119486287Y-59135500D01*
X119696243Y-59102246D01*
X119898412Y-59036557D01*
X120087816Y-58940051D01*
X120174138Y-58877335D01*
X120259786Y-58815109D01*
X120259788Y-58815106D01*
X120259792Y-58815104D01*
X120410104Y-58664792D01*
X120410106Y-58664788D01*
X120410109Y-58664786D01*
X120535048Y-58492820D01*
X120535047Y-58492820D01*
X120535051Y-58492816D01*
X120539514Y-58484054D01*
X120587488Y-58433259D01*
X120655308Y-58416463D01*
X120721444Y-58438999D01*
X120760486Y-58484056D01*
X120764951Y-58492820D01*
X120889890Y-58664786D01*
X121040213Y-58815109D01*
X121212179Y-58940048D01*
X121212181Y-58940049D01*
X121212184Y-58940051D01*
X121401588Y-59036557D01*
X121603757Y-59102246D01*
X121813713Y-59135500D01*
X121813714Y-59135500D01*
X122026286Y-59135500D01*
X122026287Y-59135500D01*
X122236243Y-59102246D01*
X122438412Y-59036557D01*
X122627816Y-58940051D01*
X122714138Y-58877335D01*
X122799786Y-58815109D01*
X122799788Y-58815106D01*
X122799792Y-58815104D01*
X122950104Y-58664792D01*
X122950106Y-58664788D01*
X122950109Y-58664786D01*
X123075048Y-58492820D01*
X123075047Y-58492820D01*
X123075051Y-58492816D01*
X123079514Y-58484054D01*
X123127488Y-58433259D01*
X123195308Y-58416463D01*
X123261444Y-58438999D01*
X123300486Y-58484056D01*
X123304951Y-58492820D01*
X123429890Y-58664786D01*
X123580213Y-58815109D01*
X123752179Y-58940048D01*
X123752181Y-58940049D01*
X123752184Y-58940051D01*
X123941588Y-59036557D01*
X124143757Y-59102246D01*
X124353713Y-59135500D01*
X124353714Y-59135500D01*
X124566286Y-59135500D01*
X124566287Y-59135500D01*
X124776243Y-59102246D01*
X124978412Y-59036557D01*
X125167816Y-58940051D01*
X125254138Y-58877335D01*
X125339786Y-58815109D01*
X125339788Y-58815106D01*
X125339792Y-58815104D01*
X125490104Y-58664792D01*
X125490106Y-58664788D01*
X125490109Y-58664786D01*
X125615048Y-58492820D01*
X125615047Y-58492820D01*
X125615051Y-58492816D01*
X125711557Y-58303412D01*
X125777246Y-58101243D01*
X125810500Y-57891287D01*
X125810500Y-57678713D01*
X125777246Y-57468757D01*
X125711557Y-57266588D01*
X125615051Y-57077184D01*
X125615049Y-57077181D01*
X125615048Y-57077179D01*
X125490109Y-56905213D01*
X125339786Y-56754890D01*
X125167820Y-56629951D01*
X125138447Y-56614985D01*
X125087651Y-56567011D01*
X125070856Y-56499190D01*
X125093393Y-56433055D01*
X125148108Y-56389603D01*
X125194742Y-56380500D01*
X126375500Y-56380500D01*
X126442539Y-56400185D01*
X126488294Y-56452989D01*
X126499500Y-56504500D01*
X126499500Y-61025891D01*
X126533608Y-61153187D01*
X126566554Y-61210250D01*
X126599500Y-61267314D01*
X126692686Y-61360500D01*
X126806814Y-61426392D01*
X126934108Y-61460500D01*
X127065892Y-61460500D01*
X184894108Y-61460500D01*
X184956249Y-61460500D01*
X184963736Y-61460726D01*
X185253796Y-61478271D01*
X185268659Y-61480076D01*
X185550798Y-61531780D01*
X185565335Y-61535363D01*
X185839172Y-61620695D01*
X185853163Y-61626000D01*
X186114743Y-61743727D01*
X186127989Y-61750680D01*
X186373465Y-61899075D01*
X186385776Y-61907573D01*
X186503113Y-61999500D01*
X186611573Y-62084473D01*
X186622781Y-62094403D01*
X186825596Y-62297218D01*
X186835526Y-62308426D01*
X186955481Y-62461538D01*
X187012422Y-62534217D01*
X187020926Y-62546537D01*
X187065228Y-62619821D01*
X187169316Y-62792004D01*
X187176275Y-62805263D01*
X187293997Y-63066831D01*
X187299306Y-63080832D01*
X187384635Y-63354663D01*
X187388219Y-63369201D01*
X187439923Y-63651340D01*
X187441728Y-63666205D01*
X187459274Y-63956263D01*
X187459500Y-63963750D01*
X187459500Y-93516249D01*
X187459274Y-93523736D01*
X187441728Y-93813794D01*
X187439923Y-93828659D01*
X187388219Y-94110798D01*
X187384635Y-94125336D01*
X187299306Y-94399167D01*
X187293997Y-94413168D01*
X187176275Y-94674736D01*
X187169316Y-94687995D01*
X187020928Y-94933459D01*
X187012422Y-94945782D01*
X186835526Y-95171573D01*
X186825596Y-95182781D01*
X186622781Y-95385596D01*
X186611573Y-95395526D01*
X186385782Y-95572422D01*
X186373459Y-95580928D01*
X186127995Y-95729316D01*
X186114736Y-95736275D01*
X185853168Y-95853997D01*
X185839167Y-95859306D01*
X185565336Y-95944635D01*
X185550798Y-95948219D01*
X185268659Y-95999923D01*
X185253794Y-96001728D01*
X184963736Y-96019274D01*
X184956249Y-96019500D01*
X107143751Y-96019500D01*
X107136264Y-96019274D01*
X106846205Y-96001728D01*
X106831340Y-95999923D01*
X106549201Y-95948219D01*
X106534663Y-95944635D01*
X106260832Y-95859306D01*
X106246831Y-95853997D01*
X105985263Y-95736275D01*
X105972004Y-95729316D01*
X105726540Y-95580928D01*
X105714217Y-95572422D01*
X105488426Y-95395526D01*
X105477218Y-95385596D01*
X105274403Y-95182781D01*
X105264473Y-95171573D01*
X105183507Y-95068227D01*
X105087573Y-94945776D01*
X105079075Y-94933465D01*
X104930680Y-94687989D01*
X104923727Y-94674743D01*
X104806000Y-94413163D01*
X104800693Y-94399167D01*
X104789792Y-94364185D01*
X104715363Y-94125335D01*
X104711780Y-94110798D01*
X104660076Y-93828659D01*
X104658271Y-93813794D01*
X104640726Y-93523736D01*
X104640500Y-93516249D01*
X104640500Y-91728034D01*
X179379500Y-91728034D01*
X179379500Y-92071965D01*
X179413210Y-92414249D01*
X179480308Y-92751572D01*
X179580150Y-93080706D01*
X179711770Y-93398464D01*
X179711772Y-93398469D01*
X179873893Y-93701775D01*
X179873904Y-93701793D01*
X180064975Y-93987751D01*
X180064985Y-93987765D01*
X180283176Y-94253632D01*
X180526367Y-94496823D01*
X180526372Y-94496827D01*
X180526373Y-94496828D01*
X180792240Y-94715019D01*
X181078213Y-94906100D01*
X181078222Y-94906105D01*
X181078224Y-94906106D01*
X181381530Y-95068227D01*
X181381532Y-95068227D01*
X181381538Y-95068231D01*
X181699295Y-95199850D01*
X182028422Y-95299690D01*
X182365750Y-95366789D01*
X182708031Y-95400500D01*
X182708034Y-95400500D01*
X183051966Y-95400500D01*
X183051969Y-95400500D01*
X183394250Y-95366789D01*
X183731578Y-95299690D01*
X184060705Y-95199850D01*
X184378462Y-95068231D01*
X184681787Y-94906100D01*
X184967760Y-94715019D01*
X185233627Y-94496828D01*
X185476828Y-94253627D01*
X185695019Y-93987760D01*
X185886100Y-93701787D01*
X186048231Y-93398462D01*
X186179850Y-93080705D01*
X186279690Y-92751578D01*
X186346789Y-92414250D01*
X186380500Y-92071969D01*
X186380500Y-91728031D01*
X186346789Y-91385750D01*
X186279690Y-91048422D01*
X186179850Y-90719295D01*
X186048231Y-90401538D01*
X185958929Y-90234467D01*
X185886106Y-90098224D01*
X185886105Y-90098222D01*
X185886100Y-90098213D01*
X185695019Y-89812240D01*
X185476828Y-89546373D01*
X185476827Y-89546372D01*
X185476823Y-89546367D01*
X185233632Y-89303176D01*
X184967765Y-89084985D01*
X184967764Y-89084984D01*
X184967760Y-89084981D01*
X184681787Y-88893900D01*
X184681782Y-88893897D01*
X184681775Y-88893893D01*
X184378469Y-88731772D01*
X184378464Y-88731770D01*
X184060706Y-88600150D01*
X183731572Y-88500308D01*
X183394248Y-88433210D01*
X183394249Y-88433210D01*
X183136456Y-88407821D01*
X183051969Y-88399500D01*
X182708031Y-88399500D01*
X182629966Y-88407188D01*
X182365750Y-88433210D01*
X182028427Y-88500308D01*
X181699293Y-88600150D01*
X181381535Y-88731770D01*
X181381530Y-88731772D01*
X181078224Y-88893893D01*
X181078206Y-88893904D01*
X180792248Y-89084975D01*
X180792234Y-89084985D01*
X180526367Y-89303176D01*
X180283176Y-89546367D01*
X180064985Y-89812234D01*
X180064975Y-89812248D01*
X179873904Y-90098206D01*
X179873893Y-90098224D01*
X179711772Y-90401530D01*
X179711770Y-90401535D01*
X179580150Y-90719293D01*
X179480308Y-91048427D01*
X179413210Y-91385750D01*
X179379500Y-91728034D01*
X104640500Y-91728034D01*
X104640500Y-83101515D01*
X117981500Y-83101515D01*
X117981500Y-83338485D01*
X118018571Y-83572539D01*
X118091799Y-83797911D01*
X118199381Y-84009054D01*
X118338669Y-84200767D01*
X118506233Y-84368331D01*
X118697946Y-84507619D01*
X118909089Y-84615201D01*
X119134461Y-84688429D01*
X119368515Y-84725500D01*
X119368516Y-84725500D01*
X119605484Y-84725500D01*
X119605485Y-84725500D01*
X119839539Y-84688429D01*
X120064911Y-84615201D01*
X120276054Y-84507619D01*
X120467767Y-84368331D01*
X120534583Y-84301515D01*
X128181500Y-84301515D01*
X128181500Y-84538484D01*
X128211120Y-84725500D01*
X128218571Y-84772539D01*
X128291799Y-84997911D01*
X128399381Y-85209054D01*
X128538669Y-85400767D01*
X128706233Y-85568331D01*
X128897946Y-85707619D01*
X129109089Y-85815201D01*
X129334461Y-85888429D01*
X129568515Y-85925500D01*
X129568516Y-85925500D01*
X129805484Y-85925500D01*
X129805485Y-85925500D01*
X130039539Y-85888429D01*
X130264911Y-85815201D01*
X130476054Y-85707619D01*
X130667767Y-85568331D01*
X130835331Y-85400767D01*
X130974619Y-85209054D01*
X131082201Y-84997911D01*
X131155429Y-84772539D01*
X131192500Y-84538485D01*
X131192500Y-84301515D01*
X131155429Y-84067461D01*
X131082201Y-83842089D01*
X130974619Y-83630946D01*
X130835331Y-83439233D01*
X130667767Y-83271669D01*
X130476054Y-83132381D01*
X130264911Y-83024799D01*
X130039539Y-82951571D01*
X130039537Y-82951570D01*
X130039535Y-82951570D01*
X129876115Y-82925686D01*
X129805485Y-82914500D01*
X129568515Y-82914500D01*
X129514257Y-82923093D01*
X129334464Y-82951570D01*
X129109086Y-83024800D01*
X128897945Y-83132381D01*
X128788566Y-83211850D01*
X128706233Y-83271669D01*
X128706231Y-83271671D01*
X128706230Y-83271671D01*
X128538671Y-83439230D01*
X128538671Y-83439231D01*
X128538669Y-83439233D01*
X128478850Y-83521566D01*
X128399381Y-83630945D01*
X128291800Y-83842086D01*
X128218570Y-84067464D01*
X128181500Y-84301515D01*
X120534583Y-84301515D01*
X120635331Y-84200767D01*
X120774619Y-84009054D01*
X120882201Y-83797911D01*
X120955429Y-83572539D01*
X120992500Y-83338485D01*
X120992500Y-83101515D01*
X120955429Y-82867461D01*
X120882201Y-82642089D01*
X120774619Y-82430946D01*
X120635331Y-82239233D01*
X120467767Y-82071669D01*
X120286520Y-81939985D01*
X136199500Y-81939985D01*
X136199500Y-87539999D01*
X136199501Y-87540016D01*
X136210000Y-87642795D01*
X136210001Y-87642798D01*
X136265185Y-87809330D01*
X136265186Y-87809333D01*
X136357289Y-87958655D01*
X136481345Y-88082711D01*
X136630667Y-88174814D01*
X136797204Y-88229999D01*
X136899993Y-88240500D01*
X142500006Y-88240499D01*
X142602796Y-88229999D01*
X142769333Y-88174814D01*
X142918655Y-88082711D01*
X143042711Y-87958655D01*
X143134814Y-87809333D01*
X143189999Y-87642796D01*
X143200500Y-87540007D01*
X143200499Y-84568034D01*
X172199500Y-84568034D01*
X172199500Y-84911965D01*
X172233210Y-85254249D01*
X172300308Y-85591572D01*
X172400150Y-85920706D01*
X172531770Y-86238464D01*
X172531772Y-86238469D01*
X172693893Y-86541775D01*
X172693904Y-86541793D01*
X172884975Y-86827751D01*
X172884985Y-86827765D01*
X173103176Y-87093632D01*
X173346367Y-87336823D01*
X173346372Y-87336827D01*
X173346373Y-87336828D01*
X173612240Y-87555019D01*
X173898213Y-87746100D01*
X173898222Y-87746105D01*
X173898224Y-87746106D01*
X174201530Y-87908227D01*
X174201532Y-87908227D01*
X174201538Y-87908231D01*
X174519295Y-88039850D01*
X174848422Y-88139690D01*
X175185750Y-88206789D01*
X175528031Y-88240500D01*
X175528034Y-88240500D01*
X175871966Y-88240500D01*
X175871969Y-88240500D01*
X176214250Y-88206789D01*
X176551578Y-88139690D01*
X176880705Y-88039850D01*
X177198462Y-87908231D01*
X177501787Y-87746100D01*
X177787760Y-87555019D01*
X178053627Y-87336828D01*
X178296828Y-87093627D01*
X178515019Y-86827760D01*
X178706100Y-86541787D01*
X178868231Y-86238462D01*
X178999850Y-85920705D01*
X179099690Y-85591578D01*
X179166789Y-85254250D01*
X179200500Y-84911969D01*
X179200500Y-84568031D01*
X179166789Y-84225750D01*
X179099690Y-83888422D01*
X178999850Y-83559295D01*
X178868231Y-83241538D01*
X178713239Y-82951570D01*
X178706106Y-82938224D01*
X178706105Y-82938222D01*
X178706100Y-82938213D01*
X178515019Y-82652240D01*
X178296828Y-82386373D01*
X178296827Y-82386372D01*
X178296823Y-82386367D01*
X178053632Y-82143176D01*
X177787765Y-81924985D01*
X177787764Y-81924984D01*
X177787760Y-81924981D01*
X177501787Y-81733900D01*
X177501782Y-81733897D01*
X177501775Y-81733893D01*
X177198469Y-81571772D01*
X177198464Y-81571770D01*
X176880706Y-81440150D01*
X176551572Y-81340308D01*
X176214248Y-81273210D01*
X176214249Y-81273210D01*
X175956456Y-81247821D01*
X175871969Y-81239500D01*
X175528031Y-81239500D01*
X175449966Y-81247188D01*
X175185750Y-81273210D01*
X174848427Y-81340308D01*
X174519293Y-81440150D01*
X174201535Y-81571770D01*
X174201530Y-81571772D01*
X173898224Y-81733893D01*
X173898206Y-81733904D01*
X173612248Y-81924975D01*
X173612234Y-81924985D01*
X173346367Y-82143176D01*
X173103176Y-82386367D01*
X172884985Y-82652234D01*
X172884975Y-82652248D01*
X172693904Y-82938206D01*
X172693893Y-82938224D01*
X172531772Y-83241530D01*
X172531770Y-83241535D01*
X172400150Y-83559293D01*
X172300308Y-83888427D01*
X172233210Y-84225750D01*
X172199500Y-84568034D01*
X143200499Y-84568034D01*
X143200499Y-81939994D01*
X143198965Y-81924981D01*
X143189999Y-81837204D01*
X143189998Y-81837201D01*
X143161623Y-81751571D01*
X143134814Y-81670667D01*
X143042711Y-81521345D01*
X142918655Y-81397289D01*
X142769333Y-81305186D01*
X142602796Y-81250001D01*
X142602794Y-81250000D01*
X142500008Y-81239500D01*
X136900000Y-81239500D01*
X136899983Y-81239501D01*
X136797204Y-81250000D01*
X136797201Y-81250001D01*
X136630669Y-81305185D01*
X136630664Y-81305187D01*
X136481343Y-81397290D01*
X136357290Y-81521343D01*
X136265187Y-81670664D01*
X136265186Y-81670667D01*
X136210001Y-81837204D01*
X136210001Y-81837205D01*
X136210000Y-81837205D01*
X136199500Y-81939985D01*
X120286520Y-81939985D01*
X120276054Y-81932381D01*
X120064911Y-81824799D01*
X119839539Y-81751571D01*
X119839537Y-81751570D01*
X119839535Y-81751570D01*
X119676115Y-81725686D01*
X119605485Y-81714500D01*
X119368515Y-81714500D01*
X119314257Y-81723093D01*
X119134464Y-81751570D01*
X118909086Y-81824800D01*
X118697945Y-81932381D01*
X118588566Y-82011850D01*
X118506233Y-82071669D01*
X118506231Y-82071671D01*
X118506230Y-82071671D01*
X118338671Y-82239230D01*
X118338671Y-82239231D01*
X118338669Y-82239233D01*
X118278850Y-82321566D01*
X118199381Y-82430945D01*
X118091800Y-82642086D01*
X118018570Y-82867464D01*
X117981500Y-83101515D01*
X104640500Y-83101515D01*
X104640500Y-72568059D01*
X136200000Y-72568059D01*
X136200000Y-72911940D01*
X136233705Y-73254165D01*
X136233708Y-73254182D01*
X136300791Y-73591437D01*
X136300792Y-73591443D01*
X136400623Y-73920540D01*
X136532219Y-74238241D01*
X136532226Y-74238255D01*
X136694322Y-74541518D01*
X136694333Y-74541536D01*
X136885385Y-74827465D01*
X136894418Y-74838472D01*
X136894419Y-74838472D01*
X138068585Y-73664307D01*
X138137649Y-73783929D01*
X138287276Y-73978926D01*
X138461074Y-74152724D01*
X138656071Y-74302351D01*
X138775691Y-74371414D01*
X137601526Y-75545579D01*
X137612539Y-75554617D01*
X137612542Y-75554619D01*
X137898463Y-75745666D01*
X137898481Y-75745677D01*
X138201744Y-75907773D01*
X138201758Y-75907780D01*
X138519459Y-76039376D01*
X138848556Y-76139207D01*
X138848562Y-76139208D01*
X139185817Y-76206291D01*
X139185834Y-76206294D01*
X139528059Y-76240000D01*
X139871941Y-76240000D01*
X140214165Y-76206294D01*
X140214182Y-76206291D01*
X140551437Y-76139208D01*
X140551443Y-76139207D01*
X140880540Y-76039376D01*
X141198241Y-75907780D01*
X141198255Y-75907773D01*
X141501518Y-75745677D01*
X141501536Y-75745666D01*
X141787460Y-75554617D01*
X141798472Y-75545580D01*
X141798472Y-75545578D01*
X140624308Y-74371414D01*
X140743929Y-74302351D01*
X140938926Y-74152724D01*
X141112724Y-73978926D01*
X141262351Y-73783929D01*
X141331414Y-73664308D01*
X142505578Y-74838472D01*
X142505580Y-74838472D01*
X142514617Y-74827460D01*
X142705666Y-74541536D01*
X142705677Y-74541518D01*
X142867773Y-74238255D01*
X142867780Y-74238241D01*
X142999376Y-73920540D01*
X143099207Y-73591443D01*
X143099208Y-73591437D01*
X143166291Y-73254182D01*
X143166294Y-73254165D01*
X143200000Y-72911940D01*
X143200000Y-72568059D01*
X143199998Y-72568034D01*
X172199500Y-72568034D01*
X172199500Y-72911965D01*
X172233210Y-73254249D01*
X172300308Y-73591572D01*
X172300310Y-73591578D01*
X172400150Y-73920705D01*
X172531677Y-74238241D01*
X172531770Y-74238464D01*
X172531772Y-74238469D01*
X172693893Y-74541775D01*
X172693904Y-74541793D01*
X172884975Y-74827751D01*
X172884985Y-74827765D01*
X173103176Y-75093632D01*
X173346367Y-75336823D01*
X173346372Y-75336827D01*
X173346373Y-75336828D01*
X173612240Y-75555019D01*
X173898213Y-75746100D01*
X173898222Y-75746105D01*
X173898224Y-75746106D01*
X174201530Y-75908227D01*
X174201532Y-75908227D01*
X174201538Y-75908231D01*
X174519295Y-76039850D01*
X174848422Y-76139690D01*
X175185750Y-76206789D01*
X175528031Y-76240500D01*
X175528034Y-76240500D01*
X175871966Y-76240500D01*
X175871969Y-76240500D01*
X176214250Y-76206789D01*
X176551578Y-76139690D01*
X176880705Y-76039850D01*
X177198462Y-75908231D01*
X177501787Y-75746100D01*
X177787760Y-75555019D01*
X178053627Y-75336828D01*
X178296828Y-75093627D01*
X178515019Y-74827760D01*
X178706100Y-74541787D01*
X178868231Y-74238462D01*
X178999850Y-73920705D01*
X179099690Y-73591578D01*
X179166789Y-73254250D01*
X179200500Y-72911969D01*
X179200500Y-72568031D01*
X179166789Y-72225750D01*
X179099690Y-71888422D01*
X178999850Y-71559295D01*
X178868231Y-71241538D01*
X178706100Y-70938213D01*
X178515019Y-70652240D01*
X178296828Y-70386373D01*
X178296827Y-70386372D01*
X178296823Y-70386367D01*
X178053632Y-70143176D01*
X177787765Y-69924985D01*
X177787764Y-69924984D01*
X177787760Y-69924981D01*
X177501787Y-69733900D01*
X177501782Y-69733897D01*
X177501775Y-69733893D01*
X177198469Y-69571772D01*
X177198464Y-69571770D01*
X176880706Y-69440150D01*
X176551572Y-69340308D01*
X176214248Y-69273210D01*
X176214249Y-69273210D01*
X175956456Y-69247821D01*
X175871969Y-69239500D01*
X175528031Y-69239500D01*
X175449966Y-69247188D01*
X175185750Y-69273210D01*
X174848427Y-69340308D01*
X174519293Y-69440150D01*
X174201535Y-69571770D01*
X174201530Y-69571772D01*
X173898224Y-69733893D01*
X173898206Y-69733904D01*
X173612248Y-69924975D01*
X173612234Y-69924985D01*
X173346367Y-70143176D01*
X173103176Y-70386367D01*
X172884985Y-70652234D01*
X172884975Y-70652248D01*
X172693904Y-70938206D01*
X172693893Y-70938224D01*
X172531772Y-71241530D01*
X172531770Y-71241535D01*
X172400150Y-71559293D01*
X172300308Y-71888427D01*
X172233210Y-72225750D01*
X172199500Y-72568034D01*
X143199998Y-72568034D01*
X143166294Y-72225834D01*
X143166291Y-72225817D01*
X143099208Y-71888562D01*
X143099207Y-71888556D01*
X142999376Y-71559459D01*
X142867780Y-71241758D01*
X142867773Y-71241744D01*
X142705677Y-70938481D01*
X142705666Y-70938463D01*
X142514619Y-70652542D01*
X142514617Y-70652539D01*
X142505579Y-70641526D01*
X141331414Y-71815691D01*
X141262351Y-71696071D01*
X141112724Y-71501074D01*
X140938926Y-71327276D01*
X140743929Y-71177649D01*
X140624307Y-71108585D01*
X141798472Y-69934419D01*
X141798472Y-69934418D01*
X141787465Y-69925385D01*
X141501536Y-69734333D01*
X141501518Y-69734322D01*
X141198255Y-69572226D01*
X141198241Y-69572219D01*
X140880540Y-69440623D01*
X140551443Y-69340792D01*
X140551437Y-69340791D01*
X140214182Y-69273708D01*
X140214165Y-69273705D01*
X139871941Y-69240000D01*
X139528059Y-69240000D01*
X139185834Y-69273705D01*
X139185817Y-69273708D01*
X138848562Y-69340791D01*
X138848556Y-69340792D01*
X138519459Y-69440623D01*
X138201758Y-69572219D01*
X138201744Y-69572226D01*
X137898481Y-69734322D01*
X137898463Y-69734333D01*
X137612548Y-69925376D01*
X137612540Y-69925382D01*
X137601525Y-69934419D01*
X138775692Y-71108585D01*
X138656071Y-71177649D01*
X138461074Y-71327276D01*
X138287276Y-71501074D01*
X138137649Y-71696071D01*
X138068585Y-71815691D01*
X136894419Y-70641525D01*
X136885382Y-70652540D01*
X136885376Y-70652548D01*
X136694333Y-70938463D01*
X136694322Y-70938481D01*
X136532226Y-71241744D01*
X136532219Y-71241758D01*
X136400623Y-71559459D01*
X136300792Y-71888556D01*
X136300791Y-71888562D01*
X136233708Y-72225817D01*
X136233705Y-72225834D01*
X136200000Y-72568059D01*
X104640500Y-72568059D01*
X104640500Y-56504500D01*
X104660185Y-56437461D01*
X104712989Y-56391706D01*
X104764500Y-56380500D01*
X105372172Y-56380500D01*
X105439211Y-56400185D01*
G37*
%TD.AperFunction*%
%TD*%
M02*
