M48
; DRILL file {KiCad 9.0.2} date 2026-01-23T00:16:18-0500
; FORMAT={-:-/ absolute / inch / decimal}
; #@! TF.CreationDate,2026-01-23T00:16:18-05:00
; #@! TF.GenerationSoftware,Kicad,Pcbnew,9.0.2
; #@! TF.FileFunction,Plated,1,2,PTH
FMAT,2
INCH
; #@! TA.AperFunction,Plated,PTH,ViaDrill
T1C0.0118
; #@! TA.AperFunction,Plated,PTH,ComponentDrill
T2C0.0295
; #@! TA.AperFunction,Plated,PTH,ComponentDrill
T3C0.0394
; #@! TA.AperFunction,Plated,PTH,ComponentDrill
T4C0.0472
; #@! TA.AperFunction,Plated,PTH,ComponentDrill
T5C0.0512
%
G90
G05
T1
X3.937Y-4.6133
X3.947Y-4.5333
X3.947Y-4.9333
X4.067Y-4.6733
X4.727Y-5.4433
X5.5011Y-4.9374
X5.517Y-5.0133
X5.827Y-4.7801
T2
X4.1732Y-3.937
X4.1732Y-4.0157
X4.1732Y-4.0945
X4.1732Y-4.1732
T3
X3.977Y-4.3733
X3.977Y-4.4733
X3.977Y-4.5733
X3.977Y-4.6733
X3.977Y-4.7733
X3.977Y-4.8733
X3.977Y-4.9733
X4.377Y-4.4733
X4.377Y-4.5733
X4.377Y-4.6733
X4.377Y-4.7733
X4.377Y-4.8733
X4.467Y-5.8733
X4.467Y-5.9733
X4.467Y-6.0733
X4.467Y-6.1733
X4.5362Y-3.6787
X4.5362Y-3.7787
X4.5362Y-3.8787
X4.5362Y-3.9787
X4.5362Y-4.0787
X4.5362Y-4.1787
X4.5362Y-4.2787
X4.5362Y-4.3787
X4.5362Y-4.4787
X4.5362Y-4.5787
X4.5362Y-4.6787
X4.5362Y-4.7787
X4.5362Y-4.8787
X4.5362Y-4.9787
X4.5362Y-5.0787
X4.5362Y-5.1787
X4.5362Y-5.2787
X4.5362Y-5.3787
X4.5362Y-5.4787
X4.5362Y-5.5787
X5.2362Y-3.6787
X5.2362Y-3.7787
X5.2362Y-3.8787
X5.2362Y-3.9787
X5.2362Y-4.0787
X5.2362Y-4.1787
X5.2362Y-4.2787
X5.2362Y-4.3787
X5.2362Y-4.4787
X5.2362Y-4.5787
X5.2362Y-4.6787
X5.2362Y-4.7787
X5.2362Y-4.8787
X5.2362Y-4.9787
X5.2362Y-5.0787
X5.2362Y-5.1787
X5.2362Y-5.2787
X5.2362Y-5.3787
X5.2362Y-5.4787
X5.2362Y-5.5787
X5.587Y-5.3631
X5.587Y-5.4631
X5.687Y-5.3631
X5.687Y-5.4631
X5.787Y-5.3631
X5.787Y-5.4631
T4
X5.5768Y-4.2094
X5.5768Y-4.6094
X5.6768Y-4.2094
X5.6768Y-4.6094
X5.7768Y-4.2094
X5.7768Y-4.6094
X5.8768Y-4.2094
X5.8768Y-4.6094
X5.9768Y-4.2094
X5.9768Y-4.6094
X6.0768Y-4.2094
X6.0768Y-4.6094
T5
X4.1799Y-5.1473
X4.1799Y-5.2851
X4.1799Y-5.5144
X4.1799Y-5.6522
X4.1799Y-5.8833
X4.1799Y-6.0211
X5.5703Y-3.8233
X5.597Y-6.2133
X5.7081Y-3.8233
X5.7348Y-6.2133
X5.9381Y-3.8233
X5.967Y-6.2133
X6.0759Y-3.8233
X6.1048Y-6.2133
X6.217Y-5.1477
X6.217Y-5.2855
X6.217Y-5.5155
X6.217Y-5.6533
M30
