%TF.GenerationSoftware,KiCad,Pcbnew,9.0.2*%
%TF.CreationDate,2025-12-09T19:19:04-05:00*%
%TF.ProjectId,Motherboard,4d6f7468-6572-4626-9f61-72642e6b6963,rev?*%
%TF.SameCoordinates,Original*%
%TF.FileFunction,Soldermask,Bot*%
%TF.FilePolarity,Negative*%
%FSLAX46Y46*%
G04 Gerber Fmt 4.6, Leading zero omitted, Abs format (unit mm)*
G04 Created by KiCad (PCBNEW 9.0.2) date 2025-12-09 19:19:04*
%MOMM*%
%LPD*%
G01*
G04 APERTURE LIST*
G04 Aperture macros list*
%AMRoundRect*
0 Rectangle with rounded corners*
0 $1 Rounding radius*
0 $2 $3 $4 $5 $6 $7 $8 $9 X,Y pos of 4 corners*
0 Add a 4 corners polygon primitive as box body*
4,1,4,$2,$3,$4,$5,$6,$7,$8,$9,$2,$3,0*
0 Add four circle primitives for the rounded corners*
1,1,$1+$1,$2,$3*
1,1,$1+$1,$4,$5*
1,1,$1+$1,$6,$7*
1,1,$1+$1,$8,$9*
0 Add four rect primitives between the rounded corners*
20,1,$1+$1,$2,$3,$4,$5,0*
20,1,$1+$1,$4,$5,$6,$7,0*
20,1,$1+$1,$6,$7,$8,$9,0*
20,1,$1+$1,$8,$9,$2,$3,0*%
%AMFreePoly0*
4,1,37,0.603843,0.796157,0.639018,0.796157,0.711114,0.766294,0.766294,0.711114,0.796157,0.639018,0.796157,0.603843,0.800000,0.600000,0.800000,-0.600000,0.796157,-0.603843,0.796157,-0.639018,0.766294,-0.711114,0.711114,-0.766294,0.639018,-0.796157,0.603843,-0.796157,0.600000,-0.800000,0.000000,-0.800000,0.000000,-0.796148,-0.078414,-0.796148,-0.232228,-0.765552,-0.377117,-0.705537,
-0.507515,-0.618408,-0.618408,-0.507515,-0.705537,-0.377117,-0.765552,-0.232228,-0.796148,-0.078414,-0.796148,0.078414,-0.765552,0.232228,-0.705537,0.377117,-0.618408,0.507515,-0.507515,0.618408,-0.377117,0.705537,-0.232228,0.765552,-0.078414,0.796148,0.000000,0.796148,0.000000,0.800000,0.600000,0.800000,0.603843,0.796157,0.603843,0.796157,$1*%
%AMFreePoly1*
4,1,37,0.000000,0.796148,0.078414,0.796148,0.232228,0.765552,0.377117,0.705537,0.507515,0.618408,0.618408,0.507515,0.705537,0.377117,0.765552,0.232228,0.796148,0.078414,0.796148,-0.078414,0.765552,-0.232228,0.705537,-0.377117,0.618408,-0.507515,0.507515,-0.618408,0.377117,-0.705537,0.232228,-0.765552,0.078414,-0.796148,0.000000,-0.796148,0.000000,-0.800000,-0.600000,-0.800000,
-0.603843,-0.796157,-0.639018,-0.796157,-0.711114,-0.766294,-0.766294,-0.711114,-0.796157,-0.639018,-0.796157,-0.603843,-0.800000,-0.600000,-0.800000,0.600000,-0.796157,0.603843,-0.796157,0.639018,-0.766294,0.711114,-0.711114,0.766294,-0.639018,0.796157,-0.603843,0.796157,-0.600000,0.800000,0.000000,0.800000,0.000000,0.796148,0.000000,0.796148,$1*%
G04 Aperture macros list end*
%ADD10RoundRect,0.250000X1.050000X1.050000X-1.050000X1.050000X-1.050000X-1.050000X1.050000X-1.050000X0*%
%ADD11C,2.600000*%
%ADD12RoundRect,0.250000X1.050000X-1.050000X1.050000X1.050000X-1.050000X1.050000X-1.050000X-1.050000X0*%
%ADD13RoundRect,0.250000X-1.050000X1.050000X-1.050000X-1.050000X1.050000X-1.050000X1.050000X1.050000X0*%
%ADD14RoundRect,0.250000X-1.050000X-1.050000X1.050000X-1.050000X1.050000X1.050000X-1.050000X1.050000X0*%
%ADD15RoundRect,0.250000X0.625000X-0.350000X0.625000X0.350000X-0.625000X0.350000X-0.625000X-0.350000X0*%
%ADD16O,1.750000X1.200000*%
%ADD17O,1.600000X2.000000*%
%ADD18O,2.000000X1.600000*%
%ADD19R,1.700000X1.700000*%
%ADD20C,1.700000*%
%ADD21RoundRect,0.200000X-0.600000X-0.600000X0.600000X-0.600000X0.600000X0.600000X-0.600000X0.600000X0*%
%ADD22C,1.600000*%
%ADD23FreePoly0,0.000000*%
%ADD24FreePoly1,0.000000*%
G04 APERTURE END LIST*
D10*
%TO.C,J6*%
X144986000Y-97112000D03*
D11*
X141486000Y-97112000D03*
%TD*%
D12*
%TO.C,J5*%
X157912000Y-143594000D03*
D11*
X157912000Y-140094000D03*
%TD*%
D13*
%TO.C,J8*%
X106170500Y-140066000D03*
D11*
X106170500Y-143566000D03*
%TD*%
D14*
%TO.C,J3*%
X142164000Y-157818000D03*
D11*
X145664000Y-157818000D03*
%TD*%
D15*
%TO.C,J11*%
X106000000Y-106000000D03*
D16*
X106000000Y-104000000D03*
X106000000Y-102000000D03*
X106000000Y-100000000D03*
%TD*%
D17*
%TO.C,U1*%
X141650000Y-117080000D03*
X144190000Y-117080000D03*
X146730000Y-117080000D03*
X149270000Y-117080000D03*
X151810000Y-117080000D03*
X154350000Y-117080000D03*
X154350000Y-106920000D03*
X151810000Y-106920000D03*
X149270000Y-106920000D03*
X146730000Y-106920000D03*
X144190000Y-106920000D03*
X141650000Y-106920000D03*
%TD*%
D14*
%TO.C,J7*%
X151562000Y-157818000D03*
D11*
X155062000Y-157818000D03*
%TD*%
D18*
%TO.C,U2*%
X111176000Y-113622000D03*
X111176000Y-116162000D03*
X111176000Y-118702000D03*
X111176000Y-121242000D03*
X111176000Y-123782000D03*
X101016000Y-111082000D03*
X101016000Y-113622000D03*
X101016000Y-116162000D03*
X101016000Y-118702000D03*
X101016000Y-121242000D03*
X101016000Y-123782000D03*
X101016000Y-126322000D03*
%TD*%
D12*
%TO.C,J9*%
X157912000Y-134252000D03*
D11*
X157912000Y-130752000D03*
%TD*%
D13*
%TO.C,J4*%
X106170500Y-130742500D03*
D11*
X106170500Y-134242500D03*
%TD*%
D19*
%TO.C,J12*%
X113462000Y-149182000D03*
D20*
X113462000Y-151722000D03*
X113462000Y-154262000D03*
X113462000Y-156802000D03*
%TD*%
D21*
%TO.C,A1*%
X115220000Y-93440000D03*
D22*
X115220000Y-95980000D03*
D23*
X115220000Y-98520000D03*
D22*
X115220000Y-101060000D03*
X115220000Y-103600000D03*
X115220000Y-106140000D03*
X115220000Y-108680000D03*
D23*
X115220000Y-111220000D03*
D22*
X115220000Y-113760000D03*
X115220000Y-116300000D03*
X115220000Y-118840000D03*
X115220000Y-121380000D03*
D23*
X115220000Y-123920000D03*
D22*
X115220000Y-126460000D03*
X115220000Y-129000000D03*
X115220000Y-131540000D03*
X115220000Y-134080000D03*
D23*
X115220000Y-136620000D03*
D22*
X115220000Y-139160000D03*
X115220000Y-141700000D03*
X133000000Y-141700000D03*
X133000000Y-139160000D03*
D24*
X133000000Y-136620000D03*
D22*
X133000000Y-134080000D03*
X133000000Y-131540000D03*
X133000000Y-129000000D03*
X133000000Y-126460000D03*
D24*
X133000000Y-123920000D03*
D22*
X133000000Y-121380000D03*
X133000000Y-118840000D03*
X133000000Y-116300000D03*
X133000000Y-113760000D03*
D24*
X133000000Y-111220000D03*
D22*
X133000000Y-108680000D03*
X133000000Y-106140000D03*
X133000000Y-103600000D03*
X133000000Y-101060000D03*
D24*
X133000000Y-98520000D03*
D22*
X133000000Y-95980000D03*
X133000000Y-93440000D03*
%TD*%
D13*
%TO.C,J10*%
X106170500Y-149436000D03*
D11*
X106170500Y-152936000D03*
%TD*%
D10*
%TO.C,J2*%
X154328000Y-97112000D03*
D11*
X150828000Y-97112000D03*
%TD*%
M02*
