%TF.GenerationSoftware,KiCad,Pcbnew,9.0.2*%
%TF.CreationDate,2026-01-23T00:16:16-05:00*%
%TF.ProjectId,Motherboard,4d6f7468-6572-4626-9f61-72642e6b6963,rev?*%
%TF.SameCoordinates,Original*%
%TF.FileFunction,Copper,L1,Top*%
%TF.FilePolarity,Positive*%
%FSLAX46Y46*%
G04 Gerber Fmt 4.6, Leading zero omitted, Abs format (unit mm)*
G04 Created by KiCad (PCBNEW 9.0.2) date 2026-01-23 00:16:16*
%MOMM*%
%LPD*%
G01*
G04 APERTURE LIST*
G04 Aperture macros list*
%AMRoundRect*
0 Rectangle with rounded corners*
0 $1 Rounding radius*
0 $2 $3 $4 $5 $6 $7 $8 $9 X,Y pos of 4 corners*
0 Add a 4 corners polygon primitive as box body*
4,1,4,$2,$3,$4,$5,$6,$7,$8,$9,$2,$3,0*
0 Add four circle primitives for the rounded corners*
1,1,$1+$1,$2,$3*
1,1,$1+$1,$4,$5*
1,1,$1+$1,$6,$7*
1,1,$1+$1,$8,$9*
0 Add four rect primitives between the rounded corners*
20,1,$1+$1,$2,$3,$4,$5,0*
20,1,$1+$1,$4,$5,$6,$7,0*
20,1,$1+$1,$6,$7,$8,$9,0*
20,1,$1+$1,$8,$9,$2,$3,0*%
%AMFreePoly0*
4,1,37,0.603843,0.796157,0.639018,0.796157,0.711114,0.766294,0.766294,0.711114,0.796157,0.639018,0.796157,0.603843,0.800000,0.600000,0.800000,-0.600000,0.796157,-0.603843,0.796157,-0.639018,0.766294,-0.711114,0.711114,-0.766294,0.639018,-0.796157,0.603843,-0.796157,0.600000,-0.800000,0.000000,-0.800000,0.000000,-0.796148,-0.078414,-0.796148,-0.232228,-0.765552,-0.377117,-0.705537,
-0.507515,-0.618408,-0.618408,-0.507515,-0.705537,-0.377117,-0.765552,-0.232228,-0.796148,-0.078414,-0.796148,0.078414,-0.765552,0.232228,-0.705537,0.377117,-0.618408,0.507515,-0.507515,0.618408,-0.377117,0.705537,-0.232228,0.765552,-0.078414,0.796148,0.000000,0.796148,0.000000,0.800000,0.600000,0.800000,0.603843,0.796157,0.603843,0.796157,$1*%
%AMFreePoly1*
4,1,37,0.000000,0.796148,0.078414,0.796148,0.232228,0.765552,0.377117,0.705537,0.507515,0.618408,0.618408,0.507515,0.705537,0.377117,0.765552,0.232228,0.796148,0.078414,0.796148,-0.078414,0.765552,-0.232228,0.705537,-0.377117,0.618408,-0.507515,0.507515,-0.618408,0.377117,-0.705537,0.232228,-0.765552,0.078414,-0.796148,0.000000,-0.796148,0.000000,-0.800000,-0.600000,-0.800000,
-0.603843,-0.796157,-0.639018,-0.796157,-0.711114,-0.766294,-0.766294,-0.711114,-0.796157,-0.639018,-0.796157,-0.603843,-0.800000,-0.600000,-0.800000,0.600000,-0.796157,0.603843,-0.796157,0.639018,-0.766294,0.711114,-0.711114,0.766294,-0.639018,0.796157,-0.603843,0.796157,-0.600000,0.800000,0.000000,0.800000,0.000000,0.796148,0.000000,0.796148,$1*%
G04 Aperture macros list end*
%TA.AperFunction,ComponentPad*%
%ADD10R,1.700000X1.700000*%
%TD*%
%TA.AperFunction,ComponentPad*%
%ADD11C,1.700000*%
%TD*%
%TA.AperFunction,ComponentPad*%
%ADD12RoundRect,0.250000X1.050000X1.050000X-1.050000X1.050000X-1.050000X-1.050000X1.050000X-1.050000X0*%
%TD*%
%TA.AperFunction,ComponentPad*%
%ADD13C,2.600000*%
%TD*%
%TA.AperFunction,ComponentPad*%
%ADD14RoundRect,0.250000X1.050000X-1.050000X1.050000X1.050000X-1.050000X1.050000X-1.050000X-1.050000X0*%
%TD*%
%TA.AperFunction,ComponentPad*%
%ADD15RoundRect,0.250000X-1.050000X1.050000X-1.050000X-1.050000X1.050000X-1.050000X1.050000X1.050000X0*%
%TD*%
%TA.AperFunction,ComponentPad*%
%ADD16RoundRect,0.250000X-1.050000X-1.050000X1.050000X-1.050000X1.050000X1.050000X-1.050000X1.050000X0*%
%TD*%
%TA.AperFunction,ComponentPad*%
%ADD17RoundRect,0.250000X0.625000X-0.350000X0.625000X0.350000X-0.625000X0.350000X-0.625000X-0.350000X0*%
%TD*%
%TA.AperFunction,ComponentPad*%
%ADD18O,1.750000X1.200000*%
%TD*%
%TA.AperFunction,ComponentPad*%
%ADD19O,1.600000X2.000000*%
%TD*%
%TA.AperFunction,ComponentPad*%
%ADD20O,2.000000X1.600000*%
%TD*%
%TA.AperFunction,ComponentPad*%
%ADD21RoundRect,0.200000X-0.600000X-0.600000X0.600000X-0.600000X0.600000X0.600000X-0.600000X0.600000X0*%
%TD*%
%TA.AperFunction,ComponentPad*%
%ADD22C,1.600000*%
%TD*%
%TA.AperFunction,ComponentPad*%
%ADD23FreePoly0,0.000000*%
%TD*%
%TA.AperFunction,ComponentPad*%
%ADD24FreePoly1,0.000000*%
%TD*%
%TA.AperFunction,ViaPad*%
%ADD25C,0.600000*%
%TD*%
%TA.AperFunction,Conductor*%
%ADD26C,0.500000*%
%TD*%
%TA.AperFunction,Conductor*%
%ADD27C,1.000000*%
%TD*%
G04 APERTURE END LIST*
D10*
%TO.P,J1,1,Pin_1*%
%TO.N,TP5*%
X146990000Y-136223000D03*
D11*
%TO.P,J1,2,Pin_2*%
%TO.N,TP1*%
X146990000Y-138763000D03*
%TO.P,J1,3,Pin_3*%
%TO.N,TP6*%
X144450000Y-136223000D03*
%TO.P,J1,4,Pin_4*%
%TO.N,TP2*%
X144450000Y-138763000D03*
%TO.P,J1,5,Pin_5*%
%TO.N,TP4*%
X141910000Y-136223000D03*
%TO.P,J1,6,Pin_6*%
%TO.N,TP3*%
X141910000Y-138763000D03*
%TD*%
D12*
%TO.P,J6,1,Pin_1*%
%TO.N,NHALL5V*%
X144986000Y-97112000D03*
D13*
%TO.P,J6,2,Pin_2*%
%TO.N,GND*%
X141486000Y-97112000D03*
%TD*%
D14*
%TO.P,J5,1,Pin_1*%
%TO.N,WPWM*%
X157912000Y-143594000D03*
D13*
%TO.P,J5,2,Pin_2*%
%TO.N,GND*%
X157912000Y-140094000D03*
%TD*%
D15*
%TO.P,J8,1,Pin_1*%
%TO.N,EHALL5V*%
X106170500Y-140066000D03*
D13*
%TO.P,J8,2,Pin_2*%
%TO.N,GND*%
X106170500Y-143566000D03*
%TD*%
D16*
%TO.P,J3,1,Pin_1*%
%TO.N,SPWM*%
X142164000Y-157818000D03*
D13*
%TO.P,J3,2,Pin_2*%
%TO.N,GND*%
X145664000Y-157818000D03*
%TD*%
D17*
%TO.P,J11,1,Pin_1*%
%TO.N,SCL*%
X106000000Y-106000000D03*
D18*
%TO.P,J11,2,Pin_2*%
%TO.N,SDA*%
X106000000Y-104000000D03*
%TO.P,J11,3,Pin_3*%
%TO.N,+3V3*%
X106000000Y-102000000D03*
%TO.P,J11,4,Pin_4*%
%TO.N,GND*%
X106000000Y-100000000D03*
%TD*%
D19*
%TO.P,U1,1,LV1*%
%TO.N,WHALL3V3*%
X141650000Y-117080000D03*
%TO.P,U1,2,LV2*%
%TO.N,EHALL3V3*%
X144190000Y-117080000D03*
%TO.P,U1,3,LV*%
%TO.N,+3V3*%
X146730000Y-117080000D03*
%TO.P,U1,4,GND*%
%TO.N,GND*%
X149270000Y-117080000D03*
%TO.P,U1,5,LV3*%
%TO.N,SHALL3V3*%
X151810000Y-117080000D03*
%TO.P,U1,6,LV4*%
%TO.N,NHALL3V3*%
X154350000Y-117080000D03*
%TO.P,U1,7,HV1*%
%TO.N,WHALL5V*%
X154350000Y-106920000D03*
%TO.P,U1,8,HV2*%
%TO.N,EHALL5V*%
X151810000Y-106920000D03*
%TO.P,U1,9,HV*%
%TO.N,+5V*%
X149270000Y-106920000D03*
%TO.P,U1,10,GND*%
%TO.N,GND*%
X146730000Y-106920000D03*
%TO.P,U1,11,HV3*%
%TO.N,SHALL5V*%
X144190000Y-106920000D03*
%TO.P,U1,12,HV4*%
%TO.N,NHALL5V*%
X141650000Y-106920000D03*
%TD*%
D16*
%TO.P,J7,1,Pin_1*%
%TO.N,SHALL5V*%
X151562000Y-157818000D03*
D13*
%TO.P,J7,2,Pin_2*%
%TO.N,GND*%
X155062000Y-157818000D03*
%TD*%
D20*
%TO.P,U2,1,OCS*%
%TO.N,unconnected-(U2-OCS-Pad1)*%
X111176000Y-113622000D03*
%TO.P,U2,2,CLK*%
%TO.N,unconnected-(U2-CLK-Pad2)*%
X111176000Y-116162000D03*
%TO.P,U2,3,INT1*%
%TO.N,unconnected-(U2-INT1-Pad3)*%
X111176000Y-118702000D03*
%TO.P,U2,4,SCX*%
%TO.N,unconnected-(U2-SCX-Pad4)*%
X111176000Y-121242000D03*
%TO.P,U2,5,SDX*%
%TO.N,unconnected-(U2-SDX-Pad5)*%
X111176000Y-123782000D03*
%TO.P,U2,6,OSDO*%
%TO.N,unconnected-(U2-OSDO-Pad6)*%
X101016000Y-111082000D03*
%TO.P,U2,7,3V3*%
%TO.N,+3V3*%
X101016000Y-113622000D03*
%TO.P,U2,8,GND*%
%TO.N,GND*%
X101016000Y-116162000D03*
%TO.P,U2,9,SCL*%
%TO.N,SCL*%
X101016000Y-118702000D03*
%TO.P,U2,10,SDA*%
%TO.N,SDA*%
X101016000Y-121242000D03*
%TO.P,U2,11,CS*%
%TO.N,+3V3*%
X101016000Y-123782000D03*
%TO.P,U2,12,SD0*%
%TO.N,GND*%
X101016000Y-126322000D03*
%TD*%
D14*
%TO.P,J9,1,Pin_1*%
%TO.N,WHALL5V*%
X157912000Y-134252000D03*
D13*
%TO.P,J9,2,Pin_2*%
%TO.N,GND*%
X157912000Y-130752000D03*
%TD*%
D15*
%TO.P,J4,1,Pin_1*%
%TO.N,EPWM*%
X106170500Y-130742500D03*
D13*
%TO.P,J4,2,Pin_2*%
%TO.N,GND*%
X106170500Y-134242500D03*
%TD*%
D10*
%TO.P,J12,1,Pin_1*%
%TO.N,RX*%
X113462000Y-149182000D03*
D11*
%TO.P,J12,2,Pin_2*%
%TO.N,TX*%
X113462000Y-151722000D03*
%TO.P,J12,3,Pin_3*%
%TO.N,+5V*%
X113462000Y-154262000D03*
%TO.P,J12,4,Pin_4*%
%TO.N,GND*%
X113462000Y-156802000D03*
%TD*%
D21*
%TO.P,A1,1,GPIO0*%
%TO.N,unconnected-(A1-GPIO0-Pad1)*%
X115220000Y-93440000D03*
D22*
%TO.P,A1,2,GPIO1*%
%TO.N,unconnected-(A1-GPIO1-Pad2)*%
X115220000Y-95980000D03*
D23*
%TO.P,A1,3,GND*%
%TO.N,GND*%
X115220000Y-98520000D03*
D22*
%TO.P,A1,4,GPIO2*%
%TO.N,SDA*%
X115220000Y-101060000D03*
%TO.P,A1,5,GPIO3*%
%TO.N,SCL*%
X115220000Y-103600000D03*
%TO.P,A1,6,GPIO4*%
%TO.N,unconnected-(A1-GPIO4-Pad6)*%
X115220000Y-106140000D03*
%TO.P,A1,7,GPIO5*%
%TO.N,unconnected-(A1-GPIO5-Pad7)*%
X115220000Y-108680000D03*
D23*
%TO.P,A1,8,GND*%
%TO.N,GND*%
X115220000Y-111220000D03*
D22*
%TO.P,A1,9,GPIO6*%
%TO.N,unconnected-(A1-GPIO6-Pad9)*%
X115220000Y-113760000D03*
%TO.P,A1,10,GPIO7*%
%TO.N,unconnected-(A1-GPIO7-Pad10)*%
X115220000Y-116300000D03*
%TO.P,A1,11,GPIO8*%
%TO.N,unconnected-(A1-GPIO8-Pad11)*%
X115220000Y-118840000D03*
%TO.P,A1,12,GPIO9*%
%TO.N,unconnected-(A1-GPIO9-Pad12)*%
X115220000Y-121380000D03*
D23*
%TO.P,A1,13,GND*%
%TO.N,GND*%
X115220000Y-123920000D03*
D22*
%TO.P,A1,14,GPIO10*%
%TO.N,TP4*%
X115220000Y-126460000D03*
%TO.P,A1,15,GPIO11*%
%TO.N,TP3*%
X115220000Y-129000000D03*
%TO.P,A1,16,GPIO12*%
%TO.N,TP2*%
X115220000Y-131540000D03*
%TO.P,A1,17,GPIO13*%
%TO.N,TP1*%
X115220000Y-134080000D03*
D23*
%TO.P,A1,18,GND*%
%TO.N,GND*%
X115220000Y-136620000D03*
D22*
%TO.P,A1,19,GPIO14*%
%TO.N,EPWM*%
X115220000Y-139160000D03*
%TO.P,A1,20,GPIO15*%
%TO.N,EHALL3V3*%
X115220000Y-141700000D03*
%TO.P,A1,21,GPIO16*%
%TO.N,RX*%
X133000000Y-141700000D03*
%TO.P,A1,22,GPIO17*%
%TO.N,TX*%
X133000000Y-139160000D03*
D24*
%TO.P,A1,23,GND*%
%TO.N,GND*%
X133000000Y-136620000D03*
D22*
%TO.P,A1,24,GPIO18*%
%TO.N,SPWM*%
X133000000Y-134080000D03*
%TO.P,A1,25,GPIO19*%
%TO.N,SHALL3V3*%
X133000000Y-131540000D03*
%TO.P,A1,26,GPIO20*%
%TO.N,NPWM*%
X133000000Y-129000000D03*
%TO.P,A1,27,GPIO21*%
%TO.N,WHALL3V3*%
X133000000Y-126460000D03*
D24*
%TO.P,A1,28,GND*%
%TO.N,GND*%
X133000000Y-123920000D03*
D22*
%TO.P,A1,29,GPIO22*%
%TO.N,WPWM*%
X133000000Y-121380000D03*
%TO.P,A1,30,RUN*%
%TO.N,unconnected-(A1-RUN-Pad30)*%
X133000000Y-118840000D03*
%TO.P,A1,31,GPIO26_ADC0*%
%TO.N,NHALL3V3*%
X133000000Y-116300000D03*
%TO.P,A1,32,GPIO27_ADC1*%
%TO.N,TP5*%
X133000000Y-113760000D03*
D24*
%TO.P,A1,33,AGND*%
%TO.N,unconnected-(A1-AGND-Pad33)*%
X133000000Y-111220000D03*
D22*
%TO.P,A1,34,GPIO28_ADC2*%
%TO.N,TP6*%
X133000000Y-108680000D03*
%TO.P,A1,35,ADC_VREF*%
%TO.N,unconnected-(A1-ADC_VREF-Pad35)*%
X133000000Y-106140000D03*
%TO.P,A1,36,3V3*%
%TO.N,+3V3*%
X133000000Y-103600000D03*
%TO.P,A1,37,3V3_EN*%
%TO.N,unconnected-(A1-3V3_EN-Pad37)*%
X133000000Y-101060000D03*
D24*
%TO.P,A1,38,GND*%
%TO.N,GND*%
X133000000Y-98520000D03*
D22*
%TO.P,A1,39,VSYS*%
%TO.N,+5V*%
X133000000Y-95980000D03*
%TO.P,A1,40,VBUS*%
%TO.N,unconnected-(A1-VBUS-Pad40)*%
X133000000Y-93440000D03*
%TD*%
D15*
%TO.P,J10,1,Pin_1*%
%TO.N,+5V*%
X106170500Y-149436000D03*
D13*
%TO.P,J10,2,Pin_2*%
%TO.N,GND*%
X106170500Y-152936000D03*
%TD*%
D12*
%TO.P,J2,1,Pin_1*%
%TO.N,NPWM*%
X154328000Y-97112000D03*
D13*
%TO.P,J2,2,Pin_2*%
%TO.N,GND*%
X150828000Y-97112000D03*
%TD*%
D25*
%TO.N,GND*%
X120066000Y-138260000D03*
%TO.N,EHALL3V3*%
X140132000Y-127338000D03*
%TO.N,GND*%
X100254000Y-125306000D03*
X100000000Y-117178000D03*
X100254000Y-115146000D03*
%TO.N,WPWM*%
X139728669Y-125410669D03*
%TO.N,+3V3*%
X103302000Y-118702000D03*
%TO.N,SHALL5V*%
X148005284Y-121415716D03*
%TD*%
D26*
%TO.N,SHALL5V*%
X151562000Y-127846000D02*
X151562000Y-157818000D01*
X148006000Y-124290000D02*
X151562000Y-127846000D01*
X148006000Y-121416432D02*
X148006000Y-124290000D01*
X148005284Y-121415716D02*
X148006000Y-121416432D01*
%TO.N,TP1*%
X119865908Y-134080000D02*
X115220000Y-134080000D01*
X125794000Y-140008092D02*
X119865908Y-134080000D01*
X125794000Y-143742184D02*
X125794000Y-140008092D01*
X130602000Y-148550184D02*
X125794000Y-143742184D01*
X137969816Y-148550184D02*
X130602000Y-148550184D01*
X138372820Y-148206000D02*
X138314000Y-148206000D01*
X138314000Y-148206000D02*
X137969816Y-148550184D01*
X145151000Y-141427820D02*
X138372820Y-148206000D01*
X145151000Y-141369000D02*
X145151000Y-141427820D01*
X146990000Y-139530000D02*
X145151000Y-141369000D01*
X146990000Y-138763000D02*
X146990000Y-139530000D01*
%TO.N,TP2*%
X126495000Y-143451820D02*
X126495000Y-139717728D01*
X130548180Y-147505000D02*
X126495000Y-143451820D01*
X126495000Y-139717728D02*
X118317272Y-131540000D01*
X118317272Y-131540000D02*
X115220000Y-131540000D01*
X138082456Y-147505000D02*
X130548180Y-147505000D01*
X144450000Y-141137456D02*
X138082456Y-147505000D01*
X144450000Y-138763000D02*
X144450000Y-141137456D01*
%TO.N,TP3*%
X116768636Y-129000000D02*
X115220000Y-129000000D01*
X127196000Y-139427364D02*
X116768636Y-129000000D01*
X127196000Y-143161456D02*
X127196000Y-139427364D01*
X137792092Y-146804000D02*
X130838544Y-146804000D01*
X140518000Y-142954000D02*
X140518000Y-144078092D01*
X141910000Y-141562000D02*
X140518000Y-142954000D01*
X141910000Y-138763000D02*
X141910000Y-141562000D01*
X140518000Y-144078092D02*
X137792092Y-146804000D01*
X130838544Y-146804000D02*
X127196000Y-143161456D01*
%TO.N,TP4*%
X141910000Y-133125728D02*
X141910000Y-136223000D01*
X141080272Y-132296000D02*
X141910000Y-133125728D01*
X139817000Y-133038456D02*
X140559456Y-132296000D01*
X139817000Y-143787728D02*
X139817000Y-133038456D01*
X131128908Y-146103000D02*
X137501728Y-146103000D01*
X127897000Y-142871092D02*
X131128908Y-146103000D01*
X140559456Y-132296000D02*
X141080272Y-132296000D01*
X127897000Y-139137000D02*
X127897000Y-142871092D01*
X115220000Y-126460000D02*
X127897000Y-139137000D01*
X137501728Y-146103000D02*
X139817000Y-143787728D01*
%TO.N,TP6*%
X144450000Y-134674364D02*
X144450000Y-136223000D01*
X141370636Y-131595000D02*
X144450000Y-134674364D01*
X140269092Y-131595000D02*
X141370636Y-131595000D01*
X139116000Y-132748092D02*
X140269092Y-131595000D01*
X139116000Y-141368000D02*
X139116000Y-132748092D01*
X139055000Y-143558364D02*
X139055000Y-141429000D01*
X139055000Y-141429000D02*
X139116000Y-141368000D01*
X137211364Y-145402000D02*
X139055000Y-143558364D01*
X131419272Y-145402000D02*
X137211364Y-145402000D01*
X128598000Y-142580728D02*
X131419272Y-145402000D01*
X133000000Y-108680000D02*
X128598000Y-113082000D01*
X128598000Y-113082000D02*
X128598000Y-142580728D01*
%TO.N,TP5*%
X141661000Y-130894000D02*
X146990000Y-136223000D01*
X139978728Y-130894000D02*
X141661000Y-130894000D01*
X136921000Y-144701000D02*
X138354000Y-143268000D01*
X138354000Y-143268000D02*
X138354000Y-132518728D01*
X131709636Y-144701000D02*
X136921000Y-144701000D01*
X129299000Y-117461000D02*
X129299000Y-142290364D01*
X138354000Y-132518728D02*
X139978728Y-130894000D01*
X129299000Y-142290364D02*
X131709636Y-144701000D01*
X133000000Y-113760000D02*
X129299000Y-117461000D01*
%TO.N,EHALL3V3*%
X144190000Y-123280000D02*
X144190000Y-117080000D01*
X140132000Y-127338000D02*
X144190000Y-123280000D01*
%TO.N,EPWM*%
X115220000Y-139160000D02*
X106802500Y-130742500D01*
X106802500Y-130742500D02*
X106170500Y-130742500D01*
%TO.N,SDA*%
X102540000Y-121242000D02*
X101016000Y-121242000D01*
X112280000Y-104000000D02*
X115220000Y-101060000D01*
X106000000Y-104000000D02*
X104572000Y-105428000D01*
X106000000Y-104000000D02*
X112280000Y-104000000D01*
X104572000Y-105428000D02*
X104572000Y-119210000D01*
X104572000Y-119210000D02*
X102540000Y-121242000D01*
%TO.N,SCL*%
X112820000Y-106000000D02*
X115220000Y-103600000D01*
X106000000Y-106000000D02*
X112820000Y-106000000D01*
D27*
%TO.N,+5V*%
X142000000Y-105000000D02*
X147350000Y-105000000D01*
X133000000Y-95980000D02*
X133000000Y-96000000D01*
X133000000Y-96000000D02*
X142000000Y-105000000D01*
X147350000Y-105000000D02*
X149270000Y-106920000D01*
D26*
%TO.N,WPWM*%
X139728669Y-125410669D02*
X135698000Y-121380000D01*
X135698000Y-121380000D02*
X133000000Y-121380000D01*
%TO.N,+3V3*%
X114000000Y-91000000D02*
X117000000Y-91000000D01*
X103302000Y-115908000D02*
X103302000Y-118702000D01*
X102794000Y-105206000D02*
X102794000Y-111844000D01*
X106000000Y-102000000D02*
X102794000Y-105206000D01*
X146480000Y-117080000D02*
X133000000Y-103600000D01*
X129600000Y-103600000D02*
X133000000Y-103600000D01*
X106000000Y-102000000D02*
X112000000Y-96000000D01*
X117000000Y-91000000D02*
X129600000Y-103600000D01*
X112000000Y-93000000D02*
X114000000Y-91000000D01*
X146730000Y-117080000D02*
X146480000Y-117080000D01*
X101016000Y-113622000D02*
X103302000Y-115908000D01*
X112000000Y-96000000D02*
X112000000Y-93000000D01*
X102794000Y-111844000D02*
X101016000Y-113622000D01*
%TO.N,NHALL3V3*%
X130000000Y-142000000D02*
X130000000Y-119300000D01*
X147752000Y-120480000D02*
X146990000Y-121242000D01*
X146990000Y-121242000D02*
X146990000Y-122891364D01*
X146990000Y-122891364D02*
X137640364Y-132241000D01*
X154350000Y-117080000D02*
X150950000Y-120480000D01*
X132000000Y-144000000D02*
X130000000Y-142000000D01*
X150950000Y-120480000D02*
X147752000Y-120480000D01*
X135174856Y-144000000D02*
X132000000Y-144000000D01*
X130000000Y-119300000D02*
X133000000Y-116300000D01*
X137640364Y-132241000D02*
X137640364Y-141534492D01*
X137640364Y-141534492D02*
X135174856Y-144000000D01*
%TO.N,SHALL3V3*%
X132290364Y-143299000D02*
X134884492Y-143299000D01*
X134884492Y-143299000D02*
X136939364Y-141244128D01*
X146289000Y-120951636D02*
X147461636Y-119779000D01*
X136939364Y-131950636D02*
X146289000Y-122601000D01*
X130701000Y-141709636D02*
X132290364Y-143299000D01*
X136939364Y-141244128D02*
X136939364Y-131950636D01*
X130701000Y-133839000D02*
X130701000Y-141709636D01*
X146289000Y-122601000D02*
X146289000Y-120951636D01*
X133000000Y-131540000D02*
X130701000Y-133839000D01*
X147461636Y-119779000D02*
X149111000Y-119779000D01*
X149111000Y-119779000D02*
X151810000Y-117080000D01*
%TO.N,WHALL3V3*%
X133000000Y-126460000D02*
X139740000Y-126460000D01*
X139740000Y-126460000D02*
X141650000Y-124550000D01*
X141650000Y-124550000D02*
X141650000Y-117080000D01*
%TD*%
%TA.AperFunction,Conductor*%
%TO.N,GND*%
G36*
X162043736Y-90500726D02*
G01*
X162333796Y-90518271D01*
X162348657Y-90520075D01*
X162630798Y-90571780D01*
X162645335Y-90575363D01*
X162919172Y-90660695D01*
X162933163Y-90666000D01*
X163194743Y-90783727D01*
X163207989Y-90790680D01*
X163453465Y-90939075D01*
X163465776Y-90947573D01*
X163575748Y-91033730D01*
X163691573Y-91124473D01*
X163702781Y-91134403D01*
X163905596Y-91337218D01*
X163915526Y-91348426D01*
X164035481Y-91501538D01*
X164092422Y-91574217D01*
X164100926Y-91586537D01*
X164200045Y-91750500D01*
X164249316Y-91832004D01*
X164256275Y-91845263D01*
X164373997Y-92106831D01*
X164379306Y-92120832D01*
X164464635Y-92394663D01*
X164468219Y-92409201D01*
X164519923Y-92691340D01*
X164521728Y-92706205D01*
X164539274Y-92996263D01*
X164539500Y-93003750D01*
X164539500Y-161996249D01*
X164539274Y-162003736D01*
X164521728Y-162293794D01*
X164519923Y-162308659D01*
X164468219Y-162590798D01*
X164464635Y-162605336D01*
X164379306Y-162879167D01*
X164373997Y-162893168D01*
X164256275Y-163154736D01*
X164249316Y-163167995D01*
X164100928Y-163413459D01*
X164092422Y-163425782D01*
X163915526Y-163651573D01*
X163905596Y-163662781D01*
X163702781Y-163865596D01*
X163691573Y-163875526D01*
X163465782Y-164052422D01*
X163453459Y-164060928D01*
X163207995Y-164209316D01*
X163194736Y-164216275D01*
X162933168Y-164333997D01*
X162919167Y-164339306D01*
X162645336Y-164424635D01*
X162630798Y-164428219D01*
X162348659Y-164479923D01*
X162333794Y-164481728D01*
X162054454Y-164498624D01*
X162043735Y-164499273D01*
X162036250Y-164499499D01*
X102037206Y-164499499D01*
X102029402Y-164499253D01*
X101740086Y-164481008D01*
X101725251Y-164479170D01*
X101443717Y-164426890D01*
X101429211Y-164423280D01*
X101156008Y-164337500D01*
X101142042Y-164332170D01*
X100881162Y-164214146D01*
X100867938Y-164207175D01*
X100623141Y-164058607D01*
X100610853Y-164050095D01*
X100385720Y-163873154D01*
X100374545Y-163863225D01*
X100172340Y-163660481D01*
X100162441Y-163649280D01*
X99986099Y-163423672D01*
X99977620Y-163411361D01*
X99923622Y-163321851D01*
X99829704Y-163166168D01*
X99822775Y-163152940D01*
X99705436Y-162891721D01*
X99700151Y-162877758D01*
X99615101Y-162604329D01*
X99611529Y-162589814D01*
X99597547Y-162513384D01*
X99559997Y-162308127D01*
X99558201Y-162293313D01*
X99540725Y-162003891D01*
X99540500Y-161996417D01*
X99540500Y-161868872D01*
X100039500Y-161868872D01*
X100039500Y-162131127D01*
X100060436Y-162290140D01*
X100073730Y-162391116D01*
X100129210Y-162598170D01*
X100141602Y-162644418D01*
X100141605Y-162644428D01*
X100241953Y-162886690D01*
X100241958Y-162886700D01*
X100373075Y-163113803D01*
X100532718Y-163321851D01*
X100532726Y-163321860D01*
X100718140Y-163507274D01*
X100718148Y-163507281D01*
X100926196Y-163666924D01*
X101153299Y-163798041D01*
X101153309Y-163798046D01*
X101340363Y-163875526D01*
X101395581Y-163898398D01*
X101648884Y-163966270D01*
X101908880Y-164000500D01*
X101908887Y-164000500D01*
X102171113Y-164000500D01*
X102171120Y-164000500D01*
X102431116Y-163966270D01*
X102684419Y-163898398D01*
X102926697Y-163798043D01*
X103153803Y-163666924D01*
X103361851Y-163507282D01*
X103361855Y-163507277D01*
X103361860Y-163507274D01*
X103547274Y-163321860D01*
X103547277Y-163321855D01*
X103547282Y-163321851D01*
X103706924Y-163113803D01*
X103838043Y-162886697D01*
X103853176Y-162850164D01*
X103938394Y-162644428D01*
X103938398Y-162644419D01*
X104006270Y-162391116D01*
X104040500Y-162131120D01*
X104040500Y-161868880D01*
X104040499Y-161868872D01*
X160039500Y-161868872D01*
X160039500Y-162131127D01*
X160060436Y-162290140D01*
X160073730Y-162391116D01*
X160129210Y-162598170D01*
X160141602Y-162644418D01*
X160141605Y-162644428D01*
X160241953Y-162886690D01*
X160241958Y-162886700D01*
X160373075Y-163113803D01*
X160532718Y-163321851D01*
X160532726Y-163321860D01*
X160718140Y-163507274D01*
X160718148Y-163507281D01*
X160926196Y-163666924D01*
X161153299Y-163798041D01*
X161153309Y-163798046D01*
X161340363Y-163875526D01*
X161395581Y-163898398D01*
X161648884Y-163966270D01*
X161908880Y-164000500D01*
X161908887Y-164000500D01*
X162171113Y-164000500D01*
X162171120Y-164000500D01*
X162431116Y-163966270D01*
X162684419Y-163898398D01*
X162926697Y-163798043D01*
X163153803Y-163666924D01*
X163361851Y-163507282D01*
X163361855Y-163507277D01*
X163361860Y-163507274D01*
X163547274Y-163321860D01*
X163547277Y-163321855D01*
X163547282Y-163321851D01*
X163706924Y-163113803D01*
X163838043Y-162886697D01*
X163853176Y-162850164D01*
X163938394Y-162644428D01*
X163938398Y-162644419D01*
X164006270Y-162391116D01*
X164040500Y-162131120D01*
X164040500Y-161868880D01*
X164006270Y-161608884D01*
X163938398Y-161355581D01*
X163840204Y-161118520D01*
X163838046Y-161113309D01*
X163838041Y-161113299D01*
X163706924Y-160886196D01*
X163547281Y-160678148D01*
X163547274Y-160678140D01*
X163361860Y-160492726D01*
X163361851Y-160492718D01*
X163153803Y-160333075D01*
X162926700Y-160201958D01*
X162926690Y-160201953D01*
X162684428Y-160101605D01*
X162684421Y-160101603D01*
X162684419Y-160101602D01*
X162431116Y-160033730D01*
X162373339Y-160026123D01*
X162171127Y-159999500D01*
X162171120Y-159999500D01*
X161908880Y-159999500D01*
X161908872Y-159999500D01*
X161677772Y-160029926D01*
X161648884Y-160033730D01*
X161395581Y-160101602D01*
X161395571Y-160101605D01*
X161153309Y-160201953D01*
X161153299Y-160201958D01*
X160926196Y-160333075D01*
X160718148Y-160492718D01*
X160532718Y-160678148D01*
X160373075Y-160886196D01*
X160241958Y-161113299D01*
X160241953Y-161113309D01*
X160141605Y-161355571D01*
X160141602Y-161355581D01*
X160073730Y-161608885D01*
X160039500Y-161868872D01*
X104040499Y-161868872D01*
X104006270Y-161608884D01*
X103938398Y-161355581D01*
X103840204Y-161118520D01*
X103838046Y-161113309D01*
X103838041Y-161113299D01*
X103706924Y-160886196D01*
X103547281Y-160678148D01*
X103547274Y-160678140D01*
X103361860Y-160492726D01*
X103361851Y-160492718D01*
X103153803Y-160333075D01*
X102926700Y-160201958D01*
X102926690Y-160201953D01*
X102684428Y-160101605D01*
X102684421Y-160101603D01*
X102684419Y-160101602D01*
X102431116Y-160033730D01*
X102373339Y-160026123D01*
X102171127Y-159999500D01*
X102171120Y-159999500D01*
X101908880Y-159999500D01*
X101908872Y-159999500D01*
X101677772Y-160029926D01*
X101648884Y-160033730D01*
X101395581Y-160101602D01*
X101395571Y-160101605D01*
X101153309Y-160201953D01*
X101153299Y-160201958D01*
X100926196Y-160333075D01*
X100718148Y-160492718D01*
X100532718Y-160678148D01*
X100373075Y-160886196D01*
X100241958Y-161113299D01*
X100241953Y-161113309D01*
X100141605Y-161355571D01*
X100141602Y-161355581D01*
X100073730Y-161608885D01*
X100039500Y-161868872D01*
X99540500Y-161868872D01*
X99540500Y-148335983D01*
X104370000Y-148335983D01*
X104370000Y-150536001D01*
X104370001Y-150536018D01*
X104380500Y-150638796D01*
X104380501Y-150638799D01*
X104398096Y-150691896D01*
X104435686Y-150805334D01*
X104527788Y-150954656D01*
X104651844Y-151078712D01*
X104801166Y-151170814D01*
X104967703Y-151225999D01*
X105018710Y-151231210D01*
X105073632Y-151236821D01*
X105073533Y-151237782D01*
X105135713Y-151259520D01*
X105178733Y-151314576D01*
X105185157Y-151384149D01*
X105152948Y-151446152D01*
X105138958Y-151458679D01*
X105086775Y-151498719D01*
X105086775Y-151498721D01*
X105923012Y-152334958D01*
X105862610Y-152359978D01*
X105756149Y-152431112D01*
X105665612Y-152521649D01*
X105594478Y-152628110D01*
X105569458Y-152688511D01*
X104733221Y-151852275D01*
X104733220Y-151852275D01*
X104670650Y-151933818D01*
X104670644Y-151933828D01*
X104552665Y-152138171D01*
X104552660Y-152138180D01*
X104462370Y-152356162D01*
X104401299Y-152584085D01*
X104370500Y-152818014D01*
X104370500Y-153053985D01*
X104401299Y-153287914D01*
X104462370Y-153515837D01*
X104552660Y-153733819D01*
X104552665Y-153733828D01*
X104670644Y-153938171D01*
X104670645Y-153938172D01*
X104733221Y-154019723D01*
X105569458Y-153183487D01*
X105594478Y-153243890D01*
X105665612Y-153350351D01*
X105756149Y-153440888D01*
X105862610Y-153512022D01*
X105923011Y-153537041D01*
X105086775Y-154373277D01*
X105168327Y-154435854D01*
X105168328Y-154435855D01*
X105372671Y-154553834D01*
X105372680Y-154553839D01*
X105590663Y-154644129D01*
X105590661Y-154644129D01*
X105818585Y-154705200D01*
X106052514Y-154735999D01*
X106052529Y-154736000D01*
X106288471Y-154736000D01*
X106288485Y-154735999D01*
X106522414Y-154705200D01*
X106750337Y-154644129D01*
X106968319Y-154553839D01*
X106968328Y-154553834D01*
X107172681Y-154435850D01*
X107254223Y-154373279D01*
X107254223Y-154373276D01*
X106417987Y-153537041D01*
X106478390Y-153512022D01*
X106584851Y-153440888D01*
X106675388Y-153350351D01*
X106746522Y-153243890D01*
X106771541Y-153183487D01*
X107607776Y-154019723D01*
X107607779Y-154019723D01*
X107670350Y-153938181D01*
X107788334Y-153733828D01*
X107788339Y-153733819D01*
X107878629Y-153515837D01*
X107939700Y-153287914D01*
X107970499Y-153053985D01*
X107970500Y-153053971D01*
X107970500Y-152818028D01*
X107970499Y-152818014D01*
X107939700Y-152584085D01*
X107878629Y-152356162D01*
X107788339Y-152138180D01*
X107788334Y-152138171D01*
X107670355Y-151933828D01*
X107670354Y-151933827D01*
X107607777Y-151852275D01*
X106771541Y-152688511D01*
X106746522Y-152628110D01*
X106675388Y-152521649D01*
X106584851Y-152431112D01*
X106478390Y-152359978D01*
X106417988Y-152334958D01*
X107254223Y-151498721D01*
X107202038Y-151458678D01*
X107160836Y-151402250D01*
X107156681Y-151332504D01*
X107190893Y-151271583D01*
X107252611Y-151238831D01*
X107267381Y-151236952D01*
X107267368Y-151236820D01*
X107342200Y-151229175D01*
X107373297Y-151225999D01*
X107539834Y-151170814D01*
X107689156Y-151078712D01*
X107813212Y-150954656D01*
X107905314Y-150805334D01*
X107960499Y-150638797D01*
X107971000Y-150536009D01*
X107970999Y-148335992D01*
X107965702Y-148284135D01*
X112111500Y-148284135D01*
X112111500Y-150079870D01*
X112111501Y-150079876D01*
X112117908Y-150139483D01*
X112168202Y-150274328D01*
X112168206Y-150274335D01*
X112254452Y-150389544D01*
X112254455Y-150389547D01*
X112369664Y-150475793D01*
X112369671Y-150475797D01*
X112501082Y-150524810D01*
X112557016Y-150566681D01*
X112581433Y-150632145D01*
X112566582Y-150700418D01*
X112545431Y-150728673D01*
X112431889Y-150842215D01*
X112306951Y-151014179D01*
X112210444Y-151203585D01*
X112144753Y-151405760D01*
X112111500Y-151615713D01*
X112111500Y-151828286D01*
X112144753Y-152038239D01*
X112210444Y-152240414D01*
X112306951Y-152429820D01*
X112431890Y-152601786D01*
X112582213Y-152752109D01*
X112754182Y-152877050D01*
X112762946Y-152881516D01*
X112813742Y-152929491D01*
X112830536Y-152997312D01*
X112807998Y-153063447D01*
X112762946Y-153102484D01*
X112754182Y-153106949D01*
X112582213Y-153231890D01*
X112431890Y-153382213D01*
X112306951Y-153554179D01*
X112210444Y-153743585D01*
X112144753Y-153945760D01*
X112111500Y-154155713D01*
X112111500Y-154368286D01*
X112140888Y-154553839D01*
X112144754Y-154578243D01*
X112196012Y-154735999D01*
X112210444Y-154780414D01*
X112306951Y-154969820D01*
X112431890Y-155141786D01*
X112582213Y-155292109D01*
X112754179Y-155417048D01*
X112754181Y-155417049D01*
X112754184Y-155417051D01*
X112763493Y-155421794D01*
X112814290Y-155469766D01*
X112831087Y-155537587D01*
X112808552Y-155603722D01*
X112763505Y-155642760D01*
X112754446Y-155647376D01*
X112754440Y-155647380D01*
X112700282Y-155686727D01*
X112700282Y-155686728D01*
X113332591Y-156319037D01*
X113269007Y-156336075D01*
X113154993Y-156401901D01*
X113061901Y-156494993D01*
X112996075Y-156609007D01*
X112979037Y-156672591D01*
X112346728Y-156040282D01*
X112346727Y-156040282D01*
X112307380Y-156094439D01*
X112210904Y-156283782D01*
X112145242Y-156485869D01*
X112145242Y-156485872D01*
X112112000Y-156695753D01*
X112112000Y-156908246D01*
X112145242Y-157118127D01*
X112145242Y-157118130D01*
X112210904Y-157320217D01*
X112307375Y-157509550D01*
X112346728Y-157563716D01*
X112979037Y-156931408D01*
X112996075Y-156994993D01*
X113061901Y-157109007D01*
X113154993Y-157202099D01*
X113269007Y-157267925D01*
X113332590Y-157284962D01*
X112700282Y-157917269D01*
X112700282Y-157917270D01*
X112754449Y-157956624D01*
X112943782Y-158053095D01*
X113145870Y-158118757D01*
X113355754Y-158152000D01*
X113568246Y-158152000D01*
X113778127Y-158118757D01*
X113778130Y-158118757D01*
X113980217Y-158053095D01*
X114169554Y-157956622D01*
X114223716Y-157917270D01*
X114223717Y-157917270D01*
X113591408Y-157284962D01*
X113654993Y-157267925D01*
X113769007Y-157202099D01*
X113862099Y-157109007D01*
X113927925Y-156994993D01*
X113944962Y-156931408D01*
X114577270Y-157563717D01*
X114577270Y-157563716D01*
X114616622Y-157509554D01*
X114713095Y-157320217D01*
X114778757Y-157118130D01*
X114778757Y-157118127D01*
X114812000Y-156908246D01*
X114812000Y-156717983D01*
X140363500Y-156717983D01*
X140363500Y-158918001D01*
X140363501Y-158918018D01*
X140374000Y-159020796D01*
X140374001Y-159020799D01*
X140422885Y-159168319D01*
X140429186Y-159187334D01*
X140521288Y-159336656D01*
X140645344Y-159460712D01*
X140794666Y-159552814D01*
X140961203Y-159607999D01*
X141063991Y-159618500D01*
X143264008Y-159618499D01*
X143366797Y-159607999D01*
X143533334Y-159552814D01*
X143682656Y-159460712D01*
X143806712Y-159336656D01*
X143898814Y-159187334D01*
X143953999Y-159020797D01*
X143964500Y-158918009D01*
X143964500Y-158918008D01*
X143964821Y-158914868D01*
X143965782Y-158914966D01*
X143987517Y-158852789D01*
X144042571Y-158809767D01*
X144112144Y-158803340D01*
X144174148Y-158835546D01*
X144186679Y-158849540D01*
X144226721Y-158901723D01*
X145062958Y-158065487D01*
X145087978Y-158125890D01*
X145159112Y-158232351D01*
X145249649Y-158322888D01*
X145356110Y-158394022D01*
X145416511Y-158419041D01*
X144580275Y-159255277D01*
X144661827Y-159317854D01*
X144661828Y-159317855D01*
X144866171Y-159435834D01*
X144866180Y-159435839D01*
X145084163Y-159526129D01*
X145084161Y-159526129D01*
X145312085Y-159587200D01*
X145546014Y-159617999D01*
X145546029Y-159618000D01*
X145781971Y-159618000D01*
X145781985Y-159617999D01*
X146015914Y-159587200D01*
X146243837Y-159526129D01*
X146461819Y-159435839D01*
X146461828Y-159435834D01*
X146666181Y-159317850D01*
X146747723Y-159255279D01*
X146747723Y-159255276D01*
X145911487Y-158419041D01*
X145971890Y-158394022D01*
X146078351Y-158322888D01*
X146168888Y-158232351D01*
X146240022Y-158125890D01*
X146265041Y-158065488D01*
X147101276Y-158901723D01*
X147101279Y-158901723D01*
X147163850Y-158820181D01*
X147281834Y-158615828D01*
X147281839Y-158615819D01*
X147372129Y-158397837D01*
X147433200Y-158169914D01*
X147463999Y-157935985D01*
X147464000Y-157935971D01*
X147464000Y-157700028D01*
X147463999Y-157700014D01*
X147433200Y-157466085D01*
X147372129Y-157238162D01*
X147281839Y-157020180D01*
X147281834Y-157020171D01*
X147163855Y-156815828D01*
X147163854Y-156815827D01*
X147101277Y-156734275D01*
X146265041Y-157570511D01*
X146240022Y-157510110D01*
X146168888Y-157403649D01*
X146078351Y-157313112D01*
X145971890Y-157241978D01*
X145911488Y-157216958D01*
X146747723Y-156380721D01*
X146666172Y-156318145D01*
X146666171Y-156318144D01*
X146461828Y-156200165D01*
X146461819Y-156200160D01*
X146243836Y-156109870D01*
X146243838Y-156109870D01*
X146015914Y-156048799D01*
X145781985Y-156018000D01*
X145546014Y-156018000D01*
X145312085Y-156048799D01*
X145084162Y-156109870D01*
X144866180Y-156200160D01*
X144866171Y-156200165D01*
X144661828Y-156318144D01*
X144661818Y-156318150D01*
X144580275Y-156380720D01*
X144580275Y-156380721D01*
X145416512Y-157216958D01*
X145356110Y-157241978D01*
X145249649Y-157313112D01*
X145159112Y-157403649D01*
X145087978Y-157510110D01*
X145062958Y-157570511D01*
X144226721Y-156734275D01*
X144226719Y-156734275D01*
X144186678Y-156786459D01*
X144130250Y-156827662D01*
X144060504Y-156831817D01*
X143999584Y-156797605D01*
X143966831Y-156735887D01*
X143964952Y-156721118D01*
X143964820Y-156721132D01*
X143953999Y-156615203D01*
X143953998Y-156615200D01*
X143905114Y-156467678D01*
X143905113Y-156467676D01*
X143898816Y-156448672D01*
X143898815Y-156448671D01*
X143898814Y-156448666D01*
X143806712Y-156299344D01*
X143682656Y-156175288D01*
X143576596Y-156109870D01*
X143533336Y-156083187D01*
X143533331Y-156083185D01*
X143531862Y-156082698D01*
X143366797Y-156028001D01*
X143366795Y-156028000D01*
X143264010Y-156017500D01*
X141063998Y-156017500D01*
X141063981Y-156017501D01*
X140961203Y-156028000D01*
X140961200Y-156028001D01*
X140794668Y-156083185D01*
X140794663Y-156083187D01*
X140645342Y-156175289D01*
X140521289Y-156299342D01*
X140429187Y-156448663D01*
X140429185Y-156448668D01*
X140422886Y-156467678D01*
X140374001Y-156615203D01*
X140374001Y-156615204D01*
X140374000Y-156615204D01*
X140363500Y-156717983D01*
X114812000Y-156717983D01*
X114812000Y-156695753D01*
X114778757Y-156485872D01*
X114778757Y-156485869D01*
X114713095Y-156283782D01*
X114616624Y-156094449D01*
X114577270Y-156040282D01*
X114577269Y-156040282D01*
X113944962Y-156672590D01*
X113927925Y-156609007D01*
X113862099Y-156494993D01*
X113769007Y-156401901D01*
X113654993Y-156336075D01*
X113591409Y-156319037D01*
X114223716Y-155686728D01*
X114169547Y-155647373D01*
X114169547Y-155647372D01*
X114160500Y-155642763D01*
X114109706Y-155594788D01*
X114092912Y-155526966D01*
X114115451Y-155460832D01*
X114160508Y-155421793D01*
X114169816Y-155417051D01*
X114249007Y-155359515D01*
X114341786Y-155292109D01*
X114341788Y-155292106D01*
X114341792Y-155292104D01*
X114492104Y-155141792D01*
X114492106Y-155141788D01*
X114492109Y-155141786D01*
X114617048Y-154969820D01*
X114617047Y-154969820D01*
X114617051Y-154969816D01*
X114713557Y-154780412D01*
X114779246Y-154578243D01*
X114812500Y-154368287D01*
X114812500Y-154155713D01*
X114779246Y-153945757D01*
X114713557Y-153743588D01*
X114617051Y-153554184D01*
X114617049Y-153554181D01*
X114617048Y-153554179D01*
X114492109Y-153382213D01*
X114341786Y-153231890D01*
X114169820Y-153106951D01*
X114169115Y-153106591D01*
X114161054Y-153102485D01*
X114110259Y-153054512D01*
X114093463Y-152986692D01*
X114115999Y-152920556D01*
X114161054Y-152881515D01*
X114169816Y-152877051D01*
X114251074Y-152818014D01*
X114341786Y-152752109D01*
X114341788Y-152752106D01*
X114341792Y-152752104D01*
X114492104Y-152601792D01*
X114492106Y-152601788D01*
X114492109Y-152601786D01*
X114617048Y-152429820D01*
X114617047Y-152429820D01*
X114617051Y-152429816D01*
X114713557Y-152240412D01*
X114779246Y-152038243D01*
X114812500Y-151828287D01*
X114812500Y-151615713D01*
X114779246Y-151405757D01*
X114713557Y-151203588D01*
X114617051Y-151014184D01*
X114617049Y-151014181D01*
X114617048Y-151014179D01*
X114492109Y-150842213D01*
X114378569Y-150728673D01*
X114345084Y-150667350D01*
X114350068Y-150597658D01*
X114391940Y-150541725D01*
X114422915Y-150524810D01*
X114554331Y-150475796D01*
X114669546Y-150389546D01*
X114755796Y-150274331D01*
X114806091Y-150139483D01*
X114812500Y-150079873D01*
X114812499Y-148284128D01*
X114806091Y-148224517D01*
X114755796Y-148089669D01*
X114755795Y-148089668D01*
X114755793Y-148089664D01*
X114669547Y-147974455D01*
X114669544Y-147974452D01*
X114554335Y-147888206D01*
X114554328Y-147888202D01*
X114419482Y-147837908D01*
X114419483Y-147837908D01*
X114359883Y-147831501D01*
X114359881Y-147831500D01*
X114359873Y-147831500D01*
X114359864Y-147831500D01*
X112564129Y-147831500D01*
X112564123Y-147831501D01*
X112504516Y-147837908D01*
X112369671Y-147888202D01*
X112369664Y-147888206D01*
X112254455Y-147974452D01*
X112254452Y-147974455D01*
X112168206Y-148089664D01*
X112168202Y-148089671D01*
X112117908Y-148224517D01*
X112111501Y-148284116D01*
X112111501Y-148284123D01*
X112111500Y-148284135D01*
X107965702Y-148284135D01*
X107960499Y-148233203D01*
X107905314Y-148066666D01*
X107813212Y-147917344D01*
X107689156Y-147793288D01*
X107539834Y-147701186D01*
X107373297Y-147646001D01*
X107373295Y-147646000D01*
X107270510Y-147635500D01*
X105070498Y-147635500D01*
X105070481Y-147635501D01*
X104967703Y-147646000D01*
X104967700Y-147646001D01*
X104801168Y-147701185D01*
X104801163Y-147701187D01*
X104651842Y-147793289D01*
X104527789Y-147917342D01*
X104435687Y-148066663D01*
X104435685Y-148066668D01*
X104428063Y-148089671D01*
X104380501Y-148233203D01*
X104380501Y-148233204D01*
X104380500Y-148233204D01*
X104370000Y-148335983D01*
X99540500Y-148335983D01*
X99540500Y-138965983D01*
X104370000Y-138965983D01*
X104370000Y-141166001D01*
X104370001Y-141166018D01*
X104380500Y-141268796D01*
X104380501Y-141268799D01*
X104422475Y-141395465D01*
X104435686Y-141435334D01*
X104527788Y-141584656D01*
X104651844Y-141708712D01*
X104801166Y-141800814D01*
X104967703Y-141855999D01*
X105018710Y-141861210D01*
X105073632Y-141866821D01*
X105073533Y-141867782D01*
X105135713Y-141889520D01*
X105178733Y-141944576D01*
X105185157Y-142014149D01*
X105152948Y-142076152D01*
X105138958Y-142088679D01*
X105086775Y-142128719D01*
X105086775Y-142128721D01*
X105923012Y-142964958D01*
X105862610Y-142989978D01*
X105756149Y-143061112D01*
X105665612Y-143151649D01*
X105594478Y-143258110D01*
X105569458Y-143318511D01*
X104733221Y-142482275D01*
X104733220Y-142482275D01*
X104670650Y-142563818D01*
X104670644Y-142563828D01*
X104552665Y-142768171D01*
X104552660Y-142768180D01*
X104462370Y-142986162D01*
X104401299Y-143214085D01*
X104370500Y-143448014D01*
X104370500Y-143683985D01*
X104401299Y-143917914D01*
X104462370Y-144145837D01*
X104552660Y-144363819D01*
X104552665Y-144363828D01*
X104670644Y-144568171D01*
X104670645Y-144568172D01*
X104733221Y-144649723D01*
X105569458Y-143813487D01*
X105594478Y-143873890D01*
X105665612Y-143980351D01*
X105756149Y-144070888D01*
X105862610Y-144142022D01*
X105923011Y-144167041D01*
X105086775Y-145003277D01*
X105168327Y-145065854D01*
X105168328Y-145065855D01*
X105372671Y-145183834D01*
X105372680Y-145183839D01*
X105590663Y-145274129D01*
X105590661Y-145274129D01*
X105818585Y-145335200D01*
X106052514Y-145365999D01*
X106052529Y-145366000D01*
X106288471Y-145366000D01*
X106288485Y-145365999D01*
X106522414Y-145335200D01*
X106750337Y-145274129D01*
X106968319Y-145183839D01*
X106968328Y-145183834D01*
X107172681Y-145065850D01*
X107254223Y-145003279D01*
X107254223Y-145003276D01*
X106417987Y-144167041D01*
X106478390Y-144142022D01*
X106584851Y-144070888D01*
X106675388Y-143980351D01*
X106746522Y-143873890D01*
X106771541Y-143813487D01*
X107607776Y-144649723D01*
X107607779Y-144649723D01*
X107670350Y-144568181D01*
X107788334Y-144363828D01*
X107788339Y-144363819D01*
X107878629Y-144145837D01*
X107939700Y-143917914D01*
X107970499Y-143683985D01*
X107970500Y-143683971D01*
X107970500Y-143448028D01*
X107970499Y-143448014D01*
X107939700Y-143214085D01*
X107878629Y-142986162D01*
X107788339Y-142768180D01*
X107788334Y-142768171D01*
X107670355Y-142563828D01*
X107670354Y-142563827D01*
X107607777Y-142482275D01*
X106771541Y-143318511D01*
X106746522Y-143258110D01*
X106675388Y-143151649D01*
X106584851Y-143061112D01*
X106478390Y-142989978D01*
X106417988Y-142964958D01*
X107254223Y-142128721D01*
X107202038Y-142088678D01*
X107160836Y-142032250D01*
X107156681Y-141962504D01*
X107190893Y-141901583D01*
X107252611Y-141868831D01*
X107267381Y-141866952D01*
X107267368Y-141866820D01*
X107342200Y-141859175D01*
X107373297Y-141855999D01*
X107539834Y-141800814D01*
X107689156Y-141708712D01*
X107813212Y-141584656D01*
X107905314Y-141435334D01*
X107960499Y-141268797D01*
X107971000Y-141166009D01*
X107970999Y-138965992D01*
X107960499Y-138863203D01*
X107905314Y-138696666D01*
X107813212Y-138547344D01*
X107689156Y-138423288D01*
X107539834Y-138331186D01*
X107373297Y-138276001D01*
X107373295Y-138276000D01*
X107270510Y-138265500D01*
X105070498Y-138265500D01*
X105070481Y-138265501D01*
X104967703Y-138276000D01*
X104967700Y-138276001D01*
X104801168Y-138331185D01*
X104801163Y-138331187D01*
X104651842Y-138423289D01*
X104527789Y-138547342D01*
X104435687Y-138696663D01*
X104435686Y-138696666D01*
X104380501Y-138863203D01*
X104380501Y-138863204D01*
X104380500Y-138863204D01*
X104370000Y-138965983D01*
X99540500Y-138965983D01*
X99540500Y-127159751D01*
X99560185Y-127092712D01*
X99612989Y-127046957D01*
X99682147Y-127037013D01*
X99745703Y-127066038D01*
X99764818Y-127086866D01*
X99820685Y-127163760D01*
X99820686Y-127163761D01*
X100533037Y-126451410D01*
X100550075Y-126514993D01*
X100615901Y-126629007D01*
X100708993Y-126722099D01*
X100823007Y-126787925D01*
X100886589Y-126804962D01*
X100216159Y-127475391D01*
X100316965Y-127526753D01*
X100316972Y-127526756D01*
X100511582Y-127589990D01*
X100713683Y-127622000D01*
X101318317Y-127622000D01*
X101520417Y-127589990D01*
X101715031Y-127526755D01*
X101815838Y-127475390D01*
X101145410Y-126804962D01*
X101208993Y-126787925D01*
X101323007Y-126722099D01*
X101416099Y-126629007D01*
X101481925Y-126514993D01*
X101498962Y-126451411D01*
X102211312Y-127163761D01*
X102211312Y-127163760D01*
X102327859Y-127003349D01*
X102420755Y-126821031D01*
X102483990Y-126626417D01*
X102516000Y-126424317D01*
X102516000Y-126219682D01*
X102483990Y-126017582D01*
X102420755Y-125822968D01*
X102327859Y-125640650D01*
X102211312Y-125480238D01*
X102211312Y-125480237D01*
X101498962Y-126192588D01*
X101481925Y-126129007D01*
X101416099Y-126014993D01*
X101323007Y-125921901D01*
X101208993Y-125856075D01*
X101145410Y-125839037D01*
X101815839Y-125168608D01*
X101804371Y-125162765D01*
X101753575Y-125114792D01*
X101736779Y-125046971D01*
X101759316Y-124980836D01*
X101804370Y-124941795D01*
X101804372Y-124941794D01*
X101897610Y-124894287D01*
X101918770Y-124878913D01*
X102063213Y-124773971D01*
X102063215Y-124773968D01*
X102063219Y-124773966D01*
X102207966Y-124629219D01*
X102207968Y-124629215D01*
X102207971Y-124629213D01*
X102282314Y-124526887D01*
X102328287Y-124463610D01*
X102421220Y-124281219D01*
X102484477Y-124086534D01*
X102516500Y-123884352D01*
X102516500Y-123679648D01*
X102484477Y-123477466D01*
X102421220Y-123282781D01*
X102421218Y-123282778D01*
X102421218Y-123282776D01*
X102374498Y-123191085D01*
X102328287Y-123100390D01*
X102318520Y-123086947D01*
X102207971Y-122934786D01*
X102063213Y-122790028D01*
X101897614Y-122669715D01*
X101865674Y-122653441D01*
X101804917Y-122622483D01*
X101754123Y-122574511D01*
X101737328Y-122506690D01*
X101759865Y-122440555D01*
X101804917Y-122401516D01*
X101897610Y-122354287D01*
X101985913Y-122290132D01*
X102063213Y-122233971D01*
X102063215Y-122233968D01*
X102063219Y-122233966D01*
X102207966Y-122089219D01*
X102228023Y-122061613D01*
X102241100Y-122043615D01*
X102296429Y-122000949D01*
X102341418Y-121992500D01*
X102613920Y-121992500D01*
X102738060Y-121967806D01*
X102758913Y-121963658D01*
X102895495Y-121907084D01*
X102975070Y-121853914D01*
X103018416Y-121824952D01*
X105154952Y-119688416D01*
X105175936Y-119657011D01*
X105221624Y-119588634D01*
X105231035Y-119574548D01*
X105237084Y-119565495D01*
X105293658Y-119428913D01*
X105322500Y-119283918D01*
X105322500Y-113519648D01*
X109675500Y-113519648D01*
X109675500Y-113724351D01*
X109707522Y-113926534D01*
X109770781Y-114121223D01*
X109863715Y-114303613D01*
X109984028Y-114469213D01*
X110128786Y-114613971D01*
X110283749Y-114726556D01*
X110294390Y-114734287D01*
X110385840Y-114780883D01*
X110387080Y-114781515D01*
X110437876Y-114829490D01*
X110454671Y-114897311D01*
X110432134Y-114963446D01*
X110387080Y-115002485D01*
X110294386Y-115049715D01*
X110128786Y-115170028D01*
X109984028Y-115314786D01*
X109863715Y-115480386D01*
X109770781Y-115662776D01*
X109707522Y-115857465D01*
X109675500Y-116059648D01*
X109675500Y-116264351D01*
X109707522Y-116466534D01*
X109770781Y-116661223D01*
X109830104Y-116777648D01*
X109842316Y-116801617D01*
X109863715Y-116843613D01*
X109984028Y-117009213D01*
X110128786Y-117153971D01*
X110270288Y-117256776D01*
X110294390Y-117274287D01*
X110367603Y-117311591D01*
X110387080Y-117321515D01*
X110437876Y-117369490D01*
X110454671Y-117437311D01*
X110432134Y-117503446D01*
X110387080Y-117542485D01*
X110294386Y-117589715D01*
X110128786Y-117710028D01*
X109984028Y-117854786D01*
X109863715Y-118020386D01*
X109770781Y-118202776D01*
X109707522Y-118397465D01*
X109675500Y-118599648D01*
X109675500Y-118804351D01*
X109707522Y-119006534D01*
X109770781Y-119201223D01*
X109863715Y-119383613D01*
X109984028Y-119549213D01*
X110128786Y-119693971D01*
X110283749Y-119806556D01*
X110294390Y-119814287D01*
X110385840Y-119860883D01*
X110387080Y-119861515D01*
X110437876Y-119909490D01*
X110454671Y-119977311D01*
X110432134Y-120043446D01*
X110387080Y-120082485D01*
X110294386Y-120129715D01*
X110128786Y-120250028D01*
X109984028Y-120394786D01*
X109863715Y-120560386D01*
X109770781Y-120742776D01*
X109707522Y-120937465D01*
X109675500Y-121139648D01*
X109675500Y-121344351D01*
X109707522Y-121546534D01*
X109770781Y-121741223D01*
X109863715Y-121923613D01*
X109984028Y-122089213D01*
X110128786Y-122233971D01*
X110283749Y-122346556D01*
X110294390Y-122354287D01*
X110385840Y-122400883D01*
X110387080Y-122401515D01*
X110437876Y-122449490D01*
X110454671Y-122517311D01*
X110432134Y-122583446D01*
X110387080Y-122622485D01*
X110294386Y-122669715D01*
X110128786Y-122790028D01*
X109984028Y-122934786D01*
X109863715Y-123100386D01*
X109770781Y-123282776D01*
X109707522Y-123477465D01*
X109675500Y-123679648D01*
X109675500Y-123884351D01*
X109707522Y-124086534D01*
X109770781Y-124281223D01*
X109863715Y-124463613D01*
X109984028Y-124629213D01*
X110128786Y-124773971D01*
X110283749Y-124886556D01*
X110294390Y-124894287D01*
X110387628Y-124941794D01*
X110476776Y-124987218D01*
X110476778Y-124987218D01*
X110476781Y-124987220D01*
X110581137Y-125021127D01*
X110671465Y-125050477D01*
X110772557Y-125066488D01*
X110873648Y-125082500D01*
X110873649Y-125082500D01*
X111478351Y-125082500D01*
X111478352Y-125082500D01*
X111680534Y-125050477D01*
X111875219Y-124987220D01*
X112057610Y-124894287D01*
X112174195Y-124809584D01*
X112223213Y-124773971D01*
X112223215Y-124773968D01*
X112223219Y-124773966D01*
X112367966Y-124629219D01*
X112367968Y-124629215D01*
X112367971Y-124629213D01*
X112442314Y-124526887D01*
X112488287Y-124463610D01*
X112581220Y-124281219D01*
X112644477Y-124086534D01*
X112676500Y-123884352D01*
X112676500Y-123679648D01*
X112644477Y-123477466D01*
X112581220Y-123282781D01*
X112581218Y-123282778D01*
X112581218Y-123282776D01*
X112534498Y-123191085D01*
X112488287Y-123100390D01*
X112478520Y-123086947D01*
X112367971Y-122934786D01*
X112223213Y-122790028D01*
X112057614Y-122669715D01*
X112025674Y-122653441D01*
X111964917Y-122622483D01*
X111914123Y-122574511D01*
X111897328Y-122506690D01*
X111919865Y-122440555D01*
X111964917Y-122401516D01*
X112057610Y-122354287D01*
X112145913Y-122290132D01*
X112223213Y-122233971D01*
X112223215Y-122233968D01*
X112223219Y-122233966D01*
X112367966Y-122089219D01*
X112367968Y-122089215D01*
X112367971Y-122089213D01*
X112456177Y-121967806D01*
X112488287Y-121923610D01*
X112581220Y-121741219D01*
X112644477Y-121546534D01*
X112676500Y-121344352D01*
X112676500Y-121139648D01*
X112644477Y-120937466D01*
X112581220Y-120742781D01*
X112581218Y-120742778D01*
X112581218Y-120742776D01*
X112547503Y-120676607D01*
X112488287Y-120560390D01*
X112480556Y-120549749D01*
X112367971Y-120394786D01*
X112223213Y-120250028D01*
X112057614Y-120129715D01*
X112051006Y-120126348D01*
X111964917Y-120082483D01*
X111914123Y-120034511D01*
X111897328Y-119966690D01*
X111919865Y-119900555D01*
X111964917Y-119861516D01*
X112057610Y-119814287D01*
X112078770Y-119798913D01*
X112223213Y-119693971D01*
X112223215Y-119693968D01*
X112223219Y-119693966D01*
X112367966Y-119549219D01*
X112367968Y-119549215D01*
X112367971Y-119549213D01*
X112422934Y-119473561D01*
X112488287Y-119383610D01*
X112581220Y-119201219D01*
X112644477Y-119006534D01*
X112676500Y-118804352D01*
X112676500Y-118599648D01*
X112667746Y-118544378D01*
X112644477Y-118397465D01*
X112603701Y-118271971D01*
X112581220Y-118202781D01*
X112581218Y-118202778D01*
X112581218Y-118202776D01*
X112542716Y-118127213D01*
X112488287Y-118020390D01*
X112468228Y-117992781D01*
X112367971Y-117854786D01*
X112223213Y-117710028D01*
X112057614Y-117589715D01*
X112047446Y-117584534D01*
X111964917Y-117542483D01*
X111914123Y-117494511D01*
X111897328Y-117426690D01*
X111919865Y-117360555D01*
X111964917Y-117321516D01*
X112057610Y-117274287D01*
X112216303Y-117158991D01*
X112223213Y-117153971D01*
X112223215Y-117153968D01*
X112223219Y-117153966D01*
X112367966Y-117009219D01*
X112367968Y-117009215D01*
X112367971Y-117009213D01*
X112455249Y-116889083D01*
X112488287Y-116843610D01*
X112581220Y-116661219D01*
X112644477Y-116466534D01*
X112676500Y-116264352D01*
X112676500Y-116059648D01*
X112644477Y-115857466D01*
X112643673Y-115854993D01*
X112585119Y-115674781D01*
X112581220Y-115662781D01*
X112581218Y-115662778D01*
X112581218Y-115662776D01*
X112538786Y-115579500D01*
X112488287Y-115480390D01*
X112458796Y-115439799D01*
X112367971Y-115314786D01*
X112223213Y-115170028D01*
X112057614Y-115049715D01*
X112051006Y-115046348D01*
X111964917Y-115002483D01*
X111914123Y-114954511D01*
X111897328Y-114886690D01*
X111919865Y-114820555D01*
X111964917Y-114781516D01*
X112057610Y-114734287D01*
X112078770Y-114718913D01*
X112223213Y-114613971D01*
X112223215Y-114613968D01*
X112223219Y-114613966D01*
X112367966Y-114469219D01*
X112367968Y-114469215D01*
X112367971Y-114469213D01*
X112456177Y-114347806D01*
X112488287Y-114303610D01*
X112581220Y-114121219D01*
X112644477Y-113926534D01*
X112676500Y-113724352D01*
X112676500Y-113519648D01*
X112644477Y-113317466D01*
X112581220Y-113122781D01*
X112581218Y-113122778D01*
X112581218Y-113122776D01*
X112547503Y-113056607D01*
X112488287Y-112940390D01*
X112468228Y-112912781D01*
X112367971Y-112774786D01*
X112223213Y-112630028D01*
X112057613Y-112509715D01*
X112057612Y-112509714D01*
X112057610Y-112509713D01*
X111966196Y-112463135D01*
X111875223Y-112416781D01*
X111680534Y-112353522D01*
X111505995Y-112325878D01*
X111478352Y-112321500D01*
X110873648Y-112321500D01*
X110849329Y-112325351D01*
X110671465Y-112353522D01*
X110476776Y-112416781D01*
X110294386Y-112509715D01*
X110128786Y-112630028D01*
X109984028Y-112774786D01*
X109863715Y-112940386D01*
X109770781Y-113122776D01*
X109707522Y-113317465D01*
X109675500Y-113519648D01*
X105322500Y-113519648D01*
X105322500Y-107224499D01*
X105342185Y-107157460D01*
X105394989Y-107111705D01*
X105446495Y-107100499D01*
X106675008Y-107100499D01*
X106777797Y-107089999D01*
X106944334Y-107034814D01*
X107093656Y-106942712D01*
X107217712Y-106818656D01*
X107223420Y-106809402D01*
X107275368Y-106762678D01*
X107328958Y-106750500D01*
X112893920Y-106750500D01*
X112991462Y-106731096D01*
X113038913Y-106721658D01*
X113175495Y-106665084D01*
X113230750Y-106628164D01*
X113230750Y-106628163D01*
X113230752Y-106628163D01*
X113264583Y-106605558D01*
X113298416Y-106582952D01*
X113709066Y-106172300D01*
X113770389Y-106138816D01*
X113840080Y-106143800D01*
X113896014Y-106185671D01*
X113919220Y-106240584D01*
X113951522Y-106444534D01*
X114014781Y-106639223D01*
X114077686Y-106762678D01*
X114106207Y-106818655D01*
X114107715Y-106821613D01*
X114228028Y-106987213D01*
X114372786Y-107131971D01*
X114527749Y-107244556D01*
X114538390Y-107252287D01*
X114629840Y-107298883D01*
X114631080Y-107299515D01*
X114681876Y-107347490D01*
X114698671Y-107415311D01*
X114676134Y-107481446D01*
X114631080Y-107520485D01*
X114538386Y-107567715D01*
X114372786Y-107688028D01*
X114228028Y-107832786D01*
X114107715Y-107998386D01*
X114014781Y-108180776D01*
X113951522Y-108375465D01*
X113919500Y-108577648D01*
X113919500Y-108782351D01*
X113951522Y-108984534D01*
X114014781Y-109179223D01*
X114107715Y-109361613D01*
X114228028Y-109527213D01*
X114372786Y-109671971D01*
X114538388Y-109792286D01*
X114538390Y-109792287D01*
X114624294Y-109836057D01*
X114675090Y-109884031D01*
X114691886Y-109951852D01*
X114669349Y-110017987D01*
X114626455Y-110055899D01*
X114560497Y-110091155D01*
X114491086Y-110137534D01*
X114491085Y-110137534D01*
X115090589Y-110737037D01*
X115027007Y-110754075D01*
X114912993Y-110819901D01*
X114819901Y-110912993D01*
X114754075Y-111027007D01*
X114737037Y-111090588D01*
X114137534Y-110491085D01*
X114137534Y-110491086D01*
X114091158Y-110560493D01*
X114044490Y-110647801D01*
X113984185Y-110793387D01*
X113955444Y-110888135D01*
X113924701Y-111042697D01*
X113924701Y-111042700D01*
X113915000Y-111141210D01*
X113915000Y-111298789D01*
X113924701Y-111397299D01*
X113924701Y-111397302D01*
X113955444Y-111551864D01*
X113984185Y-111646612D01*
X114044490Y-111792198D01*
X114091155Y-111879501D01*
X114091161Y-111879511D01*
X114137534Y-111948912D01*
X114737037Y-111349410D01*
X114754075Y-111412993D01*
X114819901Y-111527007D01*
X114912993Y-111620099D01*
X115027007Y-111685925D01*
X115090589Y-111702962D01*
X114491085Y-112302465D01*
X114560488Y-112348838D01*
X114560498Y-112348844D01*
X114626454Y-112384099D01*
X114676298Y-112433062D01*
X114691758Y-112501200D01*
X114667926Y-112566879D01*
X114624295Y-112603942D01*
X114538386Y-112647715D01*
X114372786Y-112768028D01*
X114228028Y-112912786D01*
X114107715Y-113078386D01*
X114014781Y-113260776D01*
X113951522Y-113455465D01*
X113919500Y-113657648D01*
X113919500Y-113862351D01*
X113951522Y-114064534D01*
X114014781Y-114259223D01*
X114107715Y-114441613D01*
X114228028Y-114607213D01*
X114372786Y-114751971D01*
X114527749Y-114864556D01*
X114538390Y-114872287D01*
X114629840Y-114918883D01*
X114631080Y-114919515D01*
X114681876Y-114967490D01*
X114698671Y-115035311D01*
X114676134Y-115101446D01*
X114631080Y-115140485D01*
X114538386Y-115187715D01*
X114372786Y-115308028D01*
X114228028Y-115452786D01*
X114107715Y-115618386D01*
X114014781Y-115800776D01*
X113951522Y-115995465D01*
X113919500Y-116197648D01*
X113919500Y-116402351D01*
X113951522Y-116604534D01*
X114014781Y-116799223D01*
X114054418Y-116877013D01*
X114079819Y-116926866D01*
X114107715Y-116981613D01*
X114228028Y-117147213D01*
X114372786Y-117291971D01*
X114523543Y-117401500D01*
X114538390Y-117412287D01*
X114629840Y-117458883D01*
X114631080Y-117459515D01*
X114681876Y-117507490D01*
X114698671Y-117575311D01*
X114676134Y-117641446D01*
X114631080Y-117680485D01*
X114538386Y-117727715D01*
X114372786Y-117848028D01*
X114228028Y-117992786D01*
X114107715Y-118158386D01*
X114014781Y-118340776D01*
X113951522Y-118535465D01*
X113919500Y-118737648D01*
X113919500Y-118942351D01*
X113951522Y-119144534D01*
X114014781Y-119339223D01*
X114059917Y-119427806D01*
X114105781Y-119517819D01*
X114107715Y-119521613D01*
X114228028Y-119687213D01*
X114372786Y-119831971D01*
X114527749Y-119944556D01*
X114538390Y-119952287D01*
X114629840Y-119998883D01*
X114631080Y-119999515D01*
X114681876Y-120047490D01*
X114698671Y-120115311D01*
X114676134Y-120181446D01*
X114631080Y-120220485D01*
X114538386Y-120267715D01*
X114372786Y-120388028D01*
X114228028Y-120532786D01*
X114107715Y-120698386D01*
X114014781Y-120880776D01*
X113951522Y-121075465D01*
X113919500Y-121277648D01*
X113919500Y-121482351D01*
X113951522Y-121684534D01*
X114014781Y-121879223D01*
X114107715Y-122061613D01*
X114228028Y-122227213D01*
X114372786Y-122371971D01*
X114538388Y-122492286D01*
X114538390Y-122492287D01*
X114624294Y-122536057D01*
X114675090Y-122584031D01*
X114691886Y-122651852D01*
X114669349Y-122717987D01*
X114626455Y-122755899D01*
X114560497Y-122791155D01*
X114491086Y-122837534D01*
X114491085Y-122837534D01*
X115090589Y-123437037D01*
X115027007Y-123454075D01*
X114912993Y-123519901D01*
X114819901Y-123612993D01*
X114754075Y-123727007D01*
X114737037Y-123790588D01*
X114137534Y-123191085D01*
X114137534Y-123191086D01*
X114091158Y-123260493D01*
X114044490Y-123347801D01*
X113984185Y-123493387D01*
X113955444Y-123588135D01*
X113924701Y-123742697D01*
X113924701Y-123742700D01*
X113915000Y-123841210D01*
X113915000Y-123998789D01*
X113924701Y-124097299D01*
X113924701Y-124097302D01*
X113955444Y-124251864D01*
X113984185Y-124346612D01*
X114044490Y-124492198D01*
X114091155Y-124579501D01*
X114091161Y-124579511D01*
X114137534Y-124648912D01*
X114737037Y-124049410D01*
X114754075Y-124112993D01*
X114819901Y-124227007D01*
X114912993Y-124320099D01*
X115027007Y-124385925D01*
X115090589Y-124402962D01*
X114491085Y-125002465D01*
X114560488Y-125048838D01*
X114560498Y-125048844D01*
X114626454Y-125084099D01*
X114676298Y-125133062D01*
X114691758Y-125201200D01*
X114667926Y-125266879D01*
X114624295Y-125303942D01*
X114538386Y-125347715D01*
X114372786Y-125468028D01*
X114228028Y-125612786D01*
X114107715Y-125778386D01*
X114014781Y-125960776D01*
X113951522Y-126155465D01*
X113919500Y-126357648D01*
X113919500Y-126562351D01*
X113951522Y-126764534D01*
X114014781Y-126959223D01*
X114037265Y-127003349D01*
X114079819Y-127086866D01*
X114107715Y-127141613D01*
X114228028Y-127307213D01*
X114372786Y-127451971D01*
X114475721Y-127526756D01*
X114538390Y-127572287D01*
X114629840Y-127618883D01*
X114631080Y-127619515D01*
X114681876Y-127667490D01*
X114698671Y-127735311D01*
X114676134Y-127801446D01*
X114631080Y-127840485D01*
X114538386Y-127887715D01*
X114372786Y-128008028D01*
X114228028Y-128152786D01*
X114107715Y-128318386D01*
X114014781Y-128500776D01*
X113951522Y-128695465D01*
X113919500Y-128897648D01*
X113919500Y-129102351D01*
X113951522Y-129304534D01*
X114014781Y-129499223D01*
X114078691Y-129624653D01*
X114100918Y-129668275D01*
X114107715Y-129681613D01*
X114228028Y-129847213D01*
X114372786Y-129991971D01*
X114524231Y-130102000D01*
X114538390Y-130112287D01*
X114599649Y-130143500D01*
X114631080Y-130159515D01*
X114681876Y-130207490D01*
X114698671Y-130275311D01*
X114676134Y-130341446D01*
X114631080Y-130380485D01*
X114538386Y-130427715D01*
X114372786Y-130548028D01*
X114228028Y-130692786D01*
X114107715Y-130858386D01*
X114014781Y-131040776D01*
X113951522Y-131235465D01*
X113919500Y-131437648D01*
X113919500Y-131642351D01*
X113951522Y-131844534D01*
X114014781Y-132039223D01*
X114051779Y-132111834D01*
X114091238Y-132189277D01*
X114107715Y-132221613D01*
X114228028Y-132387213D01*
X114372786Y-132531971D01*
X114495431Y-132621076D01*
X114538390Y-132652287D01*
X114610948Y-132689257D01*
X114631080Y-132699515D01*
X114681876Y-132747490D01*
X114698671Y-132815311D01*
X114676134Y-132881446D01*
X114631080Y-132920485D01*
X114538386Y-132967715D01*
X114372786Y-133088028D01*
X114228028Y-133232786D01*
X114107715Y-133398386D01*
X114014781Y-133580776D01*
X113951522Y-133775465D01*
X113919500Y-133977648D01*
X113919500Y-134182351D01*
X113951522Y-134384534D01*
X114014781Y-134579223D01*
X114107715Y-134761613D01*
X114228028Y-134927213D01*
X114372786Y-135071971D01*
X114538388Y-135192286D01*
X114538390Y-135192287D01*
X114624294Y-135236057D01*
X114675090Y-135284031D01*
X114691886Y-135351852D01*
X114669349Y-135417987D01*
X114626455Y-135455899D01*
X114560497Y-135491155D01*
X114491086Y-135537534D01*
X114491085Y-135537534D01*
X115090589Y-136137037D01*
X115027007Y-136154075D01*
X114912993Y-136219901D01*
X114819901Y-136312993D01*
X114754075Y-136427007D01*
X114737037Y-136490589D01*
X114137534Y-135891085D01*
X114137534Y-135891086D01*
X114091158Y-135960493D01*
X114044490Y-136047801D01*
X113984185Y-136193387D01*
X113955444Y-136288135D01*
X113924701Y-136442697D01*
X113924701Y-136442700D01*
X113918065Y-136510086D01*
X113891905Y-136574874D01*
X113834871Y-136615233D01*
X113765070Y-136618350D01*
X113706981Y-136585614D01*
X111481852Y-134360485D01*
X108007318Y-130885950D01*
X107973833Y-130824627D01*
X107970999Y-130798269D01*
X107970999Y-129642498D01*
X107970998Y-129642481D01*
X107960499Y-129539703D01*
X107960498Y-129539700D01*
X107947084Y-129499219D01*
X107905314Y-129373166D01*
X107813212Y-129223844D01*
X107689156Y-129099788D01*
X107539834Y-129007686D01*
X107373297Y-128952501D01*
X107373295Y-128952500D01*
X107270510Y-128942000D01*
X105070498Y-128942000D01*
X105070481Y-128942001D01*
X104967703Y-128952500D01*
X104967700Y-128952501D01*
X104801168Y-129007685D01*
X104801163Y-129007687D01*
X104651842Y-129099789D01*
X104527789Y-129223842D01*
X104435687Y-129373163D01*
X104435686Y-129373166D01*
X104380501Y-129539703D01*
X104380501Y-129539704D01*
X104380500Y-129539704D01*
X104370000Y-129642483D01*
X104370000Y-131842501D01*
X104370001Y-131842518D01*
X104380500Y-131945296D01*
X104380501Y-131945299D01*
X104411625Y-132039223D01*
X104435686Y-132111834D01*
X104527788Y-132261156D01*
X104651844Y-132385212D01*
X104801166Y-132477314D01*
X104967703Y-132532499D01*
X105018710Y-132537710D01*
X105073632Y-132543321D01*
X105073533Y-132544282D01*
X105135713Y-132566020D01*
X105178733Y-132621076D01*
X105185157Y-132690649D01*
X105152948Y-132752652D01*
X105138958Y-132765179D01*
X105086775Y-132805219D01*
X105086775Y-132805221D01*
X105923012Y-133641458D01*
X105862610Y-133666478D01*
X105756149Y-133737612D01*
X105665612Y-133828149D01*
X105594478Y-133934610D01*
X105569458Y-133995011D01*
X104733221Y-133158775D01*
X104733220Y-133158775D01*
X104670650Y-133240318D01*
X104670644Y-133240328D01*
X104552665Y-133444671D01*
X104552660Y-133444680D01*
X104462370Y-133662662D01*
X104401299Y-133890585D01*
X104370500Y-134124514D01*
X104370500Y-134360485D01*
X104401299Y-134594414D01*
X104462370Y-134822337D01*
X104552660Y-135040319D01*
X104552665Y-135040328D01*
X104670644Y-135244671D01*
X104670645Y-135244672D01*
X104733221Y-135326223D01*
X105569458Y-134489987D01*
X105594478Y-134550390D01*
X105665612Y-134656851D01*
X105756149Y-134747388D01*
X105862610Y-134818522D01*
X105923011Y-134843541D01*
X105086775Y-135679777D01*
X105168327Y-135742354D01*
X105168328Y-135742355D01*
X105372671Y-135860334D01*
X105372680Y-135860339D01*
X105590663Y-135950629D01*
X105590661Y-135950629D01*
X105818585Y-136011700D01*
X106052514Y-136042499D01*
X106052529Y-136042500D01*
X106288471Y-136042500D01*
X106288485Y-136042499D01*
X106522414Y-136011700D01*
X106750337Y-135950629D01*
X106968319Y-135860339D01*
X106968328Y-135860334D01*
X107172681Y-135742350D01*
X107254223Y-135679779D01*
X107254223Y-135679776D01*
X106417987Y-134843541D01*
X106478390Y-134818522D01*
X106584851Y-134747388D01*
X106675388Y-134656851D01*
X106746522Y-134550390D01*
X106771541Y-134489987D01*
X107607776Y-135326223D01*
X107607779Y-135326223D01*
X107670350Y-135244681D01*
X107788334Y-135040328D01*
X107788339Y-135040319D01*
X107878629Y-134822337D01*
X107939700Y-134594414D01*
X107970499Y-134360485D01*
X107970500Y-134360471D01*
X107970500Y-134124528D01*
X107970499Y-134124514D01*
X107939700Y-133890585D01*
X107878629Y-133662662D01*
X107788339Y-133444680D01*
X107788334Y-133444671D01*
X107670355Y-133240328D01*
X107670354Y-133240327D01*
X107607777Y-133158775D01*
X106771541Y-133995011D01*
X106746522Y-133934610D01*
X106675388Y-133828149D01*
X106584851Y-133737612D01*
X106478390Y-133666478D01*
X106417988Y-133641458D01*
X107254223Y-132805221D01*
X107202038Y-132765178D01*
X107190523Y-132749408D01*
X107175373Y-132737094D01*
X107170345Y-132721773D01*
X107160836Y-132708750D01*
X107159674Y-132689257D01*
X107153587Y-132670707D01*
X107157639Y-132655101D01*
X107156681Y-132639004D01*
X107166242Y-132621978D01*
X107171150Y-132603081D01*
X107182996Y-132592144D01*
X107190893Y-132578083D01*
X107208142Y-132568929D01*
X107222487Y-132555686D01*
X107243367Y-132550236D01*
X107252611Y-132545331D01*
X107256021Y-132544681D01*
X107265573Y-132542999D01*
X107270508Y-132542999D01*
X107373297Y-132532499D01*
X107427833Y-132514427D01*
X107436745Y-132512858D01*
X107462833Y-132515773D01*
X107489072Y-132514871D01*
X107497434Y-132519640D01*
X107506183Y-132520618D01*
X107522726Y-132534064D01*
X107545930Y-132547298D01*
X113893526Y-138894893D01*
X113927011Y-138956216D01*
X113928318Y-139001971D01*
X113919500Y-139057647D01*
X113919500Y-139262351D01*
X113951522Y-139464534D01*
X114014781Y-139659223D01*
X114107715Y-139841613D01*
X114228028Y-140007213D01*
X114372786Y-140151971D01*
X114518907Y-140258132D01*
X114538390Y-140272287D01*
X114629840Y-140318883D01*
X114631080Y-140319515D01*
X114681876Y-140367490D01*
X114698671Y-140435311D01*
X114676134Y-140501446D01*
X114631080Y-140540485D01*
X114538386Y-140587715D01*
X114372786Y-140708028D01*
X114228028Y-140852786D01*
X114107715Y-141018386D01*
X114014781Y-141200776D01*
X113951522Y-141395465D01*
X113919500Y-141597648D01*
X113919500Y-141802351D01*
X113951522Y-142004534D01*
X114014781Y-142199223D01*
X114107715Y-142381613D01*
X114228028Y-142547213D01*
X114372786Y-142691971D01*
X114477681Y-142768180D01*
X114538390Y-142812287D01*
X114654607Y-142871503D01*
X114720776Y-142905218D01*
X114720778Y-142905218D01*
X114720781Y-142905220D01*
X114825137Y-142939127D01*
X114915465Y-142968477D01*
X115016557Y-142984488D01*
X115117648Y-143000500D01*
X115117649Y-143000500D01*
X115322351Y-143000500D01*
X115322352Y-143000500D01*
X115524534Y-142968477D01*
X115719219Y-142905220D01*
X115901610Y-142812287D01*
X115994590Y-142744732D01*
X116067213Y-142691971D01*
X116067215Y-142691968D01*
X116067219Y-142691966D01*
X116211966Y-142547219D01*
X116211968Y-142547215D01*
X116211971Y-142547213D01*
X116264732Y-142474590D01*
X116332287Y-142381610D01*
X116425220Y-142199219D01*
X116488477Y-142004534D01*
X116520500Y-141802352D01*
X116520500Y-141597648D01*
X116494791Y-141435331D01*
X116488477Y-141395465D01*
X116425218Y-141200776D01*
X116391503Y-141134607D01*
X116332287Y-141018390D01*
X116281827Y-140948937D01*
X116211971Y-140852786D01*
X116067213Y-140708028D01*
X115901614Y-140587715D01*
X115895006Y-140584348D01*
X115808917Y-140540483D01*
X115758123Y-140492511D01*
X115741328Y-140424690D01*
X115763865Y-140358555D01*
X115808917Y-140319516D01*
X115901610Y-140272287D01*
X115922770Y-140256913D01*
X116067213Y-140151971D01*
X116067215Y-140151968D01*
X116067219Y-140151966D01*
X116211966Y-140007219D01*
X116211968Y-140007215D01*
X116211971Y-140007213D01*
X116326263Y-139849901D01*
X116332287Y-139841610D01*
X116425220Y-139659219D01*
X116488477Y-139464534D01*
X116520500Y-139262352D01*
X116520500Y-139057648D01*
X116512997Y-139010275D01*
X116488477Y-138855465D01*
X116436880Y-138696668D01*
X116425220Y-138660781D01*
X116425218Y-138660778D01*
X116425218Y-138660776D01*
X116391267Y-138594144D01*
X116332287Y-138478390D01*
X116309307Y-138446760D01*
X116211971Y-138312786D01*
X116067217Y-138168032D01*
X115990415Y-138112232D01*
X115947750Y-138056902D01*
X115941771Y-137987288D01*
X115974377Y-137925494D01*
X116032640Y-137891765D01*
X116053039Y-137886559D01*
X116109584Y-137863136D01*
X116109584Y-137863135D01*
X115349410Y-137102962D01*
X115412993Y-137085925D01*
X115527007Y-137020099D01*
X115620099Y-136927007D01*
X115685925Y-136812993D01*
X115702962Y-136749411D01*
X116463135Y-137509584D01*
X116463136Y-137509584D01*
X116486552Y-137453053D01*
X116504544Y-137402053D01*
X116524999Y-137259780D01*
X116525000Y-137259779D01*
X116525000Y-135980214D01*
X116522106Y-135926237D01*
X116522106Y-135926235D01*
X116486561Y-135786969D01*
X116486559Y-135786962D01*
X116463135Y-135730414D01*
X115702962Y-136490588D01*
X115685925Y-136427007D01*
X115620099Y-136312993D01*
X115527007Y-136219901D01*
X115412993Y-136154075D01*
X115349410Y-136137037D01*
X116109584Y-135376862D01*
X116053059Y-135353449D01*
X116053048Y-135353445D01*
X116024374Y-135343329D01*
X115967703Y-135302462D01*
X115942122Y-135237443D01*
X115955754Y-135168916D01*
X115992745Y-135126074D01*
X116067215Y-135071969D01*
X116067215Y-135071968D01*
X116067219Y-135071966D01*
X116211966Y-134927219D01*
X116237191Y-134892500D01*
X116245100Y-134881615D01*
X116300429Y-134838949D01*
X116345418Y-134830500D01*
X119503678Y-134830500D01*
X119570717Y-134850185D01*
X119591359Y-134866819D01*
X125007181Y-140282640D01*
X125040666Y-140343963D01*
X125043500Y-140370321D01*
X125043500Y-143816102D01*
X125043500Y-143816104D01*
X125043499Y-143816104D01*
X125072340Y-143961091D01*
X125072343Y-143961101D01*
X125128914Y-144097676D01*
X125161812Y-144146911D01*
X125161813Y-144146914D01*
X125211046Y-144220598D01*
X125211052Y-144220605D01*
X130123584Y-149133136D01*
X130123586Y-149133138D01*
X130153058Y-149152829D01*
X130197270Y-149182370D01*
X130246505Y-149215268D01*
X130246506Y-149215268D01*
X130246507Y-149215269D01*
X130246509Y-149215270D01*
X130383082Y-149271840D01*
X130383087Y-149271842D01*
X130383091Y-149271842D01*
X130383092Y-149271843D01*
X130528079Y-149300684D01*
X130528082Y-149300684D01*
X138043736Y-149300684D01*
X138141278Y-149281280D01*
X138188729Y-149271842D01*
X138325311Y-149215268D01*
X138374545Y-149182370D01*
X138374550Y-149182367D01*
X138398887Y-149166105D01*
X138448232Y-149133136D01*
X138680096Y-148901270D01*
X138720319Y-148874395D01*
X138728315Y-148871084D01*
X138785303Y-148833006D01*
X138851236Y-148788952D01*
X145733951Y-141906236D01*
X145746165Y-141887956D01*
X145816084Y-141783315D01*
X145823456Y-141765516D01*
X145829119Y-141756551D01*
X145835961Y-141750527D01*
X145846272Y-141735094D01*
X147572952Y-140008416D01*
X147582067Y-139994772D01*
X147628879Y-139953175D01*
X147634679Y-139950220D01*
X147697816Y-139918051D01*
X147869792Y-139793104D01*
X148020104Y-139642792D01*
X148020106Y-139642788D01*
X148020109Y-139642786D01*
X148145048Y-139470820D01*
X148145047Y-139470820D01*
X148145051Y-139470816D01*
X148241557Y-139281412D01*
X148307246Y-139079243D01*
X148340500Y-138869287D01*
X148340500Y-138656713D01*
X148307246Y-138446757D01*
X148241557Y-138244588D01*
X148145051Y-138055184D01*
X148145049Y-138055181D01*
X148145048Y-138055179D01*
X148020109Y-137883213D01*
X147906569Y-137769673D01*
X147873084Y-137708350D01*
X147878068Y-137638658D01*
X147919940Y-137582725D01*
X147950915Y-137565810D01*
X148082331Y-137516796D01*
X148197546Y-137430546D01*
X148283796Y-137315331D01*
X148334091Y-137180483D01*
X148340500Y-137120873D01*
X148340499Y-135325128D01*
X148334091Y-135265517D01*
X148329314Y-135252710D01*
X148283797Y-135130671D01*
X148283793Y-135130664D01*
X148197547Y-135015455D01*
X148197544Y-135015452D01*
X148082335Y-134929206D01*
X148082328Y-134929202D01*
X147947482Y-134878908D01*
X147947483Y-134878908D01*
X147887883Y-134872501D01*
X147887881Y-134872500D01*
X147887873Y-134872500D01*
X147887865Y-134872500D01*
X146752230Y-134872500D01*
X146685191Y-134852815D01*
X146664549Y-134836181D01*
X142139421Y-130311052D01*
X142139414Y-130311046D01*
X142065729Y-130261812D01*
X142065729Y-130261813D01*
X142016491Y-130228913D01*
X141879917Y-130172343D01*
X141879907Y-130172340D01*
X141734920Y-130143500D01*
X141734918Y-130143500D01*
X141098594Y-130143500D01*
X141031555Y-130123815D01*
X140985800Y-130071011D01*
X140975856Y-130001853D01*
X141004881Y-129938297D01*
X141010913Y-129931819D01*
X147043819Y-123898913D01*
X147105142Y-123865428D01*
X147174834Y-123870412D01*
X147230767Y-123912284D01*
X147255184Y-123977748D01*
X147255500Y-123986594D01*
X147255500Y-124363918D01*
X147255500Y-124363920D01*
X147255499Y-124363920D01*
X147284340Y-124508907D01*
X147284343Y-124508917D01*
X147340913Y-124645490D01*
X147340916Y-124645495D01*
X147356376Y-124668634D01*
X147423046Y-124768414D01*
X147423052Y-124768421D01*
X150775181Y-128120548D01*
X150808666Y-128181871D01*
X150811500Y-128208229D01*
X150811500Y-155893500D01*
X150791815Y-155960539D01*
X150739011Y-156006294D01*
X150687501Y-156017500D01*
X150461999Y-156017500D01*
X150461980Y-156017501D01*
X150359203Y-156028000D01*
X150359200Y-156028001D01*
X150192668Y-156083185D01*
X150192663Y-156083187D01*
X150043342Y-156175289D01*
X149919289Y-156299342D01*
X149827187Y-156448663D01*
X149827185Y-156448668D01*
X149820886Y-156467678D01*
X149772001Y-156615203D01*
X149772001Y-156615204D01*
X149772000Y-156615204D01*
X149761500Y-156717983D01*
X149761500Y-158918001D01*
X149761501Y-158918018D01*
X149772000Y-159020796D01*
X149772001Y-159020799D01*
X149820885Y-159168319D01*
X149827186Y-159187334D01*
X149919288Y-159336656D01*
X150043344Y-159460712D01*
X150192666Y-159552814D01*
X150359203Y-159607999D01*
X150461991Y-159618500D01*
X152662008Y-159618499D01*
X152764797Y-159607999D01*
X152931334Y-159552814D01*
X153080656Y-159460712D01*
X153204712Y-159336656D01*
X153296814Y-159187334D01*
X153351999Y-159020797D01*
X153362500Y-158918009D01*
X153362500Y-158918008D01*
X153362821Y-158914868D01*
X153363782Y-158914966D01*
X153385517Y-158852789D01*
X153440571Y-158809767D01*
X153510144Y-158803340D01*
X153572148Y-158835546D01*
X153584679Y-158849540D01*
X153624721Y-158901723D01*
X154460958Y-158065487D01*
X154485978Y-158125890D01*
X154557112Y-158232351D01*
X154647649Y-158322888D01*
X154754110Y-158394022D01*
X154814511Y-158419041D01*
X153978275Y-159255277D01*
X154059827Y-159317854D01*
X154059828Y-159317855D01*
X154264171Y-159435834D01*
X154264180Y-159435839D01*
X154482163Y-159526129D01*
X154482161Y-159526129D01*
X154710085Y-159587200D01*
X154944014Y-159617999D01*
X154944029Y-159618000D01*
X155179971Y-159618000D01*
X155179985Y-159617999D01*
X155413914Y-159587200D01*
X155641837Y-159526129D01*
X155859819Y-159435839D01*
X155859828Y-159435834D01*
X156064181Y-159317850D01*
X156145723Y-159255279D01*
X156145723Y-159255276D01*
X155309487Y-158419041D01*
X155369890Y-158394022D01*
X155476351Y-158322888D01*
X155566888Y-158232351D01*
X155638022Y-158125890D01*
X155663041Y-158065487D01*
X156499276Y-158901723D01*
X156499279Y-158901723D01*
X156561850Y-158820181D01*
X156679834Y-158615828D01*
X156679839Y-158615819D01*
X156770129Y-158397837D01*
X156831200Y-158169914D01*
X156861999Y-157935985D01*
X156862000Y-157935971D01*
X156862000Y-157700028D01*
X156861999Y-157700014D01*
X156831200Y-157466085D01*
X156770129Y-157238162D01*
X156679839Y-157020180D01*
X156679834Y-157020171D01*
X156561855Y-156815828D01*
X156561854Y-156815827D01*
X156499277Y-156734275D01*
X155663041Y-157570511D01*
X155638022Y-157510110D01*
X155566888Y-157403649D01*
X155476351Y-157313112D01*
X155369890Y-157241978D01*
X155309488Y-157216958D01*
X156145723Y-156380721D01*
X156064172Y-156318145D01*
X156064171Y-156318144D01*
X155859828Y-156200165D01*
X155859819Y-156200160D01*
X155641836Y-156109870D01*
X155641838Y-156109870D01*
X155413914Y-156048799D01*
X155179985Y-156018000D01*
X154944014Y-156018000D01*
X154710085Y-156048799D01*
X154482162Y-156109870D01*
X154264180Y-156200160D01*
X154264171Y-156200165D01*
X154059828Y-156318144D01*
X154059818Y-156318150D01*
X153978275Y-156380720D01*
X153978275Y-156380721D01*
X154814512Y-157216958D01*
X154754110Y-157241978D01*
X154647649Y-157313112D01*
X154557112Y-157403649D01*
X154485978Y-157510110D01*
X154460958Y-157570512D01*
X153624721Y-156734275D01*
X153624719Y-156734275D01*
X153584678Y-156786459D01*
X153528250Y-156827662D01*
X153458504Y-156831817D01*
X153397584Y-156797605D01*
X153364831Y-156735887D01*
X153362952Y-156721118D01*
X153362820Y-156721132D01*
X153351999Y-156615203D01*
X153351998Y-156615200D01*
X153303114Y-156467678D01*
X153303113Y-156467676D01*
X153296816Y-156448672D01*
X153296815Y-156448671D01*
X153296814Y-156448666D01*
X153204712Y-156299344D01*
X153080656Y-156175288D01*
X152974596Y-156109870D01*
X152931336Y-156083187D01*
X152931331Y-156083185D01*
X152929862Y-156082698D01*
X152764797Y-156028001D01*
X152764795Y-156028000D01*
X152662016Y-156017500D01*
X152662009Y-156017500D01*
X152436500Y-156017500D01*
X152369461Y-155997815D01*
X152323706Y-155945011D01*
X152312500Y-155893500D01*
X152312500Y-142493983D01*
X156111500Y-142493983D01*
X156111500Y-144694001D01*
X156111501Y-144694018D01*
X156122000Y-144796796D01*
X156122001Y-144796799D01*
X156177185Y-144963331D01*
X156177186Y-144963334D01*
X156269288Y-145112656D01*
X156393344Y-145236712D01*
X156542666Y-145328814D01*
X156709203Y-145383999D01*
X156811991Y-145394500D01*
X159012008Y-145394499D01*
X159114797Y-145383999D01*
X159281334Y-145328814D01*
X159430656Y-145236712D01*
X159554712Y-145112656D01*
X159646814Y-144963334D01*
X159701999Y-144796797D01*
X159712500Y-144694009D01*
X159712499Y-142493992D01*
X159701999Y-142391203D01*
X159646814Y-142224666D01*
X159554712Y-142075344D01*
X159430656Y-141951288D01*
X159296971Y-141868831D01*
X159281336Y-141859187D01*
X159281331Y-141859185D01*
X159232886Y-141843132D01*
X159114797Y-141804001D01*
X159114795Y-141804000D01*
X159008868Y-141793179D01*
X159008965Y-141792229D01*
X158946747Y-141770451D01*
X158903749Y-141715379D01*
X158897351Y-141645803D01*
X158929584Y-141583813D01*
X158943540Y-141571321D01*
X158995723Y-141531278D01*
X158995723Y-141531276D01*
X158159487Y-140695041D01*
X158219890Y-140670022D01*
X158326351Y-140598888D01*
X158416888Y-140508351D01*
X158488022Y-140401890D01*
X158513041Y-140341487D01*
X159349276Y-141177723D01*
X159349279Y-141177723D01*
X159411850Y-141096181D01*
X159529834Y-140891828D01*
X159529839Y-140891819D01*
X159620129Y-140673837D01*
X159681200Y-140445914D01*
X159711999Y-140211985D01*
X159712000Y-140211971D01*
X159712000Y-139976028D01*
X159711999Y-139976014D01*
X159681200Y-139742085D01*
X159620129Y-139514162D01*
X159529839Y-139296180D01*
X159529834Y-139296171D01*
X159411855Y-139091828D01*
X159411854Y-139091827D01*
X159349277Y-139010275D01*
X158513041Y-139846511D01*
X158488022Y-139786110D01*
X158416888Y-139679649D01*
X158326351Y-139589112D01*
X158219890Y-139517978D01*
X158159488Y-139492958D01*
X158995723Y-138656721D01*
X158914172Y-138594145D01*
X158914171Y-138594144D01*
X158709828Y-138476165D01*
X158709819Y-138476160D01*
X158491836Y-138385870D01*
X158491838Y-138385870D01*
X158263914Y-138324799D01*
X158029985Y-138294000D01*
X157794014Y-138294000D01*
X157560085Y-138324799D01*
X157332162Y-138385870D01*
X157114180Y-138476160D01*
X157114171Y-138476165D01*
X156909828Y-138594144D01*
X156909818Y-138594150D01*
X156828275Y-138656720D01*
X156828275Y-138656721D01*
X157664512Y-139492958D01*
X157604110Y-139517978D01*
X157497649Y-139589112D01*
X157407112Y-139679649D01*
X157335978Y-139786110D01*
X157310958Y-139846512D01*
X156474721Y-139010275D01*
X156474720Y-139010275D01*
X156412150Y-139091818D01*
X156412144Y-139091828D01*
X156294165Y-139296171D01*
X156294160Y-139296180D01*
X156203870Y-139514162D01*
X156142799Y-139742085D01*
X156112000Y-139976014D01*
X156112000Y-140211985D01*
X156142799Y-140445914D01*
X156203870Y-140673837D01*
X156294160Y-140891819D01*
X156294165Y-140891828D01*
X156412144Y-141096171D01*
X156412145Y-141096172D01*
X156474721Y-141177723D01*
X157310958Y-140341487D01*
X157335978Y-140401890D01*
X157407112Y-140508351D01*
X157497649Y-140598888D01*
X157604110Y-140670022D01*
X157664511Y-140695041D01*
X156828275Y-141531277D01*
X156880461Y-141571321D01*
X156921663Y-141627749D01*
X156925818Y-141697495D01*
X156891606Y-141758416D01*
X156829888Y-141791168D01*
X156815118Y-141793049D01*
X156815132Y-141793180D01*
X156709203Y-141804000D01*
X156709200Y-141804001D01*
X156542668Y-141859185D01*
X156542663Y-141859187D01*
X156393342Y-141951289D01*
X156269289Y-142075342D01*
X156177187Y-142224663D01*
X156177186Y-142224666D01*
X156122001Y-142391203D01*
X156122001Y-142391204D01*
X156122000Y-142391204D01*
X156111500Y-142493983D01*
X152312500Y-142493983D01*
X152312500Y-133151983D01*
X156111500Y-133151983D01*
X156111500Y-135352001D01*
X156111501Y-135352018D01*
X156122000Y-135454796D01*
X156122001Y-135454799D01*
X156161747Y-135574742D01*
X156177186Y-135621334D01*
X156269288Y-135770656D01*
X156393344Y-135894712D01*
X156542666Y-135986814D01*
X156709203Y-136041999D01*
X156811991Y-136052500D01*
X159012008Y-136052499D01*
X159114797Y-136041999D01*
X159281334Y-135986814D01*
X159430656Y-135894712D01*
X159554712Y-135770656D01*
X159646814Y-135621334D01*
X159701999Y-135454797D01*
X159712500Y-135352009D01*
X159712499Y-133151992D01*
X159712413Y-133151155D01*
X159701999Y-133049203D01*
X159701998Y-133049200D01*
X159646814Y-132882666D01*
X159554712Y-132733344D01*
X159430656Y-132609288D01*
X159326965Y-132545331D01*
X159281336Y-132517187D01*
X159281331Y-132517185D01*
X159268273Y-132512858D01*
X159114797Y-132462001D01*
X159114795Y-132462000D01*
X159008868Y-132451179D01*
X159008965Y-132450229D01*
X158946747Y-132428451D01*
X158903749Y-132373379D01*
X158897351Y-132303803D01*
X158929584Y-132241813D01*
X158943540Y-132229321D01*
X158995723Y-132189278D01*
X158995723Y-132189276D01*
X158159487Y-131353041D01*
X158219890Y-131328022D01*
X158326351Y-131256888D01*
X158416888Y-131166351D01*
X158488022Y-131059890D01*
X158513041Y-130999487D01*
X159349276Y-131835723D01*
X159349279Y-131835723D01*
X159411850Y-131754181D01*
X159529834Y-131549828D01*
X159529839Y-131549819D01*
X159620129Y-131331837D01*
X159681200Y-131103914D01*
X159711999Y-130869985D01*
X159712000Y-130869971D01*
X159712000Y-130634028D01*
X159711999Y-130634014D01*
X159681200Y-130400085D01*
X159620129Y-130172162D01*
X159529839Y-129954180D01*
X159529834Y-129954171D01*
X159411855Y-129749828D01*
X159411854Y-129749827D01*
X159349277Y-129668275D01*
X158513041Y-130504511D01*
X158488022Y-130444110D01*
X158416888Y-130337649D01*
X158326351Y-130247112D01*
X158219890Y-130175978D01*
X158159488Y-130150958D01*
X158995723Y-129314721D01*
X158914172Y-129252145D01*
X158914171Y-129252144D01*
X158709828Y-129134165D01*
X158709819Y-129134160D01*
X158491836Y-129043870D01*
X158491838Y-129043870D01*
X158263914Y-128982799D01*
X158029985Y-128952000D01*
X157794014Y-128952000D01*
X157560085Y-128982799D01*
X157332162Y-129043870D01*
X157114180Y-129134160D01*
X157114171Y-129134165D01*
X156909828Y-129252144D01*
X156909818Y-129252150D01*
X156828275Y-129314720D01*
X156828275Y-129314721D01*
X157664512Y-130150958D01*
X157604110Y-130175978D01*
X157497649Y-130247112D01*
X157407112Y-130337649D01*
X157335978Y-130444110D01*
X157310958Y-130504512D01*
X156474721Y-129668275D01*
X156474720Y-129668275D01*
X156412150Y-129749818D01*
X156412144Y-129749828D01*
X156294165Y-129954171D01*
X156294160Y-129954180D01*
X156203870Y-130172162D01*
X156142799Y-130400085D01*
X156112000Y-130634014D01*
X156112000Y-130869985D01*
X156142799Y-131103914D01*
X156203870Y-131331837D01*
X156294160Y-131549819D01*
X156294165Y-131549828D01*
X156412144Y-131754171D01*
X156412145Y-131754172D01*
X156474721Y-131835723D01*
X157310958Y-130999487D01*
X157335978Y-131059890D01*
X157407112Y-131166351D01*
X157497649Y-131256888D01*
X157604110Y-131328022D01*
X157664511Y-131353041D01*
X156828275Y-132189277D01*
X156880461Y-132229321D01*
X156921663Y-132285749D01*
X156925818Y-132355495D01*
X156891606Y-132416416D01*
X156829888Y-132449168D01*
X156815118Y-132451049D01*
X156815132Y-132451180D01*
X156709203Y-132462000D01*
X156709200Y-132462001D01*
X156542668Y-132517185D01*
X156542663Y-132517187D01*
X156393342Y-132609289D01*
X156269289Y-132733342D01*
X156177187Y-132882663D01*
X156177186Y-132882666D01*
X156122001Y-133049203D01*
X156122001Y-133049204D01*
X156122000Y-133049204D01*
X156111500Y-133151983D01*
X152312500Y-133151983D01*
X152312500Y-127772079D01*
X152283659Y-127627092D01*
X152283658Y-127627091D01*
X152283658Y-127627087D01*
X152242100Y-127526756D01*
X152227087Y-127490511D01*
X152227080Y-127490498D01*
X152144952Y-127367585D01*
X152111867Y-127334500D01*
X152040416Y-127263049D01*
X150418017Y-125640650D01*
X148792819Y-124015451D01*
X148759334Y-123954128D01*
X148756500Y-123927770D01*
X148756500Y-121718591D01*
X148765939Y-121671138D01*
X148775021Y-121649213D01*
X148805784Y-121494558D01*
X148805784Y-121354500D01*
X148825469Y-121287461D01*
X148878273Y-121241706D01*
X148929784Y-121230500D01*
X151023920Y-121230500D01*
X151121462Y-121211096D01*
X151168913Y-121201658D01*
X151305495Y-121145084D01*
X151354729Y-121112186D01*
X151428416Y-121062952D01*
X153914315Y-118577050D01*
X153975636Y-118543567D01*
X154040310Y-118546801D01*
X154045466Y-118548477D01*
X154247648Y-118580500D01*
X154247649Y-118580500D01*
X154452351Y-118580500D01*
X154452352Y-118580500D01*
X154654534Y-118548477D01*
X154849219Y-118485220D01*
X155031610Y-118392287D01*
X155192614Y-118275312D01*
X155197213Y-118271971D01*
X155197215Y-118271968D01*
X155197219Y-118271966D01*
X155341966Y-118127219D01*
X155341968Y-118127215D01*
X155341971Y-118127213D01*
X155424934Y-118013022D01*
X155462287Y-117961610D01*
X155555220Y-117779219D01*
X155618477Y-117584534D01*
X155650500Y-117382352D01*
X155650500Y-116777648D01*
X155618477Y-116575466D01*
X155602833Y-116527320D01*
X155562229Y-116402352D01*
X155555220Y-116380781D01*
X155555218Y-116380778D01*
X155555218Y-116380776D01*
X155495896Y-116264352D01*
X155462287Y-116198390D01*
X155439446Y-116166952D01*
X155341971Y-116032786D01*
X155197213Y-115888028D01*
X155031613Y-115767715D01*
X155031612Y-115767714D01*
X155031610Y-115767713D01*
X154974653Y-115738691D01*
X154849223Y-115674781D01*
X154654534Y-115611522D01*
X154478181Y-115583591D01*
X154452352Y-115579500D01*
X154247648Y-115579500D01*
X154223329Y-115583351D01*
X154045465Y-115611522D01*
X153850776Y-115674781D01*
X153668386Y-115767715D01*
X153502786Y-115888028D01*
X153358028Y-116032786D01*
X153237715Y-116198386D01*
X153190485Y-116291080D01*
X153142510Y-116341876D01*
X153074689Y-116358671D01*
X153008554Y-116336134D01*
X152969515Y-116291080D01*
X152937285Y-116227826D01*
X152922287Y-116198390D01*
X152899446Y-116166952D01*
X152801971Y-116032786D01*
X152657213Y-115888028D01*
X152491613Y-115767715D01*
X152491612Y-115767714D01*
X152491610Y-115767713D01*
X152434653Y-115738691D01*
X152309223Y-115674781D01*
X152114534Y-115611522D01*
X151938181Y-115583591D01*
X151912352Y-115579500D01*
X151707648Y-115579500D01*
X151683329Y-115583351D01*
X151505465Y-115611522D01*
X151310776Y-115674781D01*
X151128386Y-115767715D01*
X150962786Y-115888028D01*
X150818028Y-116032786D01*
X150697713Y-116198388D01*
X150650203Y-116291630D01*
X150602228Y-116342426D01*
X150534407Y-116359220D01*
X150468272Y-116336682D01*
X150429234Y-116291628D01*
X150423390Y-116280160D01*
X149834612Y-116868939D01*
X149829111Y-116848409D01*
X149750119Y-116711592D01*
X149638408Y-116599881D01*
X149501591Y-116520889D01*
X149481060Y-116515387D01*
X150111761Y-115884686D01*
X150111760Y-115884684D01*
X149951352Y-115768142D01*
X149769031Y-115675244D01*
X149574417Y-115612009D01*
X149372317Y-115580000D01*
X149167683Y-115580000D01*
X148965582Y-115612009D01*
X148770968Y-115675244D01*
X148588649Y-115768141D01*
X148588640Y-115768147D01*
X148428238Y-115884685D01*
X148428237Y-115884686D01*
X149058939Y-116515387D01*
X149038409Y-116520889D01*
X148901592Y-116599881D01*
X148789881Y-116711592D01*
X148710889Y-116848409D01*
X148705387Y-116868939D01*
X148116607Y-116280159D01*
X148116606Y-116280160D01*
X148110764Y-116291627D01*
X148062790Y-116342423D01*
X147994969Y-116359219D01*
X147928834Y-116336682D01*
X147889794Y-116291628D01*
X147842287Y-116198390D01*
X147842285Y-116198387D01*
X147842284Y-116198385D01*
X147721971Y-116032786D01*
X147577213Y-115888028D01*
X147411613Y-115767715D01*
X147411612Y-115767714D01*
X147411610Y-115767713D01*
X147354653Y-115738691D01*
X147229223Y-115674781D01*
X147034534Y-115611522D01*
X146858181Y-115583591D01*
X146832352Y-115579500D01*
X146627648Y-115579500D01*
X146601819Y-115583591D01*
X146425464Y-115611523D01*
X146425461Y-115611523D01*
X146231623Y-115674506D01*
X146161782Y-115676501D01*
X146105624Y-115644256D01*
X134326473Y-103865105D01*
X134292988Y-103803782D01*
X134291681Y-103758026D01*
X134300500Y-103702352D01*
X134300500Y-103497648D01*
X134268477Y-103295466D01*
X134251223Y-103242365D01*
X134205218Y-103100776D01*
X134153869Y-103000000D01*
X134112287Y-102918390D01*
X134062236Y-102849500D01*
X133991971Y-102752786D01*
X133847213Y-102608028D01*
X133681614Y-102487715D01*
X133675006Y-102484348D01*
X133588917Y-102440483D01*
X133538123Y-102392511D01*
X133521328Y-102324690D01*
X133543865Y-102258555D01*
X133588917Y-102219516D01*
X133681610Y-102172287D01*
X133799534Y-102086611D01*
X133847213Y-102051971D01*
X133847215Y-102051968D01*
X133847219Y-102051966D01*
X133991966Y-101907219D01*
X133991968Y-101907215D01*
X133991971Y-101907213D01*
X134044732Y-101834590D01*
X134112287Y-101741610D01*
X134205220Y-101559219D01*
X134268477Y-101364534D01*
X134300500Y-101162352D01*
X134300500Y-100957648D01*
X134268477Y-100755466D01*
X134255849Y-100716602D01*
X134205218Y-100560776D01*
X134134637Y-100422255D01*
X134112287Y-100378390D01*
X134091257Y-100349444D01*
X133991971Y-100212786D01*
X133847213Y-100068028D01*
X133681614Y-99947715D01*
X133672437Y-99943039D01*
X133595703Y-99903941D01*
X133544908Y-99855968D01*
X133528113Y-99788147D01*
X133550650Y-99722012D01*
X133593546Y-99684099D01*
X133659503Y-99648843D01*
X133659515Y-99648837D01*
X133728913Y-99602465D01*
X133129410Y-99002962D01*
X133192993Y-98985925D01*
X133307007Y-98920099D01*
X133400099Y-98827007D01*
X133465925Y-98712993D01*
X133482962Y-98649410D01*
X134082465Y-99248913D01*
X134128837Y-99179515D01*
X134128838Y-99179511D01*
X134175509Y-99092198D01*
X134235816Y-98946607D01*
X134244623Y-98917573D01*
X134282919Y-98859133D01*
X134346731Y-98830676D01*
X134415798Y-98841235D01*
X134450965Y-98865885D01*
X140996365Y-105411285D01*
X141029850Y-105472608D01*
X141024866Y-105542300D01*
X140982994Y-105598233D01*
X140972353Y-105604859D01*
X140972542Y-105605168D01*
X140968389Y-105607712D01*
X140802786Y-105728028D01*
X140658028Y-105872786D01*
X140537715Y-106038386D01*
X140444781Y-106220776D01*
X140381522Y-106415465D01*
X140349500Y-106617648D01*
X140349500Y-107222351D01*
X140381522Y-107424534D01*
X140444781Y-107619223D01*
X140537715Y-107801613D01*
X140658028Y-107967213D01*
X140802786Y-108111971D01*
X140897497Y-108180781D01*
X140968390Y-108232287D01*
X141084607Y-108291503D01*
X141150776Y-108325218D01*
X141150778Y-108325218D01*
X141150781Y-108325220D01*
X141255137Y-108359127D01*
X141345465Y-108388477D01*
X141446557Y-108404488D01*
X141547648Y-108420500D01*
X141547649Y-108420500D01*
X141752351Y-108420500D01*
X141752352Y-108420500D01*
X141954534Y-108388477D01*
X142149219Y-108325220D01*
X142331610Y-108232287D01*
X142492614Y-108115312D01*
X142497213Y-108111971D01*
X142497215Y-108111968D01*
X142497219Y-108111966D01*
X142641966Y-107967219D01*
X142641968Y-107967215D01*
X142641971Y-107967213D01*
X142762284Y-107801614D01*
X142762285Y-107801613D01*
X142762287Y-107801610D01*
X142809516Y-107708917D01*
X142857489Y-107658123D01*
X142925310Y-107641328D01*
X142991445Y-107663865D01*
X143030485Y-107708919D01*
X143077715Y-107801614D01*
X143198028Y-107967213D01*
X143342786Y-108111971D01*
X143437497Y-108180781D01*
X143508390Y-108232287D01*
X143624607Y-108291503D01*
X143690776Y-108325218D01*
X143690778Y-108325218D01*
X143690781Y-108325220D01*
X143795137Y-108359127D01*
X143885465Y-108388477D01*
X143986557Y-108404488D01*
X144087648Y-108420500D01*
X144087649Y-108420500D01*
X144292351Y-108420500D01*
X144292352Y-108420500D01*
X144494534Y-108388477D01*
X144689219Y-108325220D01*
X144871610Y-108232287D01*
X145032614Y-108115312D01*
X145037213Y-108111971D01*
X145037215Y-108111968D01*
X145037219Y-108111966D01*
X145181966Y-107967219D01*
X145181968Y-107967215D01*
X145181971Y-107967213D01*
X145302284Y-107801614D01*
X145302285Y-107801613D01*
X145302287Y-107801610D01*
X145349795Y-107708369D01*
X145397770Y-107657574D01*
X145465591Y-107640779D01*
X145531725Y-107663316D01*
X145570765Y-107708371D01*
X145576608Y-107719838D01*
X146165387Y-107131058D01*
X146170889Y-107151591D01*
X146249881Y-107288408D01*
X146361592Y-107400119D01*
X146498409Y-107479111D01*
X146518939Y-107484612D01*
X145888237Y-108115312D01*
X146048650Y-108231859D01*
X146230968Y-108324755D01*
X146425582Y-108387990D01*
X146627683Y-108420000D01*
X146832317Y-108420000D01*
X147034417Y-108387990D01*
X147229031Y-108324755D01*
X147411349Y-108231859D01*
X147571760Y-108115312D01*
X147571761Y-108115312D01*
X146941060Y-107484612D01*
X146961591Y-107479111D01*
X147098408Y-107400119D01*
X147210119Y-107288408D01*
X147289111Y-107151591D01*
X147294612Y-107131060D01*
X147883390Y-107719838D01*
X147889234Y-107708370D01*
X147937207Y-107657574D01*
X148005028Y-107640778D01*
X148071163Y-107663315D01*
X148110204Y-107708369D01*
X148157715Y-107801613D01*
X148278028Y-107967213D01*
X148422786Y-108111971D01*
X148517497Y-108180781D01*
X148588390Y-108232287D01*
X148704607Y-108291503D01*
X148770776Y-108325218D01*
X148770778Y-108325218D01*
X148770781Y-108325220D01*
X148875137Y-108359127D01*
X148965465Y-108388477D01*
X149066557Y-108404488D01*
X149167648Y-108420500D01*
X149167649Y-108420500D01*
X149372351Y-108420500D01*
X149372352Y-108420500D01*
X149574534Y-108388477D01*
X149769219Y-108325220D01*
X149951610Y-108232287D01*
X150112614Y-108115312D01*
X150117213Y-108111971D01*
X150117215Y-108111968D01*
X150117219Y-108111966D01*
X150261966Y-107967219D01*
X150261968Y-107967215D01*
X150261971Y-107967213D01*
X150382284Y-107801614D01*
X150382285Y-107801613D01*
X150382287Y-107801610D01*
X150429516Y-107708917D01*
X150477489Y-107658123D01*
X150545310Y-107641328D01*
X150611445Y-107663865D01*
X150650485Y-107708919D01*
X150697715Y-107801614D01*
X150818028Y-107967213D01*
X150962786Y-108111971D01*
X151057497Y-108180781D01*
X151128390Y-108232287D01*
X151244607Y-108291503D01*
X151310776Y-108325218D01*
X151310778Y-108325218D01*
X151310781Y-108325220D01*
X151415137Y-108359127D01*
X151505465Y-108388477D01*
X151606557Y-108404488D01*
X151707648Y-108420500D01*
X151707649Y-108420500D01*
X151912351Y-108420500D01*
X151912352Y-108420500D01*
X152114534Y-108388477D01*
X152309219Y-108325220D01*
X152491610Y-108232287D01*
X152652614Y-108115312D01*
X152657213Y-108111971D01*
X152657215Y-108111968D01*
X152657219Y-108111966D01*
X152801966Y-107967219D01*
X152801968Y-107967215D01*
X152801971Y-107967213D01*
X152922284Y-107801614D01*
X152922285Y-107801613D01*
X152922287Y-107801610D01*
X152969516Y-107708917D01*
X153017489Y-107658123D01*
X153085310Y-107641328D01*
X153151445Y-107663865D01*
X153190485Y-107708919D01*
X153237715Y-107801614D01*
X153358028Y-107967213D01*
X153502786Y-108111971D01*
X153597497Y-108180781D01*
X153668390Y-108232287D01*
X153784607Y-108291503D01*
X153850776Y-108325218D01*
X153850778Y-108325218D01*
X153850781Y-108325220D01*
X153955137Y-108359127D01*
X154045465Y-108388477D01*
X154146557Y-108404488D01*
X154247648Y-108420500D01*
X154247649Y-108420500D01*
X154452351Y-108420500D01*
X154452352Y-108420500D01*
X154654534Y-108388477D01*
X154849219Y-108325220D01*
X155031610Y-108232287D01*
X155192614Y-108115312D01*
X155197213Y-108111971D01*
X155197215Y-108111968D01*
X155197219Y-108111966D01*
X155341966Y-107967219D01*
X155341968Y-107967215D01*
X155341971Y-107967213D01*
X155439640Y-107832781D01*
X155462287Y-107801610D01*
X155555220Y-107619219D01*
X155618477Y-107424534D01*
X155650500Y-107222352D01*
X155650500Y-106617648D01*
X155618477Y-106415466D01*
X155555220Y-106220781D01*
X155555218Y-106220778D01*
X155555218Y-106220776D01*
X155509515Y-106131080D01*
X155462287Y-106038390D01*
X155434759Y-106000500D01*
X155341971Y-105872786D01*
X155197213Y-105728028D01*
X155031613Y-105607715D01*
X155031612Y-105607714D01*
X155031610Y-105607713D01*
X154974653Y-105578691D01*
X154849223Y-105514781D01*
X154654534Y-105451522D01*
X154479995Y-105423878D01*
X154452352Y-105419500D01*
X154247648Y-105419500D01*
X154223329Y-105423351D01*
X154045465Y-105451522D01*
X153850776Y-105514781D01*
X153668386Y-105607715D01*
X153502786Y-105728028D01*
X153358028Y-105872786D01*
X153237715Y-106038386D01*
X153190485Y-106131080D01*
X153142510Y-106181876D01*
X153074689Y-106198671D01*
X153008554Y-106176134D01*
X152969515Y-106131080D01*
X152968883Y-106129840D01*
X152922287Y-106038390D01*
X152894759Y-106000500D01*
X152801971Y-105872786D01*
X152657213Y-105728028D01*
X152491613Y-105607715D01*
X152491612Y-105607714D01*
X152491610Y-105607713D01*
X152434653Y-105578691D01*
X152309223Y-105514781D01*
X152114534Y-105451522D01*
X151939995Y-105423878D01*
X151912352Y-105419500D01*
X151707648Y-105419500D01*
X151683329Y-105423351D01*
X151505465Y-105451522D01*
X151310776Y-105514781D01*
X151128386Y-105607715D01*
X150962786Y-105728028D01*
X150818028Y-105872786D01*
X150697715Y-106038386D01*
X150650485Y-106131080D01*
X150602510Y-106181876D01*
X150534689Y-106198671D01*
X150468554Y-106176134D01*
X150429515Y-106131080D01*
X150428883Y-106129840D01*
X150382287Y-106038390D01*
X150354759Y-106000500D01*
X150261971Y-105872786D01*
X150117213Y-105728028D01*
X149951613Y-105607715D01*
X149951612Y-105607714D01*
X149951610Y-105607713D01*
X149894653Y-105578691D01*
X149769223Y-105514781D01*
X149574534Y-105451522D01*
X149399995Y-105423878D01*
X149372352Y-105419500D01*
X149372351Y-105419500D01*
X149235782Y-105419500D01*
X149168743Y-105399815D01*
X149148101Y-105383181D01*
X148131479Y-104366559D01*
X148131459Y-104366537D01*
X147987785Y-104222863D01*
X147987781Y-104222860D01*
X147823920Y-104113371D01*
X147823911Y-104113366D01*
X147751315Y-104083296D01*
X147695165Y-104060038D01*
X147641836Y-104037949D01*
X147641832Y-104037948D01*
X147641828Y-104037946D01*
X147545188Y-104018724D01*
X147448544Y-103999500D01*
X147448541Y-103999500D01*
X142465782Y-103999500D01*
X142398743Y-103979815D01*
X142378101Y-103963181D01*
X135408934Y-96994014D01*
X139686000Y-96994014D01*
X139686000Y-97229985D01*
X139716799Y-97463914D01*
X139777870Y-97691837D01*
X139868160Y-97909819D01*
X139868165Y-97909828D01*
X139986144Y-98114171D01*
X139986145Y-98114172D01*
X140048721Y-98195723D01*
X140884958Y-97359487D01*
X140909978Y-97419890D01*
X140981112Y-97526351D01*
X141071649Y-97616888D01*
X141178110Y-97688022D01*
X141238511Y-97713041D01*
X140402275Y-98549277D01*
X140483827Y-98611854D01*
X140483828Y-98611855D01*
X140688171Y-98729834D01*
X140688180Y-98729839D01*
X140906163Y-98820129D01*
X140906161Y-98820129D01*
X141134085Y-98881200D01*
X141368014Y-98911999D01*
X141368029Y-98912000D01*
X141603971Y-98912000D01*
X141603985Y-98911999D01*
X141837914Y-98881200D01*
X142065837Y-98820129D01*
X142283819Y-98729839D01*
X142283828Y-98729834D01*
X142488181Y-98611850D01*
X142569723Y-98549279D01*
X142569723Y-98549276D01*
X141733487Y-97713041D01*
X141793890Y-97688022D01*
X141900351Y-97616888D01*
X141990888Y-97526351D01*
X142062022Y-97419890D01*
X142087041Y-97359488D01*
X142923276Y-98195723D01*
X142923277Y-98195723D01*
X142963321Y-98143538D01*
X143019749Y-98102336D01*
X143089495Y-98098181D01*
X143150416Y-98132393D01*
X143183168Y-98194111D01*
X143185049Y-98208881D01*
X143185180Y-98208868D01*
X143196000Y-98314796D01*
X143196001Y-98314799D01*
X143237890Y-98441210D01*
X143251186Y-98481334D01*
X143343288Y-98630656D01*
X143467344Y-98754712D01*
X143616666Y-98846814D01*
X143783203Y-98901999D01*
X143885991Y-98912500D01*
X146086008Y-98912499D01*
X146188797Y-98901999D01*
X146355334Y-98846814D01*
X146504656Y-98754712D01*
X146628712Y-98630656D01*
X146720814Y-98481334D01*
X146775999Y-98314797D01*
X146786500Y-98212009D01*
X146786499Y-96994014D01*
X149028000Y-96994014D01*
X149028000Y-97229985D01*
X149058799Y-97463914D01*
X149119870Y-97691837D01*
X149210160Y-97909819D01*
X149210165Y-97909828D01*
X149328144Y-98114171D01*
X149328145Y-98114172D01*
X149390721Y-98195723D01*
X150226958Y-97359487D01*
X150251978Y-97419890D01*
X150323112Y-97526351D01*
X150413649Y-97616888D01*
X150520110Y-97688022D01*
X150580511Y-97713041D01*
X149744275Y-98549277D01*
X149825827Y-98611854D01*
X149825828Y-98611855D01*
X150030171Y-98729834D01*
X150030180Y-98729839D01*
X150248163Y-98820129D01*
X150248161Y-98820129D01*
X150476085Y-98881200D01*
X150710014Y-98911999D01*
X150710029Y-98912000D01*
X150945971Y-98912000D01*
X150945985Y-98911999D01*
X151179914Y-98881200D01*
X151407837Y-98820129D01*
X151625819Y-98729839D01*
X151625828Y-98729834D01*
X151830181Y-98611850D01*
X151911723Y-98549279D01*
X151911723Y-98549276D01*
X151075487Y-97713041D01*
X151135890Y-97688022D01*
X151242351Y-97616888D01*
X151332888Y-97526351D01*
X151404022Y-97419890D01*
X151429041Y-97359487D01*
X152265276Y-98195723D01*
X152265277Y-98195723D01*
X152305321Y-98143538D01*
X152361749Y-98102336D01*
X152431495Y-98098181D01*
X152492416Y-98132393D01*
X152525168Y-98194111D01*
X152527049Y-98208881D01*
X152527180Y-98208868D01*
X152538000Y-98314796D01*
X152538001Y-98314799D01*
X152579890Y-98441210D01*
X152593186Y-98481334D01*
X152685288Y-98630656D01*
X152809344Y-98754712D01*
X152958666Y-98846814D01*
X153125203Y-98901999D01*
X153227991Y-98912500D01*
X155428008Y-98912499D01*
X155530797Y-98901999D01*
X155697334Y-98846814D01*
X155846656Y-98754712D01*
X155970712Y-98630656D01*
X156062814Y-98481334D01*
X156117999Y-98314797D01*
X156128500Y-98212009D01*
X156128499Y-96011992D01*
X156117999Y-95909203D01*
X156062814Y-95742666D01*
X155970712Y-95593344D01*
X155846656Y-95469288D01*
X155697334Y-95377186D01*
X155530797Y-95322001D01*
X155530795Y-95322000D01*
X155428010Y-95311500D01*
X153227998Y-95311500D01*
X153227981Y-95311501D01*
X153125203Y-95322000D01*
X153125200Y-95322001D01*
X152958668Y-95377185D01*
X152958663Y-95377187D01*
X152809342Y-95469289D01*
X152685289Y-95593342D01*
X152593187Y-95742663D01*
X152593185Y-95742668D01*
X152586886Y-95761678D01*
X152538001Y-95909203D01*
X152538001Y-95909204D01*
X152538000Y-95909204D01*
X152527179Y-96015132D01*
X152526229Y-96015034D01*
X152504451Y-96077253D01*
X152449379Y-96120251D01*
X152379803Y-96126649D01*
X152317813Y-96094416D01*
X152305320Y-96080459D01*
X152265277Y-96028275D01*
X151429041Y-96864511D01*
X151404022Y-96804110D01*
X151332888Y-96697649D01*
X151242351Y-96607112D01*
X151135890Y-96535978D01*
X151075488Y-96510958D01*
X151911723Y-95674721D01*
X151830172Y-95612145D01*
X151830171Y-95612144D01*
X151625828Y-95494165D01*
X151625819Y-95494160D01*
X151407836Y-95403870D01*
X151407838Y-95403870D01*
X151179914Y-95342799D01*
X150945985Y-95312000D01*
X150710014Y-95312000D01*
X150476085Y-95342799D01*
X150248162Y-95403870D01*
X150030180Y-95494160D01*
X150030171Y-95494165D01*
X149825828Y-95612144D01*
X149825818Y-95612150D01*
X149744275Y-95674720D01*
X149744275Y-95674721D01*
X150580512Y-96510958D01*
X150520110Y-96535978D01*
X150413649Y-96607112D01*
X150323112Y-96697649D01*
X150251978Y-96804110D01*
X150226958Y-96864512D01*
X149390721Y-96028275D01*
X149390720Y-96028275D01*
X149328150Y-96109818D01*
X149328144Y-96109828D01*
X149210165Y-96314171D01*
X149210160Y-96314180D01*
X149119870Y-96532162D01*
X149058799Y-96760085D01*
X149028000Y-96994014D01*
X146786499Y-96994014D01*
X146786499Y-96011992D01*
X146775999Y-95909203D01*
X146720814Y-95742666D01*
X146628712Y-95593344D01*
X146504656Y-95469288D01*
X146355334Y-95377186D01*
X146188797Y-95322001D01*
X146188795Y-95322000D01*
X146086010Y-95311500D01*
X143885998Y-95311500D01*
X143885981Y-95311501D01*
X143783203Y-95322000D01*
X143783200Y-95322001D01*
X143616668Y-95377185D01*
X143616663Y-95377187D01*
X143467342Y-95469289D01*
X143343289Y-95593342D01*
X143251187Y-95742663D01*
X143251185Y-95742668D01*
X143244886Y-95761678D01*
X143196001Y-95909203D01*
X143196001Y-95909204D01*
X143196000Y-95909204D01*
X143185179Y-96015132D01*
X143184229Y-96015034D01*
X143162451Y-96077253D01*
X143107379Y-96120251D01*
X143037803Y-96126649D01*
X142975813Y-96094416D01*
X142963320Y-96080459D01*
X142923277Y-96028275D01*
X142087041Y-96864511D01*
X142062022Y-96804110D01*
X141990888Y-96697649D01*
X141900351Y-96607112D01*
X141793890Y-96535978D01*
X141733488Y-96510958D01*
X142569723Y-95674721D01*
X142488172Y-95612145D01*
X142488171Y-95612144D01*
X142283828Y-95494165D01*
X142283819Y-95494160D01*
X142065836Y-95403870D01*
X142065838Y-95403870D01*
X141837914Y-95342799D01*
X141603985Y-95312000D01*
X141368014Y-95312000D01*
X141134085Y-95342799D01*
X140906162Y-95403870D01*
X140688180Y-95494160D01*
X140688171Y-95494165D01*
X140483828Y-95612144D01*
X140483818Y-95612150D01*
X140402275Y-95674720D01*
X140402275Y-95674721D01*
X141238512Y-96510958D01*
X141178110Y-96535978D01*
X141071649Y-96607112D01*
X140981112Y-96697649D01*
X140909978Y-96804110D01*
X140884958Y-96864512D01*
X140048721Y-96028275D01*
X140048720Y-96028275D01*
X139986150Y-96109818D01*
X139986144Y-96109828D01*
X139868165Y-96314171D01*
X139868160Y-96314180D01*
X139777870Y-96532162D01*
X139716799Y-96760085D01*
X139686000Y-96994014D01*
X135408934Y-96994014D01*
X134330481Y-95915561D01*
X134320281Y-95896881D01*
X134306115Y-95880997D01*
X134298944Y-95857806D01*
X134296996Y-95854238D01*
X134295694Y-95847304D01*
X134268477Y-95675466D01*
X134247902Y-95612144D01*
X134239127Y-95585137D01*
X134205220Y-95480781D01*
X134205218Y-95480778D01*
X134205218Y-95480776D01*
X134152436Y-95377187D01*
X134112287Y-95298390D01*
X134104556Y-95287749D01*
X133991971Y-95132786D01*
X133847213Y-94988028D01*
X133681614Y-94867715D01*
X133675006Y-94864348D01*
X133588917Y-94820483D01*
X133538123Y-94772511D01*
X133521328Y-94704690D01*
X133543865Y-94638555D01*
X133588917Y-94599516D01*
X133681610Y-94552287D01*
X133787733Y-94475185D01*
X133847213Y-94431971D01*
X133847215Y-94431968D01*
X133847219Y-94431966D01*
X133991966Y-94287219D01*
X133991968Y-94287215D01*
X133991971Y-94287213D01*
X134079170Y-94167192D01*
X134112287Y-94121610D01*
X134205220Y-93939219D01*
X134268477Y-93744534D01*
X134300500Y-93542352D01*
X134300500Y-93337648D01*
X134268477Y-93135466D01*
X134205220Y-92940781D01*
X134205217Y-92940777D01*
X134205217Y-92940774D01*
X134195201Y-92921117D01*
X134195200Y-92921116D01*
X134185476Y-92902032D01*
X134168580Y-92868872D01*
X160039500Y-92868872D01*
X160039500Y-93131127D01*
X160058383Y-93274548D01*
X160073730Y-93391116D01*
X160138831Y-93634076D01*
X160141602Y-93644418D01*
X160141605Y-93644428D01*
X160241953Y-93886690D01*
X160241958Y-93886700D01*
X160373075Y-94113803D01*
X160532718Y-94321851D01*
X160532726Y-94321860D01*
X160718140Y-94507274D01*
X160718148Y-94507281D01*
X160926196Y-94666924D01*
X161153299Y-94798041D01*
X161153309Y-94798046D01*
X161395571Y-94898394D01*
X161395581Y-94898398D01*
X161648884Y-94966270D01*
X161908880Y-95000500D01*
X161908887Y-95000500D01*
X162171113Y-95000500D01*
X162171120Y-95000500D01*
X162431116Y-94966270D01*
X162684419Y-94898398D01*
X162889615Y-94813403D01*
X162926690Y-94798046D01*
X162926691Y-94798045D01*
X162926697Y-94798043D01*
X163153803Y-94666924D01*
X163361851Y-94507282D01*
X163361855Y-94507277D01*
X163361860Y-94507274D01*
X163547274Y-94321860D01*
X163547277Y-94321855D01*
X163547282Y-94321851D01*
X163706924Y-94113803D01*
X163838043Y-93886697D01*
X163938398Y-93644419D01*
X164006270Y-93391116D01*
X164040500Y-93131120D01*
X164040500Y-92868880D01*
X164006270Y-92608884D01*
X163938398Y-92355581D01*
X163885294Y-92227376D01*
X163838046Y-92113309D01*
X163838041Y-92113299D01*
X163706924Y-91886196D01*
X163547281Y-91678148D01*
X163547274Y-91678140D01*
X163361860Y-91492726D01*
X163361851Y-91492718D01*
X163153803Y-91333075D01*
X162926700Y-91201958D01*
X162926690Y-91201953D01*
X162684428Y-91101605D01*
X162684421Y-91101603D01*
X162684419Y-91101602D01*
X162431116Y-91033730D01*
X162373339Y-91026123D01*
X162171127Y-90999500D01*
X162171120Y-90999500D01*
X161908880Y-90999500D01*
X161908872Y-90999500D01*
X161677772Y-91029926D01*
X161648884Y-91033730D01*
X161395581Y-91101602D01*
X161395571Y-91101605D01*
X161153309Y-91201953D01*
X161153299Y-91201958D01*
X160926196Y-91333075D01*
X160718148Y-91492718D01*
X160532718Y-91678148D01*
X160373075Y-91886196D01*
X160241958Y-92113299D01*
X160241953Y-92113309D01*
X160141605Y-92355571D01*
X160141602Y-92355581D01*
X160078044Y-92592786D01*
X160073730Y-92608885D01*
X160039500Y-92868872D01*
X134168580Y-92868872D01*
X134112287Y-92758390D01*
X134112285Y-92758387D01*
X134112284Y-92758385D01*
X133991971Y-92592786D01*
X133847213Y-92448028D01*
X133681613Y-92327715D01*
X133681612Y-92327714D01*
X133681610Y-92327713D01*
X133596855Y-92284528D01*
X133499223Y-92234781D01*
X133304534Y-92171522D01*
X133129995Y-92143878D01*
X133102352Y-92139500D01*
X132897648Y-92139500D01*
X132873329Y-92143351D01*
X132695465Y-92171522D01*
X132500776Y-92234781D01*
X132318386Y-92327715D01*
X132152786Y-92448028D01*
X132008028Y-92592786D01*
X131887715Y-92758386D01*
X131794781Y-92940776D01*
X131731522Y-93135465D01*
X131699500Y-93337648D01*
X131699500Y-93542351D01*
X131731522Y-93744534D01*
X131794781Y-93939223D01*
X131823042Y-93994687D01*
X131883735Y-94113803D01*
X131887715Y-94121613D01*
X132008028Y-94287213D01*
X132152786Y-94431971D01*
X132256445Y-94507282D01*
X132318390Y-94552287D01*
X132403139Y-94595469D01*
X132411080Y-94599515D01*
X132461876Y-94647490D01*
X132478671Y-94715311D01*
X132456134Y-94781446D01*
X132411080Y-94820485D01*
X132318386Y-94867715D01*
X132152786Y-94988028D01*
X132008028Y-95132786D01*
X131887715Y-95298386D01*
X131794781Y-95480776D01*
X131731522Y-95675465D01*
X131699500Y-95877648D01*
X131699500Y-96082351D01*
X131731522Y-96284534D01*
X131794781Y-96479223D01*
X131887715Y-96661613D01*
X132008028Y-96827213D01*
X132152782Y-96971967D01*
X132152787Y-96971971D01*
X132229583Y-97027767D01*
X132272249Y-97083097D01*
X132278228Y-97152710D01*
X132245622Y-97214505D01*
X132187365Y-97248233D01*
X132166973Y-97253437D01*
X132166962Y-97253441D01*
X132110415Y-97276863D01*
X132870589Y-98037037D01*
X132807007Y-98054075D01*
X132692993Y-98119901D01*
X132599901Y-98212993D01*
X132534075Y-98327007D01*
X132517037Y-98390589D01*
X131756863Y-97630415D01*
X131756862Y-97630415D01*
X131733446Y-97686947D01*
X131733431Y-97686987D01*
X131715457Y-97737939D01*
X131715455Y-97737946D01*
X131695000Y-97880219D01*
X131695000Y-99159785D01*
X131697893Y-99213762D01*
X131697893Y-99213764D01*
X131733438Y-99353030D01*
X131733442Y-99353043D01*
X131756862Y-99409584D01*
X132517037Y-98649410D01*
X132534075Y-98712993D01*
X132599901Y-98827007D01*
X132692993Y-98920099D01*
X132807007Y-98985925D01*
X132870589Y-99002962D01*
X132110414Y-99763135D01*
X132166960Y-99786557D01*
X132166986Y-99786567D01*
X132195621Y-99796669D01*
X132252294Y-99837534D01*
X132277876Y-99902552D01*
X132264246Y-99971080D01*
X132227256Y-100013924D01*
X132152782Y-100068032D01*
X132008028Y-100212786D01*
X131887715Y-100378386D01*
X131794781Y-100560776D01*
X131731522Y-100755465D01*
X131699500Y-100957648D01*
X131699500Y-101162351D01*
X131731522Y-101364534D01*
X131794781Y-101559223D01*
X131887715Y-101741613D01*
X132008028Y-101907213D01*
X132152786Y-102051971D01*
X132307749Y-102164556D01*
X132318390Y-102172287D01*
X132409840Y-102218883D01*
X132411080Y-102219515D01*
X132461876Y-102267490D01*
X132478671Y-102335311D01*
X132456134Y-102401446D01*
X132411080Y-102440485D01*
X132318386Y-102487715D01*
X132152786Y-102608028D01*
X132008032Y-102752782D01*
X132008028Y-102752787D01*
X131974900Y-102798385D01*
X131919571Y-102841051D01*
X131874582Y-102849500D01*
X129962230Y-102849500D01*
X129895191Y-102829815D01*
X129874549Y-102813181D01*
X117773549Y-90712181D01*
X117740064Y-90650858D01*
X117745048Y-90581166D01*
X117786920Y-90525233D01*
X117852384Y-90500816D01*
X117861230Y-90500500D01*
X161974108Y-90500500D01*
X162036249Y-90500500D01*
X162043736Y-90500726D01*
G37*
%TD.AperFunction*%
%TA.AperFunction,Conductor*%
G36*
X139274539Y-127230185D02*
G01*
X139320294Y-127282989D01*
X139331500Y-127334500D01*
X139331500Y-127416846D01*
X139362261Y-127571489D01*
X139362264Y-127571501D01*
X139422602Y-127717172D01*
X139422609Y-127717185D01*
X139510210Y-127848288D01*
X139510213Y-127848292D01*
X139621707Y-127959786D01*
X139621712Y-127959790D01*
X139644223Y-127974831D01*
X139689029Y-128028442D01*
X139697738Y-128097767D01*
X139667584Y-128160795D01*
X139663015Y-128165615D01*
X136356411Y-131472220D01*
X136356409Y-131472222D01*
X136323766Y-131521080D01*
X136323764Y-131521083D01*
X136274283Y-131595135D01*
X136274276Y-131595147D01*
X136217707Y-131731718D01*
X136217704Y-131731728D01*
X136188864Y-131876715D01*
X136188864Y-140881898D01*
X136169179Y-140948937D01*
X136152545Y-140969579D01*
X134609943Y-142512181D01*
X134548620Y-142545666D01*
X134522262Y-142548500D01*
X134229602Y-142548500D01*
X134162563Y-142528815D01*
X134116808Y-142476011D01*
X134106864Y-142406853D01*
X134119117Y-142368205D01*
X134205218Y-142199223D01*
X134205218Y-142199222D01*
X134205220Y-142199219D01*
X134268477Y-142004534D01*
X134300500Y-141802352D01*
X134300500Y-141597648D01*
X134274791Y-141435331D01*
X134268477Y-141395465D01*
X134205218Y-141200776D01*
X134171503Y-141134607D01*
X134112287Y-141018390D01*
X134061827Y-140948937D01*
X133991971Y-140852786D01*
X133847213Y-140708028D01*
X133681614Y-140587715D01*
X133675006Y-140584348D01*
X133588917Y-140540483D01*
X133538123Y-140492511D01*
X133521328Y-140424690D01*
X133543865Y-140358555D01*
X133588917Y-140319516D01*
X133681610Y-140272287D01*
X133702770Y-140256913D01*
X133847213Y-140151971D01*
X133847215Y-140151968D01*
X133847219Y-140151966D01*
X133991966Y-140007219D01*
X133991968Y-140007215D01*
X133991971Y-140007213D01*
X134106263Y-139849901D01*
X134112287Y-139841610D01*
X134205220Y-139659219D01*
X134268477Y-139464534D01*
X134300500Y-139262352D01*
X134300500Y-139057648D01*
X134292997Y-139010275D01*
X134268477Y-138855465D01*
X134216880Y-138696668D01*
X134205220Y-138660781D01*
X134205218Y-138660778D01*
X134205218Y-138660776D01*
X134171267Y-138594144D01*
X134112287Y-138478390D01*
X134089307Y-138446760D01*
X133991971Y-138312786D01*
X133847213Y-138168028D01*
X133681614Y-138047715D01*
X133596674Y-138004436D01*
X133595703Y-138003941D01*
X133544908Y-137955968D01*
X133528113Y-137888147D01*
X133550650Y-137822012D01*
X133593546Y-137784099D01*
X133659503Y-137748843D01*
X133659515Y-137748837D01*
X133728913Y-137702465D01*
X133129410Y-137102962D01*
X133192993Y-137085925D01*
X133307007Y-137020099D01*
X133400099Y-136927007D01*
X133465925Y-136812993D01*
X133482962Y-136749410D01*
X134082465Y-137348913D01*
X134128837Y-137279515D01*
X134128838Y-137279511D01*
X134175509Y-137192198D01*
X134235814Y-137046612D01*
X134264555Y-136951864D01*
X134295298Y-136797302D01*
X134295298Y-136797299D01*
X134305000Y-136698789D01*
X134305000Y-136541210D01*
X134295298Y-136442700D01*
X134295298Y-136442697D01*
X134264555Y-136288135D01*
X134235814Y-136193387D01*
X134175509Y-136047801D01*
X134128844Y-135960498D01*
X134128838Y-135960488D01*
X134082465Y-135891085D01*
X133482962Y-136490588D01*
X133465925Y-136427007D01*
X133400099Y-136312993D01*
X133307007Y-136219901D01*
X133192993Y-136154075D01*
X133129410Y-136137037D01*
X133728912Y-135537534D01*
X133659511Y-135491161D01*
X133659500Y-135491155D01*
X133593545Y-135455900D01*
X133543701Y-135406937D01*
X133528241Y-135338799D01*
X133552073Y-135273119D01*
X133595702Y-135236059D01*
X133681610Y-135192287D01*
X133758950Y-135136097D01*
X133847213Y-135071971D01*
X133847215Y-135071968D01*
X133847219Y-135071966D01*
X133991966Y-134927219D01*
X133991968Y-134927215D01*
X133991971Y-134927213D01*
X134062236Y-134830500D01*
X134112287Y-134761610D01*
X134205220Y-134579219D01*
X134268477Y-134384534D01*
X134300500Y-134182352D01*
X134300500Y-133977648D01*
X134268477Y-133775466D01*
X134256177Y-133737612D01*
X134217144Y-133617479D01*
X134205220Y-133580781D01*
X134205218Y-133580778D01*
X134205218Y-133580776D01*
X134157924Y-133487957D01*
X134112287Y-133398390D01*
X134070778Y-133341257D01*
X133991971Y-133232786D01*
X133847213Y-133088028D01*
X133681614Y-132967715D01*
X133675006Y-132964348D01*
X133588917Y-132920483D01*
X133538123Y-132872511D01*
X133521328Y-132804690D01*
X133543865Y-132738555D01*
X133588917Y-132699516D01*
X133681610Y-132652287D01*
X133749337Y-132603081D01*
X133847213Y-132531971D01*
X133847215Y-132531968D01*
X133847219Y-132531966D01*
X133991966Y-132387219D01*
X133991968Y-132387215D01*
X133991971Y-132387213D01*
X134062236Y-132290500D01*
X134112287Y-132221610D01*
X134205220Y-132039219D01*
X134268477Y-131844534D01*
X134300500Y-131642352D01*
X134300500Y-131437648D01*
X134294854Y-131402000D01*
X134268477Y-131235465D01*
X134205218Y-131040776D01*
X134171503Y-130974607D01*
X134112287Y-130858390D01*
X134062236Y-130789500D01*
X133991971Y-130692786D01*
X133847213Y-130548028D01*
X133681614Y-130427715D01*
X133624170Y-130398446D01*
X133588917Y-130380483D01*
X133538123Y-130332511D01*
X133521328Y-130264690D01*
X133543865Y-130198555D01*
X133588917Y-130159516D01*
X133681610Y-130112287D01*
X133833611Y-130001853D01*
X133847213Y-129991971D01*
X133847215Y-129991968D01*
X133847219Y-129991966D01*
X133991966Y-129847219D01*
X133991968Y-129847215D01*
X133991971Y-129847213D01*
X134057008Y-129757695D01*
X134112287Y-129681610D01*
X134205220Y-129499219D01*
X134268477Y-129304534D01*
X134300500Y-129102352D01*
X134300500Y-128897648D01*
X134268477Y-128695466D01*
X134205220Y-128500781D01*
X134205218Y-128500778D01*
X134205218Y-128500776D01*
X134171503Y-128434607D01*
X134112287Y-128318390D01*
X134104556Y-128307749D01*
X133991971Y-128152786D01*
X133847213Y-128008028D01*
X133681614Y-127887715D01*
X133675006Y-127884348D01*
X133588917Y-127840483D01*
X133538123Y-127792511D01*
X133521328Y-127724690D01*
X133543865Y-127658555D01*
X133588917Y-127619516D01*
X133681610Y-127572287D01*
X133794166Y-127490511D01*
X133847213Y-127451971D01*
X133847215Y-127451968D01*
X133847219Y-127451966D01*
X133991966Y-127307219D01*
X134009570Y-127282989D01*
X134025100Y-127261615D01*
X134080429Y-127218949D01*
X134125418Y-127210500D01*
X139207500Y-127210500D01*
X139274539Y-127230185D01*
G37*
%TD.AperFunction*%
%TA.AperFunction,Conductor*%
G36*
X132534075Y-136812993D02*
G01*
X132599901Y-136927007D01*
X132692993Y-137020099D01*
X132807007Y-137085925D01*
X132870589Y-137102962D01*
X132110414Y-137863135D01*
X132166960Y-137886557D01*
X132166986Y-137886567D01*
X132195621Y-137896669D01*
X132252294Y-137937534D01*
X132277876Y-138002552D01*
X132264246Y-138071080D01*
X132227256Y-138113924D01*
X132152782Y-138168032D01*
X132008028Y-138312786D01*
X131887715Y-138478386D01*
X131794781Y-138660776D01*
X131731522Y-138855465D01*
X131699500Y-139057648D01*
X131699500Y-139262351D01*
X131731522Y-139464534D01*
X131794781Y-139659223D01*
X131887715Y-139841613D01*
X132008028Y-140007213D01*
X132152786Y-140151971D01*
X132298907Y-140258132D01*
X132318390Y-140272287D01*
X132409840Y-140318883D01*
X132411080Y-140319515D01*
X132461876Y-140367490D01*
X132478671Y-140435311D01*
X132456134Y-140501446D01*
X132411080Y-140540485D01*
X132318386Y-140587715D01*
X132152786Y-140708028D01*
X132008028Y-140852786D01*
X131887715Y-141018386D01*
X131794781Y-141200776D01*
X131731522Y-141395465D01*
X131730853Y-141399693D01*
X131700919Y-141462826D01*
X131641605Y-141499753D01*
X131571743Y-141498751D01*
X131520700Y-141467968D01*
X131487819Y-141435087D01*
X131454334Y-141373764D01*
X131451500Y-141347406D01*
X131451500Y-137333696D01*
X131471185Y-137266657D01*
X131523989Y-137220902D01*
X131593147Y-137210958D01*
X131656703Y-137239983D01*
X131694477Y-137298761D01*
X131697255Y-137311264D01*
X131733438Y-137453030D01*
X131733442Y-137453043D01*
X131756862Y-137509584D01*
X132517037Y-136749410D01*
X132534075Y-136812993D01*
G37*
%TD.AperFunction*%
%TA.AperFunction,Conductor*%
G36*
X116704809Y-91770185D02*
G01*
X116725451Y-91786819D01*
X129121586Y-104182954D01*
X129151058Y-104202645D01*
X129195270Y-104232186D01*
X129244505Y-104265084D01*
X129244506Y-104265084D01*
X129244507Y-104265085D01*
X129244509Y-104265086D01*
X129381082Y-104321656D01*
X129381087Y-104321658D01*
X129381091Y-104321658D01*
X129381092Y-104321659D01*
X129526079Y-104350500D01*
X129526082Y-104350500D01*
X129526083Y-104350500D01*
X129673917Y-104350500D01*
X131874582Y-104350500D01*
X131941621Y-104370185D01*
X131974900Y-104401615D01*
X132008028Y-104447212D01*
X132008032Y-104447217D01*
X132152786Y-104591971D01*
X132253421Y-104665085D01*
X132318390Y-104712287D01*
X132393387Y-104750500D01*
X132411080Y-104759515D01*
X132461876Y-104807490D01*
X132478671Y-104875311D01*
X132456134Y-104941446D01*
X132411080Y-104980485D01*
X132318386Y-105027715D01*
X132152786Y-105148028D01*
X132008028Y-105292786D01*
X131887715Y-105458386D01*
X131794781Y-105640776D01*
X131731522Y-105835465D01*
X131699500Y-106037648D01*
X131699500Y-106242351D01*
X131731522Y-106444534D01*
X131794781Y-106639223D01*
X131857686Y-106762678D01*
X131886207Y-106818655D01*
X131887715Y-106821613D01*
X132008028Y-106987213D01*
X132152786Y-107131971D01*
X132307749Y-107244556D01*
X132318390Y-107252287D01*
X132409840Y-107298883D01*
X132411080Y-107299515D01*
X132461876Y-107347490D01*
X132478671Y-107415311D01*
X132456134Y-107481446D01*
X132411080Y-107520485D01*
X132318386Y-107567715D01*
X132152786Y-107688028D01*
X132008028Y-107832786D01*
X131887715Y-107998386D01*
X131794781Y-108180776D01*
X131731522Y-108375465D01*
X131699500Y-108577648D01*
X131699500Y-108782351D01*
X131708318Y-108838026D01*
X131699363Y-108907320D01*
X131673526Y-108945105D01*
X128015045Y-112603586D01*
X127985565Y-112647710D01*
X127985563Y-112647713D01*
X127932919Y-112726498D01*
X127932912Y-112726511D01*
X127876343Y-112863082D01*
X127876340Y-112863092D01*
X127847500Y-113008079D01*
X127847500Y-137726770D01*
X127827815Y-137793809D01*
X127775011Y-137839564D01*
X127705853Y-137849508D01*
X127642297Y-137820483D01*
X127635819Y-137814451D01*
X116546473Y-126725106D01*
X116512988Y-126663783D01*
X116511681Y-126618028D01*
X116520500Y-126562352D01*
X116520500Y-126357648D01*
X116488477Y-126155466D01*
X116425220Y-125960781D01*
X116425218Y-125960778D01*
X116425218Y-125960776D01*
X116391503Y-125894607D01*
X116332287Y-125778390D01*
X116282236Y-125709500D01*
X116211971Y-125612786D01*
X116067217Y-125468032D01*
X115990415Y-125412232D01*
X115947750Y-125356902D01*
X115941771Y-125287288D01*
X115974377Y-125225494D01*
X116032640Y-125191765D01*
X116053039Y-125186559D01*
X116109584Y-125163136D01*
X116109584Y-125163135D01*
X115349410Y-124402962D01*
X115412993Y-124385925D01*
X115527007Y-124320099D01*
X115620099Y-124227007D01*
X115685925Y-124112993D01*
X115702962Y-124049411D01*
X116463135Y-124809584D01*
X116463136Y-124809584D01*
X116486552Y-124753053D01*
X116504544Y-124702053D01*
X116524999Y-124559780D01*
X116525000Y-124559779D01*
X116525000Y-123280214D01*
X116522106Y-123226237D01*
X116522106Y-123226235D01*
X116486561Y-123086969D01*
X116486559Y-123086962D01*
X116463135Y-123030414D01*
X115702962Y-123790588D01*
X115685925Y-123727007D01*
X115620099Y-123612993D01*
X115527007Y-123519901D01*
X115412993Y-123454075D01*
X115349410Y-123437037D01*
X116109584Y-122676862D01*
X116053059Y-122653449D01*
X116053048Y-122653445D01*
X116024374Y-122643329D01*
X115967703Y-122602462D01*
X115942122Y-122537443D01*
X115955754Y-122468916D01*
X115992745Y-122426074D01*
X116067215Y-122371969D01*
X116067215Y-122371968D01*
X116067219Y-122371966D01*
X116211966Y-122227219D01*
X116211968Y-122227215D01*
X116211971Y-122227213D01*
X116282236Y-122130500D01*
X116332287Y-122061610D01*
X116425220Y-121879219D01*
X116488477Y-121684534D01*
X116520500Y-121482352D01*
X116520500Y-121277648D01*
X116499504Y-121145084D01*
X116488477Y-121075465D01*
X116425218Y-120880776D01*
X116354905Y-120742781D01*
X116332287Y-120698390D01*
X116324556Y-120687749D01*
X116211971Y-120532786D01*
X116067213Y-120388028D01*
X115901614Y-120267715D01*
X115866901Y-120250028D01*
X115808917Y-120220483D01*
X115758123Y-120172511D01*
X115741328Y-120104690D01*
X115763865Y-120038555D01*
X115808917Y-119999516D01*
X115901610Y-119952287D01*
X115922770Y-119936913D01*
X116067213Y-119831971D01*
X116067215Y-119831968D01*
X116067219Y-119831966D01*
X116211966Y-119687219D01*
X116211968Y-119687215D01*
X116211971Y-119687213D01*
X116264732Y-119614590D01*
X116332287Y-119521610D01*
X116425220Y-119339219D01*
X116488477Y-119144534D01*
X116520500Y-118942352D01*
X116520500Y-118737648D01*
X116494066Y-118570754D01*
X116488477Y-118535465D01*
X116441816Y-118391859D01*
X116425220Y-118340781D01*
X116425218Y-118340778D01*
X116425218Y-118340776D01*
X116354905Y-118202781D01*
X116332287Y-118158390D01*
X116309636Y-118127213D01*
X116211971Y-117992786D01*
X116067213Y-117848028D01*
X115901614Y-117727715D01*
X115866901Y-117710028D01*
X115808917Y-117680483D01*
X115758123Y-117632511D01*
X115741328Y-117564690D01*
X115763865Y-117498555D01*
X115808917Y-117459516D01*
X115901610Y-117412287D01*
X115942814Y-117382351D01*
X116067213Y-117291971D01*
X116067215Y-117291968D01*
X116067219Y-117291966D01*
X116211966Y-117147219D01*
X116211968Y-117147215D01*
X116211971Y-117147213D01*
X116264732Y-117074590D01*
X116332287Y-116981610D01*
X116425220Y-116799219D01*
X116488477Y-116604534D01*
X116520500Y-116402352D01*
X116520500Y-116197648D01*
X116498638Y-116059616D01*
X116488477Y-115995465D01*
X116443638Y-115857465D01*
X116425220Y-115800781D01*
X116425218Y-115800778D01*
X116425218Y-115800776D01*
X116377294Y-115706722D01*
X116332287Y-115618390D01*
X116307004Y-115583591D01*
X116211971Y-115452786D01*
X116067213Y-115308028D01*
X115901614Y-115187715D01*
X115848170Y-115160484D01*
X115808917Y-115140483D01*
X115758123Y-115092511D01*
X115741328Y-115024690D01*
X115763865Y-114958555D01*
X115808917Y-114919516D01*
X115901610Y-114872287D01*
X115922770Y-114856913D01*
X116067213Y-114751971D01*
X116067215Y-114751968D01*
X116067219Y-114751966D01*
X116211966Y-114607219D01*
X116211968Y-114607215D01*
X116211971Y-114607213D01*
X116264732Y-114534590D01*
X116332287Y-114441610D01*
X116425220Y-114259219D01*
X116488477Y-114064534D01*
X116520500Y-113862352D01*
X116520500Y-113657648D01*
X116488477Y-113455466D01*
X116425220Y-113260781D01*
X116425218Y-113260778D01*
X116425218Y-113260776D01*
X116354905Y-113122781D01*
X116332287Y-113078390D01*
X116281206Y-113008082D01*
X116211971Y-112912786D01*
X116067217Y-112768032D01*
X115990415Y-112712232D01*
X115947750Y-112656902D01*
X115941771Y-112587288D01*
X115974377Y-112525494D01*
X116032640Y-112491765D01*
X116053039Y-112486559D01*
X116109584Y-112463136D01*
X116109584Y-112463135D01*
X115349410Y-111702962D01*
X115412993Y-111685925D01*
X115527007Y-111620099D01*
X115620099Y-111527007D01*
X115685925Y-111412993D01*
X115702962Y-111349411D01*
X116463135Y-112109584D01*
X116463136Y-112109584D01*
X116486552Y-112053053D01*
X116504544Y-112002053D01*
X116524999Y-111859780D01*
X116525000Y-111859779D01*
X116525000Y-110580214D01*
X116522106Y-110526237D01*
X116522106Y-110526235D01*
X116486561Y-110386969D01*
X116486559Y-110386962D01*
X116463135Y-110330414D01*
X115702962Y-111090588D01*
X115685925Y-111027007D01*
X115620099Y-110912993D01*
X115527007Y-110819901D01*
X115412993Y-110754075D01*
X115349410Y-110737037D01*
X116109584Y-109976862D01*
X116053059Y-109953449D01*
X116053048Y-109953445D01*
X116024374Y-109943329D01*
X115967703Y-109902462D01*
X115942122Y-109837443D01*
X115955754Y-109768916D01*
X115992745Y-109726074D01*
X116067215Y-109671969D01*
X116067215Y-109671968D01*
X116067219Y-109671966D01*
X116211966Y-109527219D01*
X116211968Y-109527215D01*
X116211971Y-109527213D01*
X116264732Y-109454590D01*
X116332287Y-109361610D01*
X116425220Y-109179219D01*
X116488477Y-108984534D01*
X116520500Y-108782352D01*
X116520500Y-108577648D01*
X116488477Y-108375466D01*
X116472150Y-108325218D01*
X116425218Y-108180776D01*
X116390157Y-108111966D01*
X116332287Y-107998390D01*
X116309636Y-107967213D01*
X116211971Y-107832786D01*
X116067213Y-107688028D01*
X115901614Y-107567715D01*
X115895006Y-107564348D01*
X115808917Y-107520483D01*
X115758123Y-107472511D01*
X115741328Y-107404690D01*
X115763865Y-107338555D01*
X115808917Y-107299516D01*
X115901610Y-107252287D01*
X115942814Y-107222351D01*
X116067213Y-107131971D01*
X116067215Y-107131968D01*
X116067219Y-107131966D01*
X116211966Y-106987219D01*
X116211968Y-106987215D01*
X116211971Y-106987213D01*
X116264732Y-106914590D01*
X116332287Y-106821610D01*
X116425220Y-106639219D01*
X116488477Y-106444534D01*
X116520500Y-106242352D01*
X116520500Y-106037648D01*
X116488477Y-105835466D01*
X116425220Y-105640781D01*
X116425218Y-105640778D01*
X116425218Y-105640776D01*
X116375041Y-105542300D01*
X116332287Y-105458390D01*
X116302988Y-105418063D01*
X116211971Y-105292786D01*
X116067213Y-105148028D01*
X115901614Y-105027715D01*
X115847997Y-105000396D01*
X115808917Y-104980483D01*
X115758123Y-104932511D01*
X115741328Y-104864690D01*
X115763865Y-104798555D01*
X115808917Y-104759516D01*
X115901610Y-104712287D01*
X115966580Y-104665084D01*
X116067213Y-104591971D01*
X116067215Y-104591968D01*
X116067219Y-104591966D01*
X116211966Y-104447219D01*
X116211968Y-104447215D01*
X116211971Y-104447213D01*
X116282236Y-104350500D01*
X116332287Y-104281610D01*
X116425220Y-104099219D01*
X116488477Y-103904534D01*
X116520500Y-103702352D01*
X116520500Y-103497648D01*
X116488477Y-103295466D01*
X116471223Y-103242365D01*
X116425218Y-103100776D01*
X116373869Y-103000000D01*
X116332287Y-102918390D01*
X116282236Y-102849500D01*
X116211971Y-102752786D01*
X116067213Y-102608028D01*
X115901614Y-102487715D01*
X115895006Y-102484348D01*
X115808917Y-102440483D01*
X115758123Y-102392511D01*
X115741328Y-102324690D01*
X115763865Y-102258555D01*
X115808917Y-102219516D01*
X115901610Y-102172287D01*
X116019534Y-102086611D01*
X116067213Y-102051971D01*
X116067215Y-102051968D01*
X116067219Y-102051966D01*
X116211966Y-101907219D01*
X116211968Y-101907215D01*
X116211971Y-101907213D01*
X116264732Y-101834590D01*
X116332287Y-101741610D01*
X116425220Y-101559219D01*
X116488477Y-101364534D01*
X116520500Y-101162352D01*
X116520500Y-100957648D01*
X116488477Y-100755466D01*
X116475849Y-100716602D01*
X116425218Y-100560776D01*
X116354637Y-100422255D01*
X116332287Y-100378390D01*
X116311257Y-100349444D01*
X116211971Y-100212786D01*
X116067217Y-100068032D01*
X115990415Y-100012232D01*
X115947750Y-99956902D01*
X115941771Y-99887288D01*
X115974377Y-99825494D01*
X116032640Y-99791765D01*
X116053039Y-99786559D01*
X116109584Y-99763136D01*
X116109584Y-99763135D01*
X115349410Y-99002962D01*
X115412993Y-98985925D01*
X115527007Y-98920099D01*
X115620099Y-98827007D01*
X115685925Y-98712993D01*
X115702962Y-98649411D01*
X116463135Y-99409584D01*
X116463136Y-99409584D01*
X116486552Y-99353053D01*
X116504544Y-99302053D01*
X116524999Y-99159780D01*
X116525000Y-99159779D01*
X116525000Y-97880214D01*
X116522106Y-97826237D01*
X116522106Y-97826235D01*
X116486561Y-97686969D01*
X116486559Y-97686962D01*
X116463135Y-97630414D01*
X115702962Y-98390588D01*
X115685925Y-98327007D01*
X115620099Y-98212993D01*
X115527007Y-98119901D01*
X115412993Y-98054075D01*
X115349410Y-98037037D01*
X116109584Y-97276862D01*
X116053059Y-97253449D01*
X116053048Y-97253445D01*
X116024374Y-97243329D01*
X115967703Y-97202462D01*
X115942122Y-97137443D01*
X115955754Y-97068916D01*
X115992745Y-97026074D01*
X116067215Y-96971969D01*
X116067215Y-96971968D01*
X116067219Y-96971966D01*
X116211966Y-96827219D01*
X116211968Y-96827215D01*
X116211971Y-96827213D01*
X116306103Y-96697649D01*
X116332287Y-96661610D01*
X116425220Y-96479219D01*
X116488477Y-96284534D01*
X116520500Y-96082352D01*
X116520500Y-95877648D01*
X116496394Y-95725450D01*
X116488477Y-95675465D01*
X116459127Y-95585137D01*
X116425220Y-95480781D01*
X116425218Y-95480778D01*
X116425218Y-95480776D01*
X116372436Y-95377187D01*
X116332287Y-95298390D01*
X116324556Y-95287749D01*
X116211971Y-95132786D01*
X116067217Y-94988032D01*
X116067212Y-94988028D01*
X115986440Y-94929344D01*
X115943774Y-94874015D01*
X115937795Y-94804401D01*
X115970400Y-94742606D01*
X116022433Y-94710641D01*
X116109606Y-94683478D01*
X116255185Y-94595472D01*
X116375472Y-94475185D01*
X116463478Y-94329606D01*
X116514086Y-94167196D01*
X116520500Y-94096616D01*
X116520500Y-92783384D01*
X116514086Y-92712804D01*
X116463478Y-92550394D01*
X116375472Y-92404815D01*
X116375470Y-92404813D01*
X116375469Y-92404811D01*
X116255188Y-92284530D01*
X116160644Y-92227376D01*
X116109606Y-92196522D01*
X115947196Y-92145914D01*
X115947194Y-92145913D01*
X115947192Y-92145913D01*
X115897778Y-92141423D01*
X115876616Y-92139500D01*
X114563384Y-92139500D01*
X114544145Y-92141248D01*
X114492807Y-92145913D01*
X114330393Y-92196522D01*
X114184811Y-92284530D01*
X114064530Y-92404811D01*
X113976522Y-92550393D01*
X113925913Y-92712807D01*
X113919500Y-92783386D01*
X113919500Y-94096613D01*
X113925913Y-94167192D01*
X113925913Y-94167194D01*
X113925914Y-94167196D01*
X113974108Y-94321860D01*
X113976522Y-94329606D01*
X114064530Y-94475188D01*
X114184811Y-94595469D01*
X114184813Y-94595470D01*
X114184815Y-94595472D01*
X114330394Y-94683478D01*
X114417566Y-94710641D01*
X114475712Y-94749378D01*
X114503686Y-94813403D01*
X114492605Y-94882388D01*
X114453560Y-94929344D01*
X114372782Y-94988032D01*
X114228028Y-95132786D01*
X114107715Y-95298386D01*
X114014781Y-95480776D01*
X113951522Y-95675465D01*
X113919500Y-95877648D01*
X113919500Y-96082351D01*
X113951522Y-96284534D01*
X114014781Y-96479223D01*
X114107715Y-96661613D01*
X114228028Y-96827213D01*
X114372786Y-96971971D01*
X114538388Y-97092286D01*
X114538390Y-97092287D01*
X114624294Y-97136057D01*
X114675090Y-97184031D01*
X114691886Y-97251852D01*
X114669349Y-97317987D01*
X114626455Y-97355899D01*
X114560497Y-97391155D01*
X114491086Y-97437534D01*
X114491085Y-97437534D01*
X115090589Y-98037037D01*
X115027007Y-98054075D01*
X114912993Y-98119901D01*
X114819901Y-98212993D01*
X114754075Y-98327007D01*
X114737037Y-98390588D01*
X114137534Y-97791085D01*
X114137534Y-97791086D01*
X114091158Y-97860493D01*
X114044490Y-97947801D01*
X113984185Y-98093387D01*
X113955444Y-98188135D01*
X113924701Y-98342697D01*
X113924701Y-98342700D01*
X113915000Y-98441210D01*
X113915000Y-98598789D01*
X113924701Y-98697299D01*
X113924701Y-98697302D01*
X113955444Y-98851864D01*
X113984185Y-98946612D01*
X114044490Y-99092198D01*
X114091155Y-99179501D01*
X114091161Y-99179511D01*
X114137534Y-99248912D01*
X114737037Y-98649410D01*
X114754075Y-98712993D01*
X114819901Y-98827007D01*
X114912993Y-98920099D01*
X115027007Y-98985925D01*
X115090589Y-99002962D01*
X114491085Y-99602465D01*
X114560488Y-99648838D01*
X114560498Y-99648844D01*
X114626454Y-99684099D01*
X114676298Y-99733062D01*
X114691758Y-99801200D01*
X114667926Y-99866879D01*
X114624295Y-99903942D01*
X114538386Y-99947715D01*
X114372786Y-100068028D01*
X114228028Y-100212786D01*
X114107715Y-100378386D01*
X114014781Y-100560776D01*
X113951522Y-100755465D01*
X113919500Y-100957648D01*
X113919500Y-101162351D01*
X113928318Y-101218025D01*
X113919364Y-101287318D01*
X113893526Y-101325104D01*
X112005451Y-103213181D01*
X111944128Y-103246666D01*
X111917770Y-103249500D01*
X107132204Y-103249500D01*
X107107908Y-103242365D01*
X107082778Y-103239224D01*
X107071833Y-103231772D01*
X107065165Y-103229815D01*
X107052741Y-103220692D01*
X107048462Y-103217120D01*
X106991928Y-103160586D01*
X106905606Y-103097869D01*
X106902399Y-103095192D01*
X106885200Y-103069484D01*
X106866311Y-103044988D01*
X106865942Y-103040699D01*
X106863548Y-103037120D01*
X106862978Y-103006188D01*
X106860332Y-102975374D01*
X106862341Y-102971566D01*
X106862262Y-102967262D01*
X106878502Y-102940937D01*
X106892938Y-102913579D01*
X106898185Y-102909031D01*
X106898947Y-102907798D01*
X106900429Y-102907087D01*
X106908976Y-102899682D01*
X106991928Y-102839414D01*
X107114414Y-102716928D01*
X107216232Y-102576788D01*
X107294873Y-102422445D01*
X107348402Y-102257701D01*
X107375500Y-102086611D01*
X107375500Y-101913389D01*
X107354274Y-101779376D01*
X107363228Y-101710086D01*
X107389063Y-101672303D01*
X112582951Y-96478416D01*
X112665084Y-96355495D01*
X112721658Y-96218913D01*
X112746423Y-96094416D01*
X112750500Y-96073920D01*
X112750500Y-93362229D01*
X112770185Y-93295190D01*
X112786819Y-93274548D01*
X114274548Y-91786819D01*
X114335871Y-91753334D01*
X114362229Y-91750500D01*
X116637770Y-91750500D01*
X116704809Y-91770185D01*
G37*
%TD.AperFunction*%
%TA.AperFunction,Conductor*%
G36*
X131620081Y-134083800D02*
G01*
X131676014Y-134125672D01*
X131699220Y-134180584D01*
X131731522Y-134384534D01*
X131794781Y-134579223D01*
X131887715Y-134761613D01*
X132008028Y-134927213D01*
X132152782Y-135071967D01*
X132152787Y-135071971D01*
X132229583Y-135127767D01*
X132272249Y-135183097D01*
X132278228Y-135252710D01*
X132245622Y-135314505D01*
X132187365Y-135348233D01*
X132166973Y-135353437D01*
X132166962Y-135353441D01*
X132110415Y-135376863D01*
X132870589Y-136137037D01*
X132807007Y-136154075D01*
X132692993Y-136219901D01*
X132599901Y-136312993D01*
X132534075Y-136427007D01*
X132517037Y-136490589D01*
X131756863Y-135730415D01*
X131756862Y-135730415D01*
X131733446Y-135786947D01*
X131733431Y-135786987D01*
X131715457Y-135837939D01*
X131715455Y-135837946D01*
X131698238Y-135957699D01*
X131669213Y-136021255D01*
X131610435Y-136059029D01*
X131540565Y-136059029D01*
X131481787Y-136021255D01*
X131452762Y-135957699D01*
X131451500Y-135940052D01*
X131451500Y-134201229D01*
X131460144Y-134171788D01*
X131466668Y-134141802D01*
X131470422Y-134136786D01*
X131471185Y-134134190D01*
X131487815Y-134113552D01*
X131489067Y-134112299D01*
X131550389Y-134078816D01*
X131620081Y-134083800D01*
G37*
%TD.AperFunction*%
%TA.AperFunction,Conductor*%
G36*
X131597135Y-118842158D02*
G01*
X131620080Y-118843799D01*
X131630160Y-118851344D01*
X131642290Y-118854719D01*
X131657598Y-118871884D01*
X131676014Y-118885670D01*
X131681526Y-118898715D01*
X131688794Y-118906864D01*
X131699220Y-118940583D01*
X131731522Y-119144534D01*
X131794781Y-119339223D01*
X131839917Y-119427806D01*
X131885781Y-119517819D01*
X131887715Y-119521613D01*
X132008028Y-119687213D01*
X132152786Y-119831971D01*
X132307749Y-119944556D01*
X132318390Y-119952287D01*
X132409840Y-119998883D01*
X132411080Y-119999515D01*
X132461876Y-120047490D01*
X132478671Y-120115311D01*
X132456134Y-120181446D01*
X132411080Y-120220485D01*
X132318386Y-120267715D01*
X132152786Y-120388028D01*
X132008028Y-120532786D01*
X131887715Y-120698386D01*
X131794781Y-120880776D01*
X131731522Y-121075465D01*
X131699500Y-121277648D01*
X131699500Y-121482351D01*
X131731522Y-121684534D01*
X131794781Y-121879223D01*
X131887715Y-122061613D01*
X132008028Y-122227213D01*
X132152782Y-122371967D01*
X132152787Y-122371971D01*
X132229583Y-122427767D01*
X132272249Y-122483097D01*
X132278228Y-122552710D01*
X132245622Y-122614505D01*
X132187365Y-122648233D01*
X132166973Y-122653437D01*
X132166962Y-122653441D01*
X132110415Y-122676863D01*
X132870589Y-123437037D01*
X132807007Y-123454075D01*
X132692993Y-123519901D01*
X132599901Y-123612993D01*
X132534075Y-123727007D01*
X132517037Y-123790589D01*
X131756863Y-123030415D01*
X131756862Y-123030415D01*
X131733446Y-123086947D01*
X131733431Y-123086987D01*
X131715457Y-123137939D01*
X131715455Y-123137946D01*
X131695000Y-123280219D01*
X131695000Y-124559785D01*
X131697893Y-124613762D01*
X131697893Y-124613764D01*
X131733438Y-124753030D01*
X131733442Y-124753043D01*
X131756862Y-124809584D01*
X132517037Y-124049410D01*
X132534075Y-124112993D01*
X132599901Y-124227007D01*
X132692993Y-124320099D01*
X132807007Y-124385925D01*
X132870589Y-124402962D01*
X132110414Y-125163135D01*
X132166960Y-125186557D01*
X132166986Y-125186567D01*
X132195621Y-125196669D01*
X132252294Y-125237534D01*
X132277876Y-125302552D01*
X132264246Y-125371080D01*
X132227256Y-125413924D01*
X132152782Y-125468032D01*
X132008028Y-125612786D01*
X131887715Y-125778386D01*
X131794781Y-125960776D01*
X131731522Y-126155465D01*
X131699500Y-126357648D01*
X131699500Y-126562351D01*
X131731522Y-126764534D01*
X131794781Y-126959223D01*
X131817265Y-127003349D01*
X131859819Y-127086866D01*
X131887715Y-127141613D01*
X132008028Y-127307213D01*
X132152786Y-127451971D01*
X132255721Y-127526756D01*
X132318390Y-127572287D01*
X132409840Y-127618883D01*
X132411080Y-127619515D01*
X132461876Y-127667490D01*
X132478671Y-127735311D01*
X132456134Y-127801446D01*
X132411080Y-127840485D01*
X132318386Y-127887715D01*
X132152786Y-128008028D01*
X132008028Y-128152786D01*
X131887715Y-128318386D01*
X131794781Y-128500776D01*
X131731522Y-128695465D01*
X131699500Y-128897648D01*
X131699500Y-129102351D01*
X131731522Y-129304534D01*
X131794781Y-129499223D01*
X131858691Y-129624653D01*
X131880918Y-129668275D01*
X131887715Y-129681613D01*
X132008028Y-129847213D01*
X132152786Y-129991971D01*
X132304231Y-130102000D01*
X132318390Y-130112287D01*
X132379649Y-130143500D01*
X132411080Y-130159515D01*
X132461876Y-130207490D01*
X132478671Y-130275311D01*
X132456134Y-130341446D01*
X132411080Y-130380485D01*
X132318386Y-130427715D01*
X132152786Y-130548028D01*
X132008028Y-130692786D01*
X131887715Y-130858386D01*
X131794781Y-131040776D01*
X131731522Y-131235465D01*
X131699500Y-131437648D01*
X131699500Y-131642351D01*
X131708318Y-131698025D01*
X131699364Y-131767318D01*
X131673526Y-131805104D01*
X130962181Y-132516450D01*
X130900858Y-132549935D01*
X130831167Y-132544951D01*
X130775233Y-132503080D01*
X130750816Y-132437615D01*
X130750500Y-132428769D01*
X130750500Y-119662229D01*
X130770185Y-119595190D01*
X130786819Y-119574548D01*
X131077449Y-119283918D01*
X131489068Y-118872298D01*
X131500117Y-118866265D01*
X131508225Y-118856634D01*
X131530199Y-118849839D01*
X131550389Y-118838815D01*
X131562947Y-118839713D01*
X131574976Y-118835994D01*
X131597135Y-118842158D01*
G37*
%TD.AperFunction*%
%TA.AperFunction,Conductor*%
G36*
X99745703Y-124526887D02*
G01*
X99764819Y-124547716D01*
X99824030Y-124629215D01*
X99968786Y-124773971D01*
X100134385Y-124894284D01*
X100134387Y-124894285D01*
X100134390Y-124894287D01*
X100227628Y-124941794D01*
X100278424Y-124989769D01*
X100295219Y-125057590D01*
X100272682Y-125123724D01*
X100227627Y-125162764D01*
X100216160Y-125168606D01*
X100216159Y-125168607D01*
X100886589Y-125839037D01*
X100823007Y-125856075D01*
X100708993Y-125921901D01*
X100615901Y-126014993D01*
X100550075Y-126129007D01*
X100533037Y-126192588D01*
X99820686Y-125480237D01*
X99820685Y-125480238D01*
X99764818Y-125557133D01*
X99709489Y-125599799D01*
X99639875Y-125605778D01*
X99578080Y-125573173D01*
X99543723Y-125512334D01*
X99540500Y-125484248D01*
X99540500Y-124620600D01*
X99560185Y-124553561D01*
X99612989Y-124507806D01*
X99682147Y-124497862D01*
X99745703Y-124526887D01*
G37*
%TD.AperFunction*%
%TA.AperFunction,Conductor*%
G36*
X135402809Y-122150185D02*
G01*
X135423451Y-122166819D01*
X138754451Y-125497819D01*
X138787936Y-125559142D01*
X138782952Y-125628834D01*
X138741080Y-125684767D01*
X138675616Y-125709184D01*
X138666770Y-125709500D01*
X134125418Y-125709500D01*
X134058379Y-125689815D01*
X134025100Y-125658385D01*
X133991971Y-125612787D01*
X133991967Y-125612782D01*
X133847213Y-125468028D01*
X133681614Y-125347715D01*
X133673410Y-125343535D01*
X133595703Y-125303941D01*
X133544908Y-125255968D01*
X133528113Y-125188147D01*
X133550650Y-125122012D01*
X133593546Y-125084099D01*
X133659503Y-125048843D01*
X133659515Y-125048837D01*
X133728913Y-125002465D01*
X133129410Y-124402962D01*
X133192993Y-124385925D01*
X133307007Y-124320099D01*
X133400099Y-124227007D01*
X133465925Y-124112993D01*
X133482962Y-124049410D01*
X134082465Y-124648913D01*
X134128837Y-124579515D01*
X134128838Y-124579511D01*
X134175509Y-124492198D01*
X134235814Y-124346612D01*
X134264555Y-124251864D01*
X134295298Y-124097302D01*
X134295298Y-124097299D01*
X134305000Y-123998789D01*
X134305000Y-123841210D01*
X134295298Y-123742700D01*
X134295298Y-123742697D01*
X134264555Y-123588135D01*
X134235814Y-123493387D01*
X134175509Y-123347801D01*
X134128844Y-123260498D01*
X134128838Y-123260488D01*
X134082465Y-123191085D01*
X133482962Y-123790588D01*
X133465925Y-123727007D01*
X133400099Y-123612993D01*
X133307007Y-123519901D01*
X133192993Y-123454075D01*
X133129410Y-123437037D01*
X133728912Y-122837534D01*
X133659511Y-122791161D01*
X133659500Y-122791155D01*
X133593545Y-122755900D01*
X133543701Y-122706937D01*
X133528241Y-122638799D01*
X133552073Y-122573119D01*
X133595702Y-122536059D01*
X133681610Y-122492287D01*
X133731144Y-122456298D01*
X133847213Y-122371971D01*
X133847215Y-122371968D01*
X133847219Y-122371966D01*
X133991966Y-122227219D01*
X133994650Y-122223524D01*
X134025100Y-122181615D01*
X134080429Y-122138949D01*
X134125418Y-122130500D01*
X135335770Y-122130500D01*
X135402809Y-122150185D01*
G37*
%TD.AperFunction*%
%TA.AperFunction,Conductor*%
G36*
X148710889Y-117311591D02*
G01*
X148789881Y-117448408D01*
X148901592Y-117560119D01*
X149038409Y-117639111D01*
X149058938Y-117644611D01*
X148428237Y-118275312D01*
X148588650Y-118391859D01*
X148770968Y-118484755D01*
X148965576Y-118547988D01*
X148997196Y-118552996D01*
X149060331Y-118582925D01*
X149097263Y-118642237D01*
X149096265Y-118712099D01*
X149065480Y-118763151D01*
X148836451Y-118992181D01*
X148775128Y-119025666D01*
X148748770Y-119028500D01*
X147387712Y-119028500D01*
X147358878Y-119034234D01*
X147358879Y-119034235D01*
X147242729Y-119057339D01*
X147242725Y-119057340D01*
X147185397Y-119081087D01*
X147106144Y-119113914D01*
X147072966Y-119136083D01*
X146983215Y-119196051D01*
X146983214Y-119196052D01*
X145706047Y-120473220D01*
X145706045Y-120473222D01*
X145693283Y-120492324D01*
X145674563Y-120520342D01*
X145666248Y-120532787D01*
X145623914Y-120596143D01*
X145567343Y-120732718D01*
X145567340Y-120732728D01*
X145538500Y-120877715D01*
X145538500Y-122238770D01*
X145518815Y-122305809D01*
X145502181Y-122326451D01*
X145152181Y-122676451D01*
X145090858Y-122709936D01*
X145021166Y-122704952D01*
X144965233Y-122663080D01*
X144940816Y-122597616D01*
X144940500Y-122588770D01*
X144940500Y-118405416D01*
X144960185Y-118338377D01*
X144991613Y-118305099D01*
X145037219Y-118271966D01*
X145181966Y-118127219D01*
X145181968Y-118127215D01*
X145181971Y-118127213D01*
X145302284Y-117961614D01*
X145302285Y-117961613D01*
X145302287Y-117961610D01*
X145349516Y-117868917D01*
X145397489Y-117818123D01*
X145465310Y-117801328D01*
X145531445Y-117823865D01*
X145570483Y-117868917D01*
X145585616Y-117898616D01*
X145617715Y-117961614D01*
X145738028Y-118127213D01*
X145882786Y-118271971D01*
X146004535Y-118360425D01*
X146048390Y-118392287D01*
X146164607Y-118451503D01*
X146230776Y-118485218D01*
X146230778Y-118485218D01*
X146230781Y-118485220D01*
X146335137Y-118519127D01*
X146425465Y-118548477D01*
X146489038Y-118558546D01*
X146627648Y-118580500D01*
X146627649Y-118580500D01*
X146832351Y-118580500D01*
X146832352Y-118580500D01*
X147034534Y-118548477D01*
X147229219Y-118485220D01*
X147411610Y-118392287D01*
X147572614Y-118275312D01*
X147577213Y-118271971D01*
X147577215Y-118271968D01*
X147577219Y-118271966D01*
X147721966Y-118127219D01*
X147721968Y-118127215D01*
X147721971Y-118127213D01*
X147842284Y-117961614D01*
X147842285Y-117961613D01*
X147842287Y-117961610D01*
X147889795Y-117868369D01*
X147937770Y-117817574D01*
X148005591Y-117800779D01*
X148071725Y-117823316D01*
X148110765Y-117868371D01*
X148116608Y-117879839D01*
X148705387Y-117291059D01*
X148710889Y-117311591D01*
G37*
%TD.AperFunction*%
%TA.AperFunction,Conductor*%
G36*
X102211312Y-117003761D02*
G01*
X102211312Y-117003760D01*
X102327182Y-116844282D01*
X102382512Y-116801617D01*
X102452126Y-116795638D01*
X102513921Y-116828244D01*
X102548278Y-116889083D01*
X102551500Y-116917168D01*
X102551500Y-117945983D01*
X102531815Y-118013022D01*
X102479011Y-118058777D01*
X102409853Y-118068721D01*
X102346297Y-118039696D01*
X102327182Y-118018868D01*
X102207971Y-117854786D01*
X102063213Y-117710028D01*
X101897613Y-117589715D01*
X101897612Y-117589714D01*
X101897610Y-117589713D01*
X101804920Y-117542485D01*
X101804369Y-117542204D01*
X101753573Y-117494229D01*
X101736778Y-117426408D01*
X101759316Y-117360273D01*
X101804370Y-117321234D01*
X101815838Y-117315390D01*
X101145410Y-116644962D01*
X101208993Y-116627925D01*
X101323007Y-116562099D01*
X101416099Y-116469007D01*
X101481925Y-116354993D01*
X101498962Y-116291410D01*
X102211312Y-117003761D01*
G37*
%TD.AperFunction*%
%TA.AperFunction,Conductor*%
G36*
X100550075Y-116354993D02*
G01*
X100615901Y-116469007D01*
X100708993Y-116562099D01*
X100823007Y-116627925D01*
X100886589Y-116644962D01*
X100216160Y-117315390D01*
X100227628Y-117321234D01*
X100278424Y-117369207D01*
X100295220Y-117437028D01*
X100272683Y-117503163D01*
X100227630Y-117542203D01*
X100134388Y-117589713D01*
X99968786Y-117710028D01*
X99824032Y-117854782D01*
X99824028Y-117854787D01*
X99764818Y-117936284D01*
X99709489Y-117978950D01*
X99639875Y-117984929D01*
X99578080Y-117952324D01*
X99543723Y-117891485D01*
X99540500Y-117863399D01*
X99540500Y-116999751D01*
X99560185Y-116932712D01*
X99612989Y-116886957D01*
X99682147Y-116877013D01*
X99745703Y-116906038D01*
X99764818Y-116926866D01*
X99820685Y-117003760D01*
X99820686Y-117003761D01*
X100533037Y-116291410D01*
X100550075Y-116354993D01*
G37*
%TD.AperFunction*%
%TA.AperFunction,Conductor*%
G36*
X99745703Y-114366887D02*
G01*
X99764819Y-114387716D01*
X99824030Y-114469215D01*
X99968786Y-114613971D01*
X100134385Y-114734284D01*
X100134387Y-114734285D01*
X100134390Y-114734287D01*
X100169097Y-114751971D01*
X100227628Y-114781794D01*
X100278424Y-114829769D01*
X100295219Y-114897590D01*
X100272682Y-114963724D01*
X100227627Y-115002764D01*
X100216160Y-115008606D01*
X100216159Y-115008607D01*
X100886589Y-115679037D01*
X100823007Y-115696075D01*
X100708993Y-115761901D01*
X100615901Y-115854993D01*
X100550075Y-115969007D01*
X100533037Y-116032588D01*
X99820686Y-115320237D01*
X99820685Y-115320238D01*
X99764818Y-115397133D01*
X99709489Y-115439799D01*
X99639875Y-115445778D01*
X99578080Y-115413173D01*
X99543723Y-115352334D01*
X99540500Y-115324248D01*
X99540500Y-114460600D01*
X99560185Y-114393561D01*
X99612989Y-114347806D01*
X99682147Y-114337862D01*
X99745703Y-114366887D01*
G37*
%TD.AperFunction*%
%TA.AperFunction,Conductor*%
G36*
X113205810Y-90520185D02*
G01*
X113251565Y-90572989D01*
X113261509Y-90642147D01*
X113232484Y-90705703D01*
X113226452Y-90712181D01*
X111417047Y-92521584D01*
X111417043Y-92521589D01*
X111369478Y-92592779D01*
X111369477Y-92592781D01*
X111358717Y-92608885D01*
X111334916Y-92644504D01*
X111334912Y-92644511D01*
X111278343Y-92781082D01*
X111278340Y-92781092D01*
X111249500Y-92926079D01*
X111249500Y-95637769D01*
X111229815Y-95704808D01*
X111213181Y-95725450D01*
X107437530Y-99501100D01*
X107376207Y-99534585D01*
X107306515Y-99529601D01*
X107250582Y-99487729D01*
X107239364Y-99469714D01*
X107215804Y-99423475D01*
X107114032Y-99283397D01*
X106991602Y-99160967D01*
X106851524Y-99059195D01*
X106697257Y-98980591D01*
X106532584Y-98927085D01*
X106361571Y-98900000D01*
X106250000Y-98900000D01*
X106250000Y-99719670D01*
X106230255Y-99699925D01*
X106144745Y-99650556D01*
X106049370Y-99625000D01*
X105950630Y-99625000D01*
X105855255Y-99650556D01*
X105769745Y-99699925D01*
X105750000Y-99719670D01*
X105750000Y-98900000D01*
X105638429Y-98900000D01*
X105467415Y-98927085D01*
X105302742Y-98980591D01*
X105148475Y-99059195D01*
X105008397Y-99160967D01*
X104885967Y-99283397D01*
X104784195Y-99423475D01*
X104705591Y-99577744D01*
X104652085Y-99742415D01*
X104650884Y-99749999D01*
X104650885Y-99750000D01*
X105719670Y-99750000D01*
X105699925Y-99769745D01*
X105650556Y-99855255D01*
X105625000Y-99950630D01*
X105625000Y-100049370D01*
X105650556Y-100144745D01*
X105699925Y-100230255D01*
X105719670Y-100250000D01*
X104650885Y-100250000D01*
X104652085Y-100257584D01*
X104705591Y-100422255D01*
X104784195Y-100576524D01*
X104885967Y-100716602D01*
X105008401Y-100839036D01*
X105091447Y-100899371D01*
X105134114Y-100954701D01*
X105140093Y-101024314D01*
X105107488Y-101086109D01*
X105091450Y-101100007D01*
X105008072Y-101160585D01*
X104885588Y-101283069D01*
X104885588Y-101283070D01*
X104885586Y-101283072D01*
X104855048Y-101325104D01*
X104783768Y-101423211D01*
X104705128Y-101577552D01*
X104651597Y-101742302D01*
X104624500Y-101913389D01*
X104624500Y-102086611D01*
X104624499Y-102086611D01*
X104645724Y-102220620D01*
X104636769Y-102289913D01*
X104610932Y-102327698D01*
X102211049Y-104727581D01*
X102178792Y-104775857D01*
X102178793Y-104775858D01*
X102128914Y-104850508D01*
X102072343Y-104987082D01*
X102072340Y-104987092D01*
X102043500Y-105132079D01*
X102043500Y-109841697D01*
X102023815Y-109908736D01*
X101971011Y-109954491D01*
X101901853Y-109964435D01*
X101863205Y-109952182D01*
X101715223Y-109876782D01*
X101715222Y-109876781D01*
X101715219Y-109876780D01*
X101607245Y-109841697D01*
X101520534Y-109813522D01*
X101345995Y-109785878D01*
X101318352Y-109781500D01*
X100713648Y-109781500D01*
X100689329Y-109785351D01*
X100511465Y-109813522D01*
X100316776Y-109876781D01*
X100134386Y-109969715D01*
X99968786Y-110090028D01*
X99824032Y-110234782D01*
X99824028Y-110234787D01*
X99764818Y-110316284D01*
X99709489Y-110358950D01*
X99639875Y-110364929D01*
X99578080Y-110332324D01*
X99543723Y-110271485D01*
X99540500Y-110243399D01*
X99540500Y-93003750D01*
X99540726Y-92996263D01*
X99548432Y-92868872D01*
X100039500Y-92868872D01*
X100039500Y-93131127D01*
X100058383Y-93274548D01*
X100073730Y-93391116D01*
X100138831Y-93634076D01*
X100141602Y-93644418D01*
X100141605Y-93644428D01*
X100241953Y-93886690D01*
X100241958Y-93886700D01*
X100373075Y-94113803D01*
X100532718Y-94321851D01*
X100532726Y-94321860D01*
X100718140Y-94507274D01*
X100718148Y-94507281D01*
X100926196Y-94666924D01*
X101153299Y-94798041D01*
X101153309Y-94798046D01*
X101395571Y-94898394D01*
X101395581Y-94898398D01*
X101648884Y-94966270D01*
X101908880Y-95000500D01*
X101908887Y-95000500D01*
X102171113Y-95000500D01*
X102171120Y-95000500D01*
X102431116Y-94966270D01*
X102684419Y-94898398D01*
X102889615Y-94813403D01*
X102926690Y-94798046D01*
X102926691Y-94798045D01*
X102926697Y-94798043D01*
X103153803Y-94666924D01*
X103361851Y-94507282D01*
X103361855Y-94507277D01*
X103361860Y-94507274D01*
X103547274Y-94321860D01*
X103547277Y-94321855D01*
X103547282Y-94321851D01*
X103706924Y-94113803D01*
X103838043Y-93886697D01*
X103938398Y-93644419D01*
X104006270Y-93391116D01*
X104040500Y-93131120D01*
X104040500Y-92868880D01*
X104006270Y-92608884D01*
X103938398Y-92355581D01*
X103885294Y-92227376D01*
X103838046Y-92113309D01*
X103838041Y-92113299D01*
X103706924Y-91886196D01*
X103547281Y-91678148D01*
X103547274Y-91678140D01*
X103361860Y-91492726D01*
X103361851Y-91492718D01*
X103153803Y-91333075D01*
X102926700Y-91201958D01*
X102926690Y-91201953D01*
X102684428Y-91101605D01*
X102684421Y-91101603D01*
X102684419Y-91101602D01*
X102431116Y-91033730D01*
X102373339Y-91026123D01*
X102171127Y-90999500D01*
X102171120Y-90999500D01*
X101908880Y-90999500D01*
X101908872Y-90999500D01*
X101677772Y-91029926D01*
X101648884Y-91033730D01*
X101395581Y-91101602D01*
X101395571Y-91101605D01*
X101153309Y-91201953D01*
X101153299Y-91201958D01*
X100926196Y-91333075D01*
X100718148Y-91492718D01*
X100532718Y-91678148D01*
X100373075Y-91886196D01*
X100241958Y-92113299D01*
X100241953Y-92113309D01*
X100141605Y-92355571D01*
X100141602Y-92355581D01*
X100078044Y-92592786D01*
X100073730Y-92608885D01*
X100039500Y-92868872D01*
X99548432Y-92868872D01*
X99549130Y-92857334D01*
X99549130Y-92857333D01*
X99558271Y-92706206D01*
X99560076Y-92691340D01*
X99575187Y-92608885D01*
X99611780Y-92409197D01*
X99615364Y-92394663D01*
X99700696Y-92120822D01*
X99705998Y-92106841D01*
X99823731Y-91845249D01*
X99830676Y-91832016D01*
X99979080Y-91586526D01*
X99987567Y-91574230D01*
X100164480Y-91348417D01*
X100174395Y-91337226D01*
X100377226Y-91134395D01*
X100388417Y-91124480D01*
X100614230Y-90947567D01*
X100626526Y-90939080D01*
X100872016Y-90790676D01*
X100885249Y-90783731D01*
X101146841Y-90665998D01*
X101160822Y-90660696D01*
X101434668Y-90575362D01*
X101449197Y-90571780D01*
X101731344Y-90520075D01*
X101746201Y-90518271D01*
X102036264Y-90500726D01*
X102043751Y-90500500D01*
X102105892Y-90500500D01*
X113138771Y-90500500D01*
X113205810Y-90520185D01*
G37*
%TD.AperFunction*%
%TD*%
M02*
