%TF.GenerationSoftware,KiCad,Pcbnew,9.0.2*%
%TF.CreationDate,2026-01-23T00:16:16-05:00*%
%TF.ProjectId,Motherboard,4d6f7468-6572-4626-9f61-72642e6b6963,rev?*%
%TF.SameCoordinates,Original*%
%TF.FileFunction,Legend,Bot*%
%TF.FilePolarity,Positive*%
%FSLAX46Y46*%
G04 Gerber Fmt 4.6, Leading zero omitted, Abs format (unit mm)*
G04 Created by KiCad (PCBNEW 9.0.2) date 2026-01-23 00:16:16*
%MOMM*%
%LPD*%
G01*
G04 APERTURE LIST*
%ADD10C,0.100000*%
%ADD11C,0.000000*%
G04 APERTURE END LIST*
D10*
G36*
X129616968Y-162777631D02*
G01*
X129578554Y-162776097D01*
X129542373Y-162771613D01*
X129508422Y-162764339D01*
X129476816Y-162754458D01*
X129447521Y-162742104D01*
X129420692Y-162727482D01*
X129396281Y-162710692D01*
X129374466Y-162691975D01*
X129355209Y-162671401D01*
X129338684Y-162649245D01*
X129313956Y-162600675D01*
X129300907Y-162547759D01*
X129298915Y-162516487D01*
X129300463Y-162485161D01*
X129305042Y-162456192D01*
X129312254Y-162430366D01*
X129322121Y-162406565D01*
X129349302Y-162364907D01*
X129387242Y-162329300D01*
X129438036Y-162298675D01*
X129463535Y-162287387D01*
X129567729Y-162245866D01*
X129579833Y-162241098D01*
X129626179Y-162222201D01*
X129662346Y-162203231D01*
X129675838Y-162192749D01*
X129685859Y-162181086D01*
X129692098Y-162167853D01*
X129694247Y-162152662D01*
X129692707Y-162137724D01*
X129688180Y-162124490D01*
X129671407Y-162103844D01*
X129643493Y-162089622D01*
X129602016Y-162083127D01*
X129594595Y-162083004D01*
X129565791Y-162084556D01*
X129538501Y-162089162D01*
X129487365Y-162107099D01*
X129434516Y-162138737D01*
X129423235Y-162147045D01*
X129323535Y-162021406D01*
X129373735Y-161979755D01*
X129432486Y-161946730D01*
X129497949Y-161923861D01*
X129567060Y-161912641D01*
X129594595Y-161911644D01*
X129630056Y-161913180D01*
X129663938Y-161917684D01*
X129696403Y-161925078D01*
X129726971Y-161935170D01*
X129755623Y-161947859D01*
X129782068Y-161962938D01*
X129806098Y-161980192D01*
X129827640Y-161999494D01*
X129846365Y-162020446D01*
X129862370Y-162043080D01*
X129875320Y-162066823D01*
X129885370Y-162091887D01*
X129892281Y-162117612D01*
X129896144Y-162144317D01*
X129896968Y-162163898D01*
X129895444Y-162192023D01*
X129891025Y-162218332D01*
X129873959Y-162266604D01*
X129846288Y-162309486D01*
X129807950Y-162347116D01*
X129758961Y-162378733D01*
X129727854Y-162392949D01*
X129621462Y-162437889D01*
X129607237Y-162443868D01*
X129564318Y-162462557D01*
X129531764Y-162481119D01*
X129519854Y-162491470D01*
X129511109Y-162503131D01*
X129505722Y-162516547D01*
X129503884Y-162532167D01*
X129505455Y-162547912D01*
X129510204Y-162562014D01*
X129517444Y-162573456D01*
X129527471Y-162583298D01*
X129556281Y-162597865D01*
X129600322Y-162604927D01*
X129612523Y-162605196D01*
X129662581Y-162599223D01*
X129719554Y-162580085D01*
X129779189Y-162547128D01*
X129815244Y-162519857D01*
X129928329Y-162657806D01*
X129871678Y-162701849D01*
X129806505Y-162737165D01*
X129734730Y-162762235D01*
X129659444Y-162775610D01*
X129616968Y-162777631D01*
G37*
G36*
X129160576Y-162762000D02*
G01*
X128960101Y-162762000D01*
X128960101Y-162418106D01*
X128685670Y-162418106D01*
X128685670Y-162762000D01*
X128487443Y-162762000D01*
X128487443Y-161927275D01*
X128685670Y-161927275D01*
X128685670Y-162244547D01*
X128960101Y-162244547D01*
X128960101Y-161927275D01*
X129160576Y-161927275D01*
X129160576Y-162762000D01*
G37*
G36*
X128399076Y-162762000D02*
G01*
X128195230Y-162762000D01*
X128147066Y-162569585D01*
X127900674Y-162569585D01*
X127852509Y-162762000D01*
X127641972Y-162762000D01*
X127749522Y-162414979D01*
X127938775Y-162414979D01*
X128109013Y-162414979D01*
X128091085Y-162344344D01*
X128030572Y-162090713D01*
X128027240Y-162076263D01*
X128022746Y-162076263D01*
X127991693Y-162202833D01*
X127956654Y-162344344D01*
X127938775Y-162414979D01*
X127749522Y-162414979D01*
X127900674Y-161927275D01*
X128140374Y-161927275D01*
X128399076Y-162762000D01*
G37*
G36*
X127483507Y-162762000D02*
G01*
X127235991Y-162762000D01*
X127163207Y-162398762D01*
X127136629Y-162241762D01*
X127130722Y-162204540D01*
X127125105Y-162204540D01*
X127098013Y-162372534D01*
X127092669Y-162398762D01*
X127017589Y-162762000D01*
X126765628Y-162762000D01*
X126621134Y-161927275D01*
X126811546Y-161927275D01*
X126865279Y-162307854D01*
X126877422Y-162409521D01*
X126896640Y-162572760D01*
X126902258Y-162572760D01*
X126922765Y-162458844D01*
X126950422Y-162307854D01*
X127037764Y-161927275D01*
X127205754Y-161927275D01*
X127290897Y-162307854D01*
X127340185Y-162572760D01*
X127344630Y-162572760D01*
X127378238Y-162307854D01*
X127430897Y-161927275D01*
X127635866Y-161927275D01*
X127483507Y-162762000D01*
G37*
G36*
X126508685Y-162762000D02*
G01*
X126318273Y-162762000D01*
X126318273Y-162484882D01*
X126323448Y-162374719D01*
X126335741Y-162253985D01*
X126344016Y-162176354D01*
X126338448Y-162176354D01*
X126256675Y-162359243D01*
X126050583Y-162762000D01*
X125846738Y-162762000D01*
X125846738Y-161927275D01*
X126037150Y-161927275D01*
X126037150Y-162203318D01*
X126031875Y-162318072D01*
X126011604Y-162501388D01*
X126010283Y-162511846D01*
X126015900Y-162511846D01*
X126097624Y-162326710D01*
X126304840Y-161927275D01*
X126508685Y-161927275D01*
X126508685Y-162762000D01*
G37*
G36*
X125653639Y-162762000D02*
G01*
X125474414Y-162762000D01*
X125474414Y-162475942D01*
X125479637Y-162372402D01*
X125499348Y-162192981D01*
X125500206Y-162186026D01*
X125495712Y-162186026D01*
X125428496Y-162385866D01*
X125315412Y-162691267D01*
X125205649Y-162691267D01*
X125093639Y-162385866D01*
X125024177Y-162186026D01*
X125019732Y-162186026D01*
X125020786Y-162194606D01*
X125036905Y-162335769D01*
X125043033Y-162409441D01*
X125045475Y-162475698D01*
X125045475Y-162762000D01*
X124862928Y-162762000D01*
X124862928Y-161927275D01*
X125080206Y-161927275D01*
X125207847Y-162287094D01*
X125229990Y-162360713D01*
X125253814Y-162439794D01*
X125259383Y-162439794D01*
X125275452Y-162384707D01*
X125305300Y-162287094D01*
X125437484Y-161927275D01*
X125653639Y-161927275D01*
X125653639Y-162762000D01*
G37*
G36*
X124777247Y-162762000D02*
G01*
X124573402Y-162762000D01*
X124525237Y-162569585D01*
X124278845Y-162569585D01*
X124230681Y-162762000D01*
X124020143Y-162762000D01*
X124127693Y-162414979D01*
X124316947Y-162414979D01*
X124487184Y-162414979D01*
X124469257Y-162344344D01*
X124408743Y-162090713D01*
X124405412Y-162076263D01*
X124400918Y-162076263D01*
X124369864Y-162202833D01*
X124334826Y-162344344D01*
X124316947Y-162414979D01*
X124127693Y-162414979D01*
X124278845Y-161927275D01*
X124518545Y-161927275D01*
X124777247Y-162762000D01*
G37*
G36*
X123933388Y-162762000D02*
G01*
X123409243Y-162762000D01*
X123409243Y-162594009D01*
X123732914Y-162594009D01*
X123732914Y-161927275D01*
X123933388Y-161927275D01*
X123933388Y-162762000D01*
G37*
G36*
X123265140Y-162762000D02*
G01*
X122740995Y-162762000D01*
X122740995Y-162594009D01*
X123064665Y-162594009D01*
X123064665Y-161927275D01*
X123265140Y-161927275D01*
X123265140Y-162762000D01*
G37*
G36*
X122311567Y-162777631D02*
G01*
X122270236Y-162776060D01*
X122231619Y-162771318D01*
X122198203Y-162764037D01*
X122167133Y-162753947D01*
X122139921Y-162741795D01*
X122114811Y-162727069D01*
X122092497Y-162710326D01*
X122072157Y-162691112D01*
X122037546Y-162645382D01*
X122010288Y-162588163D01*
X121990618Y-162516887D01*
X121979595Y-162428254D01*
X121977833Y-162369501D01*
X121977833Y-161927275D01*
X122170443Y-161927275D01*
X122170443Y-162390799D01*
X122171996Y-162435952D01*
X122176611Y-162475061D01*
X122183272Y-162505124D01*
X122192281Y-162530801D01*
X122202489Y-162550543D01*
X122214572Y-162566977D01*
X122227759Y-162579667D01*
X122242578Y-162589646D01*
X122277574Y-162602117D01*
X122311567Y-162605196D01*
X122336862Y-162603591D01*
X122359651Y-162598614D01*
X122377273Y-162591427D01*
X122393015Y-162581393D01*
X122406104Y-162569210D01*
X122417515Y-162554234D01*
X122435583Y-162514425D01*
X122447140Y-162456502D01*
X122450443Y-162390799D01*
X122450443Y-161927275D01*
X122649794Y-161927275D01*
X122649794Y-162369501D01*
X122648234Y-162424194D01*
X122643561Y-162474734D01*
X122636411Y-162518169D01*
X122626578Y-162558082D01*
X122614906Y-162592409D01*
X122600886Y-162623698D01*
X122585361Y-162650700D01*
X122567724Y-162675009D01*
X122548575Y-162696075D01*
X122527447Y-162714657D01*
X122479480Y-162744383D01*
X122422399Y-162764921D01*
X122354073Y-162775987D01*
X122311567Y-162777631D01*
G37*
G36*
X121719376Y-162762000D02*
G01*
X121471860Y-162762000D01*
X121399076Y-162398762D01*
X121372498Y-162241762D01*
X121366591Y-162204540D01*
X121360974Y-162204540D01*
X121333882Y-162372534D01*
X121328538Y-162398762D01*
X121253458Y-162762000D01*
X121001497Y-162762000D01*
X120857003Y-161927275D01*
X121047415Y-161927275D01*
X121101148Y-162307854D01*
X121113291Y-162409521D01*
X121132509Y-162572760D01*
X121138127Y-162572760D01*
X121158634Y-162458844D01*
X121186291Y-162307854D01*
X121273632Y-161927275D01*
X121441623Y-161927275D01*
X121526766Y-162307854D01*
X121576054Y-162572760D01*
X121580499Y-162572760D01*
X121614107Y-162307854D01*
X121666766Y-161927275D01*
X121871734Y-161927275D01*
X121719376Y-162762000D01*
G37*
G36*
X120849822Y-162762000D02*
G01*
X120645977Y-162762000D01*
X120597812Y-162569585D01*
X120351420Y-162569585D01*
X120303256Y-162762000D01*
X120092718Y-162762000D01*
X120200268Y-162414979D01*
X120389522Y-162414979D01*
X120559759Y-162414979D01*
X120541832Y-162344344D01*
X120481318Y-162090713D01*
X120477987Y-162076263D01*
X120473493Y-162076263D01*
X120442439Y-162202833D01*
X120407401Y-162344344D01*
X120389522Y-162414979D01*
X120200268Y-162414979D01*
X120351420Y-161927275D01*
X120591120Y-161927275D01*
X120849822Y-162762000D01*
G37*
G36*
X119934254Y-162762000D02*
G01*
X119686738Y-162762000D01*
X119613953Y-162398762D01*
X119587376Y-162241762D01*
X119581469Y-162204540D01*
X119575852Y-162204540D01*
X119548760Y-162372534D01*
X119543416Y-162398762D01*
X119468336Y-162762000D01*
X119216375Y-162762000D01*
X119071881Y-161927275D01*
X119262293Y-161927275D01*
X119316026Y-162307854D01*
X119328169Y-162409521D01*
X119347387Y-162572760D01*
X119353004Y-162572760D01*
X119373512Y-162458844D01*
X119401169Y-162307854D01*
X119488510Y-161927275D01*
X119656501Y-161927275D01*
X119741644Y-162307854D01*
X119790932Y-162572760D01*
X119795377Y-162572760D01*
X119828985Y-162307854D01*
X119881644Y-161927275D01*
X120086612Y-161927275D01*
X119934254Y-162762000D01*
G37*
G36*
X119064700Y-162762000D02*
G01*
X118860855Y-162762000D01*
X118812690Y-162569585D01*
X118566298Y-162569585D01*
X118518133Y-162762000D01*
X118307596Y-162762000D01*
X118415146Y-162414979D01*
X118604400Y-162414979D01*
X118774637Y-162414979D01*
X118756710Y-162344344D01*
X118696196Y-162090713D01*
X118692865Y-162076263D01*
X118688371Y-162076263D01*
X118657317Y-162202833D01*
X118622279Y-162344344D01*
X118604400Y-162414979D01*
X118415146Y-162414979D01*
X118566298Y-161927275D01*
X118805998Y-161927275D01*
X119064700Y-162762000D01*
G37*
G36*
X118220841Y-162762000D02*
G01*
X117969955Y-162762000D01*
X117924895Y-162760429D01*
X117881764Y-162755689D01*
X117842820Y-162748238D01*
X117805852Y-162737868D01*
X117772664Y-162725276D01*
X117741468Y-162709984D01*
X117713537Y-162692766D01*
X117687620Y-162673011D01*
X117664468Y-162651378D01*
X117643382Y-162627303D01*
X117624693Y-162601147D01*
X117608171Y-162572566D01*
X117581916Y-162507957D01*
X117565135Y-162432225D01*
X117558903Y-162343877D01*
X117558894Y-162340143D01*
X117763863Y-162340143D01*
X117765403Y-162382048D01*
X117769934Y-162419636D01*
X117776840Y-162451353D01*
X117786180Y-162479533D01*
X117797307Y-162503361D01*
X117810463Y-162524219D01*
X117825295Y-162541980D01*
X117841898Y-162557123D01*
X117880964Y-162580487D01*
X117929409Y-162595181D01*
X117993451Y-162600750D01*
X118020367Y-162600750D01*
X118020367Y-162086326D01*
X117993451Y-162086326D01*
X117955394Y-162087971D01*
X117919872Y-162093232D01*
X117892729Y-162100629D01*
X117867690Y-162111087D01*
X117847450Y-162123097D01*
X117829108Y-162137900D01*
X117813739Y-162154487D01*
X117800242Y-162173853D01*
X117779457Y-162220904D01*
X117766921Y-162282410D01*
X117763863Y-162340143D01*
X117558894Y-162340143D01*
X117560443Y-162293133D01*
X117565034Y-162249213D01*
X117572266Y-162209721D01*
X117582174Y-162173016D01*
X117594298Y-162139967D01*
X117608809Y-162109471D01*
X117625347Y-162081920D01*
X117644061Y-162056764D01*
X117687744Y-162013493D01*
X117740334Y-161978807D01*
X117802857Y-161952506D01*
X117876698Y-161935047D01*
X117963398Y-161927477D01*
X117981141Y-161927275D01*
X118220841Y-161927275D01*
X118220841Y-162762000D01*
G37*
G36*
X117071092Y-162777631D02*
G01*
X117029761Y-162776060D01*
X116991145Y-162771318D01*
X116957729Y-162764037D01*
X116926658Y-162753947D01*
X116899447Y-162741795D01*
X116874337Y-162727069D01*
X116852022Y-162710326D01*
X116831683Y-162691112D01*
X116797071Y-162645382D01*
X116769813Y-162588163D01*
X116750144Y-162516887D01*
X116739120Y-162428254D01*
X116737359Y-162369501D01*
X116737359Y-161927275D01*
X116929969Y-161927275D01*
X116929969Y-162390799D01*
X116931521Y-162435952D01*
X116936136Y-162475061D01*
X116942798Y-162505124D01*
X116951807Y-162530801D01*
X116962015Y-162550543D01*
X116974098Y-162566977D01*
X116987284Y-162579667D01*
X117002104Y-162589646D01*
X117037100Y-162602117D01*
X117071092Y-162605196D01*
X117096388Y-162603591D01*
X117119176Y-162598614D01*
X117136798Y-162591427D01*
X117152540Y-162581393D01*
X117165629Y-162569210D01*
X117177041Y-162554234D01*
X117195108Y-162514425D01*
X117206666Y-162456502D01*
X117209969Y-162390799D01*
X117209969Y-161927275D01*
X117409320Y-161927275D01*
X117409320Y-162369501D01*
X117407759Y-162424194D01*
X117403086Y-162474734D01*
X117395936Y-162518169D01*
X117386104Y-162558082D01*
X117374432Y-162592409D01*
X117360411Y-162623698D01*
X117344887Y-162650700D01*
X117327250Y-162675009D01*
X117308100Y-162696075D01*
X117286972Y-162714657D01*
X117239005Y-162744383D01*
X117181924Y-162764921D01*
X117113599Y-162775987D01*
X117071092Y-162777631D01*
G37*
G36*
X116088457Y-161907396D02*
G01*
X116131274Y-161915044D01*
X116173002Y-161925642D01*
X116213646Y-161939168D01*
X116252922Y-161955518D01*
X116290691Y-161974615D01*
X116326819Y-161996388D01*
X116361044Y-162020666D01*
X116393371Y-162047454D01*
X116423457Y-162076461D01*
X116451408Y-162107800D01*
X116476856Y-162141065D01*
X116499952Y-162176477D01*
X116520357Y-162213546D01*
X116538211Y-162252582D01*
X116553239Y-162293053D01*
X116565532Y-162335317D01*
X116574889Y-162378854D01*
X116581333Y-162424021D01*
X116585293Y-162498803D01*
X116583752Y-162544574D01*
X116579218Y-162587992D01*
X116571870Y-162628855D01*
X116561823Y-162667419D01*
X116549196Y-162703727D01*
X116534127Y-162737761D01*
X116496829Y-162799555D01*
X116450335Y-162853107D01*
X116394852Y-162898411D01*
X116330550Y-162935090D01*
X116257795Y-162962420D01*
X116177399Y-162979417D01*
X116093632Y-162985042D01*
X116047990Y-162983446D01*
X116003741Y-162978524D01*
X115963988Y-162970858D01*
X115925152Y-162960032D01*
X115888633Y-162946531D01*
X115852723Y-162929840D01*
X115842746Y-162924568D01*
X115885342Y-162817052D01*
X115948202Y-162842940D01*
X115986191Y-162853559D01*
X116025282Y-162861081D01*
X116077952Y-162865168D01*
X116116818Y-162863600D01*
X116154880Y-162858881D01*
X116190829Y-162851253D01*
X116225510Y-162840601D01*
X116257433Y-162827485D01*
X116287727Y-162811530D01*
X116315027Y-162793555D01*
X116340430Y-162772936D01*
X116362888Y-162750593D01*
X116383235Y-162725771D01*
X116400793Y-162699303D01*
X116416039Y-162670470D01*
X116428601Y-162639860D01*
X116438632Y-162606945D01*
X116445938Y-162571975D01*
X116450454Y-162534706D01*
X116452034Y-162494309D01*
X116450497Y-162452615D01*
X116445984Y-162412470D01*
X116428292Y-162335944D01*
X116399592Y-162265275D01*
X116360545Y-162201254D01*
X116311985Y-162144953D01*
X116255091Y-162097668D01*
X116191508Y-162060777D01*
X116157865Y-162046631D01*
X116123339Y-162035505D01*
X116088382Y-162027525D01*
X116052971Y-162022685D01*
X116017478Y-162021064D01*
X115976106Y-162022601D01*
X115937681Y-162027105D01*
X115902679Y-162034278D01*
X115870400Y-162044019D01*
X115840952Y-162056094D01*
X115814065Y-162070406D01*
X115767383Y-162105460D01*
X115729504Y-162148959D01*
X115700164Y-162201105D01*
X115679755Y-162262206D01*
X115669234Y-162332197D01*
X115668064Y-162366375D01*
X115669585Y-162399831D01*
X115673982Y-162431144D01*
X115681165Y-162460701D01*
X115690811Y-162487712D01*
X115702763Y-162512211D01*
X115716678Y-162533793D01*
X115732119Y-162552123D01*
X115748953Y-162567272D01*
X115766337Y-162578764D01*
X115784541Y-162586976D01*
X115819250Y-162593032D01*
X115838061Y-162591460D01*
X115853533Y-162586710D01*
X115864038Y-162580144D01*
X115872117Y-162571217D01*
X115880822Y-162547196D01*
X115879859Y-162510230D01*
X115875230Y-162487568D01*
X115847501Y-162353967D01*
X115991734Y-162353967D01*
X116023095Y-162523325D01*
X116043434Y-162547851D01*
X116062240Y-162564874D01*
X116076528Y-162573505D01*
X116090648Y-162578217D01*
X116102621Y-162579404D01*
X116117919Y-162577851D01*
X116131409Y-162573237D01*
X116142317Y-162566171D01*
X116151411Y-162556515D01*
X116163819Y-162529283D01*
X116167540Y-162496410D01*
X116161472Y-162446281D01*
X116153510Y-162418884D01*
X116142478Y-162392542D01*
X116129567Y-162369969D01*
X116114267Y-162350302D01*
X116099393Y-162336518D01*
X116082956Y-162326161D01*
X116067708Y-162320471D01*
X116051429Y-162318108D01*
X116048838Y-162318064D01*
X116034860Y-162319592D01*
X116022068Y-162324040D01*
X116000368Y-162341223D01*
X115991734Y-162353967D01*
X115847501Y-162353967D01*
X115815879Y-162201609D01*
X115936829Y-162201609D01*
X115957003Y-162255391D01*
X115959250Y-162255391D01*
X115969862Y-162236589D01*
X115982114Y-162221273D01*
X115995265Y-162209761D01*
X116009741Y-162201168D01*
X116042743Y-162192186D01*
X116055579Y-162191546D01*
X116104890Y-162197562D01*
X116152617Y-162215558D01*
X116198037Y-162245707D01*
X116239538Y-162287982D01*
X116274620Y-162341345D01*
X116300368Y-162403152D01*
X116308905Y-162435838D01*
X116314341Y-162469313D01*
X116316528Y-162507743D01*
X116314988Y-162537597D01*
X116310461Y-162565459D01*
X116303247Y-162590726D01*
X116293420Y-162613794D01*
X116281412Y-162634086D01*
X116267155Y-162652011D01*
X116251121Y-162667154D01*
X116233161Y-162679775D01*
X116213625Y-162689654D01*
X116192431Y-162696830D01*
X116146291Y-162702600D01*
X116104945Y-162696588D01*
X116058520Y-162677313D01*
X116036334Y-162663057D01*
X116016060Y-162646116D01*
X115991734Y-162617505D01*
X115988364Y-162617505D01*
X115982982Y-162635382D01*
X115974969Y-162651555D01*
X115951189Y-162679236D01*
X115917080Y-162700132D01*
X115872867Y-162712614D01*
X115839424Y-162715105D01*
X115784074Y-162708848D01*
X115756041Y-162700932D01*
X115728389Y-162689820D01*
X115701755Y-162675693D01*
X115676133Y-162658439D01*
X115652479Y-162638645D01*
X115630380Y-162615885D01*
X115610773Y-162591065D01*
X115593159Y-162563469D01*
X115578258Y-162534113D01*
X115565712Y-162502153D01*
X115555986Y-162468520D01*
X115548945Y-162432412D01*
X115543744Y-162360757D01*
X115545295Y-162317736D01*
X115549899Y-162276216D01*
X115557399Y-162236660D01*
X115567753Y-162198783D01*
X115580742Y-162163044D01*
X115596388Y-162129147D01*
X115614427Y-162097503D01*
X115634936Y-162067858D01*
X115657640Y-162040536D01*
X115682639Y-162015368D01*
X115709700Y-161992578D01*
X115738899Y-161972101D01*
X115770086Y-161954074D01*
X115803273Y-161938530D01*
X115838424Y-161925552D01*
X115875449Y-161915243D01*
X115914435Y-161907673D01*
X115955182Y-161902976D01*
X116000674Y-161901239D01*
X116088457Y-161907396D01*
G37*
G36*
X115010073Y-162777631D02*
G01*
X114937749Y-162771725D01*
X114867255Y-162754175D01*
X114802282Y-162725933D01*
X114773353Y-162708479D01*
X114747795Y-162689499D01*
X114732321Y-162675733D01*
X114732321Y-162285872D01*
X115042558Y-162285872D01*
X115042558Y-162449369D01*
X114910374Y-162449369D01*
X114910374Y-162583898D01*
X114938048Y-162597407D01*
X114981148Y-162604979D01*
X114989899Y-162605196D01*
X115022678Y-162603643D01*
X115052859Y-162599029D01*
X115079125Y-162591873D01*
X115103076Y-162582069D01*
X115124065Y-162570113D01*
X115142912Y-162555779D01*
X115174106Y-162520357D01*
X115197451Y-162474803D01*
X115212640Y-162417237D01*
X115218364Y-162342976D01*
X115216825Y-162306617D01*
X115212305Y-162272679D01*
X115205103Y-162241770D01*
X115195301Y-162213358D01*
X115183298Y-162187997D01*
X115169059Y-162165188D01*
X115153019Y-162145337D01*
X115135070Y-162128093D01*
X115115566Y-162113674D01*
X115094436Y-162101941D01*
X115047840Y-162086821D01*
X115006703Y-162083004D01*
X114979758Y-162084519D01*
X114955328Y-162088871D01*
X114911787Y-162105386D01*
X114870615Y-162133203D01*
X114853270Y-162148364D01*
X114746877Y-162020283D01*
X114773317Y-161996203D01*
X114803568Y-161973622D01*
X114833218Y-161955737D01*
X114865896Y-161940165D01*
X114898106Y-161928525D01*
X114932876Y-161919625D01*
X114967614Y-161914152D01*
X115004639Y-161911734D01*
X115013444Y-161911644D01*
X115051329Y-161913199D01*
X115088339Y-161917838D01*
X115124062Y-161925451D01*
X115158589Y-161936018D01*
X115191382Y-161949326D01*
X115222682Y-161965436D01*
X115251914Y-161984017D01*
X115279385Y-162005240D01*
X115304567Y-162028684D01*
X115327744Y-162054615D01*
X115348494Y-162082585D01*
X115367010Y-162112899D01*
X115382991Y-162145160D01*
X115396511Y-162179644D01*
X115407368Y-162216063D01*
X115415528Y-162254606D01*
X115420847Y-162295129D01*
X115423216Y-162337696D01*
X115423332Y-162349718D01*
X115421789Y-162393931D01*
X115417241Y-162435780D01*
X115409911Y-162474810D01*
X115399880Y-162511514D01*
X115387364Y-162545647D01*
X115372415Y-162577472D01*
X115355159Y-162606963D01*
X115335701Y-162634133D01*
X115290279Y-162681791D01*
X115236443Y-162720451D01*
X115174369Y-162749771D01*
X115104313Y-162769059D01*
X115026808Y-162777376D01*
X115010073Y-162777631D01*
G37*
G36*
X114564623Y-162762000D02*
G01*
X114385398Y-162762000D01*
X114385398Y-162475942D01*
X114390621Y-162372402D01*
X114410332Y-162192981D01*
X114411190Y-162186026D01*
X114406696Y-162186026D01*
X114339480Y-162385866D01*
X114226396Y-162691267D01*
X114116633Y-162691267D01*
X114004623Y-162385866D01*
X113935161Y-162186026D01*
X113930715Y-162186026D01*
X113931770Y-162194606D01*
X113947889Y-162335769D01*
X113954017Y-162409441D01*
X113956459Y-162475698D01*
X113956459Y-162762000D01*
X113773912Y-162762000D01*
X113773912Y-161927275D01*
X113991190Y-161927275D01*
X114118831Y-162287094D01*
X114140974Y-162360713D01*
X114164798Y-162439794D01*
X114170367Y-162439794D01*
X114186436Y-162384707D01*
X114216284Y-162287094D01*
X114348468Y-161927275D01*
X114564623Y-161927275D01*
X114564623Y-162762000D01*
G37*
G36*
X113688231Y-162762000D02*
G01*
X113484386Y-162762000D01*
X113436221Y-162569585D01*
X113189829Y-162569585D01*
X113141665Y-162762000D01*
X112931127Y-162762000D01*
X113038677Y-162414979D01*
X113227931Y-162414979D01*
X113398168Y-162414979D01*
X113380241Y-162344344D01*
X113319727Y-162090713D01*
X113316396Y-162076263D01*
X113311902Y-162076263D01*
X113280848Y-162202833D01*
X113245810Y-162344344D01*
X113227931Y-162414979D01*
X113038677Y-162414979D01*
X113189829Y-161927275D01*
X113429529Y-161927275D01*
X113688231Y-162762000D01*
G37*
G36*
X112844372Y-162762000D02*
G01*
X112643898Y-162762000D01*
X112643898Y-161927275D01*
X112844372Y-161927275D01*
X112844372Y-162762000D01*
G37*
G36*
X112452802Y-162762000D02*
G01*
X111928657Y-162762000D01*
X111928657Y-162594009D01*
X112252327Y-162594009D01*
X112252327Y-161927275D01*
X112452802Y-161927275D01*
X112452802Y-162762000D01*
G37*
G36*
X111683730Y-162777631D02*
G01*
X111646076Y-162771677D01*
X111613226Y-162754473D01*
X111587177Y-162727139D01*
X111577462Y-162710186D01*
X111570392Y-162691513D01*
X111565028Y-162653360D01*
X111571007Y-162613689D01*
X111588316Y-162578786D01*
X111600740Y-162564085D01*
X111615362Y-162551659D01*
X111631680Y-162541925D01*
X111649699Y-162534936D01*
X111683730Y-162530115D01*
X111703429Y-162531640D01*
X111721818Y-162536061D01*
X111754658Y-162553148D01*
X111780528Y-162580224D01*
X111790173Y-162597052D01*
X111797172Y-162615556D01*
X111802481Y-162653360D01*
X111800949Y-162674266D01*
X111796482Y-162693985D01*
X111789163Y-162712468D01*
X111779228Y-162729193D01*
X111766919Y-162743842D01*
X111752402Y-162756206D01*
X111736206Y-162765853D01*
X111718256Y-162772787D01*
X111683730Y-162777631D01*
G37*
G36*
X111038587Y-162777631D02*
G01*
X111002635Y-162776069D01*
X110967924Y-162771391D01*
X110935340Y-162763839D01*
X110904041Y-162753343D01*
X110874517Y-162740133D01*
X110846342Y-162724082D01*
X110794363Y-162683603D01*
X110766452Y-162654435D01*
X110871720Y-162528796D01*
X110893807Y-162550403D01*
X110918529Y-162569521D01*
X110942005Y-162583435D01*
X110967357Y-162594348D01*
X110991494Y-162601116D01*
X111017053Y-162604707D01*
X111030771Y-162605196D01*
X111055997Y-162603643D01*
X111079798Y-162599028D01*
X111101570Y-162591636D01*
X111121831Y-162581449D01*
X111157333Y-162553121D01*
X111186340Y-162513768D01*
X111208166Y-162462489D01*
X111221387Y-162398258D01*
X111224505Y-162342439D01*
X111222973Y-162306127D01*
X111218503Y-162272240D01*
X111211316Y-162240975D01*
X111201586Y-162212279D01*
X111189595Y-162186410D01*
X111175462Y-162163232D01*
X111159540Y-162143015D01*
X111141875Y-162125592D01*
X111122860Y-162111182D01*
X111102484Y-162099654D01*
X111081111Y-162091147D01*
X111058735Y-162085618D01*
X111028524Y-162083004D01*
X111004646Y-162084525D01*
X110982368Y-162088919D01*
X110940190Y-162106168D01*
X110897456Y-162136293D01*
X110884030Y-162148168D01*
X110778762Y-162020283D01*
X110804294Y-161996591D01*
X110833177Y-161974488D01*
X110862587Y-161956145D01*
X110894600Y-161940258D01*
X110926069Y-161928332D01*
X110959538Y-161919315D01*
X110992235Y-161913916D01*
X111026506Y-161911685D01*
X111031895Y-161911644D01*
X111067956Y-161913199D01*
X111103331Y-161917837D01*
X111137757Y-161925489D01*
X111171142Y-161936120D01*
X111203065Y-161949569D01*
X111233612Y-161965865D01*
X111262274Y-161984720D01*
X111289254Y-162006271D01*
X111314043Y-162030118D01*
X111336870Y-162056504D01*
X111357301Y-162084971D01*
X111375511Y-162115830D01*
X111391173Y-162148632D01*
X111404366Y-162183695D01*
X111414860Y-162220646D01*
X111422636Y-162259745D01*
X111427532Y-162300739D01*
X111429450Y-162343788D01*
X111429473Y-162349180D01*
X111427933Y-162393745D01*
X111423405Y-162435907D01*
X111416085Y-162475398D01*
X111406087Y-162512503D01*
X111393585Y-162547124D01*
X111378688Y-162579356D01*
X111361479Y-162609273D01*
X111342132Y-162636773D01*
X111297116Y-162684886D01*
X111244181Y-162723574D01*
X111183851Y-162752412D01*
X111116821Y-162770705D01*
X111044121Y-162777598D01*
X111038587Y-162777631D01*
G37*
G36*
X110387687Y-161913200D02*
G01*
X110424961Y-161917841D01*
X110459755Y-161925311D01*
X110492873Y-161935644D01*
X110523600Y-161948504D01*
X110552550Y-161964038D01*
X110579255Y-161981925D01*
X110604072Y-162002339D01*
X110626778Y-162025085D01*
X110647463Y-162050257D01*
X110682521Y-162107878D01*
X110708720Y-162175552D01*
X110725186Y-162253755D01*
X110730743Y-162340192D01*
X110729196Y-162386782D01*
X110724619Y-162431076D01*
X110717257Y-162472327D01*
X110707150Y-162511239D01*
X110694629Y-162547147D01*
X110679631Y-162580681D01*
X110662531Y-162611322D01*
X110643197Y-162639554D01*
X110621975Y-162665036D01*
X110598732Y-162688062D01*
X110573700Y-162708468D01*
X110546828Y-162726344D01*
X110487804Y-162754328D01*
X110421793Y-162771653D01*
X110348845Y-162777631D01*
X110311054Y-162776077D01*
X110274742Y-162771455D01*
X110240572Y-162763974D01*
X110208002Y-162753637D01*
X110177520Y-162740693D01*
X110148756Y-162725074D01*
X110121996Y-162706985D01*
X110097085Y-162686365D01*
X110053165Y-162637785D01*
X110017384Y-162579328D01*
X109990414Y-162510821D01*
X109973210Y-162432051D01*
X109966952Y-162342888D01*
X109966947Y-162340192D01*
X110170743Y-162340192D01*
X110172289Y-162381427D01*
X110176853Y-162419723D01*
X110183995Y-162453646D01*
X110193737Y-162484545D01*
X110205322Y-162510982D01*
X110219089Y-162534424D01*
X110234059Y-162553746D01*
X110250840Y-162570162D01*
X110268498Y-162583031D01*
X110287685Y-162593056D01*
X110307837Y-162600011D01*
X110329331Y-162604076D01*
X110348845Y-162605196D01*
X110371698Y-162603648D01*
X110393194Y-162599064D01*
X110412989Y-162591670D01*
X110431365Y-162581505D01*
X110464007Y-162552802D01*
X110491050Y-162512160D01*
X110511490Y-162458286D01*
X110523517Y-162390114D01*
X110525775Y-162340192D01*
X110524228Y-162299019D01*
X110519656Y-162261050D01*
X110512563Y-162227908D01*
X110502892Y-162197899D01*
X110491437Y-162172462D01*
X110477823Y-162150016D01*
X110462982Y-162131569D01*
X110446329Y-162115969D01*
X110428641Y-162103707D01*
X110409388Y-162094222D01*
X110366957Y-162083905D01*
X110348845Y-162083004D01*
X110325205Y-162084556D01*
X110302987Y-162089163D01*
X110282724Y-162096544D01*
X110263940Y-162106706D01*
X110231007Y-162135160D01*
X110204121Y-162175178D01*
X110184112Y-162228058D01*
X110172640Y-162295113D01*
X110170743Y-162340192D01*
X109966947Y-162340192D01*
X109968494Y-162293855D01*
X109973072Y-162249933D01*
X109980411Y-162209250D01*
X109990481Y-162170977D01*
X110002934Y-162135795D01*
X110017845Y-162103015D01*
X110034848Y-162073122D01*
X110054070Y-162045636D01*
X110075216Y-162020822D01*
X110098379Y-161998446D01*
X110150335Y-161961213D01*
X110209790Y-161933995D01*
X110276761Y-161917213D01*
X110348845Y-161911644D01*
X110387687Y-161913200D01*
G37*
G36*
X109812635Y-162762000D02*
G01*
X109633409Y-162762000D01*
X109633409Y-162475942D01*
X109638632Y-162372402D01*
X109658343Y-162192981D01*
X109659201Y-162186026D01*
X109654707Y-162186026D01*
X109587491Y-162385866D01*
X109474407Y-162691267D01*
X109364644Y-162691267D01*
X109252635Y-162385866D01*
X109183172Y-162186026D01*
X109178727Y-162186026D01*
X109179781Y-162194606D01*
X109195900Y-162335769D01*
X109202028Y-162409441D01*
X109204470Y-162475698D01*
X109204470Y-162762000D01*
X109021923Y-162762000D01*
X109021923Y-161927275D01*
X109239201Y-161927275D01*
X109366842Y-162287094D01*
X109388985Y-162360713D01*
X109412809Y-162439794D01*
X109418378Y-162439794D01*
X109434447Y-162384707D01*
X109464295Y-162287094D01*
X109596480Y-161927275D01*
X109812635Y-161927275D01*
X109812635Y-162762000D01*
G37*
G36*
X129875719Y-164032000D02*
G01*
X129624833Y-164032000D01*
X129579773Y-164030429D01*
X129536642Y-164025689D01*
X129497698Y-164018238D01*
X129460730Y-164007868D01*
X129427542Y-163995276D01*
X129396346Y-163979984D01*
X129368415Y-163962766D01*
X129342497Y-163943011D01*
X129319346Y-163921378D01*
X129298260Y-163897303D01*
X129279571Y-163871147D01*
X129263048Y-163842566D01*
X129236794Y-163777957D01*
X129220012Y-163702225D01*
X129213781Y-163613877D01*
X129213772Y-163610143D01*
X129418741Y-163610143D01*
X129420281Y-163652048D01*
X129424812Y-163689636D01*
X129431718Y-163721353D01*
X129441058Y-163749533D01*
X129452185Y-163773361D01*
X129465341Y-163794219D01*
X129480173Y-163811980D01*
X129496776Y-163827123D01*
X129535842Y-163850487D01*
X129584287Y-163865181D01*
X129648329Y-163870750D01*
X129675244Y-163870750D01*
X129675244Y-163356326D01*
X129648329Y-163356326D01*
X129610272Y-163357971D01*
X129574750Y-163363232D01*
X129547607Y-163370629D01*
X129522568Y-163381087D01*
X129502328Y-163393097D01*
X129483986Y-163407900D01*
X129468617Y-163424487D01*
X129455120Y-163443853D01*
X129434335Y-163490904D01*
X129421799Y-163552410D01*
X129418741Y-163610143D01*
X129213772Y-163610143D01*
X129215321Y-163563133D01*
X129219912Y-163519213D01*
X129227144Y-163479721D01*
X129237052Y-163443016D01*
X129249176Y-163409967D01*
X129263687Y-163379471D01*
X129280225Y-163351920D01*
X129298939Y-163326764D01*
X129342621Y-163283493D01*
X129395212Y-163248807D01*
X129457735Y-163222506D01*
X129531576Y-163205047D01*
X129618276Y-163197477D01*
X129636019Y-163197275D01*
X129875719Y-163197275D01*
X129875719Y-164032000D01*
G37*
G36*
X129059752Y-164032000D02*
G01*
X128518803Y-164032000D01*
X128518803Y-163864009D01*
X128859278Y-163864009D01*
X128859278Y-163687324D01*
X128580401Y-163687324D01*
X128580401Y-163519285D01*
X128859278Y-163519285D01*
X128859278Y-163363067D01*
X128531113Y-163363067D01*
X128531113Y-163197275D01*
X129059752Y-163197275D01*
X129059752Y-164032000D01*
G37*
G36*
X128096019Y-164047631D02*
G01*
X128057605Y-164046097D01*
X128021424Y-164041613D01*
X127987472Y-164034339D01*
X127955867Y-164024458D01*
X127926571Y-164012104D01*
X127899743Y-163997482D01*
X127875332Y-163980692D01*
X127853517Y-163961975D01*
X127834260Y-163941401D01*
X127817735Y-163919245D01*
X127793007Y-163870675D01*
X127779958Y-163817759D01*
X127777966Y-163786487D01*
X127779513Y-163755161D01*
X127784093Y-163726192D01*
X127791305Y-163700366D01*
X127801172Y-163676565D01*
X127828353Y-163634907D01*
X127866293Y-163599300D01*
X127917087Y-163568675D01*
X127942586Y-163557387D01*
X128046780Y-163515866D01*
X128058884Y-163511098D01*
X128105230Y-163492201D01*
X128141396Y-163473231D01*
X128154889Y-163462749D01*
X128164910Y-163451086D01*
X128171149Y-163437853D01*
X128173297Y-163422662D01*
X128171758Y-163407724D01*
X128167231Y-163394490D01*
X128150458Y-163373844D01*
X128122544Y-163359622D01*
X128081067Y-163353127D01*
X128073646Y-163353004D01*
X128044842Y-163354556D01*
X128017552Y-163359162D01*
X127966416Y-163377099D01*
X127913567Y-163408737D01*
X127902286Y-163417045D01*
X127802586Y-163291406D01*
X127852786Y-163249755D01*
X127911537Y-163216730D01*
X127977000Y-163193861D01*
X128046111Y-163182641D01*
X128073646Y-163181644D01*
X128109107Y-163183180D01*
X128142989Y-163187684D01*
X128175454Y-163195078D01*
X128206022Y-163205170D01*
X128234674Y-163217859D01*
X128261119Y-163232938D01*
X128285149Y-163250192D01*
X128306691Y-163269494D01*
X128325416Y-163290446D01*
X128341421Y-163313080D01*
X128354371Y-163336823D01*
X128364421Y-163361887D01*
X128371332Y-163387612D01*
X128375195Y-163414317D01*
X128376019Y-163433898D01*
X128374495Y-163462023D01*
X128370076Y-163488332D01*
X128353010Y-163536604D01*
X128325339Y-163579486D01*
X128287001Y-163617116D01*
X128238012Y-163648733D01*
X128206905Y-163662949D01*
X128100513Y-163707889D01*
X128086288Y-163713868D01*
X128043369Y-163732557D01*
X128010815Y-163751119D01*
X127998905Y-163761470D01*
X127990160Y-163773131D01*
X127984773Y-163786547D01*
X127982935Y-163802167D01*
X127984506Y-163817912D01*
X127989255Y-163832014D01*
X127996495Y-163843456D01*
X128006522Y-163853298D01*
X128035332Y-163867865D01*
X128079372Y-163874927D01*
X128091574Y-163875196D01*
X128141632Y-163869223D01*
X128198605Y-163850085D01*
X128258240Y-163817128D01*
X128294295Y-163789857D01*
X128407380Y-163927806D01*
X128350729Y-163971849D01*
X128285556Y-164007165D01*
X128213780Y-164032235D01*
X128138494Y-164045610D01*
X128096019Y-164047631D01*
G37*
G36*
X127639627Y-164032000D02*
G01*
X127439152Y-164032000D01*
X127439152Y-163197275D01*
X127639627Y-163197275D01*
X127639627Y-164032000D01*
G37*
G36*
X126872851Y-164047631D02*
G01*
X126800526Y-164041725D01*
X126730033Y-164024175D01*
X126665060Y-163995933D01*
X126636130Y-163978479D01*
X126610572Y-163959499D01*
X126595098Y-163945733D01*
X126595098Y-163555872D01*
X126905335Y-163555872D01*
X126905335Y-163719369D01*
X126773151Y-163719369D01*
X126773151Y-163853898D01*
X126800825Y-163867407D01*
X126843925Y-163874979D01*
X126852676Y-163875196D01*
X126885456Y-163873643D01*
X126915636Y-163869029D01*
X126941902Y-163861873D01*
X126965853Y-163852069D01*
X126986842Y-163840113D01*
X127005689Y-163825779D01*
X127036884Y-163790357D01*
X127060228Y-163744803D01*
X127075418Y-163687237D01*
X127081141Y-163612976D01*
X127079602Y-163576617D01*
X127075083Y-163542679D01*
X127067880Y-163511770D01*
X127058078Y-163483358D01*
X127046075Y-163457997D01*
X127031836Y-163435188D01*
X127015796Y-163415337D01*
X126997847Y-163398093D01*
X126978343Y-163383674D01*
X126957213Y-163371941D01*
X126910618Y-163356821D01*
X126869480Y-163353004D01*
X126842536Y-163354519D01*
X126818105Y-163358871D01*
X126774564Y-163375386D01*
X126733392Y-163403203D01*
X126716047Y-163418364D01*
X126609655Y-163290283D01*
X126636094Y-163266203D01*
X126666346Y-163243622D01*
X126695995Y-163225737D01*
X126728673Y-163210165D01*
X126760884Y-163198525D01*
X126795653Y-163189625D01*
X126830391Y-163184152D01*
X126867416Y-163181734D01*
X126876221Y-163181644D01*
X126914106Y-163183199D01*
X126951117Y-163187838D01*
X126986840Y-163195451D01*
X127021366Y-163206018D01*
X127054160Y-163219326D01*
X127085460Y-163235436D01*
X127114691Y-163254017D01*
X127142162Y-163275240D01*
X127167344Y-163298684D01*
X127190521Y-163324615D01*
X127211271Y-163352585D01*
X127229788Y-163382899D01*
X127245769Y-163415160D01*
X127259288Y-163449644D01*
X127270146Y-163486063D01*
X127278306Y-163524606D01*
X127283624Y-163565129D01*
X127285993Y-163607696D01*
X127286110Y-163619718D01*
X127284567Y-163663931D01*
X127280018Y-163705780D01*
X127272688Y-163744810D01*
X127262658Y-163781514D01*
X127250141Y-163815647D01*
X127235192Y-163847472D01*
X127217936Y-163876963D01*
X127198478Y-163904133D01*
X127153057Y-163951791D01*
X127099220Y-163990451D01*
X127037146Y-164019771D01*
X126967090Y-164039059D01*
X126889585Y-164047376D01*
X126872851Y-164047631D01*
G37*
G36*
X126427401Y-164032000D02*
G01*
X126236989Y-164032000D01*
X126236989Y-163754882D01*
X126242164Y-163644719D01*
X126254456Y-163523985D01*
X126262732Y-163446354D01*
X126257163Y-163446354D01*
X126175391Y-163629243D01*
X125969299Y-164032000D01*
X125765454Y-164032000D01*
X125765454Y-163197275D01*
X125955866Y-163197275D01*
X125955866Y-163473318D01*
X125950591Y-163588072D01*
X125930320Y-163771388D01*
X125928999Y-163781846D01*
X125934616Y-163781846D01*
X126016340Y-163596710D01*
X126223556Y-163197275D01*
X126427401Y-163197275D01*
X126427401Y-164032000D01*
G37*
G36*
X125572355Y-164032000D02*
G01*
X125031406Y-164032000D01*
X125031406Y-163864009D01*
X125371881Y-163864009D01*
X125371881Y-163687324D01*
X125093004Y-163687324D01*
X125093004Y-163519285D01*
X125371881Y-163519285D01*
X125371881Y-163363067D01*
X125043716Y-163363067D01*
X125043716Y-163197275D01*
X125572355Y-163197275D01*
X125572355Y-164032000D01*
G37*
G36*
X124867373Y-164032000D02*
G01*
X124616487Y-164032000D01*
X124571426Y-164030429D01*
X124528296Y-164025689D01*
X124489352Y-164018238D01*
X124452384Y-164007868D01*
X124419195Y-163995276D01*
X124388000Y-163979984D01*
X124360069Y-163962766D01*
X124334151Y-163943011D01*
X124311000Y-163921378D01*
X124289914Y-163897303D01*
X124271225Y-163871147D01*
X124254702Y-163842566D01*
X124228447Y-163777957D01*
X124211666Y-163702225D01*
X124205435Y-163613877D01*
X124205426Y-163610143D01*
X124410394Y-163610143D01*
X124411935Y-163652048D01*
X124416466Y-163689636D01*
X124423372Y-163721353D01*
X124432711Y-163749533D01*
X124443839Y-163773361D01*
X124456995Y-163794219D01*
X124471827Y-163811980D01*
X124488430Y-163827123D01*
X124527496Y-163850487D01*
X124575941Y-163865181D01*
X124639983Y-163870750D01*
X124666898Y-163870750D01*
X124666898Y-163356326D01*
X124639983Y-163356326D01*
X124601926Y-163357971D01*
X124566403Y-163363232D01*
X124539261Y-163370629D01*
X124514222Y-163381087D01*
X124493982Y-163393097D01*
X124475640Y-163407900D01*
X124460271Y-163424487D01*
X124446774Y-163443853D01*
X124425989Y-163490904D01*
X124413453Y-163552410D01*
X124410394Y-163610143D01*
X124205426Y-163610143D01*
X124206975Y-163563133D01*
X124211565Y-163519213D01*
X124218798Y-163479721D01*
X124228706Y-163443016D01*
X124240830Y-163409967D01*
X124255341Y-163379471D01*
X124271879Y-163351920D01*
X124290593Y-163326764D01*
X124334275Y-163283493D01*
X124386866Y-163248807D01*
X124449389Y-163222506D01*
X124523230Y-163205047D01*
X124609929Y-163197477D01*
X124627673Y-163197275D01*
X124867373Y-163197275D01*
X124867373Y-164032000D01*
G37*
G36*
X123795049Y-164032000D02*
G01*
X123480318Y-164032000D01*
X123436117Y-164030426D01*
X123393797Y-164025665D01*
X123356141Y-164018248D01*
X123320763Y-164007922D01*
X123290270Y-163995710D01*
X123262232Y-163980916D01*
X123238639Y-163964858D01*
X123217555Y-163946513D01*
X123200209Y-163927177D01*
X123185402Y-163905770D01*
X123173718Y-163883242D01*
X123164660Y-163858756D01*
X123158439Y-163832692D01*
X123155037Y-163804682D01*
X123154400Y-163785412D01*
X123155113Y-163771930D01*
X123349257Y-163771930D01*
X123350818Y-163792921D01*
X123355490Y-163811575D01*
X123362522Y-163826681D01*
X123372161Y-163839835D01*
X123398706Y-163860067D01*
X123437581Y-163873374D01*
X123494875Y-163878566D01*
X123594575Y-163878566D01*
X123594575Y-163676528D01*
X123494875Y-163676528D01*
X123457057Y-163678131D01*
X123424945Y-163683097D01*
X123403143Y-163689732D01*
X123385050Y-163698846D01*
X123372395Y-163708814D01*
X123362496Y-163720806D01*
X123351250Y-163749508D01*
X123349257Y-163771930D01*
X123155113Y-163771930D01*
X123155931Y-163756473D01*
X123160395Y-163729869D01*
X123167519Y-163705783D01*
X123177143Y-163683918D01*
X123203461Y-163646366D01*
X123239011Y-163616593D01*
X123283920Y-163594835D01*
X123302265Y-163589187D01*
X123302265Y-163584693D01*
X123267675Y-163565104D01*
X123236982Y-163533928D01*
X123212335Y-163491693D01*
X123197071Y-163441466D01*
X123196399Y-163434093D01*
X123388482Y-163434093D01*
X123390060Y-163453398D01*
X123394851Y-163470871D01*
X123402050Y-163485005D01*
X123412031Y-163497377D01*
X123439459Y-163515858D01*
X123479411Y-163526630D01*
X123511678Y-163528664D01*
X123594575Y-163528664D01*
X123594575Y-163349634D01*
X123511678Y-163349634D01*
X123477931Y-163351228D01*
X123449740Y-163356134D01*
X123430898Y-163362669D01*
X123415583Y-163371601D01*
X123405027Y-163381466D01*
X123397094Y-163393311D01*
X123389006Y-163422618D01*
X123388482Y-163434093D01*
X123196399Y-163434093D01*
X123193625Y-163403660D01*
X123195165Y-163375345D01*
X123199686Y-163349531D01*
X123206782Y-163326803D01*
X123216415Y-163306249D01*
X123242809Y-163271276D01*
X123279463Y-163242976D01*
X123328331Y-163220809D01*
X123392367Y-163205280D01*
X123475247Y-163197719D01*
X123503863Y-163197275D01*
X123795049Y-163197275D01*
X123795049Y-164032000D01*
G37*
G36*
X122897115Y-164032000D02*
G01*
X122697764Y-164032000D01*
X122697764Y-163736954D01*
X122445754Y-163197275D01*
X122655217Y-163197275D01*
X122724630Y-163382411D01*
X122743598Y-163432824D01*
X122794093Y-163568671D01*
X122798538Y-163568671D01*
X122815847Y-163520899D01*
X122865754Y-163382411D01*
X122935217Y-163197275D01*
X123148001Y-163197275D01*
X122897115Y-163736954D01*
X122897115Y-164032000D01*
G37*
G36*
X121845747Y-164047631D02*
G01*
X121807333Y-164046097D01*
X121771152Y-164041613D01*
X121737200Y-164034339D01*
X121705594Y-164024458D01*
X121676299Y-164012104D01*
X121649471Y-163997482D01*
X121625060Y-163980692D01*
X121603245Y-163961975D01*
X121583987Y-163941401D01*
X121567462Y-163919245D01*
X121542734Y-163870675D01*
X121529686Y-163817759D01*
X121527694Y-163786487D01*
X121529241Y-163755161D01*
X121533821Y-163726192D01*
X121541033Y-163700366D01*
X121550900Y-163676565D01*
X121578081Y-163634907D01*
X121616021Y-163599300D01*
X121666814Y-163568675D01*
X121692314Y-163557387D01*
X121796508Y-163515866D01*
X121808612Y-163511098D01*
X121854958Y-163492201D01*
X121891124Y-163473231D01*
X121904617Y-163462749D01*
X121914638Y-163451086D01*
X121920877Y-163437853D01*
X121923025Y-163422662D01*
X121921485Y-163407724D01*
X121916959Y-163394490D01*
X121900186Y-163373844D01*
X121872272Y-163359622D01*
X121830795Y-163353127D01*
X121823374Y-163353004D01*
X121794570Y-163354556D01*
X121767279Y-163359162D01*
X121716144Y-163377099D01*
X121663295Y-163408737D01*
X121652013Y-163417045D01*
X121552314Y-163291406D01*
X121602514Y-163249755D01*
X121661265Y-163216730D01*
X121726728Y-163193861D01*
X121795839Y-163182641D01*
X121823374Y-163181644D01*
X121858834Y-163183180D01*
X121892717Y-163187684D01*
X121925182Y-163195078D01*
X121955750Y-163205170D01*
X121984402Y-163217859D01*
X122010846Y-163232938D01*
X122034877Y-163250192D01*
X122056419Y-163269494D01*
X122075144Y-163290446D01*
X122091149Y-163313080D01*
X122104099Y-163336823D01*
X122114148Y-163361887D01*
X122121059Y-163387612D01*
X122124923Y-163414317D01*
X122125747Y-163433898D01*
X122124222Y-163462023D01*
X122119804Y-163488332D01*
X122102738Y-163536604D01*
X122075067Y-163579486D01*
X122036729Y-163617116D01*
X121987740Y-163648733D01*
X121956633Y-163662949D01*
X121850241Y-163707889D01*
X121836016Y-163713868D01*
X121793096Y-163732557D01*
X121760543Y-163751119D01*
X121748633Y-163761470D01*
X121739888Y-163773131D01*
X121734501Y-163786547D01*
X121732662Y-163802167D01*
X121734234Y-163817912D01*
X121738983Y-163832014D01*
X121746223Y-163843456D01*
X121756250Y-163853298D01*
X121785060Y-163867865D01*
X121829100Y-163874927D01*
X121841302Y-163875196D01*
X121891360Y-163869223D01*
X121948333Y-163850085D01*
X122007968Y-163817128D01*
X122044023Y-163789857D01*
X122157108Y-163927806D01*
X122100457Y-163971849D01*
X122035283Y-164007165D01*
X121963508Y-164032235D01*
X121888222Y-164045610D01*
X121845747Y-164047631D01*
G37*
G36*
X121389355Y-164032000D02*
G01*
X121188880Y-164032000D01*
X121188880Y-163688106D01*
X120914449Y-163688106D01*
X120914449Y-164032000D01*
X120716221Y-164032000D01*
X120716221Y-163197275D01*
X120914449Y-163197275D01*
X120914449Y-163514547D01*
X121188880Y-163514547D01*
X121188880Y-163197275D01*
X121389355Y-163197275D01*
X121389355Y-164032000D01*
G37*
G36*
X120627854Y-164032000D02*
G01*
X120424009Y-164032000D01*
X120375845Y-163839585D01*
X120129452Y-163839585D01*
X120081288Y-164032000D01*
X119870750Y-164032000D01*
X119978300Y-163684979D01*
X120167554Y-163684979D01*
X120337792Y-163684979D01*
X120319864Y-163614344D01*
X120259350Y-163360713D01*
X120256019Y-163346263D01*
X120251525Y-163346263D01*
X120220471Y-163472833D01*
X120185433Y-163614344D01*
X120167554Y-163684979D01*
X119978300Y-163684979D01*
X120129452Y-163197275D01*
X120369152Y-163197275D01*
X120627854Y-164032000D01*
G37*
G36*
X119712286Y-164032000D02*
G01*
X119464770Y-164032000D01*
X119391986Y-163668762D01*
X119365408Y-163511762D01*
X119359501Y-163474540D01*
X119353884Y-163474540D01*
X119326792Y-163642534D01*
X119321448Y-163668762D01*
X119246368Y-164032000D01*
X118994407Y-164032000D01*
X118849913Y-163197275D01*
X119040325Y-163197275D01*
X119094058Y-163577854D01*
X119106201Y-163679521D01*
X119125419Y-163842760D01*
X119131036Y-163842760D01*
X119151544Y-163728844D01*
X119179201Y-163577854D01*
X119266542Y-163197275D01*
X119434533Y-163197275D01*
X119519676Y-163577854D01*
X119568964Y-163842760D01*
X119573409Y-163842760D01*
X119607017Y-163577854D01*
X119659676Y-163197275D01*
X119864644Y-163197275D01*
X119712286Y-164032000D01*
G37*
G36*
X118737464Y-164032000D02*
G01*
X118547052Y-164032000D01*
X118547052Y-163754882D01*
X118552227Y-163644719D01*
X118564519Y-163523985D01*
X118572795Y-163446354D01*
X118567226Y-163446354D01*
X118485454Y-163629243D01*
X118279362Y-164032000D01*
X118075517Y-164032000D01*
X118075517Y-163197275D01*
X118265928Y-163197275D01*
X118265928Y-163473318D01*
X118260653Y-163588072D01*
X118240383Y-163771388D01*
X118239062Y-163781846D01*
X118244679Y-163781846D01*
X118326403Y-163596710D01*
X118533618Y-163197275D01*
X118737464Y-163197275D01*
X118737464Y-164032000D01*
G37*
G36*
X117626061Y-164032000D02*
G01*
X117446836Y-164032000D01*
X117446836Y-163745942D01*
X117452058Y-163642402D01*
X117471769Y-163462981D01*
X117472628Y-163456026D01*
X117468133Y-163456026D01*
X117400918Y-163655866D01*
X117287833Y-163961267D01*
X117178071Y-163961267D01*
X117066061Y-163655866D01*
X116996598Y-163456026D01*
X116992153Y-163456026D01*
X116993207Y-163464606D01*
X117009326Y-163605769D01*
X117015454Y-163679441D01*
X117017896Y-163745698D01*
X117017896Y-164032000D01*
X116835349Y-164032000D01*
X116835349Y-163197275D01*
X117052628Y-163197275D01*
X117180269Y-163557094D01*
X117202412Y-163630713D01*
X117226235Y-163709794D01*
X117231804Y-163709794D01*
X117247874Y-163654707D01*
X117277722Y-163557094D01*
X117409906Y-163197275D01*
X117626061Y-163197275D01*
X117626061Y-164032000D01*
G37*
G36*
X116749669Y-164032000D02*
G01*
X116545824Y-164032000D01*
X116497659Y-163839585D01*
X116251267Y-163839585D01*
X116203102Y-164032000D01*
X115992565Y-164032000D01*
X116100115Y-163684979D01*
X116289369Y-163684979D01*
X116459606Y-163684979D01*
X116441678Y-163614344D01*
X116381165Y-163360713D01*
X116377833Y-163346263D01*
X116373339Y-163346263D01*
X116342286Y-163472833D01*
X116307247Y-163614344D01*
X116289369Y-163684979D01*
X116100115Y-163684979D01*
X116251267Y-163197275D01*
X116490967Y-163197275D01*
X116749669Y-164032000D01*
G37*
G36*
X115905810Y-164032000D02*
G01*
X115381665Y-164032000D01*
X115381665Y-163864009D01*
X115705335Y-163864009D01*
X115705335Y-163197275D01*
X115905810Y-163197275D01*
X115905810Y-164032000D01*
G37*
G36*
X115237561Y-164032000D02*
G01*
X114713416Y-164032000D01*
X114713416Y-163864009D01*
X115037087Y-163864009D01*
X115037087Y-163197275D01*
X115237561Y-163197275D01*
X115237561Y-164032000D01*
G37*
G36*
X114283988Y-164047631D02*
G01*
X114242657Y-164046060D01*
X114204041Y-164041318D01*
X114170625Y-164034037D01*
X114139554Y-164023947D01*
X114112343Y-164011795D01*
X114087233Y-163997069D01*
X114064918Y-163980326D01*
X114044579Y-163961112D01*
X114009967Y-163915382D01*
X113982710Y-163858163D01*
X113963040Y-163786887D01*
X113952016Y-163698254D01*
X113950255Y-163639501D01*
X113950255Y-163197275D01*
X114142865Y-163197275D01*
X114142865Y-163660799D01*
X114144417Y-163705952D01*
X114149032Y-163745061D01*
X114155694Y-163775124D01*
X114164703Y-163800801D01*
X114174911Y-163820543D01*
X114186994Y-163836977D01*
X114200180Y-163849667D01*
X114215000Y-163859646D01*
X114249996Y-163872117D01*
X114283988Y-163875196D01*
X114309284Y-163873591D01*
X114332072Y-163868614D01*
X114349694Y-163861427D01*
X114365436Y-163851393D01*
X114378525Y-163839210D01*
X114389937Y-163824234D01*
X114408004Y-163784425D01*
X114419562Y-163726502D01*
X114422865Y-163660799D01*
X114422865Y-163197275D01*
X114622216Y-163197275D01*
X114622216Y-163639501D01*
X114620655Y-163694194D01*
X114615982Y-163744734D01*
X114608832Y-163788169D01*
X114599000Y-163828082D01*
X114587328Y-163862409D01*
X114573307Y-163893698D01*
X114557783Y-163920700D01*
X114540146Y-163945009D01*
X114520996Y-163966075D01*
X114499868Y-163984657D01*
X114451901Y-164014383D01*
X114394820Y-164034921D01*
X114326495Y-164045987D01*
X114283988Y-164047631D01*
G37*
G36*
X113691797Y-164032000D02*
G01*
X113444281Y-164032000D01*
X113371497Y-163668762D01*
X113344919Y-163511762D01*
X113339013Y-163474540D01*
X113333395Y-163474540D01*
X113306303Y-163642534D01*
X113300960Y-163668762D01*
X113225879Y-164032000D01*
X112973919Y-164032000D01*
X112829424Y-163197275D01*
X113019836Y-163197275D01*
X113073570Y-163577854D01*
X113085712Y-163679521D01*
X113104930Y-163842760D01*
X113110548Y-163842760D01*
X113131056Y-163728844D01*
X113158713Y-163577854D01*
X113246054Y-163197275D01*
X113414044Y-163197275D01*
X113499187Y-163577854D01*
X113548475Y-163842760D01*
X113552921Y-163842760D01*
X113586528Y-163577854D01*
X113639187Y-163197275D01*
X113844156Y-163197275D01*
X113691797Y-164032000D01*
G37*
G36*
X112822244Y-164032000D02*
G01*
X112618399Y-164032000D01*
X112570234Y-163839585D01*
X112323842Y-163839585D01*
X112275677Y-164032000D01*
X112065140Y-164032000D01*
X112172690Y-163684979D01*
X112361944Y-163684979D01*
X112532181Y-163684979D01*
X112514254Y-163614344D01*
X112453740Y-163360713D01*
X112450408Y-163346263D01*
X112445914Y-163346263D01*
X112414861Y-163472833D01*
X112379822Y-163614344D01*
X112361944Y-163684979D01*
X112172690Y-163684979D01*
X112323842Y-163197275D01*
X112563542Y-163197275D01*
X112822244Y-164032000D01*
G37*
G36*
X112018685Y-163778085D02*
G01*
X111701755Y-163778085D01*
X111701755Y-163638085D01*
X112018685Y-163638085D01*
X112018685Y-163778085D01*
G37*
G36*
X111491658Y-164032000D02*
G01*
X111244142Y-164032000D01*
X111171357Y-163668762D01*
X111144780Y-163511762D01*
X111138873Y-163474540D01*
X111133256Y-163474540D01*
X111106164Y-163642534D01*
X111100820Y-163668762D01*
X111025740Y-164032000D01*
X110773779Y-164032000D01*
X110629285Y-163197275D01*
X110819697Y-163197275D01*
X110873430Y-163577854D01*
X110885573Y-163679521D01*
X110904791Y-163842760D01*
X110910408Y-163842760D01*
X110930916Y-163728844D01*
X110958573Y-163577854D01*
X111045914Y-163197275D01*
X111213905Y-163197275D01*
X111299048Y-163577854D01*
X111348336Y-163842760D01*
X111352781Y-163842760D01*
X111386389Y-163577854D01*
X111439048Y-163197275D01*
X111644016Y-163197275D01*
X111491658Y-164032000D01*
G37*
G36*
X110622104Y-164032000D02*
G01*
X110418259Y-164032000D01*
X110370094Y-163839585D01*
X110123702Y-163839585D01*
X110075538Y-164032000D01*
X109865000Y-164032000D01*
X109972550Y-163684979D01*
X110161804Y-163684979D01*
X110332041Y-163684979D01*
X110314114Y-163614344D01*
X110253600Y-163360713D01*
X110250269Y-163346263D01*
X110245775Y-163346263D01*
X110214721Y-163472833D01*
X110179683Y-163614344D01*
X110161804Y-163684979D01*
X109972550Y-163684979D01*
X110123702Y-163197275D01*
X110363402Y-163197275D01*
X110622104Y-164032000D01*
G37*
G36*
X109778245Y-164032000D02*
G01*
X109527359Y-164032000D01*
X109482299Y-164030429D01*
X109439168Y-164025689D01*
X109400224Y-164018238D01*
X109363256Y-164007868D01*
X109330068Y-163995276D01*
X109298872Y-163979984D01*
X109270941Y-163962766D01*
X109245024Y-163943011D01*
X109221872Y-163921378D01*
X109200786Y-163897303D01*
X109182097Y-163871147D01*
X109165575Y-163842566D01*
X109139320Y-163777957D01*
X109122539Y-163702225D01*
X109116307Y-163613877D01*
X109116298Y-163610143D01*
X109321267Y-163610143D01*
X109322807Y-163652048D01*
X109327338Y-163689636D01*
X109334244Y-163721353D01*
X109343584Y-163749533D01*
X109354711Y-163773361D01*
X109367867Y-163794219D01*
X109382699Y-163811980D01*
X109399302Y-163827123D01*
X109438368Y-163850487D01*
X109486813Y-163865181D01*
X109550855Y-163870750D01*
X109577771Y-163870750D01*
X109577771Y-163356326D01*
X109550855Y-163356326D01*
X109512798Y-163357971D01*
X109477276Y-163363232D01*
X109450133Y-163370629D01*
X109425094Y-163381087D01*
X109404854Y-163393097D01*
X109386512Y-163407900D01*
X109371143Y-163424487D01*
X109357646Y-163443853D01*
X109336861Y-163490904D01*
X109324325Y-163552410D01*
X109321267Y-163610143D01*
X109116298Y-163610143D01*
X109117847Y-163563133D01*
X109122438Y-163519213D01*
X109129670Y-163479721D01*
X109139578Y-163443016D01*
X109151702Y-163409967D01*
X109166213Y-163379471D01*
X109182751Y-163351920D01*
X109201465Y-163326764D01*
X109245148Y-163283493D01*
X109297738Y-163248807D01*
X109360261Y-163222506D01*
X109434102Y-163205047D01*
X109520802Y-163197477D01*
X109538545Y-163197275D01*
X109778245Y-163197275D01*
X109778245Y-164032000D01*
G37*
G36*
X108628496Y-164047631D02*
G01*
X108587165Y-164046060D01*
X108548549Y-164041318D01*
X108515133Y-164034037D01*
X108484062Y-164023947D01*
X108456851Y-164011795D01*
X108431741Y-163997069D01*
X108409426Y-163980326D01*
X108389087Y-163961112D01*
X108354475Y-163915382D01*
X108327218Y-163858163D01*
X108307548Y-163786887D01*
X108296524Y-163698254D01*
X108294763Y-163639501D01*
X108294763Y-163197275D01*
X108487373Y-163197275D01*
X108487373Y-163660799D01*
X108488925Y-163705952D01*
X108493540Y-163745061D01*
X108500202Y-163775124D01*
X108509211Y-163800801D01*
X108519419Y-163820543D01*
X108531502Y-163836977D01*
X108544688Y-163849667D01*
X108559508Y-163859646D01*
X108594504Y-163872117D01*
X108628496Y-163875196D01*
X108653792Y-163873591D01*
X108676580Y-163868614D01*
X108694202Y-163861427D01*
X108709944Y-163851393D01*
X108723033Y-163839210D01*
X108734445Y-163824234D01*
X108752512Y-163784425D01*
X108764070Y-163726502D01*
X108767373Y-163660799D01*
X108767373Y-163197275D01*
X108966724Y-163197275D01*
X108966724Y-163639501D01*
X108965163Y-163694194D01*
X108960490Y-163744734D01*
X108953340Y-163788169D01*
X108943508Y-163828082D01*
X108931836Y-163862409D01*
X108917815Y-163893698D01*
X108902291Y-163920700D01*
X108884654Y-163945009D01*
X108865504Y-163966075D01*
X108844376Y-163984657D01*
X108796409Y-164014383D01*
X108739328Y-164034921D01*
X108671003Y-164045987D01*
X108628496Y-164047631D01*
G37*
D11*
%TO.C,G\u002A\u002A\u002A*%
G36*
X132242000Y-156929000D02*
G01*
X132242000Y-157294000D01*
X131877000Y-157294000D01*
X131512000Y-157294000D01*
X131512000Y-156929000D01*
X131512000Y-156564000D01*
X131877000Y-156564000D01*
X132242000Y-156564000D01*
X132242000Y-156929000D01*
G37*
G36*
X132002000Y-158639000D02*
G01*
X132002000Y-158764000D01*
X131877000Y-158764000D01*
X131752000Y-158764000D01*
X131752000Y-158639000D01*
X131752000Y-158514000D01*
X131877000Y-158514000D01*
X132002000Y-158514000D01*
X132002000Y-158639000D01*
G37*
G36*
X132242000Y-163269000D02*
G01*
X132242000Y-163634000D01*
X131877000Y-163634000D01*
X131512000Y-163634000D01*
X131512000Y-163269000D01*
X131512000Y-162904000D01*
X131877000Y-162904000D01*
X132242000Y-162904000D01*
X132242000Y-163269000D01*
G37*
G36*
X132732000Y-160589000D02*
G01*
X132732000Y-160714000D01*
X132612000Y-160714000D01*
X132492000Y-160714000D01*
X132492000Y-160589000D01*
X132492000Y-160464000D01*
X132612000Y-160464000D01*
X132732000Y-160464000D01*
X132732000Y-160589000D01*
G37*
G36*
X133222000Y-162054000D02*
G01*
X133222000Y-162174000D01*
X133097000Y-162174000D01*
X132972000Y-162174000D01*
X132972000Y-162054000D01*
X132972000Y-161934000D01*
X133097000Y-161934000D01*
X133222000Y-161934000D01*
X133222000Y-162054000D01*
G37*
G36*
X133462000Y-159124000D02*
G01*
X133462000Y-159244000D01*
X133342000Y-159244000D01*
X133222000Y-159244000D01*
X133222000Y-159124000D01*
X133222000Y-159004000D01*
X133342000Y-159004000D01*
X133462000Y-159004000D01*
X133462000Y-159124000D01*
G37*
G36*
X133712000Y-163759000D02*
G01*
X133712000Y-163884000D01*
X133587000Y-163884000D01*
X133462000Y-163884000D01*
X133462000Y-163759000D01*
X133462000Y-163634000D01*
X133587000Y-163634000D01*
X133712000Y-163634000D01*
X133712000Y-163759000D01*
G37*
G36*
X133952000Y-157049000D02*
G01*
X133952000Y-157294000D01*
X133832000Y-157294000D01*
X133712000Y-157294000D01*
X133712000Y-157049000D01*
X133712000Y-156804000D01*
X133832000Y-156804000D01*
X133952000Y-156804000D01*
X133952000Y-157049000D01*
G37*
G36*
X133952000Y-159614000D02*
G01*
X133952000Y-159734000D01*
X133832000Y-159734000D01*
X133712000Y-159734000D01*
X133712000Y-159614000D01*
X133712000Y-159494000D01*
X133832000Y-159494000D01*
X133952000Y-159494000D01*
X133952000Y-159614000D01*
G37*
G36*
X133952000Y-161809000D02*
G01*
X133952000Y-161934000D01*
X133832000Y-161934000D01*
X133712000Y-161934000D01*
X133712000Y-161809000D01*
X133712000Y-161684000D01*
X133832000Y-161684000D01*
X133952000Y-161684000D01*
X133952000Y-161809000D01*
G37*
G36*
X134932000Y-156809000D02*
G01*
X134932000Y-157054000D01*
X134807000Y-157054000D01*
X134682000Y-157054000D01*
X134682000Y-156809000D01*
X134682000Y-156564000D01*
X134807000Y-156564000D01*
X134932000Y-156564000D01*
X134932000Y-156809000D01*
G37*
G36*
X134932000Y-158884000D02*
G01*
X134932000Y-159004000D01*
X134807000Y-159004000D01*
X134682000Y-159004000D01*
X134682000Y-158884000D01*
X134682000Y-158764000D01*
X134807000Y-158764000D01*
X134932000Y-158764000D01*
X134932000Y-158884000D01*
G37*
G36*
X135662000Y-160344000D02*
G01*
X135662000Y-160464000D01*
X135537000Y-160464000D01*
X135412000Y-160464000D01*
X135412000Y-160344000D01*
X135412000Y-160224000D01*
X135537000Y-160224000D01*
X135662000Y-160224000D01*
X135662000Y-160344000D01*
G37*
G36*
X137612000Y-162539000D02*
G01*
X137612000Y-162664000D01*
X137487000Y-162664000D01*
X137362000Y-162664000D01*
X137362000Y-162539000D01*
X137362000Y-162414000D01*
X137487000Y-162414000D01*
X137612000Y-162414000D01*
X137612000Y-162539000D01*
G37*
G36*
X137852000Y-160104000D02*
G01*
X137852000Y-160224000D01*
X137732000Y-160224000D01*
X137612000Y-160224000D01*
X137612000Y-160104000D01*
X137612000Y-159984000D01*
X137732000Y-159984000D01*
X137852000Y-159984000D01*
X137852000Y-160104000D01*
G37*
G36*
X138582000Y-156929000D02*
G01*
X138582000Y-157294000D01*
X138217000Y-157294000D01*
X137852000Y-157294000D01*
X137852000Y-156929000D01*
X137852000Y-156564000D01*
X138217000Y-156564000D01*
X138582000Y-156564000D01*
X138582000Y-156929000D01*
G37*
G36*
X132492000Y-160834000D02*
G01*
X132492000Y-160954000D01*
X132367000Y-160954000D01*
X132242000Y-160954000D01*
X132242000Y-161199000D01*
X132242000Y-161444000D01*
X132122000Y-161444000D01*
X132002000Y-161444000D01*
X132002000Y-161079000D01*
X132002000Y-160714000D01*
X132247000Y-160714000D01*
X132492000Y-160714000D01*
X132492000Y-160834000D01*
G37*
G36*
X139072000Y-163759000D02*
G01*
X139072000Y-163884000D01*
X138952000Y-163884000D01*
X138832000Y-163884000D01*
X138832000Y-164004000D01*
X138832000Y-164124000D01*
X138707000Y-164124000D01*
X138582000Y-164124000D01*
X138582000Y-163879000D01*
X138582000Y-163634000D01*
X138827000Y-163634000D01*
X139072000Y-163634000D01*
X139072000Y-163759000D01*
G37*
G36*
X138832000Y-163029000D02*
G01*
X138832000Y-163154000D01*
X138952000Y-163154000D01*
X139072000Y-163154000D01*
X139072000Y-163274000D01*
X139072000Y-163394000D01*
X138827000Y-163394000D01*
X138582000Y-163394000D01*
X138582000Y-163149000D01*
X138582000Y-162904000D01*
X138707000Y-162904000D01*
X138832000Y-162904000D01*
X138832000Y-163029000D01*
G37*
G36*
X135412000Y-160104000D02*
G01*
X135412000Y-160224000D01*
X135047000Y-160224000D01*
X134682000Y-160224000D01*
X134682000Y-160344000D01*
X134682000Y-160464000D01*
X134562000Y-160464000D01*
X134442000Y-160464000D01*
X134442000Y-160344000D01*
X134442000Y-160224000D01*
X134562000Y-160224000D01*
X134682000Y-160224000D01*
X134682000Y-160104000D01*
X134682000Y-159984000D01*
X135047000Y-159984000D01*
X135412000Y-159984000D01*
X135412000Y-160104000D01*
G37*
G36*
X135902000Y-160834000D02*
G01*
X135902000Y-160954000D01*
X136027000Y-160954000D01*
X136152000Y-160954000D01*
X136152000Y-161079000D01*
X136152000Y-161204000D01*
X135907000Y-161204000D01*
X135662000Y-161204000D01*
X135662000Y-161079000D01*
X135662000Y-160954000D01*
X135537000Y-160954000D01*
X135412000Y-160954000D01*
X135412000Y-160834000D01*
X135412000Y-160714000D01*
X135657000Y-160714000D01*
X135902000Y-160714000D01*
X135902000Y-160834000D01*
G37*
G36*
X137122000Y-161564000D02*
G01*
X137122000Y-161684000D01*
X137002000Y-161684000D01*
X136882000Y-161684000D01*
X136882000Y-161809000D01*
X136882000Y-161934000D01*
X136757000Y-161934000D01*
X136632000Y-161934000D01*
X136632000Y-161809000D01*
X136632000Y-161684000D01*
X136757000Y-161684000D01*
X136882000Y-161684000D01*
X136882000Y-161564000D01*
X136882000Y-161444000D01*
X137002000Y-161444000D01*
X137122000Y-161444000D01*
X137122000Y-161564000D01*
G37*
G36*
X131882000Y-156074000D02*
G01*
X132732000Y-156074000D01*
X132732000Y-156929000D01*
X132732000Y-157784000D01*
X131877000Y-157784000D01*
X131022000Y-157784000D01*
X131022000Y-156929000D01*
X131022000Y-156324000D01*
X131272000Y-156324000D01*
X131272000Y-156934000D01*
X131272000Y-157544000D01*
X131882000Y-157544000D01*
X132492000Y-157544000D01*
X132492000Y-156934000D01*
X132492000Y-156324000D01*
X131882000Y-156324000D01*
X131272000Y-156324000D01*
X131022000Y-156324000D01*
X131022000Y-156074000D01*
X131877000Y-156074000D01*
X131882000Y-156074000D01*
G37*
G36*
X131882000Y-162414000D02*
G01*
X132732000Y-162414000D01*
X132732000Y-163269000D01*
X132732000Y-164124000D01*
X131877000Y-164124000D01*
X131022000Y-164124000D01*
X131022000Y-163269000D01*
X131022000Y-162664000D01*
X131272000Y-162664000D01*
X131272000Y-163274000D01*
X131272000Y-163884000D01*
X131882000Y-163884000D01*
X132492000Y-163884000D01*
X132492000Y-163274000D01*
X132492000Y-162664000D01*
X131882000Y-162664000D01*
X131272000Y-162664000D01*
X131022000Y-162664000D01*
X131022000Y-162414000D01*
X131877000Y-162414000D01*
X131882000Y-162414000D01*
G37*
G36*
X138222000Y-156074000D02*
G01*
X139072000Y-156074000D01*
X139072000Y-156929000D01*
X139072000Y-157784000D01*
X138217000Y-157784000D01*
X137362000Y-157784000D01*
X137362000Y-156929000D01*
X137362000Y-156324000D01*
X137612000Y-156324000D01*
X137612000Y-156934000D01*
X137612000Y-157544000D01*
X138222000Y-157544000D01*
X138832000Y-157544000D01*
X138832000Y-156934000D01*
X138832000Y-156324000D01*
X138222000Y-156324000D01*
X137612000Y-156324000D01*
X137362000Y-156324000D01*
X137362000Y-156074000D01*
X138217000Y-156074000D01*
X138222000Y-156074000D01*
G37*
G36*
X134682000Y-156319000D02*
G01*
X134682000Y-156564000D01*
X134562000Y-156564000D01*
X134442000Y-156564000D01*
X134442000Y-156809000D01*
X134442000Y-157054000D01*
X134317000Y-157054000D01*
X134192000Y-157054000D01*
X134192000Y-156929000D01*
X134192000Y-156804000D01*
X134072000Y-156804000D01*
X133952000Y-156804000D01*
X133952000Y-156564000D01*
X133952000Y-156324000D01*
X134072000Y-156324000D01*
X134192000Y-156324000D01*
X134192000Y-156444000D01*
X134192000Y-156564000D01*
X134317000Y-156564000D01*
X134442000Y-156564000D01*
X134442000Y-156319000D01*
X134442000Y-156074000D01*
X134562000Y-156074000D01*
X134682000Y-156074000D01*
X134682000Y-156319000D01*
G37*
G36*
X134932000Y-157419000D02*
G01*
X134932000Y-157544000D01*
X134807000Y-157544000D01*
X134682000Y-157544000D01*
X134682000Y-157664000D01*
X134682000Y-157784000D01*
X134562000Y-157784000D01*
X134442000Y-157784000D01*
X134442000Y-157664000D01*
X134442000Y-157544000D01*
X134317000Y-157544000D01*
X134192000Y-157544000D01*
X134192000Y-157664000D01*
X134192000Y-157784000D01*
X134072000Y-157784000D01*
X133952000Y-157784000D01*
X133952000Y-157664000D01*
X133952000Y-157544000D01*
X134072000Y-157544000D01*
X134192000Y-157544000D01*
X134192000Y-157419000D01*
X134192000Y-157294000D01*
X134562000Y-157294000D01*
X134932000Y-157294000D01*
X134932000Y-157419000D01*
G37*
G36*
X137612000Y-159859000D02*
G01*
X137612000Y-159984000D01*
X137487000Y-159984000D01*
X137362000Y-159984000D01*
X137362000Y-160104000D01*
X137362000Y-160224000D01*
X137242000Y-160224000D01*
X137122000Y-160224000D01*
X137122000Y-160344000D01*
X137122000Y-160464000D01*
X137002000Y-160464000D01*
X136882000Y-160464000D01*
X136882000Y-160344000D01*
X136882000Y-160224000D01*
X137002000Y-160224000D01*
X137122000Y-160224000D01*
X137122000Y-160104000D01*
X137122000Y-159984000D01*
X137242000Y-159984000D01*
X137362000Y-159984000D01*
X137362000Y-159859000D01*
X137362000Y-159734000D01*
X137487000Y-159734000D01*
X137612000Y-159734000D01*
X137612000Y-159859000D01*
G37*
G36*
X133587000Y-162174000D02*
G01*
X133707000Y-162174000D01*
X133952000Y-162174000D01*
X133952000Y-162539000D01*
X133952000Y-162904000D01*
X133832000Y-162904000D01*
X133712000Y-162904000D01*
X133712000Y-163029000D01*
X133712000Y-163154000D01*
X133587000Y-163154000D01*
X133462000Y-163154000D01*
X133462000Y-163394000D01*
X133462000Y-163634000D01*
X133217000Y-163634000D01*
X132972000Y-163634000D01*
X132972000Y-163024000D01*
X132972000Y-162414000D01*
X133217000Y-162414000D01*
X133462000Y-162414000D01*
X133462000Y-162659000D01*
X133462000Y-162904000D01*
X133587000Y-162904000D01*
X133712000Y-162904000D01*
X133712000Y-162659000D01*
X133712000Y-162414000D01*
X133587000Y-162414000D01*
X133462000Y-162414000D01*
X133462000Y-162294000D01*
X133462000Y-162174000D01*
X133587000Y-162174000D01*
G37*
G36*
X133952000Y-156199000D02*
G01*
X133952000Y-156324000D01*
X133832000Y-156324000D01*
X133712000Y-156324000D01*
X133712000Y-156444000D01*
X133712000Y-156564000D01*
X133467000Y-156564000D01*
X133222000Y-156564000D01*
X133222000Y-156684000D01*
X133222000Y-156804000D01*
X133342000Y-156804000D01*
X133462000Y-156804000D01*
X133462000Y-156929000D01*
X133462000Y-157054000D01*
X133342000Y-157054000D01*
X133222000Y-157054000D01*
X133222000Y-157419000D01*
X133222000Y-157784000D01*
X133097000Y-157784000D01*
X132972000Y-157784000D01*
X132972000Y-157174000D01*
X132972000Y-156564000D01*
X133097000Y-156564000D01*
X133222000Y-156564000D01*
X133222000Y-156444000D01*
X133222000Y-156324000D01*
X133097000Y-156324000D01*
X132972000Y-156324000D01*
X132972000Y-156199000D01*
X132972000Y-156074000D01*
X133462000Y-156074000D01*
X133952000Y-156074000D01*
X133952000Y-156199000D01*
G37*
G36*
X135412000Y-158639000D02*
G01*
X135412000Y-159004000D01*
X135537000Y-159004000D01*
X135662000Y-159004000D01*
X135662000Y-158639000D01*
X135662000Y-158274000D01*
X135782000Y-158274000D01*
X135902000Y-158274000D01*
X135902000Y-158639000D01*
X135902000Y-159004000D01*
X135782000Y-159004000D01*
X135662000Y-159004000D01*
X135662000Y-159124000D01*
X135662000Y-159244000D01*
X135537000Y-159244000D01*
X135412000Y-159244000D01*
X135412000Y-159369000D01*
X135412000Y-159494000D01*
X135537000Y-159494000D01*
X135662000Y-159494000D01*
X135662000Y-159614000D01*
X135662000Y-159734000D01*
X135052000Y-159734000D01*
X134442000Y-159734000D01*
X134442000Y-159979000D01*
X134442000Y-160224000D01*
X134317000Y-160224000D01*
X134192000Y-160224000D01*
X134192000Y-160104000D01*
X134192000Y-159984000D01*
X134072000Y-159984000D01*
X133952000Y-159984000D01*
X133952000Y-159859000D01*
X133952000Y-159734000D01*
X134072000Y-159734000D01*
X134192000Y-159734000D01*
X134192000Y-159614000D01*
X134192000Y-159494000D01*
X134317000Y-159494000D01*
X134442000Y-159494000D01*
X134442000Y-159369000D01*
X134442000Y-159244000D01*
X134562000Y-159244000D01*
X134682000Y-159244000D01*
X134682000Y-159369000D01*
X134682000Y-159494000D01*
X134927000Y-159494000D01*
X135172000Y-159494000D01*
X135172000Y-159004000D01*
X135172000Y-158514000D01*
X135052000Y-158514000D01*
X134932000Y-158514000D01*
X134932000Y-158394000D01*
X134932000Y-158274000D01*
X135172000Y-158274000D01*
X135412000Y-158274000D01*
X135412000Y-158639000D01*
G37*
G36*
X133712000Y-157784000D02*
G01*
X133712000Y-158024000D01*
X133952000Y-158024000D01*
X134192000Y-158024000D01*
X134192000Y-157904000D01*
X134192000Y-157784000D01*
X134317000Y-157784000D01*
X134442000Y-157784000D01*
X134442000Y-157904000D01*
X134442000Y-158024000D01*
X134562000Y-158024000D01*
X134682000Y-158024000D01*
X134682000Y-157904000D01*
X134682000Y-157784000D01*
X134807000Y-157784000D01*
X134932000Y-157784000D01*
X134932000Y-157664000D01*
X134932000Y-157544000D01*
X135052000Y-157544000D01*
X135172000Y-157544000D01*
X135172000Y-157784000D01*
X135172000Y-158024000D01*
X135052000Y-158024000D01*
X134932000Y-158024000D01*
X134932000Y-158149000D01*
X134932000Y-158274000D01*
X134807000Y-158274000D01*
X134682000Y-158274000D01*
X134682000Y-158394000D01*
X134682000Y-158514000D01*
X134562000Y-158514000D01*
X134442000Y-158514000D01*
X134442000Y-158394000D01*
X134442000Y-158274000D01*
X134317000Y-158274000D01*
X134192000Y-158274000D01*
X134192000Y-158759000D01*
X134192000Y-159244000D01*
X133952000Y-159244000D01*
X133712000Y-159244000D01*
X133712000Y-159124000D01*
X133712000Y-159004000D01*
X133587000Y-159004000D01*
X133462000Y-159004000D01*
X133462000Y-158884000D01*
X133462000Y-158764000D01*
X133707000Y-158764000D01*
X133952000Y-158764000D01*
X133952000Y-158639000D01*
X133952000Y-158514000D01*
X133707000Y-158514000D01*
X133462000Y-158514000D01*
X133462000Y-158639000D01*
X133462000Y-158764000D01*
X133342000Y-158764000D01*
X133222000Y-158764000D01*
X133222000Y-158884000D01*
X133222000Y-159004000D01*
X133097000Y-159004000D01*
X132972000Y-159004000D01*
X132972000Y-159124000D01*
X132972000Y-159244000D01*
X133097000Y-159244000D01*
X133222000Y-159244000D01*
X133222000Y-159369000D01*
X133222000Y-159494000D01*
X133342000Y-159494000D01*
X133462000Y-159494000D01*
X133462000Y-159614000D01*
X133462000Y-159734000D01*
X133587000Y-159734000D01*
X133712000Y-159734000D01*
X133712000Y-159859000D01*
X133712000Y-159984000D01*
X133832000Y-159984000D01*
X133952000Y-159984000D01*
X133952000Y-160104000D01*
X133952000Y-160224000D01*
X133832000Y-160224000D01*
X133712000Y-160224000D01*
X133712000Y-160344000D01*
X133712000Y-160464000D01*
X133587000Y-160464000D01*
X133462000Y-160464000D01*
X133462000Y-160589000D01*
X133462000Y-160714000D01*
X133587000Y-160714000D01*
X133712000Y-160714000D01*
X133712000Y-160589000D01*
X133712000Y-160464000D01*
X133832000Y-160464000D01*
X133952000Y-160464000D01*
X133952000Y-160344000D01*
X133952000Y-160224000D01*
X134072000Y-160224000D01*
X134192000Y-160224000D01*
X134192000Y-160469000D01*
X134192000Y-160714000D01*
X134072000Y-160714000D01*
X133952000Y-160714000D01*
X133952000Y-160834000D01*
X133952000Y-160954000D01*
X133707000Y-160954000D01*
X133462000Y-160954000D01*
X133462000Y-161199000D01*
X133462000Y-161444000D01*
X133587000Y-161444000D01*
X133712000Y-161444000D01*
X133712000Y-161324000D01*
X133712000Y-161204000D01*
X133832000Y-161204000D01*
X133952000Y-161204000D01*
X133952000Y-161079000D01*
X133952000Y-160954000D01*
X134072000Y-160954000D01*
X134192000Y-160954000D01*
X134442000Y-160954000D01*
X134442000Y-161199000D01*
X134442000Y-161444000D01*
X134562000Y-161444000D01*
X134682000Y-161444000D01*
X134682000Y-161199000D01*
X134682000Y-160954000D01*
X134562000Y-160954000D01*
X134442000Y-160954000D01*
X134192000Y-160954000D01*
X134192000Y-160834000D01*
X134192000Y-160714000D01*
X134437000Y-160714000D01*
X134562000Y-160714000D01*
X134682000Y-160714000D01*
X134682000Y-160589000D01*
X134682000Y-160464000D01*
X134927000Y-160464000D01*
X135172000Y-160464000D01*
X135172000Y-160589000D01*
X135172000Y-160714000D01*
X135052000Y-160714000D01*
X134932000Y-160714000D01*
X134932000Y-160834000D01*
X134932000Y-160954000D01*
X135172000Y-160954000D01*
X135412000Y-160954000D01*
X135412000Y-161079000D01*
X135412000Y-161204000D01*
X135537000Y-161204000D01*
X135662000Y-161204000D01*
X135662000Y-161324000D01*
X135662000Y-161444000D01*
X135907000Y-161444000D01*
X136152000Y-161444000D01*
X136152000Y-161324000D01*
X136152000Y-161204000D01*
X136272000Y-161204000D01*
X136392000Y-161204000D01*
X136392000Y-161444000D01*
X136392000Y-161684000D01*
X136147000Y-161684000D01*
X135902000Y-161684000D01*
X135902000Y-161809000D01*
X135902000Y-161934000D01*
X135782000Y-161934000D01*
X135662000Y-161934000D01*
X135662000Y-162054000D01*
X135662000Y-162174000D01*
X135907000Y-162174000D01*
X136152000Y-162174000D01*
X136152000Y-162054000D01*
X136152000Y-161934000D01*
X136392000Y-161934000D01*
X136632000Y-161934000D01*
X136632000Y-162054000D01*
X136632000Y-162174000D01*
X136512000Y-162174000D01*
X136392000Y-162174000D01*
X136392000Y-162419000D01*
X136392000Y-162664000D01*
X136272000Y-162664000D01*
X136152000Y-162664000D01*
X136152000Y-162784000D01*
X136152000Y-162904000D01*
X136027000Y-162904000D01*
X135902000Y-162904000D01*
X135902000Y-162659000D01*
X135902000Y-162414000D01*
X135657000Y-162414000D01*
X135412000Y-162414000D01*
X135412000Y-162659000D01*
X135412000Y-162904000D01*
X135292000Y-162904000D01*
X135172000Y-162904000D01*
X135172000Y-163029000D01*
X135172000Y-163154000D01*
X135292000Y-163154000D01*
X135412000Y-163154000D01*
X135412000Y-163029000D01*
X135412000Y-162904000D01*
X135537000Y-162904000D01*
X135662000Y-162904000D01*
X135662000Y-163029000D01*
X135662000Y-163154000D01*
X135782000Y-163154000D01*
X135902000Y-163154000D01*
X135902000Y-163274000D01*
X135902000Y-163394000D01*
X136027000Y-163394000D01*
X136152000Y-163394000D01*
X136152000Y-163149000D01*
X136152000Y-163029000D01*
X136632000Y-163029000D01*
X136632000Y-163394000D01*
X136757000Y-163394000D01*
X136882000Y-163394000D01*
X136882000Y-163029000D01*
X136882000Y-162664000D01*
X136757000Y-162664000D01*
X136632000Y-162664000D01*
X136632000Y-163029000D01*
X136152000Y-163029000D01*
X136152000Y-162904000D01*
X136272000Y-162904000D01*
X136392000Y-162904000D01*
X136392000Y-162784000D01*
X136392000Y-162664000D01*
X136512000Y-162664000D01*
X136632000Y-162664000D01*
X136632000Y-162539000D01*
X136632000Y-162414000D01*
X136757000Y-162414000D01*
X136882000Y-162414000D01*
X136882000Y-162174000D01*
X137122000Y-162174000D01*
X137122000Y-162539000D01*
X137122000Y-162904000D01*
X137487000Y-162904000D01*
X137852000Y-162904000D01*
X137852000Y-162539000D01*
X137852000Y-162174000D01*
X137487000Y-162174000D01*
X137122000Y-162174000D01*
X136882000Y-162174000D01*
X136882000Y-161934000D01*
X137002000Y-161934000D01*
X137122000Y-161934000D01*
X137122000Y-161809000D01*
X137122000Y-161684000D01*
X137242000Y-161684000D01*
X137362000Y-161684000D01*
X137362000Y-161564000D01*
X137362000Y-161444000D01*
X137612000Y-161444000D01*
X137612000Y-161564000D01*
X137612000Y-161684000D01*
X137732000Y-161684000D01*
X137852000Y-161684000D01*
X137852000Y-161809000D01*
X137852000Y-161934000D01*
X137977000Y-161934000D01*
X138102000Y-161934000D01*
X138102000Y-162054000D01*
X138102000Y-162174000D01*
X138222000Y-162174000D01*
X138342000Y-162174000D01*
X138342000Y-161934000D01*
X138582000Y-161934000D01*
X138582000Y-162054000D01*
X138582000Y-162174000D01*
X138707000Y-162174000D01*
X138832000Y-162174000D01*
X138832000Y-162054000D01*
X138832000Y-161934000D01*
X138707000Y-161934000D01*
X138582000Y-161934000D01*
X138342000Y-161934000D01*
X138342000Y-161929000D01*
X138342000Y-161684000D01*
X138222000Y-161684000D01*
X138102000Y-161684000D01*
X138102000Y-161564000D01*
X138102000Y-161444000D01*
X137857000Y-161444000D01*
X137612000Y-161444000D01*
X137362000Y-161444000D01*
X137242000Y-161444000D01*
X137122000Y-161444000D01*
X137122000Y-161324000D01*
X137122000Y-161204000D01*
X136877000Y-161204000D01*
X136632000Y-161204000D01*
X136632000Y-161079000D01*
X136632000Y-160954000D01*
X136512000Y-160954000D01*
X136392000Y-160954000D01*
X136392000Y-160834000D01*
X136392000Y-160714000D01*
X136637000Y-160714000D01*
X136882000Y-160714000D01*
X136882000Y-160834000D01*
X136882000Y-160954000D01*
X137002000Y-160954000D01*
X137122000Y-160954000D01*
X137362000Y-160954000D01*
X137362000Y-161079000D01*
X137362000Y-161204000D01*
X137487000Y-161204000D01*
X137612000Y-161204000D01*
X137612000Y-161079000D01*
X137612000Y-160954000D01*
X137487000Y-160954000D01*
X137362000Y-160954000D01*
X137122000Y-160954000D01*
X137122000Y-160834000D01*
X137122000Y-160714000D01*
X137242000Y-160714000D01*
X137362000Y-160714000D01*
X137852000Y-160714000D01*
X137852000Y-160959000D01*
X137852000Y-161204000D01*
X137857000Y-161204000D01*
X137977000Y-161204000D01*
X138102000Y-161204000D01*
X138342000Y-161204000D01*
X138342000Y-161324000D01*
X138342000Y-161444000D01*
X138462000Y-161444000D01*
X138582000Y-161444000D01*
X138582000Y-161324000D01*
X138582000Y-161204000D01*
X138462000Y-161204000D01*
X138342000Y-161204000D01*
X138102000Y-161204000D01*
X138102000Y-160959000D01*
X138102000Y-160714000D01*
X138342000Y-160714000D01*
X138342000Y-160834000D01*
X138342000Y-160954000D01*
X138462000Y-160954000D01*
X138582000Y-160954000D01*
X138582000Y-160834000D01*
X138582000Y-160714000D01*
X138462000Y-160714000D01*
X138342000Y-160714000D01*
X138102000Y-160714000D01*
X137977000Y-160714000D01*
X137852000Y-160714000D01*
X137362000Y-160714000D01*
X137362000Y-160589000D01*
X137362000Y-160464000D01*
X137487000Y-160464000D01*
X137852000Y-160464000D01*
X137977000Y-160464000D01*
X138342000Y-160464000D01*
X138342000Y-160344000D01*
X138342000Y-160224000D01*
X138462000Y-160224000D01*
X138582000Y-160224000D01*
X138582000Y-160104000D01*
X138582000Y-159984000D01*
X138827000Y-159984000D01*
X139072000Y-159984000D01*
X139072000Y-160104000D01*
X139072000Y-160224000D01*
X138952000Y-160224000D01*
X138832000Y-160224000D01*
X138832000Y-160589000D01*
X138832000Y-160954000D01*
X138952000Y-160954000D01*
X139072000Y-160954000D01*
X139072000Y-161079000D01*
X139072000Y-161204000D01*
X138952000Y-161204000D01*
X138832000Y-161204000D01*
X138832000Y-161324000D01*
X138832000Y-161444000D01*
X138707000Y-161444000D01*
X138582000Y-161444000D01*
X138582000Y-161564000D01*
X138582000Y-161684000D01*
X138707000Y-161684000D01*
X138827000Y-161684000D01*
X139072000Y-161684000D01*
X139072000Y-161929000D01*
X139072000Y-162174000D01*
X138952000Y-162174000D01*
X138832000Y-162174000D01*
X138832000Y-162294000D01*
X138832000Y-162414000D01*
X138707000Y-162414000D01*
X138582000Y-162414000D01*
X138582000Y-162659000D01*
X138582000Y-162904000D01*
X138342000Y-162904000D01*
X138102000Y-162904000D01*
X138102000Y-163029000D01*
X138102000Y-163154000D01*
X137977000Y-163154000D01*
X137852000Y-163154000D01*
X137852000Y-163274000D01*
X137852000Y-163394000D01*
X137977000Y-163394000D01*
X138102000Y-163394000D01*
X138102000Y-163274000D01*
X138102000Y-163154000D01*
X138222000Y-163154000D01*
X138342000Y-163154000D01*
X138342000Y-163519000D01*
X138342000Y-163884000D01*
X137732000Y-163884000D01*
X137122000Y-163884000D01*
X137122000Y-164004000D01*
X137122000Y-164124000D01*
X136877000Y-164124000D01*
X136632000Y-164124000D01*
X136632000Y-164004000D01*
X136632000Y-163884000D01*
X136877000Y-163884000D01*
X137122000Y-163884000D01*
X137122000Y-163639000D01*
X137122000Y-163394000D01*
X137362000Y-163394000D01*
X137362000Y-163514000D01*
X137362000Y-163634000D01*
X137487000Y-163634000D01*
X137612000Y-163634000D01*
X137612000Y-163514000D01*
X137612000Y-163394000D01*
X137487000Y-163394000D01*
X137362000Y-163394000D01*
X137122000Y-163394000D01*
X137002000Y-163394000D01*
X136882000Y-163394000D01*
X136882000Y-163514000D01*
X136882000Y-163634000D01*
X136757000Y-163634000D01*
X136632000Y-163634000D01*
X136632000Y-163759000D01*
X136632000Y-163884000D01*
X136512000Y-163884000D01*
X136392000Y-163884000D01*
X136392000Y-163759000D01*
X136392000Y-163634000D01*
X136272000Y-163634000D01*
X136152000Y-163634000D01*
X136152000Y-163759000D01*
X136152000Y-163884000D01*
X136027000Y-163884000D01*
X135902000Y-163884000D01*
X135902000Y-163759000D01*
X135902000Y-163634000D01*
X135782000Y-163634000D01*
X135662000Y-163634000D01*
X135662000Y-163879000D01*
X135662000Y-164124000D01*
X135537000Y-164124000D01*
X135412000Y-164124000D01*
X135412000Y-164004000D01*
X135412000Y-163884000D01*
X135292000Y-163884000D01*
X135172000Y-163884000D01*
X135172000Y-163639000D01*
X135172000Y-163394000D01*
X135412000Y-163394000D01*
X135412000Y-163514000D01*
X135412000Y-163634000D01*
X135537000Y-163634000D01*
X135662000Y-163634000D01*
X135662000Y-163514000D01*
X135662000Y-163394000D01*
X135537000Y-163394000D01*
X135412000Y-163394000D01*
X135172000Y-163394000D01*
X134927000Y-163394000D01*
X134682000Y-163394000D01*
X134682000Y-163514000D01*
X134682000Y-163634000D01*
X134807000Y-163634000D01*
X134932000Y-163634000D01*
X134932000Y-163879000D01*
X134932000Y-164124000D01*
X134807000Y-164124000D01*
X134682000Y-164124000D01*
X134682000Y-164004000D01*
X134682000Y-163884000D01*
X134562000Y-163884000D01*
X134442000Y-163884000D01*
X134442000Y-164004000D01*
X134442000Y-164124000D01*
X134317000Y-164124000D01*
X134192000Y-164124000D01*
X134192000Y-164004000D01*
X134192000Y-163884000D01*
X134317000Y-163884000D01*
X134442000Y-163884000D01*
X134442000Y-163759000D01*
X134442000Y-163634000D01*
X134317000Y-163634000D01*
X134192000Y-163634000D01*
X134192000Y-163759000D01*
X134192000Y-163884000D01*
X134072000Y-163884000D01*
X133952000Y-163884000D01*
X133952000Y-163639000D01*
X133952000Y-163394000D01*
X134072000Y-163394000D01*
X134192000Y-163394000D01*
X134192000Y-163274000D01*
X134192000Y-163154000D01*
X134317000Y-163154000D01*
X134442000Y-163154000D01*
X134442000Y-163029000D01*
X134442000Y-162904000D01*
X134317000Y-162904000D01*
X134192000Y-162904000D01*
X134192000Y-162659000D01*
X134192000Y-162414000D01*
X134317000Y-162414000D01*
X134442000Y-162414000D01*
X134442000Y-162539000D01*
X134442000Y-162664000D01*
X134562000Y-162664000D01*
X134682000Y-162664000D01*
X134682000Y-162909000D01*
X134682000Y-163154000D01*
X134807000Y-163154000D01*
X134932000Y-163154000D01*
X134932000Y-163029000D01*
X134932000Y-162904000D01*
X135052000Y-162904000D01*
X135172000Y-162904000D01*
X135172000Y-162784000D01*
X135172000Y-162664000D01*
X134927000Y-162664000D01*
X134682000Y-162664000D01*
X134682000Y-162539000D01*
X134682000Y-162414000D01*
X134807000Y-162414000D01*
X134927000Y-162414000D01*
X134932000Y-162414000D01*
X134932000Y-162294000D01*
X134932000Y-162174000D01*
X135052000Y-162174000D01*
X135172000Y-162174000D01*
X135172000Y-162054000D01*
X135172000Y-161934000D01*
X135292000Y-161934000D01*
X135412000Y-161934000D01*
X135412000Y-161689000D01*
X135412000Y-161444000D01*
X135292000Y-161444000D01*
X135172000Y-161444000D01*
X135172000Y-161324000D01*
X135172000Y-161204000D01*
X135052000Y-161204000D01*
X134932000Y-161204000D01*
X134932000Y-161324000D01*
X134932000Y-161444000D01*
X134807000Y-161444000D01*
X134682000Y-161444000D01*
X134682000Y-161564000D01*
X134682000Y-161684000D01*
X134807000Y-161684000D01*
X134932000Y-161684000D01*
X134932000Y-161809000D01*
X134932000Y-161934000D01*
X134807000Y-161934000D01*
X134682000Y-161934000D01*
X134682000Y-162054000D01*
X134682000Y-162174000D01*
X134562000Y-162174000D01*
X134442000Y-162174000D01*
X134442000Y-161929000D01*
X134442000Y-161684000D01*
X134317000Y-161684000D01*
X134192000Y-161684000D01*
X134192000Y-161564000D01*
X134192000Y-161444000D01*
X133952000Y-161444000D01*
X133712000Y-161444000D01*
X133712000Y-161564000D01*
X133712000Y-161684000D01*
X133342000Y-161684000D01*
X132972000Y-161684000D01*
X132972000Y-161809000D01*
X132972000Y-161934000D01*
X132852000Y-161934000D01*
X132732000Y-161934000D01*
X132732000Y-162054000D01*
X132732000Y-162174000D01*
X132487000Y-162174000D01*
X132242000Y-162174000D01*
X132242000Y-162054000D01*
X132242000Y-161934000D01*
X132487000Y-161934000D01*
X132732000Y-161934000D01*
X132732000Y-161809000D01*
X132732000Y-161684000D01*
X132487000Y-161684000D01*
X132242000Y-161684000D01*
X132242000Y-161564000D01*
X132242000Y-161444000D01*
X132487000Y-161444000D01*
X132732000Y-161444000D01*
X132732000Y-161324000D01*
X132732000Y-161204000D01*
X132612000Y-161204000D01*
X132492000Y-161204000D01*
X132492000Y-161079000D01*
X132492000Y-160954000D01*
X132612000Y-160954000D01*
X132732000Y-160954000D01*
X132732000Y-160834000D01*
X132732000Y-160714000D01*
X132852000Y-160714000D01*
X132972000Y-160714000D01*
X132972000Y-160834000D01*
X132972000Y-160954000D01*
X133097000Y-160954000D01*
X133222000Y-160954000D01*
X133222000Y-160834000D01*
X133222000Y-160714000D01*
X133097000Y-160714000D01*
X132972000Y-160714000D01*
X132972000Y-160349000D01*
X132972000Y-160224000D01*
X133222000Y-160224000D01*
X133222000Y-160344000D01*
X133222000Y-160464000D01*
X133342000Y-160464000D01*
X133462000Y-160464000D01*
X133462000Y-160344000D01*
X133462000Y-160224000D01*
X133342000Y-160224000D01*
X133222000Y-160224000D01*
X132972000Y-160224000D01*
X132972000Y-159984000D01*
X132852000Y-159984000D01*
X132732000Y-159984000D01*
X132732000Y-160104000D01*
X132732000Y-160224000D01*
X132612000Y-160224000D01*
X132492000Y-160224000D01*
X132492000Y-160344000D01*
X132492000Y-160464000D01*
X132367000Y-160464000D01*
X132242000Y-160464000D01*
X132242000Y-160224000D01*
X132242000Y-159984000D01*
X132122000Y-159984000D01*
X132002000Y-159984000D01*
X132002000Y-160104000D01*
X132002000Y-160224000D01*
X131877000Y-160224000D01*
X131752000Y-160224000D01*
X131752000Y-160344000D01*
X131752000Y-160464000D01*
X131877000Y-160464000D01*
X132002000Y-160464000D01*
X132002000Y-160589000D01*
X132002000Y-160714000D01*
X131877000Y-160714000D01*
X131752000Y-160714000D01*
X131752000Y-161324000D01*
X131752000Y-161934000D01*
X131632000Y-161934000D01*
X131512000Y-161934000D01*
X131512000Y-162054000D01*
X131512000Y-162174000D01*
X131267000Y-162174000D01*
X131022000Y-162174000D01*
X131022000Y-162054000D01*
X131022000Y-161934000D01*
X131147000Y-161934000D01*
X131272000Y-161934000D01*
X131272000Y-161689000D01*
X131272000Y-161444000D01*
X131147000Y-161444000D01*
X131022000Y-161444000D01*
X131022000Y-161199000D01*
X131022000Y-160954000D01*
X131147000Y-160954000D01*
X131272000Y-160954000D01*
X131272000Y-161199000D01*
X131272000Y-161444000D01*
X131392000Y-161444000D01*
X131512000Y-161444000D01*
X131512000Y-160954000D01*
X131512000Y-160464000D01*
X131392000Y-160464000D01*
X131272000Y-160464000D01*
X131272000Y-160589000D01*
X131272000Y-160714000D01*
X131147000Y-160714000D01*
X131022000Y-160714000D01*
X131022000Y-160589000D01*
X131022000Y-160464000D01*
X131147000Y-160464000D01*
X131272000Y-160464000D01*
X131272000Y-159979000D01*
X131272000Y-159494000D01*
X131147000Y-159494000D01*
X131022000Y-159494000D01*
X131022000Y-159249000D01*
X131022000Y-159004000D01*
X131147000Y-159004000D01*
X131272000Y-159004000D01*
X131272000Y-158884000D01*
X131272000Y-158764000D01*
X131147000Y-158764000D01*
X131022000Y-158764000D01*
X131022000Y-158639000D01*
X131022000Y-158514000D01*
X131147000Y-158514000D01*
X131272000Y-158514000D01*
X131272000Y-158394000D01*
X131272000Y-158274000D01*
X131392000Y-158274000D01*
X131512000Y-158274000D01*
X131512000Y-158149000D01*
X131512000Y-158024000D01*
X132242000Y-158024000D01*
X132972000Y-158024000D01*
X132972000Y-158149000D01*
X132972000Y-158274000D01*
X132362000Y-158274000D01*
X131752000Y-158274000D01*
X131752000Y-158394000D01*
X131752000Y-158514000D01*
X131632000Y-158514000D01*
X131512000Y-158514000D01*
X131512000Y-158759000D01*
X131512000Y-159004000D01*
X131632000Y-159004000D01*
X131757000Y-159004000D01*
X132002000Y-159004000D01*
X132002000Y-159124000D01*
X132002000Y-159244000D01*
X131877000Y-159244000D01*
X131752000Y-159244000D01*
X131752000Y-159369000D01*
X131752000Y-159494000D01*
X131632000Y-159494000D01*
X131512000Y-159494000D01*
X131512000Y-159739000D01*
X131512000Y-159984000D01*
X131632000Y-159984000D01*
X131752000Y-159984000D01*
X131752000Y-159739000D01*
X131752000Y-159494000D01*
X131877000Y-159494000D01*
X132002000Y-159494000D01*
X132002000Y-159614000D01*
X132002000Y-159734000D01*
X132247000Y-159734000D01*
X132492000Y-159734000D01*
X132492000Y-159859000D01*
X132492000Y-159984000D01*
X132612000Y-159984000D01*
X132732000Y-159984000D01*
X132732000Y-159859000D01*
X132732000Y-159734000D01*
X132852000Y-159734000D01*
X132972000Y-159734000D01*
X132972000Y-159614000D01*
X132972000Y-159494000D01*
X132852000Y-159494000D01*
X132732000Y-159494000D01*
X132732000Y-159614000D01*
X132732000Y-159734000D01*
X132612000Y-159734000D01*
X132492000Y-159734000D01*
X132492000Y-159614000D01*
X132492000Y-159494000D01*
X132612000Y-159494000D01*
X132732000Y-159494000D01*
X132732000Y-159369000D01*
X132732000Y-159244000D01*
X132612000Y-159244000D01*
X132492000Y-159244000D01*
X132492000Y-159369000D01*
X132492000Y-159494000D01*
X132367000Y-159494000D01*
X132242000Y-159494000D01*
X132242000Y-159129000D01*
X132242000Y-158764000D01*
X132367000Y-158764000D01*
X132492000Y-158764000D01*
X132492000Y-158884000D01*
X132492000Y-159004000D01*
X132612000Y-159004000D01*
X132732000Y-159004000D01*
X132732000Y-158884000D01*
X132732000Y-158764000D01*
X132612000Y-158764000D01*
X132492000Y-158764000D01*
X132492000Y-158639000D01*
X132492000Y-158514000D01*
X132612000Y-158514000D01*
X132732000Y-158514000D01*
X132732000Y-158639000D01*
X132732000Y-158764000D01*
X132977000Y-158764000D01*
X133222000Y-158764000D01*
X133222000Y-158519000D01*
X133222000Y-158274000D01*
X133467000Y-158274000D01*
X133712000Y-158274000D01*
X133712000Y-158149000D01*
X133712000Y-158024000D01*
X133467000Y-158024000D01*
X133222000Y-158024000D01*
X133222000Y-157904000D01*
X133222000Y-157784000D01*
X133342000Y-157784000D01*
X133462000Y-157784000D01*
X133462000Y-157664000D01*
X133462000Y-157544000D01*
X133587000Y-157544000D01*
X133712000Y-157544000D01*
X133712000Y-157784000D01*
G37*
G36*
X138217000Y-158024000D02*
G01*
X138582000Y-158024000D01*
X138582000Y-158149000D01*
X138582000Y-158274000D01*
X138707000Y-158274000D01*
X138832000Y-158274000D01*
X138832000Y-158149000D01*
X138832000Y-158024000D01*
X138952000Y-158024000D01*
X139072000Y-158024000D01*
X139072000Y-158149000D01*
X139072000Y-158274000D01*
X138952000Y-158274000D01*
X138832000Y-158274000D01*
X138832000Y-158394000D01*
X138832000Y-158514000D01*
X138952000Y-158514000D01*
X139072000Y-158514000D01*
X139072000Y-158759000D01*
X139072000Y-159004000D01*
X138952000Y-159004000D01*
X138832000Y-159004000D01*
X138832000Y-158884000D01*
X138832000Y-158764000D01*
X138707000Y-158764000D01*
X138582000Y-158764000D01*
X138582000Y-159004000D01*
X138582000Y-159244000D01*
X138827000Y-159244000D01*
X139072000Y-159244000D01*
X139072000Y-159369000D01*
X139072000Y-159494000D01*
X138827000Y-159494000D01*
X138582000Y-159494000D01*
X138582000Y-159614000D01*
X138582000Y-159734000D01*
X138462000Y-159734000D01*
X138342000Y-159734000D01*
X138342000Y-159979000D01*
X138342000Y-160224000D01*
X138222000Y-160224000D01*
X138102000Y-160224000D01*
X138102000Y-160104000D01*
X138102000Y-159984000D01*
X137977000Y-159984000D01*
X137852000Y-159984000D01*
X137852000Y-159614000D01*
X137852000Y-159244000D01*
X137977000Y-159244000D01*
X138102000Y-159244000D01*
X138102000Y-159489000D01*
X138102000Y-159734000D01*
X138222000Y-159734000D01*
X138342000Y-159734000D01*
X138342000Y-159489000D01*
X138342000Y-159244000D01*
X138222000Y-159244000D01*
X138102000Y-159244000D01*
X138102000Y-159124000D01*
X138102000Y-159004000D01*
X137977000Y-159004000D01*
X137852000Y-159004000D01*
X137852000Y-159124000D01*
X137852000Y-159244000D01*
X137732000Y-159244000D01*
X137612000Y-159244000D01*
X137612000Y-159004000D01*
X137612000Y-158764000D01*
X137367000Y-158764000D01*
X137122000Y-158764000D01*
X137122000Y-158884000D01*
X137122000Y-159004000D01*
X137242000Y-159004000D01*
X137362000Y-159004000D01*
X137362000Y-159369000D01*
X137362000Y-159734000D01*
X137242000Y-159734000D01*
X137122000Y-159734000D01*
X137122000Y-159859000D01*
X137122000Y-159984000D01*
X136877000Y-159984000D01*
X136632000Y-159984000D01*
X136632000Y-160224000D01*
X136632000Y-160464000D01*
X136512000Y-160464000D01*
X136392000Y-160464000D01*
X136392000Y-160224000D01*
X136392000Y-159984000D01*
X136272000Y-159984000D01*
X136152000Y-159984000D01*
X136152000Y-160349000D01*
X136152000Y-160714000D01*
X136027000Y-160714000D01*
X135902000Y-160714000D01*
X135902000Y-160469000D01*
X135902000Y-160224000D01*
X135782000Y-160224000D01*
X135662000Y-160224000D01*
X135662000Y-160104000D01*
X135662000Y-159984000D01*
X135782000Y-159984000D01*
X135902000Y-159984000D01*
X135902000Y-159859000D01*
X135902000Y-159734000D01*
X136147000Y-159734000D01*
X136392000Y-159734000D01*
X136392000Y-159614000D01*
X136392000Y-159494000D01*
X136512000Y-159494000D01*
X136632000Y-159494000D01*
X136632000Y-159614000D01*
X136632000Y-159734000D01*
X136757000Y-159734000D01*
X136882000Y-159734000D01*
X136882000Y-159614000D01*
X136882000Y-159494000D01*
X136757000Y-159494000D01*
X136632000Y-159494000D01*
X136632000Y-159369000D01*
X136632000Y-159244000D01*
X136757000Y-159244000D01*
X136882000Y-159244000D01*
X136882000Y-159124000D01*
X136882000Y-159004000D01*
X136757000Y-159004000D01*
X136632000Y-159004000D01*
X136632000Y-159124000D01*
X136632000Y-159244000D01*
X136267000Y-159244000D01*
X135902000Y-159244000D01*
X135902000Y-159124000D01*
X135902000Y-159004000D01*
X136027000Y-159004000D01*
X136152000Y-159004000D01*
X136152000Y-158639000D01*
X136152000Y-158274000D01*
X136392000Y-158274000D01*
X136632000Y-158274000D01*
X136632000Y-158394000D01*
X136632000Y-158514000D01*
X136512000Y-158514000D01*
X136392000Y-158514000D01*
X136392000Y-158639000D01*
X136392000Y-158764000D01*
X136757000Y-158764000D01*
X137122000Y-158764000D01*
X137122000Y-158639000D01*
X137122000Y-158514000D01*
X137487000Y-158514000D01*
X137852000Y-158514000D01*
X137852000Y-158639000D01*
X137852000Y-158764000D01*
X138217000Y-158764000D01*
X138222000Y-158764000D01*
X138582000Y-158764000D01*
X138582000Y-158639000D01*
X138582000Y-158514000D01*
X138217000Y-158514000D01*
X137852000Y-158514000D01*
X137852000Y-158394000D01*
X137852000Y-158274000D01*
X137732000Y-158274000D01*
X137612000Y-158274000D01*
X137612000Y-158149000D01*
X137612000Y-158024000D01*
X138097000Y-158024000D01*
X138217000Y-158024000D01*
G37*
G36*
X135412000Y-156199000D02*
G01*
X135412000Y-156324000D01*
X135537000Y-156324000D01*
X135662000Y-156324000D01*
X135662000Y-156199000D01*
X135662000Y-156074000D01*
X135782000Y-156074000D01*
X135902000Y-156074000D01*
X135902000Y-156199000D01*
X135902000Y-156324000D01*
X135907000Y-156324000D01*
X136027000Y-156324000D01*
X136152000Y-156324000D01*
X136152000Y-156199000D01*
X136152000Y-156074000D01*
X136637000Y-156074000D01*
X137122000Y-156074000D01*
X137122000Y-156199000D01*
X137122000Y-156324000D01*
X136757000Y-156324000D01*
X136392000Y-156324000D01*
X136392000Y-156444000D01*
X136392000Y-156564000D01*
X136512000Y-156564000D01*
X136632000Y-156564000D01*
X136632000Y-156684000D01*
X136632000Y-156804000D01*
X136757000Y-156804000D01*
X136882000Y-156804000D01*
X136882000Y-156684000D01*
X136882000Y-156564000D01*
X137002000Y-156564000D01*
X137122000Y-156564000D01*
X137122000Y-157294000D01*
X137122000Y-158024000D01*
X137242000Y-158024000D01*
X137362000Y-158024000D01*
X137362000Y-158149000D01*
X137362000Y-158274000D01*
X137122000Y-158274000D01*
X136882000Y-158274000D01*
X136882000Y-157909000D01*
X136882000Y-157544000D01*
X136757000Y-157544000D01*
X136632000Y-157544000D01*
X136632000Y-157784000D01*
X136632000Y-158024000D01*
X136392000Y-158024000D01*
X136152000Y-158024000D01*
X136152000Y-158149000D01*
X136152000Y-158274000D01*
X136027000Y-158274000D01*
X135902000Y-158274000D01*
X135902000Y-158149000D01*
X135902000Y-158024000D01*
X135657000Y-158024000D01*
X135412000Y-158024000D01*
X135412000Y-157784000D01*
X135412000Y-157544000D01*
X135292000Y-157544000D01*
X135172000Y-157544000D01*
X135172000Y-157419000D01*
X135172000Y-157294000D01*
X135052000Y-157294000D01*
X134932000Y-157294000D01*
X134932000Y-157174000D01*
X134932000Y-157054000D01*
X135052000Y-157054000D01*
X135172000Y-157054000D01*
X135172000Y-156809000D01*
X135172000Y-156564000D01*
X135292000Y-156564000D01*
X135412000Y-156564000D01*
X135662000Y-156564000D01*
X135662000Y-156684000D01*
X135662000Y-156804000D01*
X135782000Y-156804000D01*
X135902000Y-156804000D01*
X135902000Y-157049000D01*
X135902000Y-157294000D01*
X135782000Y-157294000D01*
X135662000Y-157294000D01*
X135662000Y-157539000D01*
X135662000Y-157784000D01*
X135782000Y-157784000D01*
X135902000Y-157784000D01*
X135902000Y-157664000D01*
X135902000Y-157544000D01*
X136027000Y-157544000D01*
X136152000Y-157544000D01*
X136152000Y-157664000D01*
X136152000Y-157784000D01*
X136272000Y-157784000D01*
X136392000Y-157784000D01*
X136392000Y-157664000D01*
X136392000Y-157544000D01*
X136512000Y-157544000D01*
X136632000Y-157544000D01*
X136632000Y-157419000D01*
X136632000Y-157294000D01*
X136757000Y-157294000D01*
X136882000Y-157294000D01*
X136882000Y-157174000D01*
X136882000Y-157054000D01*
X136757000Y-157054000D01*
X136632000Y-157054000D01*
X136632000Y-157174000D01*
X136632000Y-157294000D01*
X136512000Y-157294000D01*
X136392000Y-157294000D01*
X136392000Y-157049000D01*
X136392000Y-156804000D01*
X136272000Y-156804000D01*
X136152000Y-156804000D01*
X136152000Y-156684000D01*
X136152000Y-156564000D01*
X135907000Y-156564000D01*
X135662000Y-156564000D01*
X135412000Y-156564000D01*
X135412000Y-156444000D01*
X135412000Y-156324000D01*
X135292000Y-156324000D01*
X135172000Y-156324000D01*
X135172000Y-156199000D01*
X135172000Y-156074000D01*
X135292000Y-156074000D01*
X135412000Y-156074000D01*
X135412000Y-156199000D01*
G37*
%TD*%
M02*
