%TF.GenerationSoftware,KiCad,Pcbnew,9.0.2*%
%TF.CreationDate,2026-01-23T00:35:38-05:00*%
%TF.ProjectId,Daughterboard,44617567-6874-4657-9262-6f6172642e6b,rev?*%
%TF.SameCoordinates,Original*%
%TF.FileFunction,Copper,L2,Bot*%
%TF.FilePolarity,Positive*%
%FSLAX46Y46*%
G04 Gerber Fmt 4.6, Leading zero omitted, Abs format (unit mm)*
G04 Created by KiCad (PCBNEW 9.0.2) date 2026-01-23 00:35:38*
%MOMM*%
%LPD*%
G01*
G04 APERTURE LIST*
G04 Aperture macros list*
%AMRoundRect*
0 Rectangle with rounded corners*
0 $1 Rounding radius*
0 $2 $3 $4 $5 $6 $7 $8 $9 X,Y pos of 4 corners*
0 Add a 4 corners polygon primitive as box body*
4,1,4,$2,$3,$4,$5,$6,$7,$8,$9,$2,$3,0*
0 Add four circle primitives for the rounded corners*
1,1,$1+$1,$2,$3*
1,1,$1+$1,$4,$5*
1,1,$1+$1,$6,$7*
1,1,$1+$1,$8,$9*
0 Add four rect primitives between the rounded corners*
20,1,$1+$1,$2,$3,$4,$5,0*
20,1,$1+$1,$4,$5,$6,$7,0*
20,1,$1+$1,$6,$7,$8,$9,0*
20,1,$1+$1,$8,$9,$2,$3,0*%
G04 Aperture macros list end*
%TA.AperFunction,ComponentPad*%
%ADD10RoundRect,0.250000X-1.050000X-1.050000X1.050000X-1.050000X1.050000X1.050000X-1.050000X1.050000X0*%
%TD*%
%TA.AperFunction,ComponentPad*%
%ADD11C,2.600000*%
%TD*%
%TA.AperFunction,ComponentPad*%
%ADD12RoundRect,0.250000X1.050000X-1.050000X1.050000X1.050000X-1.050000X1.050000X-1.050000X-1.050000X0*%
%TD*%
%TA.AperFunction,ComponentPad*%
%ADD13R,1.700000X1.700000*%
%TD*%
%TA.AperFunction,ComponentPad*%
%ADD14C,1.700000*%
%TD*%
%TA.AperFunction,ComponentPad*%
%ADD15R,1.800000X1.800000*%
%TD*%
%TA.AperFunction,ComponentPad*%
%ADD16C,1.800000*%
%TD*%
%TA.AperFunction,ComponentPad*%
%ADD17C,1.600000*%
%TD*%
%TA.AperFunction,Conductor*%
%ADD18C,0.400000*%
%TD*%
%TA.AperFunction,Conductor*%
%ADD19C,0.600000*%
%TD*%
G04 APERTURE END LIST*
D10*
%TO.P,J5,1,Pin_1*%
%TO.N,+5V*%
X167888000Y-108881500D03*
D11*
%TO.P,J5,2,Pin_2*%
%TO.N,GND*%
X171388000Y-108881500D03*
%TD*%
D12*
%TO.P,J3,1,Pin_1*%
%TO.N,HALL*%
X178550000Y-103750000D03*
D11*
%TO.P,J3,2,Pin_2*%
%TO.N,GND*%
X178550000Y-100250000D03*
%TD*%
D13*
%TO.P,J2,1,Pin_1*%
%TO.N,ESC*%
X147057000Y-91440000D03*
D14*
%TO.P,J2,2,Pin_2*%
%TO.N,+5V*%
X147057000Y-93980000D03*
%TO.P,J2,3,Pin_3*%
%TO.N,GND*%
X147057000Y-96520000D03*
%TD*%
D15*
%TO.P,D1,1,K*%
%TO.N,GND*%
X155000000Y-111750000D03*
D16*
%TO.P,D1,2,A*%
%TO.N,Net-(D1-A)*%
X152460000Y-111750000D03*
%TD*%
D17*
%TO.P,R1,1*%
%TO.N,Net-(D1-A)*%
X147032000Y-107432000D03*
%TO.P,R1,2*%
%TO.N,+5V*%
X147032000Y-99812000D03*
%TD*%
D13*
%TO.P,J1,1,Pin_1*%
%TO.N,+5V*%
X160460000Y-82032000D03*
D14*
%TO.P,J1,2,Pin_2*%
%TO.N,GND*%
X163000000Y-82032000D03*
%TO.P,J1,3,Pin_3*%
%TO.N,HALL*%
X165540000Y-82032000D03*
%TD*%
D12*
%TO.P,J4,1,Pin_1*%
%TO.N,ESC*%
X178550000Y-94750000D03*
D11*
%TO.P,J4,2,Pin_2*%
%TO.N,GND*%
X178550000Y-91250000D03*
%TD*%
D18*
%TO.N,Net-(D1-A)*%
X148142000Y-107432000D02*
X147032000Y-107432000D01*
X152460000Y-111750000D02*
X148142000Y-107432000D01*
%TO.N,HALL*%
X175988000Y-101188000D02*
X178550000Y-103750000D01*
X166351000Y-82007000D02*
X175988000Y-91644000D01*
X175988000Y-91644000D02*
X175988000Y-101188000D01*
D19*
%TO.N,+5V*%
X147032000Y-99812000D02*
X156101500Y-108881500D01*
X149064000Y-97780000D02*
X149064000Y-95987000D01*
X159005000Y-82032000D02*
X147057000Y-93980000D01*
X160460000Y-82032000D02*
X159005000Y-82032000D01*
X147032000Y-99812000D02*
X149064000Y-97780000D01*
X149064000Y-95987000D02*
X147057000Y-93980000D01*
X156101500Y-108881500D02*
X167888000Y-108881500D01*
%TD*%
M02*
