%TF.GenerationSoftware,KiCad,Pcbnew,9.0.2*%
%TF.CreationDate,2026-01-23T00:35:38-05:00*%
%TF.ProjectId,Daughterboard,44617567-6874-4657-9262-6f6172642e6b,rev?*%
%TF.SameCoordinates,Original*%
%TF.FileFunction,Legend,Bot*%
%TF.FilePolarity,Positive*%
%FSLAX46Y46*%
G04 Gerber Fmt 4.6, Leading zero omitted, Abs format (unit mm)*
G04 Created by KiCad (PCBNEW 9.0.2) date 2026-01-23 00:35:38*
%MOMM*%
%LPD*%
G01*
G04 APERTURE LIST*
%ADD10C,0.100000*%
G04 APERTURE END LIST*
D10*
G36*
X184503649Y-86434000D02*
G01*
X184190041Y-86434000D01*
X184133716Y-86432037D01*
X184079802Y-86426111D01*
X184031123Y-86416797D01*
X183984912Y-86403835D01*
X183943427Y-86388095D01*
X183904433Y-86368980D01*
X183869519Y-86347458D01*
X183837122Y-86322764D01*
X183808183Y-86295723D01*
X183781825Y-86265628D01*
X183758464Y-86232933D01*
X183737811Y-86197208D01*
X183704992Y-86116446D01*
X183684016Y-86021781D01*
X183676227Y-85911347D01*
X183676215Y-85906679D01*
X183932426Y-85906679D01*
X183934351Y-85959060D01*
X183940015Y-86006046D01*
X183948647Y-86045691D01*
X183960322Y-86080916D01*
X183974232Y-86110702D01*
X183990676Y-86136774D01*
X184009217Y-86158975D01*
X184029970Y-86177904D01*
X184078803Y-86207109D01*
X184139358Y-86225477D01*
X184219411Y-86232438D01*
X184253056Y-86232438D01*
X184253056Y-85589408D01*
X184219411Y-85589408D01*
X184171840Y-85591464D01*
X184127437Y-85598040D01*
X184093509Y-85607287D01*
X184062210Y-85620359D01*
X184036910Y-85635371D01*
X184013983Y-85653875D01*
X183994771Y-85674609D01*
X183977900Y-85698816D01*
X183951919Y-85757631D01*
X183936249Y-85834512D01*
X183932426Y-85906679D01*
X183676215Y-85906679D01*
X183678151Y-85847917D01*
X183683890Y-85793016D01*
X183692930Y-85743651D01*
X183705315Y-85697770D01*
X183720470Y-85656459D01*
X183738609Y-85618339D01*
X183759281Y-85583901D01*
X183782674Y-85552456D01*
X183837277Y-85498366D01*
X183903015Y-85455009D01*
X183981168Y-85422133D01*
X184073470Y-85400309D01*
X184181845Y-85390847D01*
X184204024Y-85390594D01*
X184503649Y-85390594D01*
X184503649Y-86434000D01*
G37*
G36*
X183483691Y-86434000D02*
G01*
X182807504Y-86434000D01*
X182807504Y-86224012D01*
X183233098Y-86224012D01*
X183233098Y-86003155D01*
X182884502Y-86003155D01*
X182884502Y-85793106D01*
X183233098Y-85793106D01*
X183233098Y-85597834D01*
X182822892Y-85597834D01*
X182822892Y-85390594D01*
X183483691Y-85390594D01*
X183483691Y-86434000D01*
G37*
G36*
X182279024Y-86453539D02*
G01*
X182231007Y-86451622D01*
X182185780Y-86446016D01*
X182143341Y-86436924D01*
X182103833Y-86424572D01*
X182067214Y-86409130D01*
X182033679Y-86390852D01*
X182003165Y-86369865D01*
X181975897Y-86346469D01*
X181951825Y-86320751D01*
X181931168Y-86293057D01*
X181900258Y-86232344D01*
X181883948Y-86166199D01*
X181881458Y-86127108D01*
X181883392Y-86087951D01*
X181889116Y-86051740D01*
X181898131Y-86019457D01*
X181910465Y-85989706D01*
X181944442Y-85937634D01*
X181991867Y-85893126D01*
X182055358Y-85854844D01*
X182087232Y-85840734D01*
X182217475Y-85788832D01*
X182232606Y-85782873D01*
X182290538Y-85759252D01*
X182335746Y-85735539D01*
X182352612Y-85722436D01*
X182365138Y-85707857D01*
X182372936Y-85691316D01*
X182375622Y-85672328D01*
X182373697Y-85653655D01*
X182368039Y-85637113D01*
X182347073Y-85611305D01*
X182312180Y-85593528D01*
X182260334Y-85585409D01*
X182251058Y-85585256D01*
X182215053Y-85587195D01*
X182180940Y-85592952D01*
X182117020Y-85615374D01*
X182050959Y-85654921D01*
X182036857Y-85665306D01*
X181912232Y-85508258D01*
X181974983Y-85456194D01*
X182048421Y-85414913D01*
X182130250Y-85386326D01*
X182216639Y-85372301D01*
X182251058Y-85371055D01*
X182295383Y-85372975D01*
X182337736Y-85378605D01*
X182378317Y-85387848D01*
X182416527Y-85400463D01*
X182452343Y-85416324D01*
X182485398Y-85435172D01*
X182515436Y-85456741D01*
X182542364Y-85480868D01*
X182565770Y-85507057D01*
X182585777Y-85535350D01*
X182601964Y-85565029D01*
X182614526Y-85596359D01*
X182623165Y-85628515D01*
X182627994Y-85661897D01*
X182629024Y-85686372D01*
X182627118Y-85721528D01*
X182621595Y-85754415D01*
X182600263Y-85814755D01*
X182565674Y-85868358D01*
X182517751Y-85915396D01*
X182456516Y-85954916D01*
X182417632Y-85972686D01*
X182284642Y-86028862D01*
X182266860Y-86036335D01*
X182213211Y-86059696D01*
X182172519Y-86082899D01*
X182157631Y-86095838D01*
X182146700Y-86110413D01*
X182139966Y-86127184D01*
X182137668Y-86146709D01*
X182139633Y-86166390D01*
X182145569Y-86184017D01*
X182154619Y-86198321D01*
X182167152Y-86210623D01*
X182203165Y-86228831D01*
X182258216Y-86237659D01*
X182273467Y-86237995D01*
X182336040Y-86230529D01*
X182407256Y-86206606D01*
X182481800Y-86165410D01*
X182526869Y-86131322D01*
X182668225Y-86303757D01*
X182597411Y-86358811D01*
X182515945Y-86402956D01*
X182426226Y-86434294D01*
X182332118Y-86451013D01*
X182279024Y-86453539D01*
G37*
G36*
X181708534Y-86434000D02*
G01*
X181457941Y-86434000D01*
X181457941Y-85390594D01*
X181708534Y-85390594D01*
X181708534Y-86434000D01*
G37*
G36*
X180750064Y-86453539D02*
G01*
X180659658Y-86446157D01*
X180571541Y-86424219D01*
X180490325Y-86388916D01*
X180454163Y-86367099D01*
X180422215Y-86343374D01*
X180402872Y-86326166D01*
X180402872Y-85838841D01*
X180790669Y-85838841D01*
X180790669Y-86043211D01*
X180625439Y-86043211D01*
X180625439Y-86211372D01*
X180660032Y-86228259D01*
X180713907Y-86237724D01*
X180724846Y-86237995D01*
X180765820Y-86236054D01*
X180803545Y-86230286D01*
X180836378Y-86221341D01*
X180866317Y-86209087D01*
X180892553Y-86194142D01*
X180916111Y-86176224D01*
X180955105Y-86131947D01*
X180984286Y-86075004D01*
X181003272Y-86003046D01*
X181010427Y-85910221D01*
X181008503Y-85864772D01*
X181002854Y-85822349D01*
X180993850Y-85783713D01*
X180981598Y-85748198D01*
X180966594Y-85716496D01*
X180948796Y-85687985D01*
X180928745Y-85663172D01*
X180906309Y-85641617D01*
X180881929Y-85623593D01*
X180855516Y-85608927D01*
X180797272Y-85590026D01*
X180745851Y-85585256D01*
X180712170Y-85587149D01*
X180681632Y-85592589D01*
X180627205Y-85613233D01*
X180575741Y-85648004D01*
X180554059Y-85666955D01*
X180421069Y-85506854D01*
X180454118Y-85476753D01*
X180491932Y-85448527D01*
X180528994Y-85426171D01*
X180569841Y-85406706D01*
X180610105Y-85392156D01*
X180653567Y-85381032D01*
X180696989Y-85374190D01*
X180743270Y-85371167D01*
X180754277Y-85371055D01*
X180801633Y-85372999D01*
X180847896Y-85378797D01*
X180892550Y-85388314D01*
X180935708Y-85401523D01*
X180976700Y-85418157D01*
X181015825Y-85438295D01*
X181052364Y-85461521D01*
X181086703Y-85488050D01*
X181118180Y-85517356D01*
X181147152Y-85549769D01*
X181173089Y-85584731D01*
X181196235Y-85622624D01*
X181216211Y-85662950D01*
X181233111Y-85706055D01*
X181246682Y-85751579D01*
X181256882Y-85799758D01*
X181263530Y-85850411D01*
X181266491Y-85903620D01*
X181266637Y-85918647D01*
X181264709Y-85973914D01*
X181259023Y-86026225D01*
X181249861Y-86075013D01*
X181237322Y-86120892D01*
X181221677Y-86163559D01*
X181202990Y-86203340D01*
X181181420Y-86240204D01*
X181157098Y-86274167D01*
X181100321Y-86333738D01*
X181033025Y-86382064D01*
X180955433Y-86418714D01*
X180867863Y-86442824D01*
X180770981Y-86453220D01*
X180750064Y-86453539D01*
G37*
G36*
X180193251Y-86434000D02*
G01*
X179955236Y-86434000D01*
X179955236Y-86087602D01*
X179961705Y-85949899D01*
X179977071Y-85798981D01*
X179987415Y-85701943D01*
X179980454Y-85701943D01*
X179878239Y-85930554D01*
X179620624Y-86434000D01*
X179365817Y-86434000D01*
X179365817Y-85390594D01*
X179603832Y-85390594D01*
X179603832Y-85735648D01*
X179597238Y-85879090D01*
X179571900Y-86108235D01*
X179570249Y-86121308D01*
X179577271Y-86121308D01*
X179679425Y-85889887D01*
X179938445Y-85390594D01*
X180193251Y-85390594D01*
X180193251Y-86434000D01*
G37*
G36*
X179124444Y-86434000D02*
G01*
X178448258Y-86434000D01*
X178448258Y-86224012D01*
X178873851Y-86224012D01*
X178873851Y-86003155D01*
X178525256Y-86003155D01*
X178525256Y-85793106D01*
X178873851Y-85793106D01*
X178873851Y-85597834D01*
X178463645Y-85597834D01*
X178463645Y-85390594D01*
X179124444Y-85390594D01*
X179124444Y-86434000D01*
G37*
G36*
X178243216Y-86434000D02*
G01*
X177929608Y-86434000D01*
X177873283Y-86432037D01*
X177819370Y-86426111D01*
X177770690Y-86416797D01*
X177724480Y-86403835D01*
X177682994Y-86388095D01*
X177644000Y-86368980D01*
X177609086Y-86347458D01*
X177576689Y-86322764D01*
X177547750Y-86295723D01*
X177521393Y-86265628D01*
X177498031Y-86232933D01*
X177477378Y-86197208D01*
X177444559Y-86116446D01*
X177423583Y-86021781D01*
X177415794Y-85911347D01*
X177415782Y-85906679D01*
X177671993Y-85906679D01*
X177673919Y-85959060D01*
X177679582Y-86006046D01*
X177688215Y-86045691D01*
X177699889Y-86080916D01*
X177713799Y-86110702D01*
X177730244Y-86136774D01*
X177748784Y-86158975D01*
X177769538Y-86177904D01*
X177818370Y-86207109D01*
X177878926Y-86225477D01*
X177958979Y-86232438D01*
X177992623Y-86232438D01*
X177992623Y-85589408D01*
X177958979Y-85589408D01*
X177911408Y-85591464D01*
X177867004Y-85598040D01*
X177833076Y-85607287D01*
X177801777Y-85620359D01*
X177776478Y-85635371D01*
X177753550Y-85653875D01*
X177734339Y-85674609D01*
X177717467Y-85698816D01*
X177691486Y-85757631D01*
X177675816Y-85834512D01*
X177671993Y-85906679D01*
X177415782Y-85906679D01*
X177417719Y-85847917D01*
X177423457Y-85793016D01*
X177432497Y-85743651D01*
X177444882Y-85697770D01*
X177460038Y-85656459D01*
X177478176Y-85618339D01*
X177498849Y-85583901D01*
X177522241Y-85552456D01*
X177576844Y-85498366D01*
X177642582Y-85455009D01*
X177720736Y-85422133D01*
X177813038Y-85400309D01*
X177921412Y-85390847D01*
X177943591Y-85390594D01*
X178243216Y-85390594D01*
X178243216Y-86434000D01*
G37*
G36*
X176902811Y-86434000D02*
G01*
X176509397Y-86434000D01*
X176454146Y-86432033D01*
X176401246Y-86426081D01*
X176354177Y-86416810D01*
X176309954Y-86403903D01*
X176271838Y-86388638D01*
X176236790Y-86370145D01*
X176207299Y-86350072D01*
X176180943Y-86327141D01*
X176159262Y-86302972D01*
X176140752Y-86276213D01*
X176126148Y-86248052D01*
X176114825Y-86217445D01*
X176107049Y-86184865D01*
X176102796Y-86149853D01*
X176102000Y-86125765D01*
X176102892Y-86108912D01*
X176345571Y-86108912D01*
X176347522Y-86135151D01*
X176353363Y-86158469D01*
X176362152Y-86177352D01*
X176374202Y-86193794D01*
X176407382Y-86219083D01*
X176455976Y-86235718D01*
X176527593Y-86242208D01*
X176652218Y-86242208D01*
X176652218Y-85989661D01*
X176527593Y-85989661D01*
X176480321Y-85991664D01*
X176440182Y-85997871D01*
X176412929Y-86006166D01*
X176390313Y-86017558D01*
X176374494Y-86030018D01*
X176362120Y-86045008D01*
X176348062Y-86080885D01*
X176345571Y-86108912D01*
X176102892Y-86108912D01*
X176103914Y-86089591D01*
X176109494Y-86056336D01*
X176118398Y-86026229D01*
X176130429Y-85998898D01*
X176163326Y-85951958D01*
X176207764Y-85914741D01*
X176263900Y-85887544D01*
X176286831Y-85880484D01*
X176286831Y-85874867D01*
X176243593Y-85850380D01*
X176205228Y-85811410D01*
X176174419Y-85758617D01*
X176155339Y-85695832D01*
X176154499Y-85686616D01*
X176394603Y-85686616D01*
X176396575Y-85710747D01*
X176402564Y-85732589D01*
X176411563Y-85750256D01*
X176424039Y-85765721D01*
X176458324Y-85788823D01*
X176508264Y-85802288D01*
X176548598Y-85804830D01*
X176652218Y-85804830D01*
X176652218Y-85581042D01*
X176548598Y-85581042D01*
X176506414Y-85583035D01*
X176471176Y-85589168D01*
X176447623Y-85597337D01*
X176428479Y-85608501D01*
X176415284Y-85620833D01*
X176405368Y-85635639D01*
X176395258Y-85672273D01*
X176394603Y-85686616D01*
X176154499Y-85686616D01*
X176151032Y-85648576D01*
X176152956Y-85613181D01*
X176158608Y-85580914D01*
X176167478Y-85552504D01*
X176179519Y-85526811D01*
X176212512Y-85483095D01*
X176258328Y-85447720D01*
X176319414Y-85420011D01*
X176399459Y-85400601D01*
X176503059Y-85391149D01*
X176538829Y-85390594D01*
X176902811Y-85390594D01*
X176902811Y-86434000D01*
G37*
G36*
X175780393Y-86434000D02*
G01*
X175531205Y-86434000D01*
X175531205Y-86065193D01*
X175216192Y-85390594D01*
X175478021Y-85390594D01*
X175564788Y-85622014D01*
X175588498Y-85685030D01*
X175651616Y-85854839D01*
X175657173Y-85854839D01*
X175678808Y-85795124D01*
X175741192Y-85622014D01*
X175828021Y-85390594D01*
X176094001Y-85390594D01*
X175780393Y-86065193D01*
X175780393Y-86434000D01*
G37*
G36*
X174466184Y-86453539D02*
G01*
X174418166Y-86451622D01*
X174372940Y-86446016D01*
X174330501Y-86436924D01*
X174290993Y-86424572D01*
X174254374Y-86409130D01*
X174220839Y-86390852D01*
X174190325Y-86369865D01*
X174163056Y-86346469D01*
X174138984Y-86320751D01*
X174118328Y-86293057D01*
X174087418Y-86232344D01*
X174071107Y-86166199D01*
X174068617Y-86127108D01*
X174070552Y-86087951D01*
X174076276Y-86051740D01*
X174085291Y-86019457D01*
X174097625Y-85989706D01*
X174131601Y-85937634D01*
X174179026Y-85893126D01*
X174242518Y-85854844D01*
X174274392Y-85840734D01*
X174404635Y-85788832D01*
X174419765Y-85782873D01*
X174477698Y-85759252D01*
X174522905Y-85735539D01*
X174539772Y-85722436D01*
X174552297Y-85707857D01*
X174560096Y-85691316D01*
X174562782Y-85672328D01*
X174560857Y-85653655D01*
X174555198Y-85637113D01*
X174534233Y-85611305D01*
X174499340Y-85593528D01*
X174447494Y-85585409D01*
X174438218Y-85585256D01*
X174402212Y-85587195D01*
X174368099Y-85592952D01*
X174304180Y-85615374D01*
X174238118Y-85654921D01*
X174224017Y-85665306D01*
X174099392Y-85508258D01*
X174162143Y-85456194D01*
X174235581Y-85414913D01*
X174317410Y-85386326D01*
X174403798Y-85372301D01*
X174438218Y-85371055D01*
X174482543Y-85372975D01*
X174524896Y-85378605D01*
X174565477Y-85387848D01*
X174603687Y-85400463D01*
X174639502Y-85416324D01*
X174672558Y-85435172D01*
X174702596Y-85456741D01*
X174729524Y-85480868D01*
X174752930Y-85507057D01*
X174772936Y-85535350D01*
X174789124Y-85565029D01*
X174801686Y-85596359D01*
X174810324Y-85628515D01*
X174815154Y-85661897D01*
X174816184Y-85686372D01*
X174814278Y-85721528D01*
X174808755Y-85754415D01*
X174787422Y-85814755D01*
X174752834Y-85868358D01*
X174704911Y-85915396D01*
X174643675Y-85954916D01*
X174604792Y-85972686D01*
X174471801Y-86028862D01*
X174454020Y-86036335D01*
X174400371Y-86059696D01*
X174359679Y-86082899D01*
X174344791Y-86095838D01*
X174333860Y-86110413D01*
X174327126Y-86127184D01*
X174324828Y-86146709D01*
X174326793Y-86166390D01*
X174332729Y-86184017D01*
X174341779Y-86198321D01*
X174354312Y-86210623D01*
X174390325Y-86228831D01*
X174445375Y-86237659D01*
X174460627Y-86237995D01*
X174523200Y-86230529D01*
X174594416Y-86206606D01*
X174668960Y-86165410D01*
X174714029Y-86131322D01*
X174855385Y-86303757D01*
X174784571Y-86358811D01*
X174703104Y-86402956D01*
X174613386Y-86434294D01*
X174519278Y-86451013D01*
X174466184Y-86453539D01*
G37*
G36*
X173895693Y-86434000D02*
G01*
X173645100Y-86434000D01*
X173645100Y-86004132D01*
X173302061Y-86004132D01*
X173302061Y-86434000D01*
X173054277Y-86434000D01*
X173054277Y-85390594D01*
X173302061Y-85390594D01*
X173302061Y-85787183D01*
X173645100Y-85787183D01*
X173645100Y-85390594D01*
X173895693Y-85390594D01*
X173895693Y-86434000D01*
G37*
G36*
X172943818Y-86434000D02*
G01*
X172689012Y-86434000D01*
X172628806Y-86193481D01*
X172320816Y-86193481D01*
X172260610Y-86434000D01*
X171997438Y-86434000D01*
X172131876Y-86000224D01*
X172368443Y-86000224D01*
X172581240Y-86000224D01*
X172558830Y-85911930D01*
X172483188Y-85594891D01*
X172479024Y-85576829D01*
X172473406Y-85576829D01*
X172434589Y-85735041D01*
X172390791Y-85911930D01*
X172368443Y-86000224D01*
X172131876Y-86000224D01*
X172320816Y-85390594D01*
X172620441Y-85390594D01*
X172943818Y-86434000D01*
G37*
G36*
X171799357Y-86434000D02*
G01*
X171489963Y-86434000D01*
X171398982Y-85979952D01*
X171365760Y-85783702D01*
X171358377Y-85737175D01*
X171351355Y-85737175D01*
X171317490Y-85947168D01*
X171310810Y-85979952D01*
X171216960Y-86434000D01*
X170902009Y-86434000D01*
X170721391Y-85390594D01*
X170959406Y-85390594D01*
X171026573Y-85866318D01*
X171041751Y-85993401D01*
X171065774Y-86197450D01*
X171072796Y-86197450D01*
X171098430Y-86055055D01*
X171133002Y-85866318D01*
X171242178Y-85390594D01*
X171452166Y-85390594D01*
X171558595Y-85866318D01*
X171620205Y-86197450D01*
X171625762Y-86197450D01*
X171667771Y-85866318D01*
X171733595Y-85390594D01*
X171989806Y-85390594D01*
X171799357Y-86434000D01*
G37*
G36*
X170580830Y-86434000D02*
G01*
X170342815Y-86434000D01*
X170342815Y-86087602D01*
X170349284Y-85949899D01*
X170364649Y-85798981D01*
X170374994Y-85701943D01*
X170368033Y-85701943D01*
X170265817Y-85930554D01*
X170008202Y-86434000D01*
X169753396Y-86434000D01*
X169753396Y-85390594D01*
X169991411Y-85390594D01*
X169991411Y-85735648D01*
X169984817Y-85879090D01*
X169959479Y-86108235D01*
X169957827Y-86121308D01*
X169964849Y-86121308D01*
X170067004Y-85889887D01*
X170326023Y-85390594D01*
X170580830Y-85390594D01*
X170580830Y-86434000D01*
G37*
G36*
X169191576Y-86434000D02*
G01*
X168967545Y-86434000D01*
X168967545Y-86076428D01*
X168974073Y-85947003D01*
X168998711Y-85722726D01*
X168999785Y-85714033D01*
X168994167Y-85714033D01*
X168910147Y-85963832D01*
X168768792Y-86345584D01*
X168631588Y-86345584D01*
X168491576Y-85963832D01*
X168404748Y-85714033D01*
X168399191Y-85714033D01*
X168400509Y-85724758D01*
X168420658Y-85901211D01*
X168428318Y-85993301D01*
X168431370Y-86076123D01*
X168431370Y-86434000D01*
X168203187Y-86434000D01*
X168203187Y-85390594D01*
X168474785Y-85390594D01*
X168634336Y-85840367D01*
X168662015Y-85932391D01*
X168691794Y-86031243D01*
X168698755Y-86031243D01*
X168718842Y-85962384D01*
X168756152Y-85840367D01*
X168921383Y-85390594D01*
X169191576Y-85390594D01*
X169191576Y-86434000D01*
G37*
G36*
X168096086Y-86434000D02*
G01*
X167841280Y-86434000D01*
X167781074Y-86193481D01*
X167473084Y-86193481D01*
X167412878Y-86434000D01*
X167149706Y-86434000D01*
X167284144Y-86000224D01*
X167520711Y-86000224D01*
X167733508Y-86000224D01*
X167711098Y-85911930D01*
X167635456Y-85594891D01*
X167631292Y-85576829D01*
X167625674Y-85576829D01*
X167586857Y-85735041D01*
X167543059Y-85911930D01*
X167520711Y-86000224D01*
X167284144Y-86000224D01*
X167473084Y-85390594D01*
X167772709Y-85390594D01*
X168096086Y-86434000D01*
G37*
G36*
X167041262Y-86434000D02*
G01*
X166386081Y-86434000D01*
X166386081Y-86224012D01*
X166790669Y-86224012D01*
X166790669Y-85390594D01*
X167041262Y-85390594D01*
X167041262Y-86434000D01*
G37*
G36*
X166205952Y-86434000D02*
G01*
X165550770Y-86434000D01*
X165550770Y-86224012D01*
X165955359Y-86224012D01*
X165955359Y-85390594D01*
X166205952Y-85390594D01*
X166205952Y-86434000D01*
G37*
G36*
X165013986Y-86453539D02*
G01*
X164962322Y-86451576D01*
X164914051Y-86445648D01*
X164872281Y-86436546D01*
X164833443Y-86423934D01*
X164799429Y-86408743D01*
X164768041Y-86390336D01*
X164740148Y-86369407D01*
X164714724Y-86345390D01*
X164671459Y-86288227D01*
X164637387Y-86216704D01*
X164612800Y-86127609D01*
X164599021Y-86016818D01*
X164596819Y-85943377D01*
X164596819Y-85390594D01*
X164837581Y-85390594D01*
X164837581Y-85969999D01*
X164839522Y-86026440D01*
X164845291Y-86075326D01*
X164853617Y-86112905D01*
X164864878Y-86145002D01*
X164877638Y-86169679D01*
X164892742Y-86190221D01*
X164909226Y-86206084D01*
X164927750Y-86218557D01*
X164971495Y-86234146D01*
X165013986Y-86237995D01*
X165045605Y-86235989D01*
X165074091Y-86229767D01*
X165096118Y-86220784D01*
X165115795Y-86208241D01*
X165132157Y-86193012D01*
X165146421Y-86174292D01*
X165169006Y-86124532D01*
X165183453Y-86052128D01*
X165187581Y-85969999D01*
X165187581Y-85390594D01*
X165436770Y-85390594D01*
X165436770Y-85943377D01*
X165434819Y-86011742D01*
X165428978Y-86074917D01*
X165420041Y-86129212D01*
X165407750Y-86179102D01*
X165393160Y-86222011D01*
X165375634Y-86261123D01*
X165356228Y-86294875D01*
X165334182Y-86325261D01*
X165310245Y-86351594D01*
X165283835Y-86374821D01*
X165223877Y-86411979D01*
X165152525Y-86437651D01*
X165067119Y-86451484D01*
X165013986Y-86453539D01*
G37*
G36*
X164273747Y-86434000D02*
G01*
X163964352Y-86434000D01*
X163873371Y-85979952D01*
X163840149Y-85783702D01*
X163832766Y-85737175D01*
X163825744Y-85737175D01*
X163791879Y-85947168D01*
X163785200Y-85979952D01*
X163691349Y-86434000D01*
X163376398Y-86434000D01*
X163195781Y-85390594D01*
X163433795Y-85390594D01*
X163500962Y-85866318D01*
X163516140Y-85993401D01*
X163540163Y-86197450D01*
X163547185Y-86197450D01*
X163572820Y-86055055D01*
X163607391Y-85866318D01*
X163716568Y-85390594D01*
X163926555Y-85390594D01*
X164032984Y-85866318D01*
X164094594Y-86197450D01*
X164100151Y-86197450D01*
X164142161Y-85866318D01*
X164207984Y-85390594D01*
X164464195Y-85390594D01*
X164273747Y-86434000D01*
G37*
G36*
X163186805Y-86434000D02*
G01*
X162931998Y-86434000D01*
X162871793Y-86193481D01*
X162563802Y-86193481D01*
X162503596Y-86434000D01*
X162240425Y-86434000D01*
X162374863Y-86000224D01*
X162611430Y-86000224D01*
X162824226Y-86000224D01*
X162801817Y-85911930D01*
X162726175Y-85594891D01*
X162722011Y-85576829D01*
X162716393Y-85576829D01*
X162677576Y-85735041D01*
X162633778Y-85911930D01*
X162611430Y-86000224D01*
X162374863Y-86000224D01*
X162563802Y-85390594D01*
X162863427Y-85390594D01*
X163186805Y-86434000D01*
G37*
G36*
X162182356Y-86116606D02*
G01*
X161786194Y-86116606D01*
X161786194Y-85941606D01*
X162182356Y-85941606D01*
X162182356Y-86116606D01*
G37*
G36*
X161523572Y-86434000D02*
G01*
X161214177Y-86434000D01*
X161123197Y-85979952D01*
X161089975Y-85783702D01*
X161082592Y-85737175D01*
X161075570Y-85737175D01*
X161041705Y-85947168D01*
X161035025Y-85979952D01*
X160941175Y-86434000D01*
X160626224Y-86434000D01*
X160445606Y-85390594D01*
X160683621Y-85390594D01*
X160750788Y-85866318D01*
X160765966Y-85993401D01*
X160789989Y-86197450D01*
X160797011Y-86197450D01*
X160822645Y-86055055D01*
X160857217Y-85866318D01*
X160966393Y-85390594D01*
X161176381Y-85390594D01*
X161282810Y-85866318D01*
X161344420Y-86197450D01*
X161349976Y-86197450D01*
X161391986Y-85866318D01*
X161457810Y-85390594D01*
X161714020Y-85390594D01*
X161523572Y-86434000D01*
G37*
G36*
X160436630Y-86434000D02*
G01*
X160181824Y-86434000D01*
X160121618Y-86193481D01*
X159813628Y-86193481D01*
X159753422Y-86434000D01*
X159490250Y-86434000D01*
X159624688Y-86000224D01*
X159861255Y-86000224D01*
X160074052Y-86000224D01*
X160051643Y-85911930D01*
X159976000Y-85594891D01*
X159971836Y-85576829D01*
X159966219Y-85576829D01*
X159927402Y-85735041D01*
X159883603Y-85911930D01*
X159861255Y-86000224D01*
X159624688Y-86000224D01*
X159813628Y-85390594D01*
X160113253Y-85390594D01*
X160436630Y-86434000D01*
G37*
G36*
X159381807Y-86434000D02*
G01*
X159068199Y-86434000D01*
X159011874Y-86432037D01*
X158957960Y-86426111D01*
X158909281Y-86416797D01*
X158863070Y-86403835D01*
X158821585Y-86388095D01*
X158782590Y-86368980D01*
X158747676Y-86347458D01*
X158715280Y-86322764D01*
X158686341Y-86295723D01*
X158659983Y-86265628D01*
X158636622Y-86232933D01*
X158615968Y-86197208D01*
X158583150Y-86116446D01*
X158562173Y-86021781D01*
X158554384Y-85911347D01*
X158554373Y-85906679D01*
X158810584Y-85906679D01*
X158812509Y-85959060D01*
X158818173Y-86006046D01*
X158826805Y-86045691D01*
X158838480Y-86080916D01*
X158852389Y-86110702D01*
X158868834Y-86136774D01*
X158887374Y-86158975D01*
X158908128Y-86177904D01*
X158956961Y-86207109D01*
X159017516Y-86225477D01*
X159097569Y-86232438D01*
X159131213Y-86232438D01*
X159131213Y-85589408D01*
X159097569Y-85589408D01*
X159049998Y-85591464D01*
X159005595Y-85598040D01*
X158971667Y-85607287D01*
X158940368Y-85620359D01*
X158915068Y-85635371D01*
X158892141Y-85653875D01*
X158872929Y-85674609D01*
X158856058Y-85698816D01*
X158830076Y-85757631D01*
X158814406Y-85834512D01*
X158810584Y-85906679D01*
X158554373Y-85906679D01*
X158556309Y-85847917D01*
X158562047Y-85793016D01*
X158571088Y-85743651D01*
X158583473Y-85697770D01*
X158598628Y-85656459D01*
X158616766Y-85618339D01*
X158637439Y-85583901D01*
X158660832Y-85552456D01*
X158715435Y-85498366D01*
X158781173Y-85455009D01*
X158859326Y-85422133D01*
X158951628Y-85400309D01*
X159060002Y-85390847D01*
X159082182Y-85390594D01*
X159381807Y-85390594D01*
X159381807Y-86434000D01*
G37*
G36*
X157944621Y-86453539D02*
G01*
X157892957Y-86451576D01*
X157844686Y-86445648D01*
X157802916Y-86436546D01*
X157764078Y-86423934D01*
X157730064Y-86408743D01*
X157698676Y-86390336D01*
X157670783Y-86369407D01*
X157645359Y-86345390D01*
X157602094Y-86288227D01*
X157568022Y-86216704D01*
X157543435Y-86127609D01*
X157529656Y-86016818D01*
X157527454Y-85943377D01*
X157527454Y-85390594D01*
X157768216Y-85390594D01*
X157768216Y-85969999D01*
X157770157Y-86026440D01*
X157775926Y-86075326D01*
X157784252Y-86112905D01*
X157795513Y-86145002D01*
X157808273Y-86169679D01*
X157823377Y-86190221D01*
X157839861Y-86206084D01*
X157858385Y-86218557D01*
X157902130Y-86234146D01*
X157944621Y-86237995D01*
X157976240Y-86235989D01*
X158004726Y-86229767D01*
X158026753Y-86220784D01*
X158046430Y-86208241D01*
X158062792Y-86193012D01*
X158077056Y-86174292D01*
X158099641Y-86124532D01*
X158114088Y-86052128D01*
X158118216Y-85969999D01*
X158118216Y-85390594D01*
X158367405Y-85390594D01*
X158367405Y-85943377D01*
X158365454Y-86011742D01*
X158359613Y-86074917D01*
X158350676Y-86129212D01*
X158338385Y-86179102D01*
X158323795Y-86222011D01*
X158306269Y-86261123D01*
X158286863Y-86294875D01*
X158264817Y-86325261D01*
X158240880Y-86351594D01*
X158214470Y-86374821D01*
X158154512Y-86411979D01*
X158083161Y-86437651D01*
X157997754Y-86451484D01*
X157944621Y-86453539D01*
G37*
G36*
X184180210Y-87723539D02*
G01*
X184132193Y-87721622D01*
X184086967Y-87716016D01*
X184044527Y-87706924D01*
X184005020Y-87694572D01*
X183968401Y-87679130D01*
X183934865Y-87660852D01*
X183904351Y-87639865D01*
X183877083Y-87616469D01*
X183853011Y-87590751D01*
X183832355Y-87563057D01*
X183801445Y-87502344D01*
X183785134Y-87436199D01*
X183782644Y-87397108D01*
X183784578Y-87357951D01*
X183790303Y-87321740D01*
X183799318Y-87289457D01*
X183811651Y-87259706D01*
X183845628Y-87207634D01*
X183893053Y-87163126D01*
X183956545Y-87124844D01*
X183988419Y-87110734D01*
X184118661Y-87058832D01*
X184133792Y-87052873D01*
X184191724Y-87029252D01*
X184236932Y-87005539D01*
X184253798Y-86992436D01*
X184266324Y-86977857D01*
X184274123Y-86961316D01*
X184276808Y-86942328D01*
X184274883Y-86923655D01*
X184269225Y-86907113D01*
X184248259Y-86881305D01*
X184213367Y-86863528D01*
X184161520Y-86855409D01*
X184152244Y-86855256D01*
X184116239Y-86857195D01*
X184082126Y-86862952D01*
X184018206Y-86885374D01*
X183952145Y-86924921D01*
X183938043Y-86935306D01*
X183813419Y-86778258D01*
X183876169Y-86726194D01*
X183949608Y-86684913D01*
X184031437Y-86656326D01*
X184117825Y-86642301D01*
X184152244Y-86641055D01*
X184196570Y-86642975D01*
X184238922Y-86648605D01*
X184279504Y-86657848D01*
X184317714Y-86670463D01*
X184353529Y-86686324D01*
X184386585Y-86705172D01*
X184416622Y-86726741D01*
X184443550Y-86750868D01*
X184466956Y-86777057D01*
X184486963Y-86805350D01*
X184503150Y-86835029D01*
X184515712Y-86866359D01*
X184524351Y-86898515D01*
X184529181Y-86931897D01*
X184530210Y-86956372D01*
X184528305Y-86991528D01*
X184522782Y-87024415D01*
X184501449Y-87084755D01*
X184466861Y-87138358D01*
X184418938Y-87185396D01*
X184357702Y-87224916D01*
X184318818Y-87242686D01*
X184185828Y-87298862D01*
X184168046Y-87306335D01*
X184114397Y-87329696D01*
X184073706Y-87352899D01*
X184058817Y-87365838D01*
X184047887Y-87380413D01*
X184041153Y-87397184D01*
X184038855Y-87416709D01*
X184040819Y-87436390D01*
X184046755Y-87454017D01*
X184055806Y-87468321D01*
X184068339Y-87480623D01*
X184104352Y-87498831D01*
X184159402Y-87507659D01*
X184174654Y-87507995D01*
X184237226Y-87500529D01*
X184308442Y-87476606D01*
X184382986Y-87435410D01*
X184428056Y-87401322D01*
X184569411Y-87573757D01*
X184498598Y-87628811D01*
X184417131Y-87672956D01*
X184327412Y-87704294D01*
X184233305Y-87721013D01*
X184180210Y-87723539D01*
G37*
G36*
X183609720Y-87704000D02*
G01*
X183359127Y-87704000D01*
X183359127Y-87274132D01*
X183016088Y-87274132D01*
X183016088Y-87704000D01*
X182768303Y-87704000D01*
X182768303Y-86660594D01*
X183016088Y-86660594D01*
X183016088Y-87057183D01*
X183359127Y-87057183D01*
X183359127Y-86660594D01*
X183609720Y-86660594D01*
X183609720Y-87704000D01*
G37*
G36*
X182657845Y-87704000D02*
G01*
X182403038Y-87704000D01*
X182342832Y-87463481D01*
X182034842Y-87463481D01*
X181974636Y-87704000D01*
X181711465Y-87704000D01*
X181845903Y-87270224D01*
X182082469Y-87270224D01*
X182295266Y-87270224D01*
X182272857Y-87181930D01*
X182197215Y-86864891D01*
X182193050Y-86846829D01*
X182187433Y-86846829D01*
X182148616Y-87005041D01*
X182104818Y-87181930D01*
X182082469Y-87270224D01*
X181845903Y-87270224D01*
X182034842Y-86660594D01*
X182334467Y-86660594D01*
X182657845Y-87704000D01*
G37*
G36*
X181513384Y-87704000D02*
G01*
X181203989Y-87704000D01*
X181113009Y-87249952D01*
X181079786Y-87053702D01*
X181072403Y-87007175D01*
X181065381Y-87007175D01*
X181031517Y-87217168D01*
X181024837Y-87249952D01*
X180930987Y-87704000D01*
X180616035Y-87704000D01*
X180435418Y-86660594D01*
X180673433Y-86660594D01*
X180740599Y-87136318D01*
X180755777Y-87263401D01*
X180779800Y-87467450D01*
X180786822Y-87467450D01*
X180812457Y-87325055D01*
X180847028Y-87136318D01*
X180956205Y-86660594D01*
X181166192Y-86660594D01*
X181272621Y-87136318D01*
X181334232Y-87467450D01*
X181339788Y-87467450D01*
X181381798Y-87136318D01*
X181447621Y-86660594D01*
X181703832Y-86660594D01*
X181513384Y-87704000D01*
G37*
G36*
X180294856Y-87704000D02*
G01*
X180056841Y-87704000D01*
X180056841Y-87357602D01*
X180063310Y-87219899D01*
X180078676Y-87068981D01*
X180089020Y-86971943D01*
X180082060Y-86971943D01*
X179979844Y-87200554D01*
X179722229Y-87704000D01*
X179467422Y-87704000D01*
X179467422Y-86660594D01*
X179705437Y-86660594D01*
X179705437Y-87005648D01*
X179698843Y-87149090D01*
X179673505Y-87378235D01*
X179671854Y-87391308D01*
X179678876Y-87391308D01*
X179781030Y-87159887D01*
X180040050Y-86660594D01*
X180294856Y-86660594D01*
X180294856Y-87704000D01*
G37*
G36*
X179226049Y-87704000D02*
G01*
X179002018Y-87704000D01*
X179002018Y-87346428D01*
X179008546Y-87217003D01*
X179033185Y-86992726D01*
X179034258Y-86984033D01*
X179028640Y-86984033D01*
X178944621Y-87233832D01*
X178803265Y-87615584D01*
X178666062Y-87615584D01*
X178526049Y-87233832D01*
X178439221Y-86984033D01*
X178433665Y-86984033D01*
X178434982Y-86994758D01*
X178455131Y-87171211D01*
X178462791Y-87263301D01*
X178465844Y-87346123D01*
X178465844Y-87704000D01*
X178237660Y-87704000D01*
X178237660Y-86660594D01*
X178509258Y-86660594D01*
X178668809Y-87110367D01*
X178696488Y-87202391D01*
X178726267Y-87301243D01*
X178733228Y-87301243D01*
X178753316Y-87232384D01*
X178790625Y-87110367D01*
X178955856Y-86660594D01*
X179226049Y-86660594D01*
X179226049Y-87704000D01*
G37*
G36*
X178130559Y-87704000D02*
G01*
X177875753Y-87704000D01*
X177815547Y-87463481D01*
X177507557Y-87463481D01*
X177447351Y-87704000D01*
X177184179Y-87704000D01*
X177318617Y-87270224D01*
X177555184Y-87270224D01*
X177767981Y-87270224D01*
X177745571Y-87181930D01*
X177669929Y-86864891D01*
X177665765Y-86846829D01*
X177660147Y-86846829D01*
X177621330Y-87005041D01*
X177577532Y-87181930D01*
X177555184Y-87270224D01*
X177318617Y-87270224D01*
X177507557Y-86660594D01*
X177807182Y-86660594D01*
X178130559Y-87704000D01*
G37*
G36*
X177075735Y-87704000D02*
G01*
X176420554Y-87704000D01*
X176420554Y-87494012D01*
X176825142Y-87494012D01*
X176825142Y-86660594D01*
X177075735Y-86660594D01*
X177075735Y-87704000D01*
G37*
G36*
X176240425Y-87704000D02*
G01*
X175585243Y-87704000D01*
X175585243Y-87494012D01*
X175989832Y-87494012D01*
X175989832Y-86660594D01*
X176240425Y-86660594D01*
X176240425Y-87704000D01*
G37*
G36*
X175048459Y-87723539D02*
G01*
X174996795Y-87721576D01*
X174948524Y-87715648D01*
X174906754Y-87706546D01*
X174867916Y-87693934D01*
X174833902Y-87678743D01*
X174802514Y-87660336D01*
X174774621Y-87639407D01*
X174749197Y-87615390D01*
X174705932Y-87558227D01*
X174671860Y-87486704D01*
X174647273Y-87397609D01*
X174633494Y-87286818D01*
X174631292Y-87213377D01*
X174631292Y-86660594D01*
X174872054Y-86660594D01*
X174872054Y-87239999D01*
X174873995Y-87296440D01*
X174879764Y-87345326D01*
X174888090Y-87382905D01*
X174899351Y-87415002D01*
X174912111Y-87439679D01*
X174927215Y-87460221D01*
X174943699Y-87476084D01*
X174962223Y-87488557D01*
X175005968Y-87504146D01*
X175048459Y-87507995D01*
X175080078Y-87505989D01*
X175108564Y-87499767D01*
X175130591Y-87490784D01*
X175150269Y-87478241D01*
X175166630Y-87463012D01*
X175180894Y-87444292D01*
X175203479Y-87394532D01*
X175217926Y-87322128D01*
X175222054Y-87239999D01*
X175222054Y-86660594D01*
X175471243Y-86660594D01*
X175471243Y-87213377D01*
X175469292Y-87281742D01*
X175463451Y-87344917D01*
X175454514Y-87399212D01*
X175442223Y-87449102D01*
X175427633Y-87492011D01*
X175410107Y-87531123D01*
X175390702Y-87564875D01*
X175368655Y-87595261D01*
X175344718Y-87621594D01*
X175318308Y-87644821D01*
X175258350Y-87681979D01*
X175186999Y-87707651D01*
X175101592Y-87721484D01*
X175048459Y-87723539D01*
G37*
G36*
X174308220Y-87704000D02*
G01*
X173998825Y-87704000D01*
X173907845Y-87249952D01*
X173874622Y-87053702D01*
X173867239Y-87007175D01*
X173860217Y-87007175D01*
X173826353Y-87217168D01*
X173819673Y-87249952D01*
X173725823Y-87704000D01*
X173410871Y-87704000D01*
X173230254Y-86660594D01*
X173468269Y-86660594D01*
X173535435Y-87136318D01*
X173550613Y-87263401D01*
X173574636Y-87467450D01*
X173581658Y-87467450D01*
X173607293Y-87325055D01*
X173641864Y-87136318D01*
X173751041Y-86660594D01*
X173961028Y-86660594D01*
X174067457Y-87136318D01*
X174129068Y-87467450D01*
X174134624Y-87467450D01*
X174176634Y-87136318D01*
X174242457Y-86660594D01*
X174498668Y-86660594D01*
X174308220Y-87704000D01*
G37*
G36*
X173221278Y-87704000D02*
G01*
X172966472Y-87704000D01*
X172906266Y-87463481D01*
X172598275Y-87463481D01*
X172538070Y-87704000D01*
X172274898Y-87704000D01*
X172409336Y-87270224D01*
X172645903Y-87270224D01*
X172858699Y-87270224D01*
X172836290Y-87181930D01*
X172760648Y-86864891D01*
X172756484Y-86846829D01*
X172750866Y-86846829D01*
X172712049Y-87005041D01*
X172668251Y-87181930D01*
X172645903Y-87270224D01*
X172409336Y-87270224D01*
X172598275Y-86660594D01*
X172897900Y-86660594D01*
X173221278Y-87704000D01*
G37*
G36*
X172076817Y-87704000D02*
G01*
X171767422Y-87704000D01*
X171676442Y-87249952D01*
X171643220Y-87053702D01*
X171635837Y-87007175D01*
X171628815Y-87007175D01*
X171594950Y-87217168D01*
X171588270Y-87249952D01*
X171494420Y-87704000D01*
X171179469Y-87704000D01*
X170998851Y-86660594D01*
X171236866Y-86660594D01*
X171304033Y-87136318D01*
X171319211Y-87263401D01*
X171343234Y-87467450D01*
X171350256Y-87467450D01*
X171375890Y-87325055D01*
X171410461Y-87136318D01*
X171519638Y-86660594D01*
X171729626Y-86660594D01*
X171836055Y-87136318D01*
X171897665Y-87467450D01*
X171903221Y-87467450D01*
X171945231Y-87136318D01*
X172011055Y-86660594D01*
X172267265Y-86660594D01*
X172076817Y-87704000D01*
G37*
G36*
X170989875Y-87704000D02*
G01*
X170735069Y-87704000D01*
X170674863Y-87463481D01*
X170366873Y-87463481D01*
X170306667Y-87704000D01*
X170043495Y-87704000D01*
X170177933Y-87270224D01*
X170414500Y-87270224D01*
X170627297Y-87270224D01*
X170604887Y-87181930D01*
X170529245Y-86864891D01*
X170525081Y-86846829D01*
X170519464Y-86846829D01*
X170480647Y-87005041D01*
X170436848Y-87181930D01*
X170414500Y-87270224D01*
X170177933Y-87270224D01*
X170366873Y-86660594D01*
X170666498Y-86660594D01*
X170989875Y-87704000D01*
G37*
G36*
X169935051Y-87704000D02*
G01*
X169621444Y-87704000D01*
X169565119Y-87702037D01*
X169511205Y-87696111D01*
X169462525Y-87686797D01*
X169416315Y-87673835D01*
X169374830Y-87658095D01*
X169335835Y-87638980D01*
X169300921Y-87617458D01*
X169268525Y-87592764D01*
X169239586Y-87565723D01*
X169213228Y-87535628D01*
X169189867Y-87502933D01*
X169169213Y-87467208D01*
X169136395Y-87386446D01*
X169115418Y-87291781D01*
X169107629Y-87181347D01*
X169107618Y-87176679D01*
X169363829Y-87176679D01*
X169365754Y-87229060D01*
X169371417Y-87276046D01*
X169380050Y-87315691D01*
X169391725Y-87350916D01*
X169405634Y-87380702D01*
X169422079Y-87406774D01*
X169440619Y-87428975D01*
X169461373Y-87447904D01*
X169510206Y-87477109D01*
X169570761Y-87495477D01*
X169650814Y-87502438D01*
X169684458Y-87502438D01*
X169684458Y-86859408D01*
X169650814Y-86859408D01*
X169603243Y-86861464D01*
X169558840Y-86868040D01*
X169524912Y-86877287D01*
X169493612Y-86890359D01*
X169468313Y-86905371D01*
X169445386Y-86923875D01*
X169426174Y-86944609D01*
X169409303Y-86968816D01*
X169383321Y-87027631D01*
X169367651Y-87104512D01*
X169363829Y-87176679D01*
X169107618Y-87176679D01*
X169109554Y-87117917D01*
X169115292Y-87063016D01*
X169124332Y-87013651D01*
X169136718Y-86967770D01*
X169151873Y-86926459D01*
X169170011Y-86888339D01*
X169190684Y-86853901D01*
X169214077Y-86822456D01*
X169268680Y-86768366D01*
X169334418Y-86725009D01*
X169412571Y-86692133D01*
X169504873Y-86670309D01*
X169613247Y-86660847D01*
X169635427Y-86660594D01*
X169935051Y-86660594D01*
X169935051Y-87704000D01*
G37*
G36*
X168497866Y-87723539D02*
G01*
X168446202Y-87721576D01*
X168397931Y-87715648D01*
X168356161Y-87706546D01*
X168317323Y-87693934D01*
X168283309Y-87678743D01*
X168251921Y-87660336D01*
X168224028Y-87639407D01*
X168198604Y-87615390D01*
X168155339Y-87558227D01*
X168121267Y-87486704D01*
X168096680Y-87397609D01*
X168082901Y-87286818D01*
X168080699Y-87213377D01*
X168080699Y-86660594D01*
X168321461Y-86660594D01*
X168321461Y-87239999D01*
X168323402Y-87296440D01*
X168329171Y-87345326D01*
X168337497Y-87382905D01*
X168348758Y-87415002D01*
X168361518Y-87439679D01*
X168376622Y-87460221D01*
X168393106Y-87476084D01*
X168411630Y-87488557D01*
X168455375Y-87504146D01*
X168497866Y-87507995D01*
X168529485Y-87505989D01*
X168557971Y-87499767D01*
X168579998Y-87490784D01*
X168599675Y-87478241D01*
X168616036Y-87463012D01*
X168630301Y-87444292D01*
X168652886Y-87394532D01*
X168667333Y-87322128D01*
X168671461Y-87239999D01*
X168671461Y-86660594D01*
X168920650Y-86660594D01*
X168920650Y-87213377D01*
X168918699Y-87281742D01*
X168912858Y-87344917D01*
X168903921Y-87399212D01*
X168891630Y-87449102D01*
X168877040Y-87492011D01*
X168859514Y-87531123D01*
X168840108Y-87564875D01*
X168818062Y-87595261D01*
X168794125Y-87621594D01*
X168767715Y-87644821D01*
X168707757Y-87681979D01*
X168636405Y-87707651D01*
X168550999Y-87721484D01*
X168497866Y-87723539D01*
G37*
G36*
X167269571Y-86635745D02*
G01*
X167323092Y-86645306D01*
X167375252Y-86658553D01*
X167426058Y-86675460D01*
X167475152Y-86695897D01*
X167522364Y-86719769D01*
X167567524Y-86746985D01*
X167610305Y-86777333D01*
X167650714Y-86810817D01*
X167688322Y-86847077D01*
X167723260Y-86886250D01*
X167755070Y-86927831D01*
X167783940Y-86972096D01*
X167809446Y-87018433D01*
X167831764Y-87067227D01*
X167850549Y-87117817D01*
X167865915Y-87170646D01*
X167877611Y-87225068D01*
X167885666Y-87281526D01*
X167890617Y-87375004D01*
X167888690Y-87432217D01*
X167883022Y-87486490D01*
X167873837Y-87537569D01*
X167861278Y-87585774D01*
X167845495Y-87631159D01*
X167826658Y-87673701D01*
X167780036Y-87750944D01*
X167721919Y-87817884D01*
X167652565Y-87874513D01*
X167572188Y-87920363D01*
X167481244Y-87954525D01*
X167380748Y-87975772D01*
X167276041Y-87982803D01*
X167218987Y-87980807D01*
X167163676Y-87974655D01*
X167113986Y-87965072D01*
X167065440Y-87951540D01*
X167019792Y-87934664D01*
X166974904Y-87913800D01*
X166962433Y-87907210D01*
X167015678Y-87772815D01*
X167094252Y-87805175D01*
X167141739Y-87818449D01*
X167190603Y-87827851D01*
X167256440Y-87832960D01*
X167305023Y-87831000D01*
X167352601Y-87825101D01*
X167397537Y-87815566D01*
X167440888Y-87802252D01*
X167480791Y-87785856D01*
X167518659Y-87765912D01*
X167552784Y-87743444D01*
X167584537Y-87717670D01*
X167612610Y-87689742D01*
X167638044Y-87658714D01*
X167659991Y-87625629D01*
X167679049Y-87589587D01*
X167694751Y-87551326D01*
X167707290Y-87510181D01*
X167716423Y-87466469D01*
X167722068Y-87419882D01*
X167724043Y-87369387D01*
X167722121Y-87317268D01*
X167716481Y-87267088D01*
X167694365Y-87171431D01*
X167658490Y-87083093D01*
X167609681Y-87003068D01*
X167548982Y-86932691D01*
X167477864Y-86873585D01*
X167398385Y-86827472D01*
X167356332Y-86809788D01*
X167313174Y-86795881D01*
X167269478Y-86785907D01*
X167225213Y-86779857D01*
X167180847Y-86777831D01*
X167129133Y-86779751D01*
X167081102Y-86785381D01*
X167037349Y-86794348D01*
X166997000Y-86806524D01*
X166960190Y-86821618D01*
X166926581Y-86839508D01*
X166868229Y-86883326D01*
X166820880Y-86937699D01*
X166784206Y-87002882D01*
X166758693Y-87079258D01*
X166745543Y-87166747D01*
X166744080Y-87209469D01*
X166745982Y-87251289D01*
X166751478Y-87290430D01*
X166760457Y-87327376D01*
X166772514Y-87361140D01*
X166787454Y-87391764D01*
X166804847Y-87418741D01*
X166824149Y-87441654D01*
X166845191Y-87460591D01*
X166866922Y-87474955D01*
X166889676Y-87485220D01*
X166933063Y-87492790D01*
X166956577Y-87490826D01*
X166975917Y-87484888D01*
X166989048Y-87476680D01*
X166999147Y-87465521D01*
X167010028Y-87435495D01*
X167008823Y-87389287D01*
X167003038Y-87360960D01*
X166968377Y-87193959D01*
X167148668Y-87193959D01*
X167187869Y-87405657D01*
X167213293Y-87436313D01*
X167236801Y-87457592D01*
X167254660Y-87468382D01*
X167272310Y-87474272D01*
X167287276Y-87475755D01*
X167306399Y-87473814D01*
X167323261Y-87468046D01*
X167336897Y-87459214D01*
X167348264Y-87447144D01*
X167363773Y-87413104D01*
X167368426Y-87372012D01*
X167360840Y-87309351D01*
X167350888Y-87275105D01*
X167337097Y-87242178D01*
X167320959Y-87213961D01*
X167301834Y-87189378D01*
X167283242Y-87172148D01*
X167262696Y-87159202D01*
X167243635Y-87152089D01*
X167223286Y-87149135D01*
X167220048Y-87149080D01*
X167202575Y-87150991D01*
X167186585Y-87156550D01*
X167159460Y-87178029D01*
X167148668Y-87193959D01*
X166968377Y-87193959D01*
X166928849Y-87003511D01*
X167080036Y-87003511D01*
X167105254Y-87070739D01*
X167108063Y-87070739D01*
X167121327Y-87047236D01*
X167136643Y-87028091D01*
X167153081Y-87013701D01*
X167171177Y-87002960D01*
X167212429Y-86991733D01*
X167228474Y-86990933D01*
X167290112Y-86998453D01*
X167349772Y-87020947D01*
X167406546Y-87058634D01*
X167458422Y-87111477D01*
X167502275Y-87178182D01*
X167534460Y-87255441D01*
X167545132Y-87296297D01*
X167551927Y-87338142D01*
X167554661Y-87386178D01*
X167552736Y-87423496D01*
X167547076Y-87458324D01*
X167538059Y-87489908D01*
X167525775Y-87518742D01*
X167510766Y-87544108D01*
X167492944Y-87566514D01*
X167472901Y-87585443D01*
X167450451Y-87601219D01*
X167426031Y-87613568D01*
X167399539Y-87622537D01*
X167341864Y-87629750D01*
X167290182Y-87622235D01*
X167232150Y-87598141D01*
X167204418Y-87580321D01*
X167179075Y-87559145D01*
X167148668Y-87523382D01*
X167144455Y-87523382D01*
X167137728Y-87545727D01*
X167127712Y-87565944D01*
X167097987Y-87600545D01*
X167055350Y-87626666D01*
X167000083Y-87642268D01*
X166958281Y-87645381D01*
X166889092Y-87637561D01*
X166854052Y-87627665D01*
X166819486Y-87613775D01*
X166786193Y-87596116D01*
X166754167Y-87574548D01*
X166724599Y-87549807D01*
X166696975Y-87521357D01*
X166672467Y-87490331D01*
X166650449Y-87455836D01*
X166631822Y-87419142D01*
X166616140Y-87379192D01*
X166603982Y-87337150D01*
X166595181Y-87292015D01*
X166588680Y-87202447D01*
X166590619Y-87148671D01*
X166596374Y-87096770D01*
X166605749Y-87047326D01*
X166618692Y-86999979D01*
X166634928Y-86955305D01*
X166654486Y-86912934D01*
X166677034Y-86873379D01*
X166702670Y-86836323D01*
X166731050Y-86802170D01*
X166762299Y-86770710D01*
X166796125Y-86742223D01*
X166832624Y-86716626D01*
X166871608Y-86694093D01*
X166913092Y-86674663D01*
X166957030Y-86658440D01*
X167003311Y-86645554D01*
X167052044Y-86636091D01*
X167102978Y-86630220D01*
X167159842Y-86628049D01*
X167269571Y-86635745D01*
G37*
G36*
X165921592Y-87723539D02*
G01*
X165831186Y-87716157D01*
X165743069Y-87694219D01*
X165661853Y-87658916D01*
X165625691Y-87637099D01*
X165593743Y-87613374D01*
X165574401Y-87596166D01*
X165574401Y-87108841D01*
X165962197Y-87108841D01*
X165962197Y-87313211D01*
X165796967Y-87313211D01*
X165796967Y-87481372D01*
X165831560Y-87498259D01*
X165885435Y-87507724D01*
X165896374Y-87507995D01*
X165937348Y-87506054D01*
X165975074Y-87500286D01*
X166007906Y-87491341D01*
X166037845Y-87479087D01*
X166064081Y-87464142D01*
X166087640Y-87446224D01*
X166126633Y-87401947D01*
X166155814Y-87345004D01*
X166174801Y-87273046D01*
X166181955Y-87180221D01*
X166180031Y-87134772D01*
X166174382Y-87092349D01*
X166165378Y-87053713D01*
X166153126Y-87018198D01*
X166138123Y-86986496D01*
X166120324Y-86957985D01*
X166100273Y-86933172D01*
X166077837Y-86911617D01*
X166053457Y-86893593D01*
X166027045Y-86878927D01*
X165968800Y-86860026D01*
X165917379Y-86855256D01*
X165883698Y-86857149D01*
X165853160Y-86862589D01*
X165798733Y-86883233D01*
X165747269Y-86918004D01*
X165725587Y-86936955D01*
X165592597Y-86776854D01*
X165625646Y-86746753D01*
X165663460Y-86718527D01*
X165700522Y-86696171D01*
X165741370Y-86676706D01*
X165781633Y-86662156D01*
X165825095Y-86651032D01*
X165868518Y-86644190D01*
X165914799Y-86641167D01*
X165925805Y-86641055D01*
X165973161Y-86642999D01*
X166019424Y-86648797D01*
X166064078Y-86658314D01*
X166107236Y-86671523D01*
X166148228Y-86688157D01*
X166187353Y-86708295D01*
X166223893Y-86731521D01*
X166258231Y-86758050D01*
X166289708Y-86787356D01*
X166318680Y-86819769D01*
X166344618Y-86854731D01*
X166367763Y-86892624D01*
X166387739Y-86932950D01*
X166404639Y-86976055D01*
X166418211Y-87021579D01*
X166428411Y-87069758D01*
X166435058Y-87120411D01*
X166438020Y-87173620D01*
X166438166Y-87188647D01*
X166436237Y-87243914D01*
X166430551Y-87296225D01*
X166421389Y-87345013D01*
X166408850Y-87390892D01*
X166393205Y-87433559D01*
X166374519Y-87473340D01*
X166352948Y-87510204D01*
X166328626Y-87544167D01*
X166271849Y-87603738D01*
X166204553Y-87652064D01*
X166126961Y-87688714D01*
X166039391Y-87712824D01*
X165942510Y-87723220D01*
X165921592Y-87723539D01*
G37*
G36*
X165364779Y-87704000D02*
G01*
X165140748Y-87704000D01*
X165140748Y-87346428D01*
X165147276Y-87217003D01*
X165171915Y-86992726D01*
X165172988Y-86984033D01*
X165167370Y-86984033D01*
X165083351Y-87233832D01*
X164941995Y-87615584D01*
X164804792Y-87615584D01*
X164664779Y-87233832D01*
X164577951Y-86984033D01*
X164572394Y-86984033D01*
X164573712Y-86994758D01*
X164593861Y-87171211D01*
X164601521Y-87263301D01*
X164604573Y-87346123D01*
X164604573Y-87704000D01*
X164376390Y-87704000D01*
X164376390Y-86660594D01*
X164647988Y-86660594D01*
X164807539Y-87110367D01*
X164835218Y-87202391D01*
X164864997Y-87301243D01*
X164871958Y-87301243D01*
X164892045Y-87232384D01*
X164929355Y-87110367D01*
X165094586Y-86660594D01*
X165364779Y-86660594D01*
X165364779Y-87704000D01*
G37*
G36*
X164269289Y-87704000D02*
G01*
X164014483Y-87704000D01*
X163954277Y-87463481D01*
X163646287Y-87463481D01*
X163586081Y-87704000D01*
X163322909Y-87704000D01*
X163457347Y-87270224D01*
X163693914Y-87270224D01*
X163906711Y-87270224D01*
X163884301Y-87181930D01*
X163808659Y-86864891D01*
X163804495Y-86846829D01*
X163798877Y-86846829D01*
X163760060Y-87005041D01*
X163716262Y-87181930D01*
X163693914Y-87270224D01*
X163457347Y-87270224D01*
X163646287Y-86660594D01*
X163945912Y-86660594D01*
X164269289Y-87704000D01*
G37*
G36*
X163214465Y-87704000D02*
G01*
X162963872Y-87704000D01*
X162963872Y-86660594D01*
X163214465Y-86660594D01*
X163214465Y-87704000D01*
G37*
G36*
X162725003Y-87704000D02*
G01*
X162069821Y-87704000D01*
X162069821Y-87494012D01*
X162474409Y-87494012D01*
X162474409Y-86660594D01*
X162725003Y-86660594D01*
X162725003Y-87704000D01*
G37*
G36*
X161763663Y-87723539D02*
G01*
X161716595Y-87716096D01*
X161675533Y-87694591D01*
X161642971Y-87660424D01*
X161630828Y-87639232D01*
X161621990Y-87615891D01*
X161615285Y-87568200D01*
X161622759Y-87518611D01*
X161644395Y-87474982D01*
X161659925Y-87456607D01*
X161678202Y-87441074D01*
X161698600Y-87428907D01*
X161721124Y-87420170D01*
X161763663Y-87414144D01*
X161788287Y-87416050D01*
X161811273Y-87421577D01*
X161852322Y-87442935D01*
X161884660Y-87476780D01*
X161896716Y-87497815D01*
X161905466Y-87520946D01*
X161912101Y-87568200D01*
X161910187Y-87594332D01*
X161904602Y-87618981D01*
X161895454Y-87642085D01*
X161883035Y-87662992D01*
X161867649Y-87681303D01*
X161849503Y-87696758D01*
X161829257Y-87708816D01*
X161806820Y-87717484D01*
X161763663Y-87723539D01*
G37*
G36*
X160957234Y-87723539D02*
G01*
X160912294Y-87721587D01*
X160868905Y-87715738D01*
X160828175Y-87706299D01*
X160789052Y-87693179D01*
X160752146Y-87676667D01*
X160716928Y-87656603D01*
X160651954Y-87606004D01*
X160617065Y-87569544D01*
X160748651Y-87412496D01*
X160776259Y-87439504D01*
X160807161Y-87463402D01*
X160836506Y-87480794D01*
X160868196Y-87494435D01*
X160898368Y-87502895D01*
X160930316Y-87507384D01*
X160947464Y-87507995D01*
X160978996Y-87506054D01*
X161008748Y-87500286D01*
X161035963Y-87491045D01*
X161061289Y-87478312D01*
X161105666Y-87442902D01*
X161141926Y-87393710D01*
X161169208Y-87329612D01*
X161185734Y-87249323D01*
X161189631Y-87179549D01*
X161187716Y-87134159D01*
X161182129Y-87091800D01*
X161173145Y-87052719D01*
X161160983Y-87016849D01*
X161145993Y-86984512D01*
X161128327Y-86955540D01*
X161108425Y-86930269D01*
X161086343Y-86908490D01*
X161062575Y-86890477D01*
X161037105Y-86876068D01*
X161010389Y-86865434D01*
X160982419Y-86858523D01*
X160944655Y-86855256D01*
X160914808Y-86857157D01*
X160886961Y-86862649D01*
X160834238Y-86884210D01*
X160780821Y-86921867D01*
X160764038Y-86936711D01*
X160632452Y-86776854D01*
X160664368Y-86747239D01*
X160700472Y-86719610D01*
X160737234Y-86696681D01*
X160777250Y-86676823D01*
X160816587Y-86661915D01*
X160858423Y-86650644D01*
X160899294Y-86643895D01*
X160942133Y-86641106D01*
X160948869Y-86641055D01*
X160993945Y-86642999D01*
X161038164Y-86648796D01*
X161081196Y-86658362D01*
X161122928Y-86671650D01*
X161162832Y-86688462D01*
X161201015Y-86708831D01*
X161236843Y-86732400D01*
X161270567Y-86759339D01*
X161301554Y-86789147D01*
X161330088Y-86822130D01*
X161355626Y-86857714D01*
X161378389Y-86896287D01*
X161397966Y-86937290D01*
X161414457Y-86981119D01*
X161427575Y-87027307D01*
X161437296Y-87076182D01*
X161443415Y-87127424D01*
X161445813Y-87181235D01*
X161445842Y-87187975D01*
X161443917Y-87243682D01*
X161438256Y-87296383D01*
X161429106Y-87345748D01*
X161416609Y-87392128D01*
X161400981Y-87435405D01*
X161382360Y-87475695D01*
X161360849Y-87513092D01*
X161336666Y-87547466D01*
X161280395Y-87607608D01*
X161214226Y-87655967D01*
X161138814Y-87692015D01*
X161055027Y-87714882D01*
X160964152Y-87723497D01*
X160957234Y-87723539D01*
G37*
G36*
X160143609Y-86643000D02*
G01*
X160190202Y-86648801D01*
X160233694Y-86658138D01*
X160275092Y-86671055D01*
X160313501Y-86687130D01*
X160349687Y-86706548D01*
X160383069Y-86728907D01*
X160414091Y-86754423D01*
X160442473Y-86782857D01*
X160468329Y-86814322D01*
X160512151Y-86886348D01*
X160544901Y-86970940D01*
X160565483Y-87068693D01*
X160572429Y-87176740D01*
X160570495Y-87234978D01*
X160564774Y-87290345D01*
X160555571Y-87341909D01*
X160542937Y-87390548D01*
X160527286Y-87435433D01*
X160508539Y-87477352D01*
X160487164Y-87515652D01*
X160462996Y-87550942D01*
X160436469Y-87582795D01*
X160407415Y-87611578D01*
X160376125Y-87637085D01*
X160342535Y-87659430D01*
X160268755Y-87694411D01*
X160186242Y-87716066D01*
X160095057Y-87723539D01*
X160047817Y-87721597D01*
X160002428Y-87715819D01*
X159959716Y-87706468D01*
X159919003Y-87693546D01*
X159880900Y-87677366D01*
X159844945Y-87657843D01*
X159811495Y-87635232D01*
X159780357Y-87609457D01*
X159725457Y-87548732D01*
X159680731Y-87475661D01*
X159647018Y-87390026D01*
X159625512Y-87291563D01*
X159617690Y-87180110D01*
X159617684Y-87176740D01*
X159872429Y-87176740D01*
X159874361Y-87228284D01*
X159880066Y-87276154D01*
X159888994Y-87318558D01*
X159901171Y-87357181D01*
X159915653Y-87390227D01*
X159932861Y-87419531D01*
X159951573Y-87443682D01*
X159972550Y-87464202D01*
X159994623Y-87480289D01*
X160018607Y-87492820D01*
X160043796Y-87501514D01*
X160070664Y-87506596D01*
X160095057Y-87507995D01*
X160123622Y-87506060D01*
X160150492Y-87500330D01*
X160175237Y-87491087D01*
X160198206Y-87478381D01*
X160239009Y-87442503D01*
X160272813Y-87391700D01*
X160298362Y-87324357D01*
X160313397Y-87239142D01*
X160316219Y-87176740D01*
X160314286Y-87125273D01*
X160308571Y-87077813D01*
X160299704Y-87036385D01*
X160287615Y-86998873D01*
X160273296Y-86967077D01*
X160256279Y-86939021D01*
X160237727Y-86915962D01*
X160216911Y-86896461D01*
X160194801Y-86881134D01*
X160170735Y-86869278D01*
X160117696Y-86856381D01*
X160095057Y-86855256D01*
X160065507Y-86857195D01*
X160037734Y-86862954D01*
X160012406Y-86872180D01*
X159988925Y-86884882D01*
X159947759Y-86920450D01*
X159914151Y-86970473D01*
X159889140Y-87036573D01*
X159874800Y-87120392D01*
X159872429Y-87176740D01*
X159617684Y-87176740D01*
X159619618Y-87118818D01*
X159625340Y-87063916D01*
X159634514Y-87013063D01*
X159647101Y-86965222D01*
X159662667Y-86921244D01*
X159681306Y-86880269D01*
X159702560Y-86842902D01*
X159726587Y-86808545D01*
X159753020Y-86777528D01*
X159781974Y-86749558D01*
X159846919Y-86703017D01*
X159921238Y-86668994D01*
X160004952Y-86648017D01*
X160095057Y-86641055D01*
X160143609Y-86643000D01*
G37*
G36*
X159424793Y-87704000D02*
G01*
X159200762Y-87704000D01*
X159200762Y-87346428D01*
X159207290Y-87217003D01*
X159231929Y-86992726D01*
X159233002Y-86984033D01*
X159227384Y-86984033D01*
X159143364Y-87233832D01*
X159002009Y-87615584D01*
X158864806Y-87615584D01*
X158724793Y-87233832D01*
X158637965Y-86984033D01*
X158632408Y-86984033D01*
X158633726Y-86994758D01*
X158653875Y-87171211D01*
X158661535Y-87263301D01*
X158664587Y-87346123D01*
X158664587Y-87704000D01*
X158436404Y-87704000D01*
X158436404Y-86660594D01*
X158708002Y-86660594D01*
X158867553Y-87110367D01*
X158895232Y-87202391D01*
X158925011Y-87301243D01*
X158931972Y-87301243D01*
X158952059Y-87232384D01*
X158989369Y-87110367D01*
X159154600Y-86660594D01*
X159424793Y-86660594D01*
X159424793Y-87704000D01*
G37*
M02*
